/* XPM */
static char *result[] = {
/* columns rows colors chars-per-pixel */
"48 48 209 2 ",
"   c #9BB94E",
".  c #9DB35B",
"X  c #84AB62",
"o  c #79A863",
"O  c #A3B35E",
"+  c #BFBA5B",
"@  c #B2BA56",
"#  c #A9B953",
"$  c #B1BA56",
"%  c #9CAA65",
"&  c #B1B35F",
"*  c #B6BA58",
"=  c #A6B45E",
"-  c #A1B558",
";  c #81AC5E",
":  c #A8B953",
">  c #A1B950",
",  c #8FB356",
"<  c #96B651",
"1  c #85AE5B",
"2  c #8DB256",
"3  c #93B553",
"4  c #A4B951",
"5  c #95B358",
"6  c #7EAB60",
"7  c #87AF5B",
"8  c #9EB754",
"9  c #6A9572",
"0  c #679175",
"q  c #6B9771",
"w  c #6E9A6E",
"e  c #B9BA59",
"r  c #73A069",
"t  c #739B6C",
"y  c #6F976F",
"u  c #7C9B6F",
"i  c #89AD5B",
"p  c #87A06C",
"a  c #AAB061",
"s  c #4B5B3B",
"d  c #161C2E",
"f  c #969450",
"g  c #BCB255",
"h  c #BAAD52",
"j  c #C6A853",
"k  c #CEA554",
"l  c #2B3533",
"z  c #57563C",
"x  c #60533D",
"c  c #B8B154",
"v  c #ACB652",
"b  c #9FA564",
"n  c #313535",
"m  c #959B3B",
"M  c #E9F044",
"N  c #D4B750",
"B  c #364236",
"V  c #C1B75A",
"C  c #C8AD57",
"Z  c #82814B",
"A  c #D9C34E",
"S  c #E3DE48",
"D  c #626836",
"F  c #6A7137",
"G  c #7B9346",
"H  c #BCB155",
"J  c #C2AA53",
"K  c #C7CE40",
"L  c #DED24A",
"P  c #333234",
"I  c #6A6E79",
"U  c #ABADB4",
"Y  c #B18F4E",
"T  c #A2844B",
"R  c #A7B44F",
"E  c #383E32",
"W  c white",
"Q  c #3B404F",
"!  c #8E893F",
"~  c #E5E447",
"^  c #423D37",
"/  c #B1A957",
"(  c #667A41",
")  c #785F46",
"_  c #3F4239",
"`  c #93AA5C",
"'  c #BAA658",
"]  c #9BA75D",
"[  c #F6F9B4",
"{  c #F2F68F",
"}  c #BA8B56",
"|  c #52423F",
" . c #7CA165",
".. c #9BB254",
"X. c #263236",
"o. c #FBFDE1",
"O. c #FAFBD2",
"+. c #AC7A58",
"@. c #3A3338",
"#. c #B98F73",
"$. c #765849",
"%. c #B6BD3F",
"&. c #C69B55",
"*. c #B48457",
"=. c #73845B",
"-. c #ACA65A",
";. c #AEB65D",
":. c #88AB5C",
">. c #EEF471",
",. c #978D8C",
"<. c #2E2B35",
"1. c #494F33",
"2. c #88634E",
"3. c #A2B153",
"4. c #AFB150",
"5. c #92AE60",
"6. c #B4B75C",
"7. c #584D3C",
"8. c #6B8042",
"9. c #DFD54A",
"0. c #C29655",
"q. c #B18157",
"w. c #6F8D4E",
"e. c #9AB35B",
"r. c #5A5B40",
"t. c #846E45",
"y. c #C09456",
"u. c #705447",
"i. c #515B3D",
"p. c #CFD384",
"a. c #DAD449",
"s. c #7B7B49",
"d. c #95AF60",
"f. c #8AAC61",
"g. c #C2AD55",
"h. c #F7FABC",
"j. c #BB9653",
"k. c #62744C",
"l. c #C2A451",
"z. c #51704E",
"x. c #8DA75F",
"c. c #D2B151",
"v. c #B4AA55",
"b. c #8FAC5C",
"n. c #DFDD47",
"m. c #A4A154",
"M. c #89A465",
"N. c #89944C",
"B. c #737B46",
"V. c #C3B559",
"C. c #59714B",
"Z. c #A3B64F",
"A. c #29383F",
"S. c #8EA04C",
"D. c #B4B554",
"F. c #46553A",
"G. c #86A049",
"H. c #CAAA56",
"J. c #69925B",
"K. c #758D50",
"L. c #8CA74A",
"P. c #7A984D",
"I. c #829C48",
"U. c #749550",
"Y. c #B6B253",
"T. c #9F9C53",
"R. c #8A884D",
"E. c #808849",
"W. c #718844",
"Q. c #63814C",
"!. c #A3A64E",
"~. c #ADB452",
"^. c #627E51",
"/. c #5A7C52",
"(. c #607F4F",
"). c #5E7E50",
"_. c #A09553",
"`. c #A49653",
"'. c #618756",
"]. c #B29B54",
"[. c #A59750",
"{. c #A9994E",
"}. c #BB9E54",
"|. c #888C53",
" X c #6D965C",
".X c #969C4F",
"XX c #878F48",
"oX c #96944A",
"OX c #8E8F4F",
"+X c #6D8352",
"@X c #567657",
"#X c #4E6C5F",
"$X c #618868",
"%X c #7A8847",
"&X c #778846",
"*X c #6B8547",
"=X c #68834A",
"-X c #77885E",
";X c #9DA651",
":X c #7B8848",
">X c #77834F",
",X c #727D54",
"<X c #647659",
"1X c #B7B259",
"2X c #8AA54A",
"3X c #7B9446",
"4X c #758845",
"5X c #90A54C",
"6X c #AAA655",
/* pixels */
"  . X o O + + @ #       $ + % & + + # * + + # # + = o o - *       . X o O + + @ #       $ + % & ",
"o o o o ;           : + # * + + @ >     + # , o o o o o <     , o o o o ;           : + # * + + ",
"o 1   2 o ; 3     4 # >     # >           5 6 o o o o o o o 7 o o 1   2 o ; 3     4 # >     # > ",
"; 2                 , 7             3 2 o o o <   ; 1 2 o o o 1 ; 2                 , 7         ",
"  2         , 7   , o o 2           : 4   3 2     3       2 2     2         , 7   , o o 2       ",
"          , o o o o o o ; 7       $ + + $ $ + + $         7 7             , o o o o o o ; 7     ",
"7 o o 7 7 o o o o o o o o o o 1 8 # + + + + + X o ; 6 o o o o o 7 o o 7 7 o o o o o o o o o o 1 ",
"o o o 9 0 q 2 2 2 2 w w o 1     : $ e + + > 2 <   2 2 o o o o o o o o 9 0 q 2 2 2 2 w w o 1     ",
"r 0 q 0 0 0 0 0 t y % u 0 i   e + + + + @       3 ; o o o o o o r 0 q 0 0 0 0 0 t y % u 0 i   e ",
"0 p & + a 0 & + a & + + % % @ > s d f + g h j k k   3 2 ; o o o 0 p & + a 0 & + a & + + % % @ > ",
"p + + + + & + + + + + + + + # l d k d z x c v 4         3 O O % b + + + + & + + + + + + + + # $ ",
"+ + + # * + + # + + # + + + n m M N x d d B             $ > 4 + V C + # * + + # + + # + + + + + ",
"  * #     @       >   $ + Z d M A S d D F d d d B G               H J     @       >   $ + + + + ",
"          >           4 # n K M L P I U d Y k k T d B G             R J   >           4 # #   4 ",
"4         , 7             d M E d d W Q ! ~ S N k k ^ d G : e + 4     R J , 7                   ",
"+ + X o 7 1 ; ;       7 / d d ( d d d D M M M M L k k ) d _ + + + + X o ` ' ; ;       7 3       ",
"2 2 < 3 2     2 <   6 o ] 7 6 ;   2 d [ W { M M M M A } | d d # 2 2 < 3 2 h   2 <   6 o o 7 6 ; ",
" ., 6 ; , 7 o o 3 , o 1 ..o o 1 2 X.d o.W W O.M M M M N +.+.@.B  ., 6 ; , ` ' o 3 , o 1 2 o o 1 ",
"% q o o o o o o o o o             d m W W #.$.%.M M M A &.*.+.d =.q o o o o -.o o o o           ",
"+ a & ;.o   2   3 o ; 7 7 7     :.d K >.O.,.<.d 1.M M S k k +.2._ a & ;.o   3.4.3 o ; 7 7 7     ",
"  * + + + $       o o 5.O O O 6.% d F M M d 7.d M M M M k k +.+.@.f + + + $   J   o o 5.O O O 6.",
"        # >     3 8 # # # # # >   s d M M d T T S M M M N k +.+.| (     # >   h 3 8 # # # # # > ",
"o ; 7 o o o       h           $ $ 8.d m 9.^ d d d d T 0.q.+.+.+.d d w.o o o   R 4.            $ ",
"1 2 2 e.+ ;.      h     : $ e + r.d m K L k M F d t.^ k &.y.+.2.u.@.d e.+ ;.    4.      : $ e + ",
": e * e + + #     h       4 * i.d p.W O.M a.M M m F d M M A } +.+.2.d s.+ + #   4.        4 * > ",
"d.d.d.d.o f.+ + * g.$ 7 3     l d [ W h.a.+.j.F d d D M M M k +.+.+.d k.o f.+ + H $ $ 7 3       ",
"1 < 3 o o o o o o -.o o o o o d d >.h.M M M +.+.l.1.M M M 9.k +.+.$.d z.o o o o ] o o o o o o 7 ",
"        3 o 1 2 ; x.] o o o 1 d d S M M M M j.l.M M M M 9.c.k +.+.d d   3 o 1 v.b.o o o o o 1 2 ",
"    e + 4 o       < 4.2       s d k S M M M a.n.M M M 9.k k } +.<.d m.+ 4 o   h   <   2         ",
"M.$ + + + ;.<       J $ $ + + N.d T L M M M M M M M 9.c.k k q.$.d B.+ + + ;.< j     : $ $ + + # ",
"+ + + + + + $     + C V.+ + # :.C.^ k N A S M M A c.k k 0.q.<.d m.+ + + + + $ Z.  + + + + + # :.",
"* + + d.+ + + $ 4     4.      0 % A.^ k k k k k k k k k | <.d S.* + + d.+ + + $ 4             0 ",
"  . X o O + + @ #     J D.+ % & + + B d T k k k k } x d F.B.G.    . X o O + + @ #       $ + % & ",
"o o o o ;           : + H.* + + @ >   G d d d d d d z.J.<     , o o o o ;           : + # * + + ",
"o 1   2 o ; 3     4 # > R J # >           K.z.z.o o o o o o 7 o o 1   2 o ; 3     4 # >     # > ",
"; 2                 , 7   R         3 2 o o o <   ; 1 2 o o o 1 ; 2                 , 7         ",
"  2         , 7   , o o 2           : 4   3 2   L.P.I.I.I.U.2     2         , 7   , o o 2       ",
"          , o o o o o o ; 7     k Y.+ + $ $ T.R.E.W.W.W.W.Q.Q.W.!.4.      , o o o o o o ; 7     ",
"7 o o 7 7 o o o o o o o o o o 1 8 ~.k H.V.R.R.^./.(.)./././._.k `.'.o 7 7 o o o o o o o o o o 1 ",
"o o o 9 0 q 2 2 2 2 w w o 1     : $ e V.H.k ].[.{._._.}.k k |./././. X9 0 q 2 2 2 2 w w o 1     ",
"r 0 q 0 0 0 0 0 t y % u 0 i   e + + + + .XW.XXoXoXOX|.+X/./././.@X#X$X0 0 0 0 0 t y % u 0 i   e ",
"0 p & + a 0 & + a & + + % % @ >     * + * %X&XW.W.W.*X=X(./././.#X-X& + a 0 & + a & + + % % @ > ",
"p + + + + & + + + + + + + + # $ 4     4 + ;X:X&XW.W.W.W.*X>X>X,X<X1X+ + + & + + + + + + + + # $ ",
"+ + + # * + + # + + # + + + + + +   : 4       2X3XW.W.W.E.4X5X6X+ + + # * + + # + + # + + + + + ",
"  * #     @       >   $ + + + + + $ + + * $ $ $ $                 * #     @       >   $ + + + + ",
"          >           4 # #   4 # # # #   , 7 7 3                         >           4 # #   4 ",
"4         , 7                         , 6 o o o o 6 o ;   : e + 4         , 7                   ",
"+ + X o 7 1 ; ;       7 3           7 o o 2 2 ; o o o o d.;.+ + + + X o 7 1 ; ;       7 3       "
};
