/* XPM */
static char *result[] = {
/* columns rows colors chars-per-pixel */
"48 48 178 2 ",
"   c #161C2E",
".  c #1B3434",
"X  c #212439",
"o  c #2B2B38",
"O  c #232F39",
"+  c #20303C",
"@  c #2D3D3C",
"#  c #2B3533",
"$  c #35333D",
"%  c #45393A",
"&  c #1E4036",
"*  c #364236",
"=  c #34483A",
"-  c #3F4239",
";  c #24583C",
":  c #4B5B3B",
">  c #46563B",
",  c #52583E",
"<  c #737037",
"1  c #292941",
"2  c #263D44",
"3  c #32304A",
"4  c #3B3449",
"5  c #3E3942",
"6  c #393451",
"7  c #3D3258",
"8  c #3C3854",
"9  c #443D45",
"0  c #433D5B",
"q  c #4B3B55",
"w  c #503D6C",
"e  c #483A62",
"r  c #314B51",
"t  c #355857",
"y  c #2A7643",
"u  c #2C7C44",
"i  c #35674D",
"p  c #4A4246",
"a  c #474647",
"s  c #475942",
"d  c #5B5C41",
"f  c #5A524D",
"g  c #5A4E53",
"h  c #5D5050",
"j  c #54494D",
"k  c #644C42",
"l  c #685757",
"z  c #625950",
"x  c #635553",
"c  c #715E59",
"v  c #51704E",
"b  c #5A7449",
"n  c #5A7C52",
"m  c #496643",
"M  c #676C44",
"N  c #667A41",
"B  c #607F4F",
"V  c #6E7A44",
"C  c #7B7B49",
"Z  c #78655D",
"A  c #627E51",
"S  c #4F4269",
"D  c #4B4164",
"F  c #584673",
"G  c #564470",
"H  c #534565",
"J  c #6E4F6F",
"K  c #60467D",
"L  c #624A7E",
"P  c #78557F",
"I  c #417168",
"U  c #756265",
"Y  c #897861",
"T  c #8C7266",
"R  c #8F7568",
"E  c #308E49",
"W  c #39974B",
"Q  c #3D8B5F",
"!  c #3C9A5A",
"~  c #38B251",
"^  c #3F8162",
"/  c #46964D",
"(  c #6B8244",
")  c #68834A",
"_  c #66874D",
"`  c #718844",
"'  c #7B9346",
"]  c #78954C",
"[  c #638957",
"{  c #749A58",
"}  c #54A752",
"|  c #68A353",
" . c #6F976F",
".. c #6E9A6E",
"X. c #7C9B6F",
"o. c #739B6C",
"O. c #679175",
"+. c #6B9671",
"@. c #668E63",
"#. c #79A863",
"$. c #73A069",
"%. c #78A163",
"&. c #5DC058",
"*. c #70C75B",
"=. c #7FCD5E",
"-. c #82884A",
";. c #8A884D",
":. c #82814B",
">. c #829C48",
",. c #8A964B",
"<. c #92954E",
"1. c #969450",
"2. c #BA8157",
"3. c #89A54B",
"4. c #9BB94E",
"5. c #85AE5C",
"6. c #89AC5B",
"7. c #86A355",
"8. c #8EB256",
"9. c #81B75A",
"0. c #94B552",
"q. c #9EB754",
"w. c #9BB35A",
"e. c #93A64D",
"r. c #A7A455",
"t. c #B5A957",
"y. c #A3B951",
"u. c #A9B953",
"i. c #A3B35E",
"p. c #AEB65D",
"a. c #B1BA56",
"s. c #B1B35F",
"d. c #B6BA58",
"f. c #BFBA5B",
"g. c #9B9074",
"h. c #A7906F",
"j. c #84AB62",
"k. c #87A06C",
"l. c #8AA863",
"z. c #9FA061",
"x. c #95AF60",
"c. c #9CAA65",
"v. c #AAB061",
"b. c #B7A47E",
"n. c #D9945F",
"m. c #CFA35D",
"M. c #D8A25D",
"N. c #C5B15C",
"B. c #E2A959",
"V. c #E8B655",
"C. c #C19D62",
"Z. c #95D562",
"A. c #F0C94F",
"S. c #F2D64B",
"D. c #FFED44",
"F. c #FFF171",
"G. c #654B82",
"H. c #6D4F8B",
"J. c #615F84",
"K. c #775396",
"L. c #7F5897",
"P. c #606980",
"I. c #855D80",
"U. c #8B5F98",
"Y. c #895E97",
"T. c #986899",
"R. c #916389",
"E. c #A8719A",
"W. c #B7AB87",
"Q. c #D5B583",
"!. c #DFC793",
"~. c #FFF48F",
"^. c #E9D6A1",
"/. c #EFE1AB",
"(. c #F0E0A5",
"). c #FFF8B4",
"_. c #FFFBD2",
"`. c white",
/* pixels */
"4.w.j.#.i.N.f.a.u.4.4.4.a.f.x.s.f.f.u.d.f.f.u.u.f.v.#.#.i.d.4.4.4.w.j.#.v.f.f.a.u.4.4.4.a.f.c.s.",
"#.#.#.#.#.4.4.4.4.4.u.N.u.d.f.f.d.y.4.4.f.u.8.#.#.#.#.#.0.4.4.8.#.#.#.#.#.4.4.4.4.4.y.f.u.d.f.f.",
"#.5.4.8.#.5.0.4.4.y.u.y.4.4.u.y.4.4.4.4.y.0.#.#.#.#.#.#.#.#.5.#.#.5.4.8.#.5.0.4.4.y.u.y.4.4.u.y.",
"5.8.4.4.4.4.4.4.4.4.8.5.4.4.4.4.4.4.0.8.#.#.#.0.4.#.9.0.#.#.#.5.5.8.4.4.4.4.4.4.4.4.0.5.4.4.4.4.",
"4.8.4.4.4.4.8.9.4.8.#.#.8.4.4.4.4.4.u.y.4.0.8.4.4.0.4.4.4.0.8.4.4.8.4.4.4.4.8.5.4.8.#.#.8.4.4.4.",
"4.4.4.4.4.8.#.#.#.#.#.#.5.5.4.4.4.a.f.f.a.d.f.f.a.4.4.4.4.5.5.4.4.4.4.4.4.8.#.#.#.#.#.#.5.5.4.4.",
"5.#.#.5.6.#.#.#.#.#.#.#.#.#.#.5.q.u.f.f.f.f.f.5.#.5.#.#.#.#.#.#.5.#.#.5.5.#.#.#.#.#.#.#.#.#.#.5.",
"#.#.#.+.O.+.8.8.8.8.....#.5.4.4.u.a.d.f.f.q.8.0.4.8.8.#.#.#.#.#.#.#.#.+.O...8.8.8.8.....#.5.4.4.",
"$.O.+.O.O.O.O.O.o...c.X.+.5.4.d.f.f.f.f.a.4.4.4.0.#.#.#.#.#.#.#.$.O.+.O.O.O.O.O.o...v.$.O.5.4.d.",
"O.k.s.N.v.O.s.N.v.v.f.N.c.c.a.y.4.4.d.N.d.u.y.4.4.4.0.8.5.#.#.#.O.k.s.f.v.O.s.f.v.v.f.f.c.c.d.y.",
"k.m.n.A.S.t.N.N.f.f.f.f.f.f.u.a.y.4.4.y.N.a., q : ' 4.4.0.i.w.c.k.f.f.N.f.s.f.f.N.f.f.f.N.f.u.a.",
"f.V.D.D.D.B.n.u.f.f.u.f.f.f.f.f.f.4.u.y.4.4.: J P   * 4.a.y.y.f.f.f.f.u.d.f.f.u.f.f.u.f.f.f.f.f.",
"a.A.D.`.~.D.n.t.( , : a.N.f.f.f.f.a.f.f.d.a.  R.Y.K   @ 4.4.4.4.4.a.y.4.4.a.4.4.4.y.4.d.f.f.f.f.",
"n.D.D.D.D.D.S.n.2.n.% ( u.u.4.y.u.u.u.u.4.# q E.Y.E.0 X * 4.4.4.4.4.4.4.4.y.4.4.4.4.4.y.u.u.4.y.",
"V.M.n.n.A.D.D.D.D.D.B.  4.4.4.4.4.` #       E.E.Y.D 0 6 6 X   1.@ m _   4.8.8.4.4.4.4.4.4.4.4.4.",
"n.m.z.z.n.D.)._.F.D.D.k ' 4.4.4.4.y } *./   I.Y.F 3 6 G 0 D 6     Z.. v 5.5.#.5.4.4.4.9.0.4.4.4.",
"6.8.0.0.t.S.D.`.D.(.Q.h.  ` #.5.4.* m Z.=.E 3 K.S K.L D 0 3 1     W   0.8.4.4.8.0.4.#.#.#.5.#.5.",
"X.8.j.5.`   k < f /.^./.h.  #.5.0.0.* = Z.~ ^ r K.0 0 0 w G.G.0 0 X v 5.0.5.#.#.0.8.#.5.0.#.#.5.",
"c. .#.#.#.#.v v Y f W.g.b.a N 4.4.4.4.  [ ~ ^ I K.K.K.K.G.0 0 0 0 0 v #.#.#.#.#.#.#.#.4.4.4.4.4.",
"f.p.s.v.#.q.8.4.  f !.  b.5 N 4.6.%.O     ~ ! I K.K.K.D 0 0 0 0 0 0   p.#.4.8.4.0.#.5.6.5.5.4.0.",
"4.d.f.f.f.a.4.4.= z z a $ , p.s.c.:.D J 1 ! I r G.G.D 3 o 1   y y y & - 1.s.4.4.4.#.#.x.i.i.v.d.",
"4.4.4.4.u.y.4.4.'     f l   ,.y.4.: J E.K.U P.S K.G.3   2 i W ~ ~ *.=./   >.4.4.0.q.u.y.u.u.u.y.",
"#.#.5.#.#.#.4.4.4.4.* l R p ( a.a.: J E.E.E.T.K.K.e   + I ! ~ ~ ~ ~ Z.Z.| @ 4.4.4.4.4.4.4.4.4.u.",
"6.8.8.w.f.s.4.4.4.4.' j T Z ` N.N.d J T.K.K.K.K.K.  r t I ^ ~ u ; ; ~ &.&.E * 4.4.4.4.4.u.a.d.N.",
"u.d.a.d.N.N.u.4.4.4.4.  l l   = 4.<.  1 K K.K.K.K.    t I I r r +   C     E ; N 4.4.4.4.4.u.d.y.",
"x.x.x.x.#.j.f.f.a.a.a.s     & E N 4.  0 3 S F H.D 6   t I I I I I   x.x.v @   C d.a.a.9.0.4.4.4.",
"5.4.0.#.#.#.#.#.#.#.#.  #.Z.= E   5.  H.K.K.K.K.K.S 6 + I I I I r   0.#.#.#.#.#.#.#.#.#.#.#.#.5.",
"4.4.4.4.0.#.9.8.5.#.#.  E &.&.&   *       K.K.K.K.F r e 3 . I r 3   4.4.0.#.5.8.5.#.#.#.#.#.5.8.",
"4.4.d.f.y.#.4.4.4.0.4.: y ~ ~ ; >     w K.K.K.K.F 0 0 0 7 0 r 0 D O ,.f.y.#.4.4.4.0.4.8.4.4.4.4.",
"j.d.f.f.N.p.0.4.4.4.y.a.  E u   * :   7 7 K.K.K.0 0 0 0 0 0 0 0 8 D C f.f.p.0.4.4.4.u.u.a.f.f.u.",
"f.f.f.f.f.f.a.4.4.N.f.f.1.C   g $ # f x Y Z Y z Y g 4 1 1 1 x $ U a r.f.f.f.a.4.4.f.N.f.N.f.u.j.",
"d.f.f.w.f.f.f.a.y.4.4.4.4.4.: c o @       f z p z 3 c p 5   T p $ $ f.x.f.f.f.d.y.4.4.4.4.4.4.O.",
"4.w.j.#.i.N.f.a.u.4.4.4.a.f.s   , d 7 0 4 3 3 3 3 3 X $ c o o   3   s [ i.f.f.a.u.4.4.4.a.f.c.v.",
"#.#.#.#.#.4.4.4.4.4.u.f.u.d.f.N.d.  7 K K.G.F D 0 0 6 h 9 Z 5 7 0 4 X v j.4.4.4.4.4.u.f.u.d.f.N.",
"#.5.4.8.#.j.0.4.4.y.u.y.4.4.u.y.4.N N         1 1 O     x h   O 1 1 > 8.#.5.0.4.4.y.u.y.4.4.u.y.",
"j.8.4.4.4.4.4.4.4.4.0.9.4.4.4.4.4.: @ 8.v     N N b { ]   o v @     4.4.N ' 4.4.4.4.0.5.4.4.4.4.",
"4.8.4.4.4.4.0.5.4.8.#.#.8.4.4.4.N       :   * >.>.] >.>.>.7.6.4.N     #   N 8.5.4.8.#.#.8.4.4.4.",
"4.4.4.4.4.8.#.#.#.#.#.#.#.8.4.4.: M 1.M d d ;.;.-.` ` ` ` ) _ ` ` ' *   4.8.#.#.#.#.#.#.#.8.4.4.",
"5.#.#.5.5.#.#.#.#.#.#.#.#.#.#.9.y.3.;.;.;.;.;.B n n B n n n n n _ n o.5.9.#.#.#.#.#.#.#.#.#.#.9.",
"#.#.#.+.O.+.8.8.8.8.....#.5.4.4.u.<.;.;.;.` ) ` ` ) ) n n n n n n n { +.O.+.0.8.8.8.....#.5.4.4.",
"$.O.+.O.O.O.O.O.o.+.c.$.+.l.4.d.f.f.a.i.-.` ` ` ( n n n n n n @.@.O.+.O.O.O.O.O.o.+.c.$.+.l.4.d.",
"O.k.s.f.v.O.s.f.v.s.f.f.c.c.d.y.4.4.d.N.d.u.e.3.3.3.3.3.{ %.#.#.O.k.s.f.v.O.s.f.v.s.f.f.c.c.d.y.",
"k.f.f.f.f.s.f.f.N.f.f.f.f.f.u.a.y.4.4.y.f.a.u.y.4.4.4.4.0.i.v.x.k.f.f.f.f.s.f.f.N.f.f.f.f.f.u.a.",
"N.f.f.u.d.f.f.u.f.f.u.f.f.f.f.N.f.4.u.y.4.4.4.4.4.4.4.4.a.4.y.f.N.f.f.u.d.f.f.u.f.f.u.f.f.f.f.N.",
"4.d.u.4.4.a.4.4.4.y.4.d.f.f.f.f.N.a.f.f.d.d.a.a.u.4.4.4.4.4.4.4.4.d.u.4.4.a.4.4.4.y.4.d.f.f.f.f.",
"4.4.4.4.4.y.4.4.4.4.4.y.u.u.4.y.u.u.u.u.4.8.5.5.0.4.4.4.4.4.4.4.4.4.4.4.4.y.4.4.4.4.4.y.u.u.4.y.",
"y.4.4.4.4.8.5.4.4.4.4.4.4.4.4.4.4.4.4.0.#.#.#.#.#.#.#.5.4.u.f.f.y.4.4.4.4.8.5.4.4.4.4.4.4.4.4.4.",
"f.f.9.#.5.5.5.5.4.4.4.9.0.4.4.4.4.4.5.#.#.8.8.5.#.#.#.#.x.v.f.f.f.f.9.#.5.5.5.5.4.4.4.9.0.4.4.4."
};
