/* XPM */
static char *result[] = {
/* columns rows colors chars-per-pixel */
"48 48 182 2 ",
"   c #161C2E",
".  c #1D2636",
"X  c #1B3434",
"o  c #212439",
"O  c #252C3C",
"+  c #2A2A38",
"@  c #232535",
"#  c #293536",
"$  c #36333D",
"%  c #352F36",
"&  c #45393A",
"*  c #1E4036",
"=  c #364236",
"-  c #3F4239",
";  c #34483A",
":  c #31423C",
">  c #24583C",
",  c #22523B",
"<  c #46553A",
"1  c #47593F",
"2  c #4B5B3B",
"3  c #53593E",
"4  c #292941",
"5  c #263D44",
"6  c #313049",
"7  c #3E3942",
"8  c #393451",
"9  c #3D3258",
"0  c #453E45",
"q  c #433D5B",
"w  c #4A3A57",
"e  c #503D6C",
"r  c #3F5544",
"t  c #304F51",
"y  c #375D5A",
"u  c #325253",
"i  c #364B4A",
"p  c #2A7643",
"a  c #474244",
"s  c #554A4D",
"d  c #445C41",
"f  c #5A5B40",
"g  c #5B534D",
"h  c #5B4E50",
"j  c #625950",
"k  c #655654",
"l  c #715E59",
"z  c #644C42",
"x  c #4A6646",
"c  c #417E47",
"v  c #56734A",
"b  c #5A7C52",
"n  c #577750",
"m  c #6E6E46",
"M  c #667A41",
"N  c #667B4D",
"B  c #7B7B49",
"V  c #7B655F",
"C  c #77655C",
"Z  c #626854",
"A  c #4B4164",
"S  c #425E63",
"D  c #584673",
"F  c #5E487A",
"G  c #6E4F6F",
"H  c #624A7E",
"J  c #604978",
"K  c #417168",
"L  c #8B644B",
"P  c #AA7753",
"I  c #856D63",
"U  c #957C69",
"Y  c #8C7266",
"T  c #308E49",
"R  c #3D8B5F",
"E  c #339A4B",
"W  c #38B251",
"Q  c #559C4F",
"!  c #46964D",
"~  c #6C8445",
"^  c #69834A",
"/  c #66884E",
"(  c #718844",
")  c #758446",
"_  c #7B9346",
"`  c #76914A",
"'  c #698A52",
"]  c #7D8E53",
"[  c #6F9254",
"{  c #769B57",
"}  c #4BB955",
"|  c #59BF57",
" . c #77A956",
".. c #6F976F",
"X. c #6E9A6E",
"o. c #7C9B6F",
"O. c #739B6C",
"+. c #679175",
"@. c #6B9671",
"#. c #79A863",
"$. c #73A069",
"%. c #7CA165",
"&. c #5DC058",
"*. c #7FCD5E",
"=. c #70C75B",
"-. c #809A48",
";. c #819348",
":. c #959853",
">. c #8F975A",
",. c #A18552",
"<. c #86A049",
"1. c #8BA54A",
"2. c #91AD4C",
"3. c #9BB94E",
"4. c #94B14C",
"5. c #85AE5C",
"6. c #89AC5B",
"7. c #8EB256",
"8. c #94B552",
"9. c #9EB754",
"0. c #9BB35A",
"q. c #A5A654",
"w. c #A3B951",
"e. c #A9B953",
"r. c #A3B35E",
"t. c #AEB65D",
"y. c #AAB052",
"u. c #B1BA56",
"i. c #B1B35F",
"p. c #B6BA58",
"a. c #BFBA5B",
"s. c #B2AE58",
"d. c #93876D",
"f. c #90926D",
"g. c #8A9B69",
"h. c #B79962",
"j. c #84AB62",
"k. c #87A06C",
"l. c #8AA863",
"z. c #95AF60",
"x. c #9CAA65",
"c. c #96A262",
"v. c #AAB061",
"b. c #B8A57F",
"n. c #B4A163",
"m. c #D9945F",
"M. c #D39D5E",
"N. c #CA9D5B",
"B. c #D4B459",
"V. c #C7AE5D",
"C. c #E2A959",
"Z. c #E8B854",
"A. c #E7B455",
"S. c #CA9760",
"D. c #95D562",
"F. c #F0C94F",
"G. c #F6D84A",
"H. c #FFED44",
"J. c #FFF062",
"K. c #FFF171",
"L. c #654B83",
"P. c #6F4F8D",
"I. c #615F84",
"U. c #775396",
"Y. c #7F5897",
"T. c #785782",
"R. c #7D7B82",
"E. c #855D80",
"W. c #8B5F98",
"Q. c #865C97",
"!. c #956699",
"~. c #916389",
"^. c #A8719A",
"/. c #A06C99",
"(. c #B8AB85",
"). c #D6B785",
"_. c #FFF48F",
"`. c #FFF387",
"'. c #EBDAA5",
"]. c #EFE1AB",
"[. c #FFF8B4",
"{. c white",
/* pixels */
"3.0.j.#.r.V.a.u.e.3.3.3.u.a.x.v.a.a.e.p.a.a.e.e.a.v.#.#.9.u.3.3.3.9.j.#.v.a.a.u.e.3.3.3.u.a.r.v.",
"#.#.#.#.#.3.3.3.3.3.e.a.e.p.a.V.u.w.3.3.a.e.8.#.#.#.#.#.3.3.3.7.#.#.#.#.#.3.3.3.3.3.e.a.e.p.a.a.",
"#.5.3.7.#.#.8.3.3.e.e.w.3.3.e.3.3.3.3.3.3.0.#.#.#.#.#.#.#.#.5.#.#.5.3.7.#.5.8.3.3.w.e.w.3.3.e.w.",
"5.7.3.3.3.3.3.3.3.3.7.5.3.3.3.3.3.3.8.8.#.#.#.8.3.#.5.7.#.#.#.5.#.7.3.3.3.3.3.3.3.3.8.5.3.3.3.3.",
"3.7.3.3.3.3.8.5.3.8.#.#.7.3.3.3.3.3.e.w.3.8.7.3.3.8.3.3.3.7.7.3.3.7.3.3.3.9.7.j.3.8.#.#.7.3.3.3.",
"3.3.3.3.3.8.#.#.#.#.#.#.5.6.3.3.3.u.a.a.u.u.a.a.u.3.3.3.3.5.5.3.3.3.3.3.3.7.#.#.#.#.#.#.#.5.3.3.",
"5.#.#.5.5.#.x.S.m.m.l.#.#.#.#.5.9.e.a.a.a.a.a.j.#.5.#.#.#.#.#.#.5.#.#.5.7.#.#.#.#.#.#.#.#.#.#.5.",
"#.n.h.X.f.B.F.F.F.F.m.g.#.5.3.3.e.u.p.a.a.9.7.3.3.7.7.#.#.#.#.#.#.#.#.@.+.@.7.7.7.7.@.X.#.5.3.3.",
"S.A.F.h.B.H.H.`.K.H.G.m.+.5.3.p.a.a.a.a.u.3.3.3.8.5.#.#.#.#.#.#.$.+.X.@.+.+.@.+.O.X.x.o.+.5.3.p.",
"m.H.H.m.Z.H.H.K.{.H.H.m.n.x.u.w.3.3.p.a.p.e.e.3.3.3.0.7.5.#.#.#.+.k.t.V.v.+.t.a.v.t.a.a.x.r.u.w.",
"m.H.m.z ,.M.Z.H.H.H.H.C.- a.e.u.w.3.3.w.a.u.e.3 G Z d _ 8.v.r.x.k.a.a.a.a.v.a.a.a.a.a.a.a.a.e.u.",
"M.F.V.:.p.V.m.F.H.{.H.Z.  a.a.a.a.3.e.e.3.3.3.# ^.U.A   f 3.w.a.a.a.a.e.p.a.a.e.a.a.e.a.a.a.a.a.",
"y.m.N.3.3.u.P C.H.{._.Z.  a.a.a.a.u.a.V.u.e.)   !.W.!.w   : 3.3.3.p.w.3.9.u.3.3.9.w.3.u.V.a.a.a.",
"3.m.m.y.3.w.= m.H.{._.m.< e.3.w.e.e.e.w.3.5.  ~.Q.!.^.J 4   = _ 3.3.3.2 2 _ 3.3.9.3.3.w.e.w.3.w.",
"w.3.3.3.3.7./ L [.H.J.% <.3.3.3.3.3.2         ^.U.T.q 6 6 U.D .   2 d D.&.> 5.3.3.3.3.3.3.3.3.3.",
"a.a.5.#.5.5.5.& (.).).& = 3.3.3.3.2 / D.D.T p 4 L.F F L.L.D A 4     ; }   X 5.5.3.3.3.5.8.3.3.3.",
"7.7.8.8.7.3.4.  d.'.].(.  ` #.5.3.v D.x  .&.W K L.U.U.D 9 8   A U.q o * < < 3.7.8.3.#.#.#.5.#.5.",
"%.8.#.5.8.6.#.r U g ].j (.  #.5.7.; < ;   D.W R y U.U.U.U.U.U.A q q q 4 v 5.#.#.8.8.#.5.8.#.#.5.",
"x.@.#.#.#.#.#.d   b.).g d.  3.3.3._ ~     / W R t U.U.U.U.e A 9 q q q O   #.#.#.#.#.#.3.3.3.3.3.",
"a.v.i.i.#.8.7.3.a ).$ j   v 3.3.6.#.O a G ; W K . e U.A q i 6 .           = 7.3.8.#.5.6.5.5.3.3.",
"3.p.a.a.a.e.3.3.=     a + d r.i.x.a.  ^.^.G R.I.L.U.U.9   5 t E W W W &.=.! = 3.3.#.#.z.r.0.v.i.",
"3.3.3.3.e.w.3.3.8.`   I U   y.w.3.3.  ^.!.W.W.W.U.U.9 5 t K K W W W W W &.D.> M 8.9.e.e.e.e.e.3.",
"#.#.5.#.#.#.3.3.3.3.= C d.$ M u.u.3.  E.^.Q.U.U.U.U.    . y K R >     X > } Q   3.3.3.3.3.3.3.p.",
"5.7.7.0.a.t.3.3.3.3.` s V 7 - a.a.p.-   4 U.U.U.U.U.    y K K 5 5 u   N B * W   3.3.3.3.e.p.p.a.",
"e.p.p.p.V.a.e.3.3.3.3.      p * 3.p.3 q P.U.U.U.U.U.L.8   y K K K K . B V.f W > 3.3.3.3.3.w.p.w.",
"z.0.z.z.#.5.a.a.p.u.u.d D. .X > M 3.2 D U.U.U.U.U.U.U.D 8 o 5 K K 5   ] #.r >   p.u.u.5.8.3.3.3.",
"5.8.8.#.#.#.#.#.#.#.j.T *.D.x   $ 7.#     U.U.U.U.L.9 q q q 8 K S 6 8   r # v #.#.#.#.#.#.#.#.5.",
"3.3.3.3.8.#.5.7.5.#.#.  W W W   =     4 9 U.U.U.D A A i q q q q q q q q O >   ' 5.#.#.#.#.#.5.7.",
"3.3.p.a.e.#.3.3.3.3.3.d X W X   _ 2 g j V         o 4 4 4 4 O 4     o o   p > M 3.8.3.7.3.3.3.3.",
"l.u.a.a.a.t.3.3.3.3.w.u.)   $ s = 2       a j s j a $ $ l V I   I Y   V $ W > M 3.3.e.u.u.a.a.e.",
"a.a.a.a.a.a.u.3.3.V.a.a.V.:.+ j < r 8 H H 6 6 6 6 6 6 6 6 . 0 $ s l O 5   > 3 <.3.a.a.a.a.a.e.j.",
"p.a.a.z.a.a.a.u.w.3.3.3.3.3.$   >.i U.U.U.U.U.D q q q q q   h 7 V k q A 3 V.a.u.w.3.3.3.3.3.3.+.",
"9.0.j.#.r.a.a.p.e.3.3.3.u.a.x.v.V.f 8         o 4 4 O 4   j k a I @ q . :.a.a.u.e.3.3.3.u.a.x.t.",
"#.#.#.#.#.3.3.3.3.3.e.a.e.p.a.a.u.~ x ( m 2 d           = 1 #   r r d n [ 4.3.3.3.3.e.a.e.p.a.V.",
"#.5.3.7.#.5.8.3.3.w.e.w.3.3.e.w.1.( ( ( ( ~ / : d x   # b b   # x N ~ ^ b ' 8.3.3.w.e.w.3.3.e.3.",
"#.7.3.3.3.3.3.3.3.3.8.5.3.3.3.3.2.( ~ ^ b b b ~ ~ b ^ ^ b b r 1 d ^ ( ( ( -.3.3.3.3.7.6.3.3.3.3.",
"3.7.3.3.3.3.7.6.3.7.#.#.8.3.3.3.3.2.) ` ( ~ / ( ) ^ ( ( ( / ^ ( ( ^ ( ( -.4.7.5.3.7.#.#.7.3.3.3.",
"3.3.3.3.3.7.#.#.#.#.#.#.#.7.3.3.3.p.V.a.u.u.i.q.q.1.1.1.1.{ { 1.3.3.3.3.3.8.#.#.#.#.#.#.5.5.3.3.",
"7.#.#.5.5.#.#.#.#.#.#.#.#.#.#.5.3.e.a.a.a.a.a.j.#.#.5.#.#.#.#.#.5.#.#.5.5.#.#.#.#.#.#.#.#.#.#.5.",
"#.#.#.@.+.@.7.7.7.7.X.X.#.5.3.3.e.u.p.a.a.w.7.3.3.7.7.#.#.#.#.#.#.#.#.+.+.@.7.7.7.7.X.X.#.5.3.3.",
"$.+.@.+.+.+.+.@.$.@.z.o.+.5.9.a.a.a.a.a.u.3.3.3.3.#.#.#.#.#.#.#.$.+.@.+.+.+.+.@.$.X.x.o.+.6.3.a.",
"+.k.i.a.v.+.i.a.v.i.a.a.x.x.u.w.3.3.p.a.p.e.w.3.3.3.8.7.j.#.#.#.+.k.i.a.v.+.i.a.v.v.a.a.x.x.u.9.",
"k.a.a.a.a.i.a.a.a.a.a.a.a.a.e.u.w.3.3.w.a.u.e.e.3.3.3.3.8.v.r.z.k.a.a.a.a.i.a.a.a.a.a.a.a.a.e.u.",
"a.a.a.e.p.a.a.e.a.a.e.V.a.a.a.a.a.3.e.e.3.3.3.3.3.3.3.3.u.9.e.a.a.a.a.e.p.a.a.e.a.a.u.a.a.a.a.a.",
"3.p.e.3.3.u.3.3.3.w.3.u.a.a.a.a.a.u.a.a.u.u.u.u.u.3.3.3.3.3.3.3.3.p.e.3.3.u.3.3.3.w.3.u.a.a.a.a.",
"3.3.3.3.3.3.3.3.3.3.3.w.e.e.3.e.e.e.e.e.3.8.5.5.8.3.3.3.3.3.3.3.3.3.3.3.3.3.3.3.3.3.3.w.e.e.3.e.",
"e.3.3.3.3.8.7.3.3.3.3.3.3.3.3.3.3.3.3.7.#.#.#.#.#.#.#.#.3.e.p.a.e.3.3.3.3.8.7.3.3.3.3.3.3.3.3.3.",
"a.a.j.#.5.7.#.#.3.3.3.5.8.3.3.3.3.3.5.#.#.8.8.5.#.#.#.#.z.v.a.a.a.a.j.#.5.7.#.#.3.3.3.5.8.3.3.3."
};
