/* XPM */
static char *result[] = {
/* columns rows colors chars-per-pixel */
"48 48 182 2 ",
"   c #161C2E",
".  c #1D2135",
"X  c #1D2A37",
"o  c #1B3434",
"O  c #212439",
"+  c #26283E",
"@  c #2B2B38",
"#  c #232535",
"$  c #263337",
"%  c #2E3E3B",
"&  c #293535",
"*  c #36333D",
"=  c #352F36",
"-  c #45393A",
";  c #1E4036",
":  c #364236",
">  c #3A453A",
",  c #24583C",
"<  c #22523B",
"1  c #4B5B3B",
"2  c #52583E",
"3  c #5B6E3F",
"4  c #2A2942",
"5  c #32304A",
"6  c #3C3644",
"7  c #383451",
"8  c #3D3258",
"9  c #3A3B55",
"0  c #273E45",
"q  c #443D46",
"w  c #433D5B",
"e  c #4B3B55",
"r  c #503D6C",
"t  c #483D62",
"y  c #3E5443",
"u  c #304F51",
"i  c #375D5A",
"p  c #325253",
"a  c #2A7643",
"s  c #2C7C44",
"d  c #3A635F",
"f  c #474244",
"g  c #53494B",
"h  c #435740",
"j  c #475841",
"k  c #5A5B40",
"l  c #5B534D",
"z  c #5D5050",
"x  c #485551",
"c  c #625950",
"v  c #655655",
"b  c #644C42",
"n  c #4C6745",
"m  c #536C4F",
"M  c #51704E",
"N  c #5A7449",
"B  c #5B7447",
"V  c #5A7C52",
"C  c #577750",
"Z  c #467351",
"A  c #667A41",
"S  c #697C48",
"D  c #7B7B49",
"F  c #7A7847",
"G  c #79645E",
"H  c #73625A",
"J  c #627E51",
"K  c #676056",
"L  c #4B4164",
"P  c #425E63",
"I  c #584673",
"U  c #574B76",
"Y  c #534565",
"T  c #6E4F6F",
"R  c #614A69",
"E  c #624A7E",
"W  c #60467D",
"Q  c #417168",
"!  c #8B644B",
"~  c #AA7753",
"^  c #967B6B",
"/  c #977965",
"(  c #877362",
")  c #308E49",
"_  c #3B964B",
"`  c #3D8B5F",
"'  c #38B251",
"]  c #3AA257",
"[  c #6B8345",
"{  c #68834A",
"}  c #67864D",
"|  c #718844",
" . c #768648",
".. c #7B9346",
"X. c #79994C",
"o. c #618656",
"O. c #668E59",
"+. c #698853",
"@. c #6D975C",
"#. c #7A8D53",
"$. c #4EBA55",
"%. c #59BF57",
"&. c #72A755",
"*. c #6F976F",
"=. c #6E9A6E",
"-. c #7C9B6F",
";. c #739B6C",
":. c #679175",
">. c #6B9671",
",. c #79A863",
"<. c #73A069",
"1. c #7CA165",
"2. c #5DC058",
"3. c #7FCD5E",
"4. c #70C75B",
"5. c #ABA23C",
"6. c #808849",
"7. c #8A884D",
"8. c #84954A",
"9. c #969450",
"0. c #9E9D56",
"q. c #93AA4D",
"w. c #9BB94E",
"e. c #85AE5C",
"r. c #89AC5B",
"t. c #81A150",
"y. c #8EB256",
"u. c #81B75A",
"i. c #94B552",
"p. c #9EB754",
"a. c #9AB35A",
"s. c #95A750",
"d. c #A6A256",
"f. c #BAAF5D",
"g. c #A3B951",
"h. c #A9B953",
"j. c #A3B35D",
"k. c #AEB65D",
"l. c #B1BA56",
"z. c #B1B35F",
"x. c #B6BA58",
"c. c #BFBA5B",
"v. c #829270",
"b. c #AB9368",
"n. c #84AB62",
"m. c #87A06C",
"M. c #8AA962",
"N. c #95AF60",
"B. c #9CAA65",
"V. c #AAB061",
"C. c #B5A679",
"Z. c #D9945F",
"A. c #CA9D5B",
"S. c #CCA85D",
"D. c #C5B15C",
"F. c #E2A959",
"G. c #E8B854",
"H. c #E7B455",
"J. c #C79463",
"K. c #95D562",
"L. c #F0C94F",
"P. c #F6D84A",
"I. c #F9DF48",
"U. c #FFED44",
"Y. c #FFF171",
"T. c #654B82",
"R. c #6C4E8A",
"E. c #775396",
"W. c #7F5897",
"Q. c #8B5F98",
"!. c #956598",
"~. c #9C6A99",
"^. c #916389",
"/. c #A8719A",
"(. c #D5B583",
"). c #D9BC89",
"_. c #DBC08D",
"`. c #DFC793",
"'. c #E5CF9B",
"]. c #FFF48B",
"[. c #EFE1AB",
"{. c white",
/* pixels */
"w.a.n.,.j.c.c.h.h.w.w.w.l.c.B.z.c.c.h.x.c.c.h.h.c.j.,.,.j.x.w.w.w.a.n.,.j.c.D.l.h.w.w.w.l.D.B.V.",
",.,.,.,.n.w.w.w.w.w.h.c.h.x.c.c.l.g.w.w.c.h.i.,.,.,.,.,.i.w.w.y.,.,.,.,.e.w.w.w.w.w.h.c.h.x.c.c.",
",.e.w.y.,.e.i.w.w.g.h.g.w.w.h.g.w.w.w.w.w.a.,.,.,.,.,.,.,.,.e.,.,.e.w.y.,.,.i.w.w.g.h.g.w.w.h.w.",
"e.y.w.w.p.w.w.w.w.w.y.e.w.w.w.w.w.w.i.y.,.,.,.i.w.u.e.y.,.,.,.e.n.y.w.w.w.w.w.w.w.w.i.u.w.w.w.w.",
"w.y.w.w.w.w.y.e.w.y.,.,.y.g.w.w.w.w.h.g.w.i.y.w.w.i.w.w.w.y.y.w.w.y.w.w.w.w.y.e.w.y.,.,.y.w.w.w.",
"w.w.w.w.w.y.,.,.,.,.,.,.n.u.w.w.w.h.c.c.l.l.c.c.x.w.w.w.w.e.e.w.w.w.w.w.w.i.,.,.,.,.,.,.e.e.w.w.",
"e.,.,.r.e.,.,.,.,.,.,.,.,.,.,.e.g.h.c.c.c.c.c.n.,.e.,.,.,.,.,.,.e.,.,.e.e.,.,.,.,.,.,.,.,.,.,.e.",
",.,.,.>.:.>.y.y.y.y.=.=.,.e.w.w.h.l.x.D.c.g.y.i.w.y.y.,.,.,.,.,.,.,.,.>.:.>.y.y.y.y.=.=.,.e.w.w.",
"<.:.=.J.Z.Z.b.-.;.*.B.-.>.e.w.x.c.c.c.c.l.w.w.w.  : ,.,.,.,.,.,.<.:.>.:.:.:.:.:.;.>.B.-.>.e.w.x.",
":.m.J.H.U.U.H.Z.d.z.c.D.B.B.l.g.w.w.x.c.x.h.g.w.T T . +.n.,.,.,.>.m.k.c.V.:.z.c.V.k.c.c.B.B.x.w.",
"m.D.Z.U.].Y.U.F.D.c.k k c.c.h.h.h.w.w.g.D.l.h.| ^./.U 4 h #.j.B.m.c.c.D.c.z.c.c.D.c.c.c.D.c.h.l.",
"S.Z.I.U.U.U.U.U.Z.! Z.-   c.D.c.c.w.h.g.w.w.A   /.!.!.R .   8.c.c.c.c.h.x.c.c.h.c.c.h.c.c.c.c.D.",
"H.I.U.G.G.P.U.U.P.L.L.Z.b D D.c.c.l.c.c.n 1 $ T /.Q.!.L .     : g.x.    . 8.w.w.w.g.w.l.c.c.c.c.",
"A.Z.Z.Z.Z.Z.P.U.Y.U.U.I.~ S w.g.h.h. .  a o   T !.E.Y 5 7 T.w O   & u.2.& A w.w.w.w.w.g.h.h.w.g.",
"d.0.p.w.w.F F.U.{.].Y.(.(.q A w.w.w.  n &.K.' ; W.L R.T.L w w 4     _ , A y.r.w.w.w.w.w.w.w.w.w.",
"/ f.M.,.e.+.  ~ U.5.C.[.[.C.: w.w.w.M %   K.' ` 9 E.T.L w 5   r L w   o e.e.u.n.w.w.w.u.i.w.w.w.",
"0.y.i.i.y.w...:   5 ).'.[.).c +.w.y.y.y.: &.2.' d r R.E E R.E L w w 7   r.g.w.y.i.w.,.,.,.u.n.e.",
"1.i.,.e.y.e.,.,.i.    '.c l v B y.i.w.A     2.' Q I E.E.I w L w w u w   B r.,.,.i.y.,.e.y.,.,.e.",
"B.>.,.,.,.,.,.,.1.h f 7.  c   w.w.w.w.& e   _ ` p   R.w w w 5   .         o.,.,.,.,.,.w.w.w.w.w.",
"c.V.z.k.,.w.y.w.i.1.      f j w.r.1.m.  /.8 a Q X T.E.I +     < ) ' 2.4.a : y.w.i.,.e.e.e.e.w.w.",
"w.x.c.c.c.l.w.w.w.,.o.% q G q D B.D.c.  /./.~.!.E.E.E..   u Q ' ' ' $.3.K.&.: X.w.,.,.N.j.j.j.l.",
"w.w.w.w.h.g.w.w.i.p.h...@ H G   w.w.g.  /.E.E.E.E.E.8 $ i Q Q ' ' , , ' $.2.) ; #.w.h.h.h.g.h.g.",
",.n.e.,.,.,.w.w.w.w.w.w.: g H   1 w.w.  6 Q.E.E.E.E.8   u d Q p       % ; , ' ) A w.w.w.w.w.w.l.",
"e.y.y.a.c.k.w.w.w.w.w.w.8.@ 5   , X.l.1 + L I I R.I 9 # d Q Q i d Q   i.9.D : , A w.w.w.h.l.x.D.",
"h.x.x.x.D.D.h.w.w.w.w.w.1 n K.: & , f.k w E.E.E.E.E.R.7   i Q Q Q Q   x.D.c.h.w.w.w.w.w.w.h.x.w.",
"N.N.N.N.,.n.c.c.x.l.l.e.j s K.K.>   ..1 4   r E.E.E.E.I 7 . 0 Q Q X > N.,.e.c.D.x.l.l.e.i.w.w.w.",
"e.i.i.,.,.,.,.,.,.,.,.,.o.  ' ' '         r E.E.E.E.L w w w 7 Q P 8 + M ,.,.$   : ,.,.,.,.,.,.e.",
"w.w.w.w.i.,.u.y.e.,.,.,.,.h a s o : g.  4 w E.E.E.I w w w w w w w w w   i.y d ' )   ,.,.,.,.u.i.",
"w.w.c.c.h.,.w.w.w.w.w.y.w.w.>   * * X.  H (         O 4 4 4 4     .     : $ Q ' '   i.y.w.w.w.w.",
"M.l.c.c.c.k.i.w.w.w.h.h.l.c.D.* f 6 M   g c ^ (./ (.v.v g     ^ ^ * v   D   i ] s   h.l.h.D.D.h.",
"D.c.c.c.c.c.l.w.w.c.c.c.c.c.h.+.  x Z 4 5 5 5 5 5 5 5 6 @ f 6 6 q + 5   c.9.D A A d.c.c.c.c.h.e.",
"x.c.c.N.c.c.c.h.g.w.w.w.w.w.p.:.B.:.  T.E.E.W T.w e w 4 v l g f 4 w w X   c.c.l.g.w.w.w.w.w.w.:.",
"w.a.n.,.V.c.c.h.h.w.w.w.l.c.B.z.c.c.      8 w 8 w w w 5 * @ ( # 5 w w . 2 c.c.l.h.w.w.w.h.c.B.k.",
",.,.,.,.e.w.w.w.w.w.h.c.h.x.c.c.l.g.w.w.9.S B M m       A : f N M M M M e.w.w.w.w.w.h.c.h.c.c.c.",
",.e.w.y.,.n.i.w.w.h.h.w.w.w.h.g.w.w.w.w.w.i.,.@.O.$   N O.O.$ % y   w.y.,.,.i.w.w.g.h.g.w.w.h.g.",
"u.y.w.w.w.w.w.w.w.w.i.e.w.w.w.w.w.w.i.y.O.o.V [ | n B { V C C       w.w.w.w.w.w.w.w.i.e.w.w.w.w.",
"w.y.w.w.w.w.y.e.w.y.,.,.y.w.w.w.w.w.q. .| [ { | | { | | | { { B 1 { | q.w.w.y.e.w.y.,.,.y.w.w.w.",
"w.w.w.w.w.y.,.,.,.,.,.,.u.n.w.w.w.l.0.7.6.6.7.7. .| | | | { } [ | | | 8.w.i.,.,.,.,.,.,.e.e.w.w.",
"e.,.,.e.e.,.,.,.,.,.,.,.,.,.,.e.p.h.D.d.7.7.7.{ V { V V V V V V { V @.e.e.,.,.,.,.,.,.,.,.,.,.e.",
",.,.,.>.:.>.y.y.y.y.=.=.,.e.w.w.h.l.x.c.c.q.&.X.| { { V V V V @.@.,.,.:.:.>.y.y.y.y.=.=.,.e.w.w.",
"<.:.>.>.:.:.:.>.;.>.B.1.:.M.w.c.c.c.c.c.l.w.w.w.w.,.,.,.,.,.,.,.;.:.>.:.:.:.:.:.;.=.B.1.:.n.w.c.",
":.m.z.c.V.>.V.c.V.z.c.c.B.B.l.w.w.w.x.c.x.h.g.w.w.w.w.u.,.,.,.,.:.m.z.c.k.:.z.c.V.V.c.c.B.B.l.g.",
"m.D.c.c.c.V.c.c.D.c.c.c.c.c.h.l.g.w.w.g.c.l.h.g.w.w.w.w.i.V.V.N.m.c.c.c.c.k.c.c.D.c.c.c.c.c.h.l.",
"c.c.c.h.x.c.D.h.c.c.h.c.c.c.c.D.c.w.h.h.w.w.g.w.w.w.w.w.l.g.h.c.c.c.c.h.x.c.c.h.c.c.h.c.c.c.c.c.",
"w.x.h.w.w.l.w.w.w.g.w.l.c.c.c.c.D.l.c.c.x.l.l.l.l.w.w.w.w.w.w.w.w.x.h.w.w.l.w.w.w.g.w.l.c.D.c.c.",
"w.w.w.w.w.g.w.w.w.w.w.h.h.h.w.g.h.h.h.h.w.y.e.e.i.w.w.w.w.w.w.w.w.w.w.w.w.g.w.w.w.w.w.h.h.h.w.g.",
"g.w.w.w.w.y.y.w.w.w.w.w.w.w.w.w.w.w.w.y.,.,.,.,.,.,.,.,.w.h.x.c.g.w.w.w.g.i.y.w.w.w.w.w.w.w.w.w.",
"c.c.n.,.y.u.,.,.w.w.w.e.i.w.w.w.w.w.u.,.,.i.i.e.,.,.,.,.a.V.c.c.c.c.M.,.e.u.,.,.w.w.w.u.i.w.w.w."
};
