/* XPM */
static char *result[] = {
/* columns rows colors chars-per-pixel */
"48 48 220 2 ",
"   c #161C2E",
".  c #181F2F",
"X  c #1A1F32",
"o  c #1A212F",
"O  c #1C2233",
"+  c #1D2A34",
"@  c #1E2D39",
"#  c #1D3935",
"$  c #242C33",
"%  c #22243B",
"&  c #252A3B",
"*  c #282A36",
"=  c #263235",
"-  c #293133",
";  c #2D3937",
":  c #283739",
">  c #323B35",
",  c #33323C",
"<  c #3A353D",
"1  c #3A3B3B",
"2  c #403F3F",
"3  c #1F4437",
"4  c #214C39",
"5  c #264238",
"6  c #3A4637",
"7  c #37483A",
"8  c #24593C",
"9  c #2A513B",
"0  c #3B523D",
"q  c #26643F",
"w  c #424B39",
"e  c #494C3B",
"r  c #4A5A3A",
"t  c #51573E",
"y  c #57683E",
"u  c #2C2C44",
"i  c #292743",
"p  c #322D46",
"a  c #273843",
"s  c #3E3B41",
"d  c #32314A",
"f  c #3B3349",
"g  c #3A3552",
"h  c #3E3956",
"j  c #373051",
"k  c #372F51",
"l  c #433D44",
"z  c #433D5B",
"x  c #41365B",
"c  c #533F5B",
"v  c #4A3C64",
"b  c #543F70",
"n  c #2C464B",
"m  c #3C4B45",
"M  c #3E5442",
"N  c #2F4E50",
"B  c #364252",
"V  c #365B59",
"C  c #2E5F4B",
"Z  c #2B7843",
"A  c #326F4C",
"S  c #3E6A63",
"D  c #3F7D64",
"F  c #4A4347",
"G  c #4D4549",
"H  c #4D4B4A",
"J  c #53494B",
"K  c #584B4F",
"L  c #445D44",
"P  c #5B4E52",
"I  c #5A5749",
"U  c #635A51",
"Y  c #685855",
"T  c #674E42",
"R  c #4C6747",
"E  c #51704E",
"W  c #5B7143",
"Q  c #5A7C52",
"!  c #4D6C5A",
"~  c #666542",
"^  c #667A41",
"/  c #627E4E",
"(  c #6A7B43",
")  c #78645C",
"_  c #71784C",
"`  c #4C4165",
"'  c #52436B",
"]  c #5D477A",
"[  c #574573",
"{  c #61487D",
"}  c #79567A",
"|  c #6C5074",
" . c #417168",
".. c #406F67",
"X. c #626A7A",
"o. c #AC7854",
"O. c #836C63",
"+. c #8D7467",
"@. c #8F6E48",
"#. c #2F8747",
"$. c #368948",
"%. c #34974C",
"&. c #3D945C",
"*. c #3D8B5F",
"=. c #38A952",
"-. c #39B251",
";. c #36A74E",
":. c #3F8063",
">. c #5F8355",
",. c #51944E",
"<. c #68844B",
"1. c #6A8549",
"2. c #738A45",
"3. c #768848",
"4. c #7C9547",
"5. c #78944C",
"6. c #658956",
"7. c #69915A",
"8. c #6D9958",
"9. c #719D5F",
"0. c #779754",
"q. c #49B754",
"w. c #7BA057",
"e. c #6F976F",
"r. c #6E9A6E",
"t. c #7C9B6F",
"y. c #739B6C",
"u. c #679175",
"i. c #6B9671",
"p. c #648D72",
"a. c #79A863",
"s. c #73A069",
"d. c #7BA364",
"f. c #76C95C",
"g. c #6AC35A",
"h. c #ACA03E",
"j. c #81884A",
"k. c #8A884D",
"l. c #82844F",
"z. c #819A47",
"x. c #829C48",
"c. c #8F9C4D",
"v. c #87944B",
"b. c #9A9951",
"n. c #8D8F52",
"m. c #8AA54A",
"M. c #8DA84B",
"N. c #95A94D",
"B. c #96B24D",
"V. c #9BB94E",
"C. c #85AE5C",
"Z. c #89AD5B",
"A. c #89AA52",
"S. c #8EB256",
"D. c #86BF5C",
"F. c #94B552",
"G. c #9EB754",
"H. c #9BB35A",
"J. c #9FAD51",
"K. c #A8A854",
"L. c #B5A857",
"P. c #A3B951",
"I. c #A9B953",
"U. c #A3B35E",
"Y. c #AEB65D",
"T. c #B1BA56",
"R. c #B1B35F",
"E. c #B6BA58",
"W. c #BFBA5B",
"Q. c #BCB75A",
"!. c #96866B",
"~. c #8A9C60",
"^. c #A29172",
"/. c #84AB62",
"(. c #87A06C",
"). c #8AA962",
"_. c #95AF60",
"`. c #9CAA65",
"'. c #A1A366",
"]. c #AAB061",
"[. c #D9955F",
"{. c #D99C5C",
"}. c #CF9A5C",
"|. c #DEA15B",
" X c #D5A55C",
".X c #C3B35B",
"XX c #CBA556",
"oX c #E8B954",
"OX c #E0A55A",
"+X c #81C85D",
"@X c #8CD161",
"#X c #91D161",
"$X c #F7DB49",
"%X c #EEC451",
"&X c #FFED44",
"*X c #FAE148",
"=X c #FCE646",
"-X c #FAE45B",
";X c #FFF062",
":X c #654A82",
">X c #6B4E86",
",X c #6C4E8A",
"<X c #685688",
"1X c #70508D",
"2X c #765395",
"3X c #7F5897",
"4X c #885D98",
"5X c #9D6A99",
"6X c #916389",
"7X c #A56F9A",
"8X c #A8719A",
"9X c #B7AB87",
"0X c #D8BD8B",
"qX c #CCB98D",
"wX c #FFF488",
"eX c #FFF596",
"rX c #EBDBA6",
"tX c #EFE1AB",
"yX c #EEDA90",
"uX c #FFFBD7",
/* pixels */
"V.H./.a.U..XW.T.I.V.V.V.T.W.`.R.W.W.I.E.W.W.I.I.W.].a.a.G.E.V.V.V.H./.a.].E..XT.I.V.V.V.T..X`.Y.",
"a.a.a.a.a.V.V.V.V.V.I.W.I.E.W.W.T.P.V.V..XI.S.a.a.a.a.a.B.V.V.S.a.a.a.a./.V.V.V.#XV.P..XI.E.W.W.",
"a.C.V.S.a.C.F.V.V.P.I.P.V.V.I.P.V.V.V.V.V.F.a.a.a.a.a.a.a.a.Z.a.a.C.V.S.a.a.F.V.V.P.I.P.V.V.I.V.",
"C.S.V.V.V.V.V.V.V.V.S.C.V.V.V.V.V.V.F.S.a.a.a.F.#XZ.Z.S.a.a.a.Z.C.S.V.V.V.V.V.V.V.V.F.A.V.V.V.V.",
"V.S.V.V.V.V.S.C.V.S.a.a.S.V.V.V.V.V.P.P.V.F.S.V.V.F.V.V.V.S.S.V.V.S.V.V.V.V.S.Z.V.F.a.a.A.V.V.V.",
"V.V.V.V.V.S.a.a.a.a.a.a./.C.V.V.V.I.W.W.T.E.W.W.T.V.V.V.V.C.C.V.V.V.V.V.V.S.a.a.a.a.a.a.C.C.V.V.",
"C.a.a.C.C.a.a.a.a.a.a.a.a.a.a.C.P.P.W.W.W.W.W./.a.C.a.a.a.a.a.a.C.a.a.C.C.a.a.a.a.a.a.a.a.a.a.C.",
"a.a.a.r.u.r.S.S.S.S.r.r.a.C.V.V.I.E.W.W.W.P.S.F.V.S.S.a.a.a.a.a.a.a.a.i.u.r.S.S.S.S.r.r.a.C.V.V.",
"s.u.r.u.u.u.u.u.y.r.`.t.i.Z.V.E.W.W.W..XE.V.V.V.F.a.a.a.a.a.a.a.s.u.i.u.u.u.u.u.y.e.`.t.u.Z.V.E.",
"u.(.].W.].u.R.W.].R.W.W.`._.E.P.V.V.E.W.E.P.I.B.4.B.B.S.a.a.a.a.i.(.Y.W.].u.R.W.].].W..X'.`.E.P.",
"(.W..XW..XT.W.W.W.W.W.W.W.W.I.I.P.V.V.P.W.T.v.6 , ^ V.V.F.U.U.`.(.W.W..XW.R.W.W..X.X XoXoX[.L.E.",
"W.W.W.I.T.W.W.I.W..XP..XW..X.XW.W.V.I.P.V.r & } | ^ V.V.I.P.P..X.XW.W.I.E.W.W.I.W.{.oX&X&X$X|..X",
"V.E.I.V.V.T.V.V.#XP.V.T..X.XW..XW.T.W.b.$ i >X5X6X  B.V.V.V.V.V.V.E.I.V.x.~ _ 4.L.|.&XwXuX&XoXXX",
"V.V.V.V.V.P.V.V.V.V.V.P.N.c.z.P.I.G.c.$ % v 5X4X7XK w V.V.V.V.V.V.V.V.B.6 T [.o.[.$X&X&X&X&X=XOX",
"P.#XV.V.V.S.Z.V.V.V.V.V.- y 9 r 2.- % k O h | 4X7X7X  $ - y K.W.P.V.V.z.2 |.*X*X=X&X&X%X|.|.oX%X",
".XW.Z.d.Z.Z.a.C.V.V.V.A.R 8 @X    k z z :Xi j >X4X}   ,.f.$.7 T.Q.Q.Z.R o.$X&XeXuXwX$X[.L.L.}.[.",
"S.S.F.F.S.V.V.S.F.V.a.a.7.5 Z X % % p z ` ] 2X[ 1Xa ;.f.+X0 + N.S.S.2., qX0XyX;XuX-XXX_ a.Z.a.~.",
"d.S.a.C.S.C.a.a.F.S.a.C.S.7 % z z ] v x h v ' 1XB :.-.@Xw m m.Z.d.S.: ^.tXrXrX~ h.@.$ 5.F.w.a.Z.",
"`.i.a.a.a.a.a.a.a.a.a.V.V.6 g z z z ` ,X1X1X1X<XS &.q.8.o p.y.p.`.! H !.qX9XU H R E 9.B.#XV.V.V.",
".X].R.Y.a.V.S.V.F.a.C.C.<.  d g h g z z ` >X1X] S *.q.;   F u.R.W.l., !.F 0XU o A.a.C.Z.C.C.V.V.",
"#XE..X.XW.T.V.V.V.a.a.0.$ 4 8 8 4   % d h ` :Xx N  .%.u } , n.I.V.E.e , * I U r V.a.a._.].].U.E.",
"V.V.V.V.I.P.V.V.F.G.v.- ,.+Xg.-.-.#.C @ X h >X2X[ <XX.} 5Xf 6.C.B.4.- P l     M.F.F.I.I.I.P.I.P.",
"a.C.A.a.a.a.V.V.V.x.: ,.@Xf.-.-.-.=.*.S a @ b 2X2X4X5X5X7Xf 6.a.a.R G +.K ; V.V.V.V.V.V.V.F.V.T.",
"Z.S.S.F.W.Y.V.V.M.7 %.q.q.%.8 3 #.=.D S N @ i 2X2X2X2X3X7Xp >.a.C.7 ) ) f n.V.V.V.V.V.V.I.T.E..X",
"P.E.E.E..X.XI.#Xy Z #.# = y - & a n  .D V O u 2X2X2X2X,Xg $ 5.V.0 o U P 1 Q.P.V.V.V.V.V.V.I.E.P.",
"_._._._.a./..X.X_   2 E B.V.$ D S  . . .V O h ' >X[ z d x > V.r #.+     6.Z.W.W.E.T.I.C.F.V.V.V.",
"C.V.F.a.a.a.a.a.a.a.a.a.a.a.; N  . .S V + g { 2X2X2X2X:X,X; Z.= 8 r #X8.: a.a.a.a.a.a.a.a.a.a.C.",
"V.V.V.V.F.a.A.S.C.a.a.a.a.9.= i V  .a d h z :X2X2X2X>XX % = r o 9 g.f.Z ; a.Z.S.C.a.a.a.a.a.C.S.",
"V.#XE.W.P.a.V.V.V.F.V.S.B.W i z B B h v z z z ,X2X2X2X>Xb     & Z -.-.9 2.a.V.V.V.F.V.S.V.V.V.V.",
"~.E.W.W.W.Y.F.V.V.V.I.T.T.w d z h h h h z z z z :X:X{ k u   n.1 O q Z w W.Y.F.V.V.V.I.T.T.W.W.I.",
".X.XW.W.W.W.I.V.V.W.W.W.W.~ , K s F i & % f l U G U J !.) < ~ F G X ~ K.W.W.T.V.V.W.W.W.W.W.I.C.",
"E.W.W._.W.W..XT.P.V.V.V.V.z., < Y O.& * l K l U F U J < * X ( 6 J t W._.W.W.W.E.P.V.V.V.V.V.V.u.",
"#XP./.a.U..XW.T.I.V.V.V.2.e X d O , H Y * & d d d d d h v j R r ; / ).a.U.W.W.T.I.V.V.V.T..X`.R.",
"w.w.a.a.a.V.#XV.V.V.I..Xt , g z d F ) l Y j z z h >X>X2X:Xv O x.a.a.a.a.C.V.V.V.V.V.I.W.I.T.W.W.",
"a.C.V.S.a./.F.V.V.P.I.P.x.- u d u o Y < O X d d d % % % X M 0 9.a.C.V.S.a.a.F.V.V.I.I.P.V.V.I.P.",
"C.S.V.V.V.V.V.V.V.V.4.y m.4.o   y ( I 6 8.6.E ^ ^   $ ^ 6.$ L C.a.S.V.G.V.V.V.V.V.V.S.C.V.V.V.#X",
"B.S.V.V.V.V.S.C.V.S.Q o $   O 2.B.B.c.4.4.5.2.4.4.> O 6 O   o 1.V.S.V.V.V.V.S.Z.V.S.a.a.B.V.V.V.",
"V.V.V.V.V.S.a.a.a.a.a.y.  L x.2.2.k.k.k.3.3.k.k.3.( 6 6 y <.: ^ V.V.V.V.V.S.a.a.a.a.a.a.C.Z.V.V.",
"Z.a.a.C.Z.a.a.a.a.a.a.a.a.7./ <.3.3.k.k.k.k.k.<.Q / Q Q Q Q 6.a.Z.a.a.C.C.a.a.a.a.a.a.a.a.a.9.Z.",
"a.a.a.i.u.r.S.S.A.S.r.r.a.0.2.2.3.j.k.k.k.3.1.( 3.1.1.Q Q Q 7.a.a.a.a.e.i.i.S.S.S.S.r.r.a.Z.V.V.",
"s.i.i.u.u.u.u.u.r.r.`.t.u.Z.B.b.k.k.k.k.j.2.2.2.1./ Q Q 6.s.a.a.s.i.r.u.u.u.u.u.r.r.`.t.u.Z.V.E.",
"u.(.]..X].i.Y.W.Y.R.W.W.`.`.T.P.B.B.K.L.J.N.N.m.m.m.S.A.C.a.a.a.u.(.].W.].u.R.W.Y.R.W.W.`.`.T.P.",
"(.W.W.W.W.R.W.W.W.W.W.W.W.W.I.T.P.V.#XP..XT.I.P.V.V.V.V.F.U.U._.(.W.W.W.W.R.W.W.Q.W.W.W.W.W.I.T.",
"W.W.W.I.E.W.W.I.W.W.P..XW.W.W.W..XV.I.P.V.V.V.V.V.V.V.V.T.V.I.W.W.W.W.I.E.W..XI.W.W.I.W.W.W.W..X",
"V.E.I.V.V.T.V.V.V.P.V.E.W..XW.W..XT.W.W.T.T.T.T.T.V.V.V.V.V.V.V.V.E.I.V.V.T.V.V.V.V.V.T.W.W.W.W.",
"V.V.V.V.V.P.V.V.V.V.V.P.I.I.#XP.I.I.I.I.V.S.Z.C.F.V.V.V.V.V.V.V.V.V.V.V.V.P.V.V.V.V.V.I.I.I.V.P.",
"P.V.V.V.V.S.Z.V.V.V.V.V.V.V.V.V.V.V.V.S./.a.a.a.a.a.a.C.V.I.W.W.I.V.V.V.V.S.C.V.V.V.V.V.V.V.V.V.",
"W.W./.a.C.A.a.C.V.V.V.A.B.V.V.V.V.V.C.a.a.S.Z.C.a.a.a.a._.].W.W.W.W./.a.C.C.C.C.V.V.V.C.F.V.V.V."
};
