/* XPM */
static char *result[] = {
/* columns rows colors chars-per-pixel */
"48 48 219 2 ",
"   c #161C2E",
".  c #181F2F",
"X  c #191F31",
"o  c #17212F",
"O  c #1B222F",
"+  c #1C2334",
"@  c #1D2D35",
"#  c #1D3A35",
"$  c #222534",
"%  c #222A32",
"&  c #23243B",
"*  c #2B2C39",
"=  c #292C37",
"-  c #253335",
";  c #293333",
":  c #2B3A3A",
">  c #273838",
",  c #333B36",
"<  c #34323C",
"1  c #3B343A",
"2  c #373B38",
"3  c #1F4437",
"4  c #234838",
"5  c #3F4339",
"6  c #36463A",
"7  c #25573C",
"8  c #26623F",
"9  c #414939",
"0  c #4C5C3B",
"q  c #43513B",
"w  c #575A3F",
"e  c #5A4E3A",
"r  c #57673E",
"t  c #5D703F",
"y  c #292A41",
"u  c #282641",
"i  c #332D4C",
"p  c #372F46",
"a  c #283D46",
"s  c #253A42",
"d  c #3E3B41",
"f  c #35334D",
"g  c #383541",
"h  c #3A3553",
"j  c #3D3955",
"k  c #3E375A",
"l  c #382F52",
"z  c #423E42",
"x  c #433D5B",
"c  c #453751",
"v  c #533F5B",
"b  c #4A3C65",
"n  c #473F60",
"m  c #394941",
"M  c #3D5243",
"N  c #304F51",
"B  c #375C5A",
"V  c #3B5C5E",
"C  c #2C474B",
"Z  c #296B40",
"A  c #276640",
"S  c #38625B",
"D  c #2F7543",
"F  c #3F5C61",
"G  c #3F6F64",
"H  c #4A4346",
"J  c #5B4E4F",
"K  c #435C43",
"L  c #5E5152",
"P  c #6E5C58",
"I  c #655855",
"U  c #725F5B",
"Y  c #6C5544",
"T  c #486248",
"R  c #4F6846",
"E  c #566D49",
"W  c #557249",
"Q  c #4C6A5D",
"!  c #5A7C52",
"~  c #55735C",
"^  c #6A6E43",
"/  c #627441",
"(  c #657E48",
")  c #747647",
"_  c #7A695C",
"`  c #696256",
"'  c #54446D",
"]  c #5A466D",
"[  c #594575",
"{  c #5B4577",
"}  c #4F4362",
"|  c #6A4D74",
" . c #417168",
".. c #407A65",
"X. c #406F67",
"o. c #86684B",
"O. c #907048",
"+. c #8C7765",
"@. c #917768",
"#. c #32964B",
"$. c #3D885F",
"%. c #358245",
"&. c #3BA44E",
"*. c #38B251",
"=. c #39AD53",
"-. c #578F50",
";. c #6C8445",
":. c #68834A",
">. c #68874C",
",. c #728944",
"<. c #768847",
"1. c #789248",
"2. c #678A54",
"3. c #6C9658",
"4. c #769858",
"5. c #7B8151",
"6. c #59AA53",
"7. c #49B053",
"8. c #7CA857",
"9. c #71B959",
"0. c #6F976F",
"q. c #6E9A6E",
"w. c #7C9B6E",
"e. c #739B6C",
"r. c #679175",
"t. c #6B9671",
"y. c #719173",
"u. c #79A863",
"i. c #73A069",
"p. c #7AA463",
"a. c #5DC058",
"s. c #72C85C",
"d. c #8B8A4E",
"f. c #84924A",
"g. c #839C48",
"h. c #92904F",
"j. c #919351",
"k. c #BF9959",
"l. c #89A44A",
"z. c #8AA54A",
"x. c #92A74D",
"c. c #95B24D",
"v. c #9CB64E",
"b. c #9BB94E",
"n. c #84AE5C",
"m. c #89AD5B",
"M. c #87A852",
"N. c #99A050",
"B. c #9CAA50",
"V. c #8EB256",
"C. c #94B552",
"Z. c #9EB553",
"A. c #9BB35B",
"S. c #A3A054",
"D. c #A7A659",
"F. c #B7AC56",
"G. c #A3B951",
"H. c #A9B953",
"J. c #A3B35E",
"K. c #AEB65D",
"L. c #A6B452",
"P. c #B1BA56",
"I. c #B2B35E",
"U. c #B6BA58",
"Y. c #BFBA5B",
"T. c #BCB75A",
"R. c #9D8C6F",
"E. c #A59965",
"W. c #A89474",
"Q. c #AC906A",
"!. c #84AB62",
"~. c #87A06C",
"^. c #8AA863",
"/. c #95AF60",
"(. c #9CAA65",
"). c #AAB061",
"_. c #A1A062",
"`. c #CC995A",
"'. c #D9945F",
"]. c #D39C5E",
"[. c #D9995D",
"{. c #C6A65E",
"}. c #DCAB5A",
"|. c #E8B655",
" X c #E1A65A",
".X c #D59460",
"XX c #86C95E",
"oX c #94D562",
"OX c #F1CB4E",
"+X c #F6D74B",
"@X c #EDC351",
"#X c #FFED44",
"$X c #FCE749",
"%X c #FFEF5D",
"&X c #FFF274",
"*X c #FAE575",
"=X c #654C83",
"-X c #6D4E8B",
";X c #70508E",
":X c #765395",
">X c #7A5594",
",X c #675888",
"<X c #7B7188",
"1X c #865E89",
"2X c #855C97",
"3X c #8A5E98",
"4X c #966697",
"5X c #926489",
"6X c #A16D99",
"7X c #A7719A",
"8X c #D0B383",
"9X c #DBCB9A",
"0X c #FFF48B",
"qX c #FDF094",
"wX c #E9D6A1",
"eX c #EFE1AB",
"rX c #FFFACB",
"tX c white",
"yX c #FFFDE6",
/* pixels */
"b.A.!.u.J.Y.Y.P.H.b.b.oXP.{.Z.P.{.Y.H.U.Y.Y.H.H.Y.J.u.u.J.U.b.b.b.A.!.u.).T.Y.P.H.b.b.b.P.Y.(.I.",
"u.u.u.u.8.Z.b.b.b.b.H.{.H.P.Y.{.P.b.b.oXY.H.V.u.u.u.u.u.C.b.b.V.u.u.u.u.8.b.b.b.b.b.H.Y.H.U.Y.Y.",
"u.n.b.V.u.!.C.b.b.G.H.G.XXb.H.G.b.b.b.b.b.A.8.M.u.u.u.u.u.u.n.u.u.n.b.V.u.n.V.b.b.G.H.G.b.b.G.Z.",
"n.V.b.b.b.b.b.b.b.b.V.n.G.b.b.b.b.b.c.c.u.u.u.b.b.n.n.V.u.u.u.n.n.V.b.b.b.b.b.b.b.b.V.n.b.b.b.b.",
"b.V.b.b.b.b.V.n.b.V.u.u.V.b.b.b.b.b.H.G.oXc.C.XXb.C.b.b.b.V.V.b.b.V.b.b.b.b.C.n.b.V.u.u.V.b.b.b.",
"b.b.b.b.b.V.u.u.u.u.u.u.n.n.b.b.b.P.Y.Y.P.P.Y.{.P.b.b.b.b.V.n.b.b.b.b.b.b.V.u.u.u.u.u.u.!.n.b.b.",
"n.u.u.n.n.u.u.u.u.u.u.u.u.u.u.n.b.H.{.Y.{.Y.Y.M.u.n.u.u.u.u.u.u.n.u.u.n.V._.'.'.]._.u.p.u.u.u.n.",
"u.u.u.t.t.t.V.V.V.V.q.q.u.n.b.b.H.P.U.Y.Y.b.c.XXb.V.V.u.u.u.u.u.u.u.u.t.Q..XOX+X+X@X{.w.u.D.F.Z.",
"i.r.t.r.r.r.r.t.i.0.(.w.t.m.b.U.Y.{.Y.Y.P.b.b.b.C.8.u.u.u.u.u.u.i.r.q.y.'.OX#XqX0X#X+X{.k.OX X].",
"r.~.K.{.).r.).Y.).K.Y.Y.(./.P.G.b.XXU.{.U.H.Z.g.M.b.C.V.n.u.u.u.t.^.K.k. X$X#XrX&X#X+X|.[.+X$X[.",
"^.Y.Y.Y.Y.U.Y.Y.Y.Y.Y.Y.Y.Y.H.P.H.b.b.G.d.) ` c 0 b.b.b.C.J.J.(.m.Y.{.Y |.#X#X#X#X|.].o.Y  X$X[.",
"Y.Y.Y.H.P.{.Y.H.Y.Y.K.Y.Y.Y.Y.Y.Y.b.H.t O h >X5X6 b.b.b.H.G.G.Y.Y.Y.Y.1 +X$XyX#X+X[.L.K.d.}.|.].",
"XX{.H.b.b.U.b.b.b.G.b.H.{.Y.{.Y.Y.L.2 O ] 4X3X4Xp ;.b.b.b.b.b.b.b.U.H.1 OX0XtX#X|.o.c.P.Y.].'.{.",
"G.XXb.b.b.G.b.b.b.b.;.5 0 c.b.G.r ,   g ] 6X4X3X5X  c.b.b.b.b.b.b.G.b.w `.qXtX%X`.^ b.L.F.'.{.L.",
"H.b.b.XXb.C.n.b.b.l.Z 6.8.> t ; & b =X& j } 1X:X7X  $ % ; <.T.Y.G.XXv./ Y *X&X&XO.,.b.b.Z.Z.b.b.",
"{.Y.V.8.V.M.n.8.b.g.A o 7.%     * x ] ;X{ { { ;Xi D 7.s.oXW ) Y.Y.{.!.% +.8X}.D.e l.b.m.C.b.b.b.",
"V.V.C.C.V.b.b.V.C.c.m M @ i k ;X{ i k x [ -X:Xk G *.XX2.6 XXq B.V.V.>.d 9XeXwXI @ z.8.u.u.n.u.n.",
"p.C.u.n.V.n.u.u.C.V.u.W i b N } { :X:X-X;X:X=XB $.*.9.+ : M > 4.p.V., W.R.eX+.R.0 V.u.n.V.u.u.V.",
"(.t.u.u.u.u.8.u.u.u.u., y x } j x } ' :X:X:X,XV $.*.M + + Q ~ r.(.t.% R.d 8XR.% M u.u.b.b.b.b.b.",
"Y.).I.K.u.b.c.b.C.2.: # # # # 3 + y h h b :Xb a G *.> | } H r.I.Y.).5.$ d = W.= M.u.n.m.m.m.b.b.",
"b.U.Y.Y.{.P.XXb.b.> -.a.7.*.*.*.#.S & o k ;X:X=X,X<X1X7X7X2 K.P.b.U.^ g H X . 0 b.u.u./.J.J.L.U.",
"b.b.b.b.H.G.G.b.R D oXa.*.*.*.*.*.G G N a l :X:X2X3X3X4X7X> n.m.b.b.; @.U % 1.c.C.Z.K.G.H.G.H.oX",
"u.!.n.u.9.u.b.b.% 6.&.8 >     7 $.G B @     :X:X:X:X2X4X| > u.u.u.W g @.I 2 b.b.b.b.b.b.b.b.b.P.",
"n.V.V.A.{.P.b.b.# #.- ,.0 - B a S G  .C   + :X:X:X;X[ y   W u.u.2.> g U g d.b.b.b.b.b.b.H.P.U.{.",
"G.U.U.U.{.Y.H.oX%.#.0 b.0 C X.X. .G B + h ' :X:X:X;X-X=Xi >.V.Z.7 7 O % 2 {.H.b.b.b.b.Z.b.H.U.H.",
"/./././.u.n.Y.{.- 4 f.m.W   s X. .C y j [ :X:X:X:X:X:X:Xl <.b.0 8 @ 3.XX> 8.Y.Y.U.P.P.n.c.b.b.XX",
"n.b.C.u.u.u.8.u.u.T > 6 & x f V F j x x x x =X:X:X>X:Xi   5 4.- + -.s.9.4 3.p.u.u.u.u.u.8.8.8.n.",
"b.b.b.b.C.u.n.V.2.@ 7 & x x x x x x x x x x x -X>X>X;Xb &     6 # *.*.#.; 8.n.V.n.u.u.u.u.u.z.c.",
"b.oXU.Y.G.u.b.b.0 8 %.o & & X X y y y y * u & + & & g _ I < Q R X 4 &.# ,.8.b.b.b.C.b.V.XXG.G.oX",
"^.P.Y.Y.Y.K.b.b.0 8 *.6 J   P _ = P P d * * d H z H < X +   h.2 L $ % N.{.P.b.b.b.b.H.H.P.Y.{.G.",
"{.Y.Y.Y.Y.Y.H.b.g., 3 o u X H < d < & f f h h f l f k [ [ & h.5 P % j.Y.Y.Y.P.b.XX{.{.Y.{.Y.H.!.",
"P.Y.Y.A.Y.Y.{.P.G.V.l.0 x l I P L L + x x x x x ' ;X;X:X>X{ R f.O 9 U.C.Y.Y.Y.P.G.G.G.XXb.b.b.r.",
"XXJ.n.u.).Y.Y.P.H.b.Z.l.< f + P ; J d . * & y y &     O @ f r b.b.A.!.u.J.{.Y.P.H.b.oXb.P.{.Z.P.",
"M.u.u.u.8.b.b.b.b.b.Z.S./ 5 J 9   q r ;   X       T T W 0 5 l.V.u.u.u.u.u.b.XXG.b.b.G.{.H.U.Y.Y.",
"u.n.v.V.u.n.C.b.b.G.f.;.,.,.,.t % O / / %   K = , ! ! ! ! ! :.e.u.n.b.V.u.n.C.b.b.H.H.b.b.b.H.G.",
"n.V.b.b.b.b.b.b.b.C.1.:.,.,.,.0 0 0 ;.;.! ! ! ,.,.! ! :.! ! 2.8.8.V.b.b.b.b.b.b.b.b.c.V.b.b.b.b.",
"v.V.b.b.b.b.V.n.b.V.u.3.,.,.,.,.,.,.<.<.,.;.;.,.,.;.,.,.1.1.M.b.b.V.b.b.b.b.V.n.b.V.u.u.V.b.b.b.",
"b.b.b.b.b.V.u.u.u.u.u.u.n.8.c.c.g.B.S.S.N.N.S.B.B.z.c.v.b.n.n.b.b.b.b.Z.b.V.u.u.u.u.u.u.8.m.b.b.",
"n.u.u.n.n.u.u.u.u.u.u.u.u.u.u.n.G.G.Y.Y.{.Y.Y.n.u.8.u.u.u.u.u.u.n.u.u.n.n.u.u.u.u.u.u.u.u.u.u.n.",
"u.u.u.t.r.q.V.V.V.V.q.q.u.n.b.b.H.P.U.Y.{.oXc.b.b.V.V.u.u.u.u.u.u.u.u.t.t.t.V.V.V.V.q.q.u.n.b.b.",
"i.r.t.r.r.r.r.t.q.0.(.w.r.m.b.T.{.Y.Y.Y.P.oXb.b.C.n.u.u.u.u.u.u.i.t.q.r.r.r.t.t.e.t.A.w.r.n.oXT.",
"r.~.I.Y.).r.K.Y.).I.Y.Y.(.(.P.G.b.b.P.Y.U.L.G.b.b.b.C.V.u.u.u.u.r.~.).Y.).t.).Y.).I.Y.Y.(.(.P.G.",
"~.Y.Y.Y.Y.I.Y.Y.Y.Y.Y.Y.Y.Y.H.P.G.oXb.G.{.P.G.G.b.b.b.b.C.J.G.J.~.Y.Y.Y.U.I.Y.Y.{.Y.Y.Y.Y.Y.H.P.",
"Y.Y.Y.H.U.Y.Y.H.Y.Y.H.Y.Y.Y.Y.Y.{.b.H.G.b.b.b.b.b.b.b.b.P.G.G.{.Y.Y.Y.K.U.Y.{.H.Y.Y.H.Y.Y.Y.Y.{.",
"b.U.H.b.b.P.b.b.b.G.b.P.Y.Y.Y.Y.Y.P.Y.Y.U.P.U.H.P.b.b.b.b.b.b.b.b.U.H.b.b.P.b.b.b.v.b.P.Y.Y.Y.Y.",
"b.b.b.b.b.G.b.b.b.b.b.G.H.H.b.G.H.H.H.H.b.C.n.n.V.b.b.b.b.v.b.b.b.b.b.b.b.b.b.b.b.b.b.G.H.H.XXG.",
"G.b.b.b.b.V.n.b.b.b.b.b.b.b.b.b.b.b.b.C.u.u.u.u.u.u.u.n.oXL.U.Y.G.b.b.b.b.V.M.b.b.b.b.b.b.b.G.v.",
"{.Y.!.u.n.n.!.n.b.b.b.m.C.b.b.b.b.b.n.u.u.V.V.n.u.u.u.u./.K.Y.Y.Y.Y.!.u.V.n.n.n.b.b.b.V.b.b.b.v."
};
