/* XPM */
static char *result[] = {
/* columns rows colors chars-per-pixel */
"48 48 212 2 ",
"   c #161C2E",
".  c #1A1F31",
"X  c #1D2234",
"o  c #1C2A34",
"O  c #1E2B38",
"+  c #1E2638",
"@  c #1D3635",
"#  c #1B222F",
"$  c #212433",
"%  c #242C33",
"&  c #292D34",
"*  c #23243B",
"=  c #2A273C",
"-  c #26293A",
";  c #2C2C3A",
":  c #243335",
">  c #2B3334",
",  c #2B383A",
"<  c #36343C",
"1  c #353B38",
"2  c #352F36",
"3  c #254939",
"4  c #354236",
"5  c #37463A",
"6  c #25593D",
"7  c #23573C",
"8  c #3C543E",
"9  c #2E603D",
"0  c #434E39",
"q  c #44473A",
"w  c #4A5B3B",
"e  c #52573E",
"r  c #5A6C3E",
"t  c #54673D",
"y  c #292A41",
"u  c #282641",
"i  c #312F49",
"p  c #35324D",
"a  c #3E3648",
"s  c #3A3453",
"d  c #3E3956",
"f  c #3D3258",
"g  c #263C44",
"h  c #433C44",
"j  c #433C5B",
"k  c #463858",
"l  c #503E59",
"z  c #513D6D",
"x  c #4F3F69",
"c  c #2B454A",
"v  c #3D5646",
"b  c #3B595A",
"n  c #3B4C4E",
"m  c #286C41",
"M  c #2D7B44",
"N  c #3A625F",
"B  c #367D4B",
"V  c #3F6C65",
"C  c #484246",
"Z  c #544A4C",
"A  c #455A45",
"S  c #585844",
"D  c #5F5152",
"F  c #665754",
"G  c #614A41",
"H  c #4B6848",
"J  c #5A7449",
"K  c #5B7D52",
"L  c #497346",
"P  c #646943",
"I  c #657947",
"U  c #78665D",
"Y  c #73754A",
"T  c #4B4164",
"R  c #4B4467",
"E  c #514367",
"W  c #5B4676",
"Q  c #505771",
"!  c #674B6A",
"~  c #614A7D",
"^  c #684D74",
"/  c #795677",
"(  c #417168",
")  c #417866",
"_  c #4C6B71",
"`  c #7E6860",
"'  c #866B55",
"]  c #8B7564",
"[  c #957767",
"{  c #AC7C52",
"}  c #378A49",
"|  c #34994B",
" . c #3D8D5E",
".. c #2F8847",
"X. c #39AA54",
"o. c #39B251",
"O. c #39A24E",
"+. c #478249",
"@. c #5F8355",
"#. c #4C8C4B",
"$. c #6C8445",
"%. c #65824C",
"&. c #718844",
"*. c #768849",
"=. c #7B9346",
"-. c #7C9249",
";. c #638655",
":. c #699658",
">. c #719D5F",
",. c #769650",
"<. c #7D8756",
"1. c #53B855",
"2. c #7DA357",
"3. c #6F976F",
"4. c #6E9A6E",
"5. c #779B6D",
"6. c #679175",
"7. c #6B9671",
"8. c #79A863",
"9. c #73A069",
"0. c #79A263",
"q. c #5DC058",
"w. c #77CA5D",
"e. c #C7BB3F",
"r. c #808849",
"t. c #8A884D",
"y. c #82844B",
"u. c #849E48",
"i. c #87974A",
"p. c #92964F",
"a. c #979450",
"s. c #9B9953",
"d. c #B19256",
"f. c #85A14B",
"g. c #8CA74B",
"h. c #95A64D",
"j. c #9BB94E",
"k. c #97B44D",
"l. c #85AE5C",
"z. c #89AC5B",
"x. c #87AA53",
"c. c #99A653",
"v. c #8EB256",
"b. c #83BA5B",
"n. c #94B552",
"m. c #9EB754",
"M. c #9BB35B",
"N. c #A6A755",
"B. c #B2AE58",
"V. c #A3B951",
"C. c #A9B953",
"Z. c #A3B35E",
"A. c #AEB65D",
"S. c #A8B552",
"D. c #B1BA56",
"F. c #B1B35F",
"G. c #B6BA58",
"H. c #BFBA5B",
"J. c #B8B459",
"K. c #95876D",
"L. c #8A9C64",
"P. c #B79764",
"I. c #A99675",
"U. c #AE9572",
"Y. c #84AB62",
"T. c #87A06C",
"R. c #8AA962",
"E. c #95AF60",
"W. c #9CAA65",
"Q. c #AAB061",
"!. c #B7A577",
"~. c #CB9959",
"^. c #D7975E",
"/. c #C9A55C",
"(. c #C2B55B",
"). c #E3AB58",
"_. c #E8B754",
"`. c #CA9462",
"'. c #D7B37D",
"]. c #86CF5F",
"[. c #94D562",
"{. c #F1CB4E",
"}. c #EDC251",
"|. c #F8DD49",
" X c #FFED44",
".X c #FBE347",
"XX c #FFEF55",
"oX c #FEF073",
"OX c #694C86",
"+X c #6D4E8A",
"@X c #654B82",
"#X c #6F508D",
"$X c #70508E",
"%X c #7A5585",
"&X c #765395",
"*X c #7C5696",
"=X c #7F5897",
"-X c #835B88",
";X c #865C97",
":X c #956598",
">X c #A26D9A",
",X c #A8719A",
"<X c #A6709A",
"1X c #BBAA83",
"2X c #C2AC82",
"3X c #DFC386",
"4X c #FFF596",
"5X c #EDDDA8",
"6X c #EFE1AB",
"7X c #FFF9B9",
"8X c #FFF7A8",
"9X c #FFFCDF",
/* pixels */
"j.M.Y.8.Z.(.(.D.C.j.j.j.D.H.W.F.H.H.C.G.H.H.C.C.H.Q.8.8.m.G.j.j.j.M.Y.8.Z.H.(.D.C.j.j.j.D.H.W.F.",
"8.8.8.8.8.j.j.j.j.j.C.H.C.G.H.H.D.V.j.j.(.C.n.8.8.8.8.8.n.j.j.v.8.8.8.8.Y.j.j.j.j.j.C.H.C.G.H.H.",
"8.l.j.v.8.l.n.j.j.V.C.j.j.j.C.V.j.j.j.j.j.n.8.8.8.0.8.8.8.8.z.8.8.l.j.v.8.8.n.j.j.V.C.V.j.j.C.j.",
"l.v.j.j.j.j.j.j.j.j.v.z.j.j.j.j.j.j.n.v.8.8.8.n.[.x.l.v.8.8.8.z.l.v.j.j.j.j.j.j.j.j.n.l.j.j.j.j.",
"j.v.j.j.j.j.v.b.j.v.8.8.v.j.j.j.j.j.C.V.j.n.v.j.j.n.j.j.j.v.v.j.j.v.j.j.j.j.v.z.j.v.8.8.v.j.j.j.",
"j.j.j.j.j.v.8.8.8.8.8.8.l.l.j.j.j.D.H.H.D.D.H.H.C.j.j.j.j.z.l.j.j.j.j.j.j.n.8.8.8.8.8.8.l.l.j.j.",
"z.8.8.z.l.8.8.8.8.8.8.8.8.8.8.z.m.C.(.H.H.H.H.Y.8.l.8.8.8.8.8.8.l.8.8.l.l.8.8.8.8.8.8.8.8.8.8.l.",
"8.8.8.7.6.7.v.v.v.v.4.4.8.l.j.j.C.C.H.H.H.V.v.n.j.v.v.8.8.8.8.8.8.8.8.7.6.7.z.n.v.v.4.4.8.l.j.j.",
"9.6.7.6.6.6.6.6.9.3.W.5.6.z.j.J.H.H.H.H.D.j.4 > f.Y.8.8.8.8.8.8.4.7.3.6.6.6.6.6.L.P.`.`.P.z.j.G.",
"6.T.A.H.Q.6.F.(.Q.F.H.(.W.M.D.V.j.j.G.J.P = / a g.j.n.v.8.8.8.8.7.T.A.J.F.6.J.(.^.{. X|._.P.G.V.",
"T.H.H.H.H.G.H.H.H.H.H.(.H.H.C.D.V.j.=.4 * OX,Xl r j.j.j.n.Z.Z.W.T.H.(.B.Y P (.~.). X8X4X X^.S.D.",
"H.(.H.C.G.H.H.C.H.H.C.H.H.H.H.(.(.f.& - ^ ;X<X-X% f.j.j.D.V.V.(.H.H.H.% G `.Y ^..X XXXXX X}.^./.",
"j.G.C.j.j.D.j.j.[.S.=.> 4 : N.s.& X u y T -X:X,X^ 4 w w =.j.j.j.j.D.Y ' ).{.{..X X X}._._.|._.).",
"j.j.j.j.j.V.j.j.j.k.&.4 1.:.%   p d W s i E &X:X!   M #.3 &.j.j.j.j.r ~..X XoX7XXX}.^.~.~.^.^./.",
"V.j.j.j.j.n.l.j.j.j.j.I 9 #.    p j j W OX~ W %X, | ].b.#.1 G.H.V.P 1 '.3XoX7X9X X).h.j.k.S.N.c.",
"H.H.Y.8.l.l.Y.8.j.j.j.x.@ # k R z X s j T OX+Xb  .o.[.& A *.H.H.N.& I.6X6X!.e..X{ $ g.z.n.m.s.[ ",
"v.v.n.n.v.j.j.v.n.j.8.8.X j j j x W +XOXOX&XR V X.w.H 5 x.v.m.S.H U !.6X2X'.2 , w g.8.8.8.z.8.z.",
"0.v.l.8.n.l.8.8.n.v.8.K + j j j j j T @X&X&XQ V X.q.# o ;.Y.j.z.v K.Z K.1X$   8.n.n.8.l.v.8.8.z.",
"W.7.8.8.8.8.8.8.8.8.;.&   . X X X p j j R #XX V  .+.- k , 6.5.6.<.$ Z ; U.C H 8.8.8.8.j.j.j.j.k.",
"(.Q.A.C.8.j.n.j.n.;.: } w.1.o.| 7 O . - R &XW R _ b / <X= Q.6.A.s.1 Z # . % v.k.n.8.8.v.z.x.j.[.",
"j.G.H.H.H.D.j.j.=., :.[.w.o.o.o.o.V c # * #X&X=X:X>X,X,X= H.Q.D.w F ' i e c.j.j.j.8.8.E.Q.Z.Q.G.",
"j.j.j.j.C.V.j.=.9 | q.1.O.6 6 o.o.V V c O E &X&X*X*X;X,X= 8.Y.l.; ] U < c.j.j.j.n.j.C.C.C.C.C.V.",
"8.l.l.8.2.8.[.4 ....6 3 0   o o V V N g   z &X&X&X&X%Xd % 8.>.A ; U Z A 8.8.j.j.j.j.j.j.j.j.j.D.",
"l.v.v.M.(.B.k.4 3 > w f.i.o V N V V V c . j $X$X+Xj y y J 8.v m . ; % x.(.A.j.j.j.j.j.j.C.C.G.(.",
"C.G.G.G.(.H.C.k.g.n.j.j.u.X V ( ( ( b o s @X$X&X$X$X$Xk I ,.6 3 A b.8 ' H.H.C.j.j.j.j.j.j.V.G.V.",
"E.E.E.E.8.R.H.H.G.D.C.z.f.% o ( ( c y d W &X&X&X&Xf * y I t   w [.w.} I 8.v.H.H.G.D.C.z.k.j.j.j.",
"l.n.n.8.8.8.@.@ O 5 0.8.c i d b b d j j j T &X&X&X&Xz * # # # | o.o.@ >.8.8.8.8.8.8.8.8.8.8.8.l.",
"j.j.j.j.n.8.o | o.c H 8.$ j T s d T j j j j @X&X&X&Xz f   =., 7 | m 0 j.n.8.l.v.l.8.8.8.8.8.l.k.",
"j.j.G.H.V.8.@ o.o.V > 5 . . - X X = y u y O * * - - U U % n h ; o t N.H.V.8.j.j.j.n.j.v.[.k.j.j.",
"T.D.H.H.H.A.o M B g & y.$ D < ] U o X F D ] I.] U.U C h X A F < A D.H.H.(.A.n.j.j.j.C.D.D.H.(.S.",
"H.H.H.H.H.H.i.w w P F.(.. u * h < Z C ; ; y u u u = i s $ a.1 # s.H.H.H.H.H.D.j.j.H.H.H.(.H.C.l.",
"G.H.H.M.(.H.H.G.V.j.j.5 y j j * F C F < p d T E @X~ $X$XW q N.h.G.H.H.E.H.H.(.D.V.j.j.j.j.j.j.6.",
"j.M.Y.8.Q.G.H.D.C.j.j.r * d a * < ' h = i s s s k f f - , w j.j.j.M.Y.8.Z.H.H.D.C.j.j.j.D.H.W.F.",
"8.8.8.8.l.j.j.j.j.j.C.H.J e t S 0 C 5 0     o v K @.@.:.n.j.j.n.8.8.8.8.l.j.j.j.j.j.C.H.C.G.H.H.",
"8.z.j.v.8.l.n.j.j.V.C.V.j.u.> Y 1 % =.g.r # 5 :.>.8.8.8.8.8.z.8.8.z.j.v.8.8.n.j.j.V.C.j.j.j.C.V.",
"8.v.j.j.j.j.j.j.j.j.v.l.j.f.>   > $.$.$.@.H H $.$.K %.,.>.8.8.z.8.v.j.j.j.j.j.j.j.j.v.v.j.j.j.j.",
"j.v.j.j.j.j.v.l.k.v.8.8.,.&.&.r I &.*.*.&.$.$.&.&.$.&.&.&.x.v.j.j.v.j.j.j.j.v.l.j.v.8.8.v.j.j.j.",
"j.j.j.j.j.v.8.8.8.8.8.8.%.%.&.&.&.r.t.t.r.r.t.t.r.&.&.&.&.2.z.j.j.j.j.j.j.v.8.8.8.8.8.8.l.l.j.j.",
"v.8.8.l.l.8.8.8.8.8.8.8.8.:.K %.&.-.t.t.t.t.t.K K K K K :.8.8.8.v.8.8.z.z.8.8.8.8.8.8.8.8.8.8.l.",
"8.8.8.7.6.7.v.v.v.v.4.4.8.l.j.g.c.p.a.a.s.-.,.-.f.x.x.8.8.8.8.8.8.8.8.7.6.7.v.v.v.v.4.4.8.l.j.j.",
"9.6.7.6.6.6.6.6.4.3.W.5.6.z.j.H.H.H.H.H.G.j.j.j.n.l.8.8.8.8.8.8.9.6.7.6.6.6.6.6.5.4.W.5.6.z.j.H.",
"6.T.A.H.Q.6.A.(.A.F.H.H.W.W.D.V.j.j.G.H.G.C.V.j.j.j.n.b.Y.8.8.8.6.T.F.H.Q.6.F.H.Q.Q.H.H.W.W.D.V.",
"T.H.H.H.(.A.H.H.H.H.H.H.H.H.C.D.V.j.j.V.H.D.C.V.j.j.j.j.n.Q.Q.E.T.H.(.H.H.F.H.H.H.(.H.H.H.H.C.D.",
"H.H.H.C.G.(.H.C.H.H.S.H.H.H.H.H.H.j.C.V.j.j.j.j.j.j.j.j.D.j.C.H.H.H.H.C.G.H.H.C.H.H.C.H.H.H.H.H.",
"j.G.C.j.j.D.j.j.j.V.j.D.(.H.H.H.H.D.H.H.G.D.D.C.D.j.j.j.j.j.j.j.j.G.C.j.j.D.j.j.j.V.j.G.H.H.(.H.",
"j.j.j.j.j.V.j.j.j.j.j.V.C.C.j.V.C.C.C.C.j.n.z.l.n.j.j.j.j.j.j.j.j.j.j.j.j.V.j.j.j.j.j.V.C.C.j.V.",
"C.j.j.j.j.v.l.j.j.j.j.j.j.j.j.j.j.j.j.v.8.8.8.8.8.Y.8.8.j.C.G.H.V.j.j.j.j.v.l.j.j.j.j.j.j.j.j.j.",
"H.H.Y.8.l.l.l.l.j.j.j.l.n.j.j.j.j.j.z.8.8.v.v.l.8.8.8.8.E.A.H.H.(.H.Y.8.l.v.8.l.j.j.j.b.n.j.j.j."
};
