/* XPM */
static char *result[] = {
/* columns rows colors chars-per-pixel */
"48 48 227 2 ",
"   c #161C2E",
".  c #191F31",
"X  c #1D2334",
"o  c #1B2C35",
"O  c #1D3635",
"+  c #17212F",
"@  c #232B33",
"#  c #22243B",
"$  c #242B3B",
"%  c #272936",
"&  c #293233",
"*  c #253438",
"=  c #343739",
"-  c #302F3B",
";  c #403C38",
":  c #1F4437",
">  c #394639",
",  c #2D503B",
"<  c #26643F",
"1  c #474C39",
"2  c #49583B",
"3  c #525737",
"4  c #54653D",
"5  c #4F6A3F",
"6  c #75723A",
"7  c #6E7039",
"8  c #2B2A43",
"9  c #2B2845",
"0  c #312D4A",
"q  c #37344A",
"w  c #3E3956",
"e  c #3A3354",
"r  c #2B3E44",
"t  c #433B47",
"y  c #433C5B",
"u  c #4C3D56",
"i  c #513F5C",
"p  c #493B64",
"a  c #503D6D",
"s  c #2E474E",
"d  c #3D5349",
"f  c #375956",
"g  c #36464D",
"h  c #38615C",
"j  c #2F7143",
"k  c #3C6761",
"l  c #454A47",
"z  c #54494C",
"x  c #465944",
"c  c #5C5D41",
"v  c #4A5255",
"b  c #695C56",
"n  c #644C42",
"m  c #486248",
"M  c #4F6744",
"N  c #576846",
"B  c #53734D",
"V  c #4D6B5E",
"C  c #5A7C52",
"Z  c #567657",
"A  c #5B6C54",
"S  c #696A45",
"D  c #677B46",
"F  c #78655D",
"G  c #717550",
"H  c #564468",
"J  c #5B4577",
"K  c #4D4868",
"L  c #62497E",
"P  c #745577",
"I  c #486E64",
"U  c #417168",
"Y  c #417467",
"T  c #58746B",
"R  c #835F4A",
"E  c #916F50",
"W  c #867764",
"Q  c #8F7466",
"!  c #2E8647",
"~  c #35954A",
"^  c #3C9B59",
"/  c #36A34E",
"(  c #39A854",
")  c #39B251",
"_  c #3E8960",
"`  c #5B874B",
"'  c #698348",
"]  c #738945",
"[  c #78854D",
"{  c #7A964B",
"}  c #648A57",
"|  c #759D5B",
" . c #719253",
".. c #4BB253",
"X. c #5D8368",
"o. c #6F986F",
"O. c #77996D",
"+. c #679175",
"@. c #6C9672",
"#. c #758F6C",
"$. c #79A863",
"%. c #78A364",
"&. c #5DC058",
"*. c #73C85C",
"=. c #6EC65B",
"-. c #97923B",
";. c #A29A3B",
":. c #ABA23C",
">. c #8A874B",
",. c #859A49",
"<. c #93964F",
"1. c #868952",
"2. c #9B9A54",
"3. c #8E9553",
"4. c #B8895C",
"5. c #B3995E",
"6. c #8AA54A",
"7. c #92AA4B",
"8. c #9BB94E",
"9. c #98B34D",
"0. c #85AE5C",
"q. c #88AC5C",
"w. c #9BA855",
"e. c #8EB256",
"r. c #89B85D",
"t. c #94B553",
"y. c #9DB553",
"u. c #99B65A",
"i. c #ADAC55",
"p. c #A7A559",
"a. c #B6A857",
"s. c #A3B951",
"d. c #A9B953",
"f. c #A3B35D",
"g. c #AEB65D",
"h. c #A7B654",
"j. c #B1BA56",
"k. c #B1B35F",
"l. c #B6BA58",
"z. c #BFBA5B",
"x. c #BBB559",
"c. c #A5BD4E",
"v. c #8F8B68",
"b. c #BC9A61",
"n. c #AE956C",
"m. c #87A06C",
"M. c #87A962",
"N. c #94AF60",
"B. c #9CAA65",
"V. c #9AA161",
"C. c #A7A561",
"Z. c #AAB061",
"A. c #BCA361",
"S. c #CB9C5C",
"D. c #D9945F",
"F. c #D3995E",
"G. c #DC9C5D",
"H. c #D4965E",
"J. c #C28659",
"K. c #C7A45B",
"L. c #DEA15B",
"P. c #DFA959",
"I. c #C7B959",
"U. c #CEB84E",
"Y. c #E2A859",
"T. c #E6B356",
"R. c #EABC53",
"E. c #E8B754",
"W. c #C89760",
"Q. c #C2A67B",
"!. c #ADC24C",
"~. c #B9C94B",
"^. c #ADC356",
"/. c #B6C556",
"(. c #95D562",
"). c #8ACE5F",
"_. c #C6CE4C",
"`. c #D5C840",
"'. c #CCD24D",
"]. c #D6D84B",
"[. c #C7CA53",
"{. c #D5CC53",
"}. c #C8D151",
"|. c #D6D152",
" X c #EFC84F",
".X c #F1CB4F",
"XX c #E9DB47",
"oX c #F5D74B",
"OX c #EEC451",
"+X c #E3CF50",
"@X c #EDE447",
"#X c #F4E646",
"$X c #FBE546",
"%X c #FFED44",
"&X c #FFED4B",
"*X c #F7E547",
"=X c #FFEF5C",
"-X c #FFEF56",
";X c #FFF066",
":X c #FFF278",
">X c #F0CC64",
",X c #5F5B81",
"<X c #6D4E8B",
"1X c #684C85",
"2X c #775396",
"3X c #785493",
"4X c #70508E",
"5X c #845B97",
"6X c #996898",
"7X c #956A92",
"8X c #A8719A",
"9X c #D5B583",
"0X c #DCC395",
"qX c #FFF48E",
"wX c #FFF381",
"eX c #FFF698",
"rX c #F7E58D",
"tX c #EADAA4",
"yX c #FFF7A9",
"uX c #FFF8B8",
"iX c #EFE1AB",
"pX c #E3CC98",
"aX c #FFF9C5",
"sX c #FFFBD4",
"dX c #FFFDE5",
"fX c #FFFFFF",
"gX c #FFFEF5",
/* pixels */
"8.u.M.%.f.I.z.j.d.8.8.8.l.I.B.k.z.z.d.l.x.z.d.d.z.Z.$.$.f.l.8.8.8.u.M.$.f.z.l.j.d.8.8.8.j.I.B.g.",
"$.$.$.$.$.8.8.8.8.8.d./.d.l.z.z.j.s.8.8.{.'.~./.u.$.$.$.8.8.'.#X@X@X/.^.^.8.8.8.8.8.d.I.d.l.z.z.",
"$.0.8.e.$.$.t.8.8.s.d.c.8.8.d.s.8.!.].%X%X%X%X%X%X].}.r.$.$.r._.%X$X%X$X%X#X].c.s.K.K.d.s.8.d.s.",
"0.e.8.8.8.8.8.8.8.8.t.u.8.8.!.!.@X%X%X%X%X%X%X%X%X%X%X#XI.V.$.0.$XY.Y. XoX%X%X@X!.8.w.b.4.w.8.s.",
"8.e.8.8.8.8.e.r.~.].#X^._.#X%X%X%X%X&X%X%X.X X$X%X%X%X%X%XoXK.i.K.E.G.D.D.G..X$X*X].$.$.p.n.v.2.",
"8.8.8.8.8.t.$./.#X@X^.}.%X%X%X%X%XoXE.L.L.G.D.G.L.G.OX%X%X%X$XoXY.D.D.D.D.D.C.Y..X%X].e.0.p.5.Q ",
"0.$.$.0.r.$.u.#X%X/.#X%X%X%X$XR.G.D.D.D.D.D.D.D.D.w.q.W.Y.oX%X%X*XI.W.D.p.W.V.M.S.Y.oX%X[.V.W.4.",
"$.$.$.@.+.o.#X%X%X%X%X%X%X.XY.D.T.K.K.L.K.h.a.K.S.D.b.$.V.C.x.[./.$.%.O.@.+.i.e.e.a.n.K. X_.c.a.",
"%.+.@.+.+./.@XXX&X%X%X%XoX.X.X+X[.z.z.z.l.8.8.8.t.V.V.M.$.$.$.$.o.+.o.+.+.+.+.+.O.o.B.m.#.x.XX'.",
"+.m.k.l.Z.+.|.&X%X%X%X%X%X$X[.8.y.8.l.I.l.d.s.8.8.8.t.e.0.$.$.$.+.m.g.z.Z.+.k.z.Z.Z.z.z.B.B.l._.",
"m.z.z.z.I.A.%X%X%X%X%X%X$X{.d.j.a.a.s.s.z.j.d.s.8.8.8.8.t.Z.Z.B.m.z.z.z.z.k.z.z.z.z.z.z.I.z.d.l.",
"z.z.z.d.x.F..X%X%X%X%X%X$X[.K.F.D.K.d.s.8.8.8.8.8.8.8.8.d.8.s.z.z.z.z.d.l.z.z.d.z.z.d.z.z.z.z.z.",
"8.l.d.8.F.D.OX%X%X%X%X%XOXD.D.F.x.j.z.z.l.d.l.j.j.8.8.8.8.8.8.8.8.l.d.8.8.j.8.8.8.s.8.j.z.z.z.z.",
"8.8.8.i.D.L.$X%X%X%X*X XD.D.a.s.d.d.d.d.8.t.0.0.t.8.8.8.8.8.8.8.8.8.8.8.8.s.8.8.8.8.8.s.d.d.8.s.",
"s.8.8.F.D.T.$X%X%X$XL.D.D.b.8.8.8.8.8.e.$.$.$.$.$.$.$.0.8.d.l.I.s.8.8.9.8.e.r.8.8.8.8.8.8.8.8.8.",
"{.I.M.H.D.D.%X%X%X XD.D.F.s.8.8.8.8.q.$.$.e.r.0.$.$.$.$.N.Z.z.z.I.z.0.$.r.0.$.M.8.8.8.0.t.8.8.8.",
"}.e.W.D.D..X.XE.*XD.D.S.0.e.$.$.8.e.e.e.t.8.{ 2 l 9 J 0 % ' u.d.t.e.9.t.e.8.8.e.t.8.$.$.$.0.$.0.",
"}.e.D.D.D.oXL.E.G.D.5.q.e.$.$.0.e.9.8.8.9.2 8 L 3X5X6X9 g x 8.q.%.t.$.0.e.0.$.$.t.e.$.0.e.$.$.r.",
".XA.D.D.E..XD.G.D.E $.8.8.8.8.8.8.8.8.o.d u 2X2X5X8XH <.Z * % $ r T $.$.$.$.$.$.$.$.$.8.8.8.8.8.",
"T.D.D.D.T.T.G.L.R ` $.0.r.0.D > > M #.l   P 8X6X5X8Xt > * ~ ../ j x g.g.$.8.e.8.t.$.0.0.0.0.8.8.",
"I.D.D.D.D.D.D.E G $.$.N.f.3.* ~ o G = e 0 9 H P 3X5XK , ..*.C @ 4 w.I.z.z.l.8.8.8.$.$.q.Z.f.Z.j.",
"s.F.D.D.D.D.D.n { s.d.d.j.3 ~ `   @ 0 H H 1X<X<X1X3Xs ( =.(.> 5 8.8.8.8.d.8.8.8.t.y.d.d.d.d.d.8.",
"V.D.D.D.D.D.J.1 9.8.8.8.8.< &.2 X 8 8 q e w K <X3Xy h ( =.|   } $.$.0.$.$.$.8.8.8.8.8.8.8.8.8.j.",
"j. XD.D.D.Y.R ' 9.8.8.8.^.> j # u J L J 1X1X<X<X3XK U ( ) > + * N e.e.u.z.g.8.8.8.8.8.8.d.j.l.I.",
"XX.XD.D.L. X; 6.!.8.8.8.8.4   e y y p 1X1X,X2X2X3Xy f k ( : H 7X= l.l.x.z.z.d.8.8.8.8.8.8.s.l.s.",
"%XL.D.D..X%XS |./.j.j.q.t.8.& q y y w p e y y p 2X2Xa ,X,X8X8X8Xi  .u.u.$.M.z.z.l.j.j.0.t.8.8.8.",
"%XR.H.L.$X6 } /.$.x + d | %.o   o : : O o o   + w 2X2X5X6X6X5X6X4X3 t.$.$.$.$.$.$.$.$.$.$.$.$.0.",
"%X.XD.Y.%X6 '.].0., ! < o @ j r...) ) ( _ k h s $ w 2X2X2X2X5X7Xt 2 8.8.t.$.0.e.0.$.$.$.$.$.0.e.",
"uX>XD.OX%X7.XX~.8.7 : / ! ~ ).*.( ) ) ) ^ k k r +   1X2X2XJ K 9 8 2 l.z.s.$.8.8.8.t.8.e.8.8.8.8.",
"fX=XD.oX:X-X%X~.8.8.D O / ) ) / <     O h X.k k . . J 2X2X2X3X<X1Xq i.I.z.g.t.8.8.8.d.d.j.z.z.d.",
"fX=XD.oXuX=XU.!.9.I.z.[ * : : o o + s h k k k h X w <X2X2X2X3X2X2Xp S z.z.z.j.8.8.z.I.z.z.z.h.0.",
"fX=XD.oXdX:X6 d.c.8.8.8.6.D D T m.s r k Y k k 8 w p 2X2X2X9 p 2X2X1X- N.z.z.z.j.s.8.8.8.8.8.8.+.",
"gX=XT.$XsXqX6 j.d.8.8.8.j.z.B.k.z.i.@ s I k r e y w w w   p <X2X2X2X# C f.z.z.j.d.8.8.8.j.I.B.Z.",
"sX:XrX=X:X;X7 8.8.8.d.z.d.l.z.z.j.> 0 y K g K w e 8 . 9 a 2X2X2X2X2X# V 0.8.8.8.8.8.s.z.d.l.z.z.",
"=XqXfXeX%X%X7 8.8.d.d.s.8.8.d.s.8.& 8 0 8 + 8 X X   8 0 p a 0 # # # . x $.$.t.8.8.s.d.s.8.8.d.s.",
"wX;XfXdX&X%X7 ] 8.8.e.0.8.8.8.8.8.> * j j j o + % $ z F n.W n.Q b z b # 2 ,.7.8.8.8.e.r.8.8.8.8.",
"aX%XfXfX;X&X`.5 8.0.$.|  .9.8.8.9.4 < ..) ) ! @ F t - # X X . X # 0 y H a   D 0.8.e.$.$.e.8.8.8.",
"dXwXaXaXyX&X$X3 } } = X z & 5 & = t   ' =.) ~ o X + 8 q y y K J J <Xa a 8 @ $.$.$.$.$.$.0.0.8.8.",
"yXuX%X=X;XaX%X`.&   v.9XW W - W Q F = ` (...) : z W q . 8 8 X         B B %.$.$.$.$.$.$.$.$.$.0.",
"%X%X%XyX-XuXqX%X%XQ.tXiX= - - b b - X > < < o   4 & = M m m m m x + X V I Z | t.e.e.o.o.$.0.8.8.",
"XX%X%X%XqXsXgXaXqX0XiXtX0Xb . # 1 G 2.%   2 1 > D ` C C C C C C Z f + $ d V V V o.o.B.O.+.q.8.z.",
"1 XX%X%X&X:XdXgXfXrXpXn.b n.. { 9.8.i.c N 7 ] ] ] ] ' ' C C C ` I G N c S I 1.<.f.g.z.z.B.B.j.s.",
"N 6 #X%X$X%X%X%X%X:.= l & = 3 l.s.8.8.9.2.>.] ] ] ] ] ] ' [ [ G A >.1.>.>.1.p.l.I.z.z.z.z.z.d.j.",
"x.i.G ;.;.;.-.3 >.7 ,.<.i.z.z.I.x.8.d.s.s.8.7.7.6.{ ,.,.2.,.,.2.2.p.i.w.i.I.z.d.x.z.d.z.z.z.z.z.",
"8.l.d.7.6.w.6.6.9.s.8.j.z.z.z.z.z.j.z.z.l.j.j.j.j.8.8.8.8.8.8.8.s.x.d.9.8.j.8.8.8.8.8.j.z.z.z.I.",
"8.8.8.9.8.s.9.8.8.8.8.s.d.d.8.s.d.d.d.d.8.t.0.0.t.8.8.8.8.8.8.8.8.8.8.8.8.s.8.8.8.8.8.s.d.d.8.s.",
"s.8.8.8.8.e.0.8.8.8.8.8.8.8.8.8.8.8.8.e.$.$.$.$.$.0.$.$.y.h.l.z.s.8.8.8.8.e.0.8.8.8.8.8.8.8.8.8.",
"z.I.0.$.0.0.0.0.8.8.8.0.t.8.8.8.8.8.r.$.$.t.e.$.$.$.$.$.u.g.z.z.I.z.0.$.0.0.0.M.8.8.8.0.t.8.8.8."
};
