/* XPM */
static char *result[] = {
/* columns rows colors chars-per-pixel */
"48 48 190 2 ",
"   c #161C2E",
".  c #1D2436",
"X  c #1B3434",
"o  c #252637",
"O  c #20303C",
"+  c #2E3E3B",
"@  c #2B3533",
"#  c #36343D",
"$  c #363934",
"%  c #1E4036",
"&  c #364236",
"*  c #3F4239",
"=  c #34483A",
"-  c #24583C",
";  c #22523B",
":  c #325E3F",
">  c #494B3C",
",  c #4B5B3B",
"<  c #53553E",
"1  c #57693E",
"2  c #292941",
"3  c #273B44",
"4  c #32304A",
"5  c #3C3644",
"6  c #393352",
"7  c #3D3258",
"8  c #3C3854",
"9  c #453E45",
"0  c #433D5B",
"q  c #4B3B55",
"w  c #503E59",
"e  c #503D6C",
"r  c #543F71",
"t  c #384D46",
"y  c #3E5443",
"u  c #304F51",
"i  c #355857",
"p  c #2B7843",
"a  c #396F5B",
"s  c #494246",
"d  c #544B4A",
"f  c #465842",
"g  c #5A5B40",
"h  c #59514C",
"j  c #5B4E50",
"k  c #5D5050",
"l  c #685757",
"z  c #625950",
"x  c #51704E",
"c  c #5F774C",
"v  c #4E6C5F",
"b  c #4A675B",
"n  c #5A7C52",
"m  c #54735A",
"M  c #417E47",
"N  c #606142",
"B  c #667A41",
"V  c #607F4F",
"C  c #687748",
"Z  c #7B7B49",
"A  c #737B46",
"S  c #73625A",
"D  c #79645D",
"F  c #7A6A5B",
"G  c #687257",
"H  c #4B4164",
"J  c #4F4269",
"K  c #584874",
"L  c #6E4F6F",
"P  c #624A7E",
"I  c #60467D",
"U  c #6F527A",
"Y  c #417168",
"T  c #407B64",
"R  c #4B666F",
"E  c #897861",
"W  c #977B6B",
"Q  c #9E7466",
"!  c #846D63",
"~  c #308E49",
"^  c #39974B",
"/  c #3D8B5F",
"(  c #3C985A",
")  c #38B251",
"_  c #3AA257",
"`  c #3F8162",
"'  c #6B8446",
"]  c #68834A",
"[  c #688C4E",
"{  c #728844",
"}  c #77844B",
"|  c #7B9346",
" . c #76914A",
".. c #618656",
"X. c #6A8954",
"o. c #7B8952",
"O. c #69925B",
"+. c #60A051",
"@. c #68A353",
"#. c #77A956",
"$. c #5E8369",
"%. c #6F976F",
"&. c #6E9A6E",
"*. c #7C9B6F",
"=. c #739B6C",
"-. c #679175",
";. c #6B9671",
":. c #618870",
">. c #79A863",
",. c #73A069",
"<. c #7CA165",
"1. c #5DC058",
"2. c #72C85C",
"3. c #ABA23C",
"4. c #C7BB3F",
"5. c #82884A",
"6. c #8A884D",
"7. c #82814B",
"8. c #87944B",
"9. c #808450",
"0. c #969450",
"q. c #9D9857",
"w. c #8E9350",
"e. c #A4964C",
"r. c #B29E5F",
"t. c #88A34A",
"y. c #95A64E",
"u. c #96AD4E",
"i. c #9BB94E",
"p. c #85AE5C",
"a. c #89AC5B",
"s. c #8EB256",
"d. c #94B552",
"f. c #9EB754",
"g. c #9BB35A",
"h. c #ABA857",
"j. c #B5A757",
"k. c #A3B951",
"l. c #A9B953",
"z. c #A3B35D",
"x. c #AEB65D",
"c. c #AAB052",
"v. c #B1BA56",
"b. c #B1B35F",
"n. c #B6BA58",
"m. c #BFBA5B",
"M. c #989279",
"N. c #B39C61",
"B. c #B69D75",
"V. c #84AB62",
"C. c #87A06C",
"Z. c #8AA863",
"A. c #95AF60",
"S. c #9CAA65",
"D. c #AAB061",
"F. c #BDA77F",
"G. c #D9945F",
"H. c #CA9D5B",
"J. c #C0A658",
"K. c #D0A25E",
"L. c #E2A959",
"P. c #E8B655",
"I. c #B5C74F",
"U. c #95D562",
"Y. c #CEC949",
"T. c #F0C94F",
"R. c #F6D84A",
"E. c #F9DF48",
"W. c #E5D94D",
"Q. c #FFED44",
"!. c #F0E14A",
"~. c #F0DC79",
"^. c #644B81",
"/. c #6C4E8A",
"(. c #775396",
"). c #7F5897",
"_. c #785782",
"`. c #855D80",
"'. c #895E98",
"]. c #956598",
"[. c #A8719A",
"{. c #B7AB87",
"}. c #D5B583",
"|. c #DFC793",
" X c #E5CF9B",
".X c #FFF48F",
"XX c #EFE1AB",
"oX c #FFF8B4",
"OX c #FFFCE1",
"+X c white",
/* pixels */
"i.G.T.Q.P.R.W.Y.l.c.J.J.v.J.S.b.m.m.l.n.m.m.l.l.m.D.>.>.f.I.f.i.i.g.V.>.D.m.m.v.l.i.i.i.v.m.S.x.",
"N.G.L.Q.G.G.T.Q.I.c.J.K.l.I.b.Y.x.l.i.f.n.I.s.>.>.>.>.>.d.i.i.s.>.>.>.>.>.i.i.i.i.i.l.m.l.n.m.m.",
"N.Q.R.G.G.Q.Q.Q.Q.!.l.k.i.i.l.k.i.i.i.i.i.g.>.>.>.>.>.>.>.>.p.>.>.p.i.s.>.p.d.i.i.l.l.i.i.i.l.k.",
"j.L.Q.G.G.G.G.R.Q.Q.I.p.i.i.i.i.i.i.d.s.>.>.>.i.d.V.p.s.>.>.>.p.p.s.i.i.i.i.i.i.i.i.d.p.i.i.i.i.",
"i.G.G.j.H.G.G.G.oX.XQ...s.i.i.i.i.i.l.k.i.d.A.i.i.d.i.i.i.s.s.i.i.s.i.i.i.i.d.p.i.s.>.>.s.i.i.i.",
"i.i.i.i.h.G.G.G.Q.Q.Q.x V.p.i.i.i.v.m.m.v.v.I.J.n.i.i.i.i.p.p.i.i.i.i.i.i.s.>.>.>.>.>.>.>.p.i.i.",
"p.>.>.p.p.N.T.P.Q.Q.Q.x >.>.>.p.f.l.m.m.m.m.m.V.>.V.>.>.>.>.>.>.p.>.>.p.p.>.>.>.>.>.>.>.>.>.>.p.",
">.>.>.;.b e.Q.R.OX.XQ.$.>.p.i.i.l.v.n.m.m.f.s.d.i.s.s.>.>.>.>.>.>.>.>.;.-.;.a.A.s.s.;.,.>.p.i.i.",
",.-.;.-.t Y.Q.Q.+X.X3.*.;.a.q.Q N.m.m.m.v.i.i.i.d.>.>.>.>.>.>.>.,.-.;.-.-.-.-.-.=.;.S.*.-.p.i.m.",
"-.C.b.I.1 Q.Q.OX+XQ.$ m.S.S.h.q.i.f.m.I.b.l.k.i.i.i.d.s.p.>.>.>.;.C.b.m.D.-.b.m.D.b.m.m.S.S.n.i.",
"C.m.m.m.< 4.oX+X~.e.> m.m.m.l.v.k.i.i.k.J.I.l.k.i.i.i.i.d.D.z.S.C.m.m.m.m.b.m.I.J.Y.m.m.m.m.l.n.",
"m.m.J.x.n.* h  XXX X  m.m.m.m.m.m.i.. f | i.i.i.i.i.i.i.l.i.k.m.m.I.J.l.m.m.m.x.m.m.l.m.m.m.m.m.",
"i.I.l.i.i.@ F.|.XX|.z v.m.m.m.m.m.v.  `.  , l.v.I.i.i.i.i.i.i.i.i.n.k.i.i.l.i.i.d.i.f.I.m.m.m.m.",
"f.f.i.i.i.  s M.|.z {.8.l.l.i.k.l.l.  [.).  &  .s.i.i.i.i.i.i.i.i.i.f.i.i.I.i.i.f.i.f.f.l.l.i.k.",
"I.i.i.i.i.= E }.  B.# 8.i.i.i.i.i., L ].'.U 4   3 X.>.#.@ f = Y.k.i.i.i.i.s.p.i.i.i.i.i.i.i.i.i.",
"b.m.V.>.p.p.  #       p.d.i.  , i.@ [.'.].U 4       = ..  2.u b.m.m.V.>.p.p.p.>.i.i.i.p.i.i.i.i.",
"s.s.d.d.s.i.B   j l # >.>.p.  =     `.'.).0 4 6 (.H 6     +.; l.s.s.d.d.s.i.i.s.d.i.>.>.>.p.>.>.",
"<.d.>.p.d.p.>...l W s p.s.>.y U.U.~   ).^.(.(.^.0 4 . 7 4   ~ p.>.s.V.V.s.p.>.>.d.s.>.p.s.>.>.s.",
"S.;.>.>.>.>.>.>.9 S W B i.i., = U.1./ u K (.^.8 2 6 (.^.0 6   -.S.;.>.>.>.>.>.>.>.>.>.k.i.i.i.i.",
"m.D.D.x.>.i.s.i.  l s   & p.|   #.1.) Y O /.^.^.(.(.K H 0 0 2 b.m.D.D.D.>.i.s.i.i.>.>.p.p.p.i.i.",
"i.n.m.m.m.l.f.i.  [ = X ~ o.z.w.  +.) ` Y (.(.(.(.K H 8 0 0 0 * | n.J.Y.m.v.i.i.i.>.>.Z.D.g.z.n.",
"i.i.i.i.l.k.i.i.[ U.U.. ~   l.A   = ) $.Y J (.^.H H 4 .           8.i.i.l.k.i.i.d.f.k.I.l.l.l.k.",
">.p.p.>.>.>.i.i.p ) 1.:     i.@ q 4 ^ T Y e /.J 4 o   ; ^ ) ) 2.p   p.>.>.>.i.i.i.i.i.i.i.f.i.v.",
"p.s.s.g.m.l.i.d.  ) ) )   < m.  [.w p R K (.(.6   3 Y ) ) ) ) U.U.@.= o.m.x.i.i.i.i.i.i.l.I.b.m.",
"k.m.n.n.J.m.I.f.| % -       0.  [.[.[.[.).(.r 3 a Y Y _ ) p - ~ ) ) ) p   0.k.f.i.i.i.i.i.l.n.k.",
"A.A.A.A.>.p.m.m.n.w.  l o   & & ! ].(.(.(.(.(.    O Y Y . .   t =   ; ) ; c m.m.n.v.l.p.d.i.i.i.",
"p.d.d.>.>.>.>.>.>.>.  ! s x       /.).(.(.(.(.  O Y Y Y u Y i x p.| B     x >.>.>.>.>.>.>.>.>.p.",
"i.i.i.i.s.>.p.s.p.>.>.x O.>.[     4 4 0 P (.P J 4 3 Y Y Y Y u ] i.i.i.i.d.>.p.s.p.>.>.>.>.>.p.s.",
"i.i.m.m.k.>.i.i.i.d.i.s.i.i.f.| # e (.(.(.(.(.(.0 . 3 i Y u   f i.i.n.m.l.>.i.i.i.i.i.a.i.i.i.i.",
"Z.v.m.m.m.D.i.i.i.i.c.v.v.m.m.l.f J (.(.(.(.(.(.0 0 0 6 a Y 6 2 & v.J.5.     .i.i.i.l.v.v.m.m.l.",
"m.m.m.m.m.m.I.d.i.m.m.m.m.m.c.p.C r (.(.(.(.(.H 0 0 0 0 6 8 0 0     < u a ~ % | i.m.m.m.m.m.l.a.",
"n.m.m.A.m.m.m.n.k.i.i.i.i.i.f.-.f 2 7 0 7 7 7 2 0 0 4 2 2   .     A   u _ ) - A k.i.i.i.i.i.i.-.",
"i.g.V.>.z.m.m.n.l.i.i.i.v.m.S.n.g s F S F S F E s       9 W # D o g.X.O T ) X B l.f.i.i.l.J.z.D.",
">.>.>.>.p.i.i.i.i.i.l.m.l.n.m.m.8.# h d h d h k # s S 5 # # 5     x >.x x B B i.i.i.l.m.l.n.m.Y.",
">.p.i.a.>.>.d.i.i.k.l.k.i.i.k.k.i.  4 4 4 4 4 4 4 4     9 #   o     i.d.>.p.d.i.i.l.l.k.i.i.D.f.",
"p.s.i.i.i.i.i.i.i.i.s.p.i.i.i.i.C 0 ^.^.P P 0 0 0 0 0 O l z   l S   i.f.i.i.i.i.i.i.s.p.i.i.i.i.",
"i.s.i.i.i.i.s.p.i.s.>.>.s.i.i.i., 4 7 K (.6 0 H 0 2 o s k o     D   i.i.i.i.s.p.i.s.>.>.s.i.i.i.",
"i.i.i.i.i.s.>.>.>.>.>.>.V.p.i.i.d.v.0.*   A Z } Z t.i.B B a.p.| B   B i.i.d.>.>.>.>.>.>.>.p.i.i.",
"p.>.>.p.s.>.>.>.>.>.>.>.>.>.>.p.A.l.Y.J.  m.J.p.>.p.>.>.>.>.>.>.@   >.p.p.>.>.>.>.>.>.>.>.>.>.p.",
">.>.>.-.-.;.s.s.s.s.&.&.>.p.i.i.I.n.x.h.> 1 ] ' { ] ] n n n n ..    y ;.-.;.s.s.s.s.&.,.>.p.i.i.",
",.-.;.-.-.-.-.;.=.;.S.*.-.V.k.I.h.6.6.6.g   { { ' ..n n n n n n m v m v v -.-.-.,.;.S.*.-.p.f.I.",
"-.C.b.m.D.-.b.m.D.b.m.m.S.S.n.l.' { 6.>     } { { { ' ] ..n n n v G 9.6.o.$.D.m.D.x.m.m.S.S.n.f.",
"C.m.m.m.m.b.I.m.m.J.I.m.m.m.l.x.u.{ {  .6.5.| { ' { ' { ] } } Z G 6.6.6.6.h.m.m.m.m.m.m.m.m.l.v.",
"m.m.m.l.m.m.J.l.m.m.v.m.m.m.m.m.m.u.y.u.t.t.{ { { { { { 5.{  .q.h.h.h.y.b.m.m.l.m.J.I.m.m.m.m.m.",
"f.I.l.f.i.v.i.i.i.i.i.v.m.m.m.m.J.I.m.m.n.l.v.l.v.i.i.i.i.i.i.i.i.v.l.i.i.n.i.i.i.i.i.v.m.m.m.m.",
"f.i.i.i.i.k.i.i.i.i.i.l.l.l.i.k.l.l.l.l.f.d.a.p.d.i.i.i.i.i.i.i.i.i.i.i.i.k.i.i.i.i.i.l.l.l.d.l.",
"k.i.i.i.i.s.p.i.i.i.i.i.i.i.i.i.i.i.i.s.>.>.>.>.>.>.>.p.i.l.n.m.k.i.i.i.i.s.p.i.i.i.i.i.i.i.i.i.",
"m.m.V.>.p.p.p.V.i.i.i.p.d.i.i.i.i.i.p.>.>.d.s.p.>.>.>.>.A.D.m.m.m.m.V.>.p.p.p.p.i.i.i.p.d.i.i.i."
};
