/* XPM */
static char *result[] = {
/* columns rows colors chars-per-pixel */
"48 48 220 2 ",
"   c #161C2E",
".  c #181F2E",
"X  c #191F31",
"o  c #19222F",
"O  c #1D2234",
"+  c #1B2B33",
"@  c #1E2E39",
"#  c #1D3935",
"$  c #232C33",
"%  c #212439",
"&  c #24293C",
"*  c #2B2C3A",
"=  c #262835",
"-  c #2C3534",
";  c #2C3937",
":  c #343936",
">  c #302F3B",
",  c #1E4036",
"<  c #33433A",
"1  c #3A493A",
"2  c #24573C",
"3  c #2E4F3B",
"4  c #26643F",
"5  c #414E38",
"6  c #4B4B33",
"7  c #4B5A3D",
"8  c #595B3E",
"9  c #58673C",
"0  c #6C6936",
"q  c #292743",
"w  c #2B2B44",
"e  c #322E4B",
"r  c #342D44",
"t  c #293C46",
"y  c #32324B",
"u  c #3B3947",
"i  c #3A3654",
"p  c #453E45",
"a  c #433D5B",
"s  c #473A55",
"d  c #533F5B",
"f  c #473D61",
"g  c #4A3C65",
"h  c #503D6D",
"j  c #324951",
"k  c #345756",
"l  c #2F4B4C",
"z  c #2A7543",
"x  c #3A635F",
"c  c #336D42",
"v  c #3D6963",
"b  c #494544",
"n  c #485742",
"m  c #585844",
"M  c #5C5551",
"N  c #494D53",
"B  c #675A54",
"V  c #715E5A",
"C  c #496E44",
"Z  c #586446",
"A  c #5A7C52",
"S  c #57755F",
"D  c #4E6C4D",
"F  c #6A6C45",
"G  c #667746",
"H  c #707A4B",
"J  c #4B4163",
"K  c #54456B",
"L  c #5A4476",
"P  c #624A7E",
"I  c #61477F",
"U  c #664A6E",
"Y  c #417168",
"T  c #407B64",
"R  c #557662",
"E  c #436267",
"W  c #69717C",
"Q  c #836D62",
"!  c #897562",
"~  c #9E7466",
"^  c #9C7B64",
"/  c #967D67",
"(  c #A57965",
")  c #9C7853",
"_  c #349D4C",
"`  c #308B48",
"'  c #39A754",
"]  c #39B251",
"[  c #35A34D",
"{  c #3F8262",
"}  c #4C924F",
"|  c #64814C",
" . c #68834A",
".. c #6C8547",
"X. c #728944",
"o. c #758548",
"O. c #7A9549",
"+. c #638756",
"@. c #6C9558",
"#. c #759C58",
"$. c #7A8A5C",
"%. c #52B554",
"&. c #6FAA55",
"*. c #6F976F",
"=. c #6E9A6E",
"-. c #6B966B",
";. c #789B6D",
":. c #658E73",
">. c #679175",
",. c #6B9771",
"<. c #75A361",
"1. c #79A863",
"2. c #79A265",
"3. c #5DC058",
"4. c #6EC65B",
"5. c #87884C",
"6. c #859C49",
"7. c #9C9C58",
"8. c #919A5C",
"9. c #95945F",
"0. c #A69C5B",
"q. c #BA9E5F",
"w. c #A19C4D",
"e. c #8AA54B",
"r. c #91A94C",
"t. c #9BB94E",
"y. c #99B44E",
"u. c #85AE5C",
"i. c #8AAD5B",
"p. c #8AAA56",
"a. c #9CA255",
"s. c #9AA956",
"d. c #8EB256",
"f. c #8EB35C",
"g. c #94B553",
"h. c #9DB553",
"j. c #9DB85B",
"k. c #A6A759",
"l. c #B9AA58",
"z. c #A3B951",
"x. c #A9B953",
"c. c #A3B35E",
"v. c #A8B356",
"b. c #B1BA56",
"n. c #B2B35E",
"m. c #B6BA58",
"M. c #BFBA5B",
"N. c #B8B459",
"B. c #B7B140",
"V. c #9D8461",
"C. c #958465",
"Z. c #869665",
"A. c #929562",
"S. c #918B72",
"D. c #A68665",
"F. c #B78263",
"G. c #A99561",
"H. c #B19C60",
"J. c #87A06C",
"K. c #85AA62",
"L. c #93AD60",
"P. c #9CAA65",
"I. c #ABA762",
"U. c #AAB061",
"Y. c #BBA178",
"T. c #CA995D",
"R. c #D6955F",
"E. c #D9945F",
"W. c #D99D5D",
"Q. c #DFA25B",
"!. c #C6AC5C",
"~. c #E3AB59",
"^. c #E2A859",
"/. c #E8B754",
"(. c #EABC53",
"). c #C48862",
"_. c #D49160",
"`. c #B2C54C",
"'. c #ACC251",
"]. c #93D462",
"[. c #89D060",
"{. c #D7D64D",
"}. c #C8CB4A",
"|. c #F2CD4E",
" X c #E6D842",
".X c #F6D84A",
"XX c #ECC351",
"oX c #EED75D",
"OX c #FFED44",
"+X c #FAE446",
"@X c #FFED56",
"#X c #EFE545",
"$X c #F1CF66",
"%X c #FFF275",
"&X c #FAE968",
"*X c #654A82",
"=X c #694C86",
"-X c #694B87",
";X c #6A558A",
":X c #775396",
">X c #7B5596",
",X c #7B568C",
"<X c #875D97",
"1X c #855C8B",
"2X c #8D6098",
"3X c #946793",
"4X c #A26E98",
"5X c #A8719A",
"6X c #ABACAA",
"7X c #D1B686",
"8X c #E3CC98",
"9X c #FFF383",
"0X c #FDF094",
"qX c #EDDDAA",
"wX c #F7ECAB",
"eX c #FFF9C3",
"rX c #FFFACB",
"tX c #FFFBD7",
"yX c #FFFEF2",
"uX c white",
/* pixels */
"t.j.K.1.c.!.`.m.x.t.t.t.b.M.P.n.!.M.x.G.~ ~ ~ ~ ~ ~ C.;.z.m.t.7.V.G.A.Z.~ ~ ~ ~ ~ s.t.t.b.!.A.^ ",
"1.1.1.1.1.t.t.t.t.h.x.M.x.m.G.G.k.0.7.7.G.D.~ ~ ~ ~ C.~ a.t.t.p.Z./ ( ~ / s.7.^ ~ ^ x.!.x.m.n.D.",
"1.u.t.d.1.K.g.t.t.z.v.z.t.t.x.7.^ ~ V.V.V.9.Z.Z.Z.2.1.Z.C.Z.i.1.2.i.7.a.2.u.g.t.a.7.z.z.t.t.x.t.",
"u.i.t.t.t.t.t.t.t.t.g.i.t.t.t.t.t.7.~ C.Z.1.1.g.y.u.u.d.1.Z.1.u.u.d.t.t.t.t.t.t.t.t.d.u.t.t.t.t.",
"t.d.t.t.t.t.f.u.t.g.K.q.V.t.t.t.t.t.n.v.h.g.f.t.t.g.t.t.t.d.d.t.t.d.t.t.t.t.f.u.t.d.1.1.d.t.t.t.",
"t.t.t.t.t.g.1.1.2.K.T.( D.p.t.t.t.b.M.M.b.x.M.M.b.t.t.t.t.u.i.t.t.t.t.t.t.d.1.1.1.1.1.1.u.u.t.t.",
"u.1.1.u.u.1.1.1.0.T.).~ / 2.1.u.h.x.M.`.!.M.M.K.1.u.1.1.1.1.1.1.u.1.1.u.u.1.1.1.1.1.1.1.1.1.1.u.",
"1.1.1.,.>.,.d.k.R.).( ( 2.u.t.t.x.b.m.!.'.x.f.t.t.d.d.1.1.1.1.1.1.1.1.,.>.=.f.f.d.d.=.=.1.u.t.t.",
"<.>.,.>.>.>.>.G.F.S.D.S.:.i.t.m.M.M.M.M.m.t.t.t.g.1.1.1.1.1.1.1.;.,.,.>.>.>.>.>.;.*.P.;.>.i.t.m.",
">.J.U.M.U.,.U.M.U.n.M.m.P.P.b.z.t.t.m.M.m.z.z.t.t.t.g.d.u.1.1.1.>.J.n.M.U.>.n.M.U.n.M.M.P.P.b.j.",
"J.M.!.`.!.n.`.!.M.M.M.M.M.M.x.b.z.t.t.x.M.b.x.x.t.t.t.t.g.c.c.P.J.M.'.!.M.n.M.M.M.M.M.M.!.`.b.m.",
"M.M.M.'.M.M.M.x.M.M.N.M.M.M.M.M.M.t.x.z.t.t.t.t.t.t.t.t.b.t.z.M.M.M.M.x.M.M.M.x.M.M.b.M.M.M.M.M.",
"z.m.z.t.h.n.^ s.h.T.l.b.M.M.M.M.M.b.M.m % q q q ; ..t.t.t.t.t.t.t.m.z.t.t.'.t.t.t.z.t.b.'.M.M.M.",
"t.j.t.s.^ ( V.t.l.R.v.z.x.x.t.z.x.x.x.e.& L :X:XL q m e.t.1 9 r.t.t.t.t.t.z.t.t.t.t.t.z.x.x.z.z.",
"z.t.t.F.F.~ 8.x.XX}.t.t.t.t.t.t.t.t.t.g.| o w ,X2X:X1Xp 7 1 @.- e.t.t.t.t.f.u.t.t.t.t.t.t.t.t.t.",
"M.M.q.E.).~ A.q.+Xt.t.u.g.t.t.t.t.t.u.2.+.O w J 4X5X>X5X* . &.1 : M.K.1.d.u.K.K.t.t.t.u.g.t.t.t.",
"f.s.E.E.F.F.R.|.}.t.1.1.@.1 < 1 6.p.d.7 & w % y a U :X2Xs o } ].  X.g.g.d.t.t.d.g.t.1.1.1.u.1.u.",
"2.T.E.E.F._.Q.+X'.g.1.p.O.# _ z + 1 1 o f L *X-X;XP *X=XO 2 ] [.O #.1.u.g.u.1.1.g.f.1.u.g.1.1.u.",
"I.E.R.XXQ._.|.{.1.1.1.t.y.G , ` [ +   O w i J J *X:X:Xi x ] 3.C : ,.1.1.1.1.1.1.1.1.1.t.t.t.t.t.",
"W.E.Q./.R.R.OX`.g.1.1.u.u.u.e.  4 w g ;X*XL *X=X-X-X:XE v ' 3.; X n c.b.1.t.d.t.g.1.u.u.u.u.t.t.",
"T.Q..X~.E.W.'.t.t.1.1.i.c.c.c.F O i a a K P *X*X:X:X:Xj v { ' + U s F !.M.b.t.t.t.1.1.L.U.j.U.n.",
"R./.OXR.R.l.t.t.g.t.x.x.x.x.x.z.O i a a a a a a f K :XI K ;XW 3X4X4X> t.x.z.t.t.g.t.x.x.x.x.x.z.",
".XOXOXW.~.L.t.t.t.t.t.t.t.t.t.o.o + l # # @ @ O   q L :X:X<X3X3X2X5XJ D <.1.t.t.t.t.t.t.t.t.t.'.",
"OXOXOXE./.m.t.t.t.t.t.t.z.b.k.- } &.] ] ] ' T Y l t & L :X:X:X:X<X1Xr G M.n.t.t.t.t.t.t.z.m.m.!.",
"XXXXOXE.(.w.x.t.t.t.t.t.t.z.; c ].3.] ] ] ] { Y v O o w :X:X:X:Xh i % H !.}.x.t.t.t.t.t.t.x.'.t.",
"E.E.OXE.(.8 `.!.m.b.x.f.g.6., [.3.] 4 o   t x Y v k   O *X:X:X:X:X:X-Xb 1.K.M.M.m.x.m.u.g.t.z.t.",
"E.E.|.~./.0 L.c.1.1.1.1.1.< _ ' 2 + l o l k v v Y t O J :X:X:X:X:X:X:Xe -.1.1.1.1.1.1.1.1.1.1.u.",
"E.E.W.E./.#XB.'.u.1.1.1.1.< _ c - r.t.$ k v Y Y v & i K -X:X:Xi e :X:Xh < 1.u.d.K.1.1.1.1.1.u.d.",
"E.E.E.E./.OX#X`.t.j.t.f.t.X.# c X.t.t.O.o k Y v y a a a g f q i *X:X:X*X+ #.t.t.t.g.t.d.j.t.t.t.",
"E..XE.E.R..XOX`.t.t.x.x.b.M.F : O.t.2.+ y a i t a a a e O O g :X:X:X:X*X  a.g.t.t.t.x.b.m.M.!.'.",
"E.(.~.E.E..X Xe.t.M.M.M.!.'.x.u.f.=.Z.o y y w O w w %   q e g h h h e q   5.b.t.t.M.M.M.!.`.x.u.",
"E.(.+XQ.E.|.}.G x.t.t.t.t.z.t.>.P.,.!.6 * 2 z z +       p Q Y.Q Y./ ! : b m M.b.z.t.t.t.t.t.t.>.",
"E.^.OX$XE.E. X6 e.z.t.t.b.N.$.k.!.!.o.$ , 3.] ] [   B M = O O % O O y y w 8 !.'.x.t.t.t.x.M.I.n.",
") E.OXyX$XE.+X X8 6.z.k.8 : M : 8 5 - b O C 4.] ] # = = y i a a J L L *Xa 7 t.t.t.t.x.M.x.'.M.M.",
"Q R.|.tXrX0X@X9X6XN F - M Y.S.! X B Q Q b < ].%.] 2   O e a j J f h K g o @.g.t.t.x.x.z.t.t.x.z.",
"g.T.^.@XtXuXyX0XwX@XOXoX8XqXM b % V V u = < C ` , ; 7 7 < & * $ ; ; o O 9 O.r.y.t.t.g.u.t.t.t.t.",
"#Xz.~.OX%XeXuXuXuXrXtXqXqXqX8XM   * ; 5 G :   - Z | X.X... . .X.X. .1 o 9 X.| | e.f.1.1.f.t.t.t.",
"}.OXOXOXeXyXeXtXuXuXrX&X8X7XF 7X> F N.N.9 +   F O.X.X.X.X.| G X.X.X...  o 1 A A A @.1.1.1.f.t.t.",
"p.}.OXOXOX%X%XOXOXOXOXOX$ M O   & z.}.!.k.5.5.| A | | A A A A A G A A |  .A A A +.<.1.1.1.1.1.u.",
"1.1.j.{. XOXOXOXOX X0 ; @. .e.h.x.m.n.`.!.y.p.O.X.X. .A A A A A A A A R R R p.p.d.d.=.=.1.u.t.t.",
"2.>.,.:.S Z : : Z N A.;.>.f.t.m.M.M.M.M.b.t.t.t.g.u.<.<.<.<.<.<.=.:.>.>.>.>.>.>.=.=.P.;.>.u.t.M.",
">.J.n.M.n.:.k.k.U.U.M.M.P.P.m.z.t.t.m.M.m.x.z.t.t.t.g.d.1.1.1.1.>.J.n.M.U.>.n.M.U.n.M.M.P.P.b.z.",
"J.M.M.M.M.n.M.M.`.M.M.M.M.M.z.m.z.t.t.z.M.b.x.x.t.t.t.t.g.c.U.P.J.M.M.M.M.n.`.M.M.M.M.M.`.!.x.b.",
"M.M.M.x.b.M.M.x.M.M.b.M.M.M.M.M.M.t.x.x.t.t.t.t.t.t.t.t.b.t.x.M.M.M.M.x.M.M.!.x.M.M.x.M.M.M.M.M.",
"t.m.z.t.t.b.t.t.t.z.t.x.M.M.M.M.M.b.M.M.m.x.b.b.b.t.t.t.t.t.t.t.t.m.x.t.t.b.t.t.t.z.t.x.M.M.M.M.",
"t.t.t.t.t.z.t.t.t.t.t.x.x.x.t.z.x.x.x.x.t.d.f.u.g.t.t.t.t.t.t.t.t.t.t.t.t.z.t.t.t.t.t.x.b.x.j.z.",
"z.t.t.t.t.d.u.t.t.t.t.t.t.t.t.t.t.t.t.d.K.1.1.1.1.1.1.1.t.x.m.M.z.t.t.t.t.d.u.t.t.t.t.t.t.t.t.t.",
"M.M.K.1.u.u.u.K.t.t.t.u.g.t.t.t.t.t.u.1.1.d.d.u.1.1.1.1.L.n.M.M.M.M.K.1.u.u.u.u.t.t.t.u.g.t.t.t."
};
