/* XPM */
static char *result[] = {
/* columns rows colors chars-per-pixel */
"48 48 220 2 ",
"   c #161C2E",
".  c #181E2F",
"X  c #1A1F31",
"o  c #17212F",
"O  c #1B212F",
"+  c #1C2232",
"@  c #1C2A33",
"#  c #1C3434",
"$  c #222534",
"%  c #242B34",
"&  c #2B2D36",
"*  c #23253C",
"=  c #2C2C3A",
"-  c #242A3D",
";  c #2B3433",
":  c #2B3939",
">  c #263637",
",  c #323B35",
"<  c #35363A",
"1  c #312F3B",
"2  c #1F4437",
"3  c #204939",
"4  c #254538",
"5  c #374236",
"6  c #3A4639",
"7  c #24583C",
"8  c #2C533B",
"9  c #335E3F",
"0  c #26643F",
"q  c #434C39",
"w  c #484A3A",
"e  c #48593C",
"r  c #59693E",
"t  c #62633E",
"y  c #292A41",
"u  c #2A2744",
"i  c #312C4A",
"p  c #273742",
"a  c #3D3941",
"s  c #36334C",
"d  c #372F52",
"f  c #393651",
"g  c #3D3A55",
"h  c #3C3256",
"j  c #433C44",
"k  c #433D5B",
"l  c #4A3D64",
"z  c #543F70",
"x  c #2D474D",
"c  c #374B43",
"v  c #3E5445",
"b  c #335555",
"n  c #374955",
"m  c #336C43",
"M  c #2B7643",
"N  c #39615D",
"B  c #36774F",
"V  c #3C6761",
"C  c #3D7362",
"Z  c #4E4449",
"A  c #464345",
"S  c #53494C",
"D  c #5A4D4F",
"F  c #445B42",
"G  c #5B5C40",
"H  c #645554",
"J  c #715F59",
"K  c #4A6347",
"L  c #5E6541",
"P  c #53714D",
"I  c #587546",
"U  c #597B53",
"Y  c #4B7253",
"T  c #647942",
"R  c #667D49",
"E  c #747547",
"W  c #75635B",
"Q  c #7B665E",
"!  c #6A6E4E",
"~  c #4A4365",
"^  c #554369",
"/  c #5E4979",
"(  c #584673",
")  c #624B7B",
"_  c #785679",
"`  c #417168",
"'  c #417567",
"]  c #52706D",
"[  c #7D617F",
"{  c #81715E",
"}  c #836C62",
"|  c #897663",
" . c #907668",
".. c #2F8949",
"X. c #348E50",
"o. c #35A74E",
"O. c #39AA53",
"+. c #38B251",
"@. c #55894E",
"#. c #6C8547",
"$. c #68834A",
"%. c #6B874E",
"&. c #728844",
"*. c #788849",
"=. c #799449",
"-. c #638754",
";. c #668C57",
":. c #788855",
">. c #6C955B",
",. c #6E9457",
"<. c #749859",
"1. c #49B553",
"2. c #68A954",
"3. c #7FA75A",
"4. c #5E856E",
"5. c #6E976F",
"6. c #6E9A6E",
"7. c #789B6E",
"8. c #679175",
"9. c #6B9671",
"0. c #799569",
"q. c #79A863",
"w. c #76A365",
"e. c #5DC058",
"r. c #7ACA5D",
"t. c #A0983B",
"y. c #C1B53E",
"u. c #82884A",
"i. c #8B894D",
"p. c #86834A",
"a. c #819A48",
"s. c #869749",
"d. c #9F9C53",
"f. c #989551",
"g. c #919657",
"h. c #B99D53",
"j. c #89A44A",
"k. c #92A94C",
"l. c #9BB94E",
"z. c #98B34D",
"x. c #85AE5C",
"c. c #87AA5A",
"v. c #97A959",
"b. c #8EB256",
"n. c #8CB25A",
"m. c #94B552",
"M. c #9CB459",
"N. c #A7A757",
"B. c #B9A758",
"V. c #A3B951",
"C. c #A9B953",
"Z. c #A3B35E",
"A. c #AEB55D",
"S. c #A9B453",
"D. c #B1BA56",
"F. c #B2B35E",
"G. c #B6BA58",
"H. c #BFBA5B",
"J. c #BBB65A",
"K. c #A0BC4E",
"L. c #99866C",
"P. c #BB9A60",
"I. c #87A06C",
"U. c #86AA62",
"Y. c #94AF60",
"T. c #9CAA65",
"R. c #9FA466",
"E. c #AAB061",
"W. c #B4A163",
"Q. c #D9945F",
"!. c #D89A5E",
"~. c #CA9A5D",
"^. c #C7A65B",
"/. c #C6B759",
"(. c #E7B555",
"). c #E2A959",
"_. c #C6A97C",
"`. c #85CA5E",
"'. c #AAC14D",
"]. c #ABC254",
"[. c #8BD161",
"{. c #93D462",
"}. c #DACC40",
"|. c #D2C256",
" X c #EEC94F",
".X c #EFC74F",
"XX c #F1CD4E",
"oX c #E8D54D",
"OX c #F7DB4A",
"+X c #E6CA50",
"@X c #FFED44",
"#X c #FAE148",
"$X c #FFEF58",
"%X c #CAC16D",
"&X c #FFF279",
"*X c #FFF16C",
"=X c #6A4D87",
"-X c #6D4E8B",
";X c #644881",
":X c #765395",
">X c #7C5794",
",X c #6B528A",
"<X c #6F6389",
"1X c #855B97",
"2X c #8C6188",
"3X c #936598",
"4X c #9F6C96",
"5X c #8C6098",
"6X c #A46E9A",
"7X c #A8719A",
"8X c #CEB88B",
"9X c #D7C191",
"0X c #E5D19C",
"qX c #FFF69D",
"wX c #E8D5A0",
"eX c #FAF0AB",
"rX c #FFFAC7",
"tX c #FAF3CE",
"yX c #FDFAE8",
"uX c #FFFFFC",
/* pixels */
"l.M.U.q.Z.H.H.D.C.l.l.l.D.H.T.A./.H.C.G.H.H.C.C.H.E.q.q.l.].V.l.l.M.U.w.Z.H.J.G.C.l.l.l.D.H.T.F.",
"q.q.q.q.3.l.l.l.l.l.C./.C.G.H.H.G.l.l.l./.V.b.q.q.q.q.q.m.l.l.b.q.q.q.q.3.l.l.l.l.l.C.H.C.G.H.H.",
"q.x.l.b.q.U.m.l.l.V.C.V.l.l.C.l.l.l.l.l.'.n.q.q.q.q.q.q.q.q.x.q.q.x.l.N.Q.B.b.l.l.V.C.l.l.l.C.l.",
"x.n.l.l.l.l.l.l.l.l.b.x.l.l.l.l.l.l.m.n.q.q.q.m.'.q.3.b.q.q.q.x.U.m.l.Q.B.l.C.Q.Q.Q.^.n.l.l.l.l.",
"l.b.l.l.l.l.b.x.l.b.q.q.b.l.l.l.l.l.C.C.l.b.n.l.l.m.l.l.l.n.n.l.l.'.K.B.l.z.^.Q.Q.Q.XX XB.l.l.l.",
"l.l.l.l.l.b.q.q.q.q.q.q.3.n.l.l.l.G.H.H.G.].H./.D.l.l.l.l.n.x.l.C.@X'.l.l.b.+XOX#XOX.XOX(.N.l.l.",
"x.q.q.x.x.q.q.q.q.q.q.q.q.q.q.x.l.C.H.H./.H.H.U.q.x.q.q.q.q.q.q.].(.Y.n.N.^..X@X@X@X@X.X!.P.q.x.",
"q.q.q.9.8.9.b.b.b.n.6.6.q.x.l.l.C.D.G.H.H.l.n.m.l.b.b.q.q.q.q.q./.(. XoXOX!.Q.@X@X@XrX$X).~.l.l.",
"w.8.9.8.8.8.8.8.6.6.T.7.8.x.l.G.H.H.H.H.D.l.l.l.m.x.q.q.q.q.q.q.Q.(.@X@X@X|.w }.@XqXrXqX(.B.l.H.",
"8.I.A.H.E.8.A./.E.A././.T.T.D.V.l.l.G./.G.C.V.l.l.l.m.b.3.q.q.q.|.#X). X#X7.S.q @XyX*XqX#XW.G.l.",
"I.H.H.H.H.E.G.|.H.H.H.H.H.H.C.G.V.l.l.V.H.D.C.C.l.l.l.m.b.E.E.T.R.+X!.!./.F.H.t.qXyX&X@Xh.N.C.G.",
"H./.H.C.G.H.H.C.H.H.C.H.H.H.H.H.H.l.C.V.l.l.l.l.l.l.l.j.q q l.H.H././.S.F.H.w /.eXuXrX}.p./.H.H.",
"l.G.C.l.l.D.l.l.l.M.l.D.H.H.H.H.H.G.H.H.G.D.C.D.D.j.q f 2X5 l.l.l.G.C.l.K.E = 0XtXyX/.G D.H.H.H.",
"l.l.l.l.l.l.l.l.l.].l.l.C.C.l.V.C.C.C.C.l.b.n.x.T % i -X6X% =.l.l.l.l.l.l.T | wXeX8XQ L C.C.l.V.",
"V.l.l.l.l.b.n.l.l.l.l.l.l.l.l.l.s.; > 3.U.q.q.P . - 2X3X4X^ q J.V.j.=.l.l., 8XZ 8XL.@ K l.l.l.l.",
"H.H.U.q.x.x.U.q.l.l.l.x.m.l.l.l.a.9 2.O >.I .     f ) 7X>X7Xf i.w . v q.n.F c | a _.Z I m.l.l.l.",
"b.b.m.m.b.l.l.b.m.l.q.q.q.n.q.3.a.7 `.o . y l :Xl u k >X:X_ o m n.8 =.m.b.T X * . < : q.q.n.q.3.",
"q.b.q.x.b.x.q.q.m.m.q.x.b.q.q.x.=.7 @.. . y f ~ -X-X=X( :Xy ..r.`.; <.x.b.I S W j , 6.x.n.q.q.n.",
"T.9.q.q.q.q.q.q.q.q.q.l.l.l.l.l.l.4 # f / z i y k ^ :X-XN C +.[.P c q.q.q.P  . .A -.q.l.l.l.l.l.",
"/.E.F.A.q.l.b.l.m.q.x.x.x.x.l.l.c.% f n l ) :X:X=X=X-X( N O.2.@.< v.A.F.>.%  .H + >.x.c.x.x.l.l.",
"l.G.H.H.H.D.m.l.l.q.q.Y.C.Z.Z.J.! y n k k k / -X:X:X:X] ` O.2.> q ]./.N.8 @ a a 6 w.q.Y.Z.Z.E.G.",
"l.l.l.l.V.].l.l.m.l.C.C.C.C.V.V.% + = y y h k ~ ( :X-Xx ` O.@.  O =.l.I ..o F I > k.C.V.C.C.C.V.",
"q.3.x.q.q.q.l.l.l.l.l.l.l.l.k.5 3 B M M 3 + * y h / :Xu b X.2 ,X_ 6 c.+ M 9 {.[.; j.l.l.l.l.l.C.",
"x.b.n.M./.E.l.l.l.l.l.l.C.C.5 0 `.[.1.+.+...b o + l >X-X,X<X[ 6X2Xe m.    1.1.O.> j.l.l.C.D.G./.",
"C.G.G.H.H.H.C.l.l.l.l.l.z.5 Y [.r.1.+.+.+.O.C V p - -X:X1X3X3X3X2Xt D., @ o.+.M T l.l.l.l.V.G.V.",
"Y.Y.Y.Y.q.U.H.H.G.D.D.%.@ o.+.+.7 o   3 B ` V p     :X:X:X:X5X6X= :.:.  . # 7 4 S.D.D.x.m.l.l.l.",
"x.l.m.q.q.q.q.q.q.q.w.P 0 7 o ; ;.> x b x ' ` V o o :X:X:X-Xz u ; I +   Z a . <.q.q.q.q.q.q.q.x.",
"l.l.l.l.m.q.x.n.q.q.q.-.v K <.b.n.% V ` ` ` C b @ l / =X/ ( ^ l o + ; &.Z < 5 b.x.q.q.q.q.q.x.b.",
"l.l.G.H.V.q.l.l.l.m.l.b.l.l.l.l.l.e > C ` ` b + g =X:X:X:X:X:Xd   5 N.J.*.P z.l.l.m.l.b.l.l.l.l.",
"U.G.H.H.H.A.m.l.l.l.C.D.r w L C.r y i V b s f k k ;X:X:X:X:X:Xu v S.H.H.H.A.m.l.l.l.C.D.G.H.H.C.",
"H.H.H.H.H.H.].l.l.H./.E 3 ..p K % g k n n l ~ g k k :X:X:X:X:Xh w /.H.H.H.H.D.l.l.H.H.H.H.H.C.U.",
"G.H.H.Y.H.H./.G.V.l.l.; o.+.C   X s g u y g g l g s d h h d u X < H.H.Y.H.H.H.D.V.l.l.l.l.l.l.8.",
"l.M.U.q.E.H.H.D.C.l.l.; o.O.C & a S $ D < $ & = j W { W | W L.L., M.U.q.E.G.H.G.C.l.l.l.G.H.T.E.",
"q.q.q.q.3.l.l.l.l.l.C.u.# 2 @ f.< 1 S } S J Q } j j w a A 1 o . 6 q.q.q.x.l.l.l.l.l.V.H.C.G.]./.",
"q.x.l.n.q.x.m.l.l.l.C.V.j.j.k.V.    X j . $ $ $ * * * u y y g i v x.l.n.q.x.m.l.l.V.C.V.l.l.D.V.",
"x.n.l.l.l.l.l.l.l.l.n.n.l.l.l.e X D j 1 } & s k k k k ) ) :X-X;X- =.l.l.l.l.l.l.l.l.b.x.l.l.l.l.",
"l.b.l.l.l.l.b.x.l.b.q.q.n.l.l.r H D O . D Q + % f f g i i i * ; , =.l.l.l.l.b.x.l.b.q.q.b.l.l.l.",
"l.l.l.l.l.b.q.q.q.q.q.q.x.x.l.l.$   6 f.! ; < f.G e e T , @ -.l.l.m.l.l.l.m.q.q.q.q.q.q.U.n.l.l.",
"x.q.w.x.n.q.q.q.q.q.q.q.q.q.q.x.5 , d.d.d.d.d.:.,.,.%.;.: ; q.w.x.q.q.x.x.q.q.q.q.q.q.q.q.q.q.x.",
"q.q.q.9.8.9.b.b.b.b.6.6.q.x.=.&.,   t i.i.&.#.&.*.$.$.U % K -.-.>.q.q.9.8.9.n.b.b.b.6.6.q.x.l.l.",
"7.8.9.8.8.8.8.8.6.5.T.7.4.R %.L q E { i.u.&.&.&.$.R U @.% % K U U ] 9.8.8.8.8.8.6.6.T.7.8.x.l.H.",
"8.I.F./.E.8.A./.A.F.H.H.g.:.u.*.&.&.u.i.u.&.&.&.&.&.#.#.F F K U ` :.E.H.E.8.A.H.E.F.H.H.T.T.D.V.",
"I.H.]./.H.E.H.H.H.H.H.H.H.F.s.i.&.&.&.*.i.u.&.&.&.&.&.&.#.:.:.:.:./.H.H.H.A.H.H.H.H.H.H.H.H.C.C.",
"H.H./.V.G./.H.C.H.H.S.H.H.H.H./.F.k.k.s.a.a.a.a.a.=.a.=.N.k.l.H.H.H.H.C.G./.H.C.H.H.C./.H.H.H./.",
"].G.V.l.l.D.l.l.l.V.l.D.H.H.H.H.H.D.H.H.G.D.D.D.D.l.l.l.l.l.l.l.l.G.C.l.l.D.l.l.l.l.l.G.H.H.H.H.",
"m.l.l.l.l.V.l.l.l.l.l.V.C.C.l.V.C.C.C.C.l.b.x.x.m.l.l.l.l.m.l.l.l.l.l.l.l.l.l.l.l.l.l.V.C.C.l.C.",
"C.V.l.l.l.b.x.l.l.l.l.l.l.l.l.l.l.l.l.b.3.q.q.q.q.q.q.x.].V.G.H.V.l.l.l.'.n.x.l.l.l.l.l.l.l.l.l.",
"H.].U.q.x.x.x.x.l.l.l.x.m.l.l.l.l.l.n.q.q.n.b.x.q.q.q.q.Y.E.H./.H.H.U.q.x.x.3.U.l.l.l.x.m.l.l.l."
};
