/* XPM */
static char *result[] = {
/* columns rows colors chars-per-pixel */
"48 48 223 2 ",
"   c #161C2E",
".  c #191F2F",
"X  c #1A1F31",
"o  c #1C2332",
"O  c #1C2A34",
"+  c #1E2F39",
"@  c #1C3534",
"#  c #17222F",
"$  c #232B32",
"%  c #282B36",
"&  c #23253B",
"*  c #272837",
"=  c #243134",
"-  c #2A3434",
";  c #2B3B36",
":  c #2B3A39",
">  c #24343B",
",  c #323B35",
"<  c #35363B",
"1  c #1E4036",
"2  c #214B39",
"3  c #234237",
"4  c #34453A",
"5  c #3A4638",
"6  c #24583C",
"7  c #27663F",
"8  c #454D3A",
"9  c #4B5B3B",
"0  c #545B3E",
"q  c #55653D",
"w  c #5D703F",
"e  c #292A41",
"r  c #2B2845",
"t  c #312D4A",
"y  c #273E45",
"u  c #3A3542",
"i  c #3D3941",
"p  c #34334C",
"a  c #393552",
"s  c #3D3855",
"d  c #3D3258",
"f  c #443F44",
"g  c #40344F",
"h  c #433D5B",
"j  c #4B3A56",
"k  c #483B63",
"l  c #2E4B4E",
"z  c #384B45",
"x  c #384857",
"c  c #365C5A",
"v  c #39595B",
"b  c #3B5042",
"n  c #2A7443",
"m  c #2C7D44",
"M  c #386F4C",
"N  c #3D6A63",
"B  c #494447",
"V  c #544A4B",
"C  c #584B4F",
"Z  c #50464A",
"A  c #475944",
"S  c #5A5B40",
"D  c #5C544D",
"F  c #545352",
"G  c #645853",
"H  c #725E5B",
"J  c #496646",
"K  c #5A7446",
"L  c #4C6A5E",
"P  c #597A54",
"I  c #4A7C48",
"U  c #667A41",
"Y  c #6B7D43",
"T  c #637947",
"R  c #757A47",
"E  c #7C6B5D",
"W  c #73625A",
"Q  c #697A59",
"!  c #727D54",
"~  c #666C45",
"^  c #4C4165",
"/  c #51436B",
"(  c #5C4778",
")  c #624A7E",
"_  c #715173",
"`  c #417168",
"'  c #407866",
"]  c #4F6F6E",
"[  c #7E6861",
"{  c #80705D",
"}  c #877362",
"|  c #917666",
" . c #2E8447",
".. c #32974B",
"X. c #3A9658",
"o. c #378954",
"O. c #35A24D",
"+. c #39A74F",
"@. c #39B251",
"#. c #39A855",
"$. c #3F8162",
"%. c #5D8154",
"&. c #528C4C",
"*. c #6C8546",
"=. c #68844B",
"-. c #728844",
";. c #7C8948",
":. c #778649",
">. c #7C9447",
",. c #77944D",
"<. c #668A55",
"1. c #6B955C",
"2. c #729E5F",
"3. c #739656",
"4. c #7F8B51",
"5. c #44B753",
"6. c #58BE57",
"7. c #77A856",
"8. c #6F976F",
"9. c #6E9A6E",
"0. c #779B6D",
"q. c #679175",
"w. c #6B9671",
"e. c #728A6B",
"r. c #79A863",
"t. c #76A167",
"y. c #5DC058",
"u. c #79CB5D",
"i. c #9F963B",
"p. c #83884A",
"a. c #8A884D",
"s. c #819A47",
"d. c #89994B",
"f. c #9C9B51",
"g. c #989551",
"h. c #90934F",
"j. c #85A04B",
"k. c #8CA74B",
"l. c #9BB94E",
"z. c #95B24C",
"x. c #85AE5C",
"c. c #8AAC5C",
"v. c #8EAF52",
"b. c #9EA456",
"n. c #8EB256",
"m. c #86BF5C",
"M. c #94B552",
"N. c #9EB754",
"B. c #9BB35B",
"V. c #94AC4D",
"C. c #AAA655",
"Z. c #B6A959",
"A. c #ADB555",
"S. c #A3B951",
"D. c #A9B953",
"F. c #A3B35E",
"G. c #AEB65D",
"H. c #A2B551",
"J. c #B1BA56",
"K. c #B1B35F",
"L. c #BAB55A",
"P. c #B6BA58",
"I. c #BFBA5B",
"U. c #B3B657",
"Y. c #A9AC4E",
"T. c #8A8569",
"R. c #919B65",
"E. c #A4997B",
"W. c #84AB62",
"Q. c #87A06C",
"!. c #87A663",
"~. c #94AF60",
"^. c #9CAA65",
"/. c #94A262",
"(. c #AAB061",
"). c #CE975F",
"_. c #D9945F",
"`. c #D8995E",
"'. c #C6A65B",
"]. c #DAA05C",
"[. c #E9B954",
"{. c #E2A959",
"}. c #CF9660",
"|. c #CBAD7E",
" X c #85CC5E",
".X c #B9C252",
"XX c #94D562",
"oX c #CDCF47",
"OX c #E1D241",
"+X c #F6D84A",
"@X c #F3D252",
"#X c #FFED44",
"$X c #FFEE4D",
"%X c #FAE547",
"&X c #FFEF5C",
"*X c #FFEE53",
"=X c #EFE546",
"-X c #FFF276",
";X c #654C83",
":X c #6B4E89",
">X c #694D86",
",X c #74528A",
"<X c #765395",
"1X c #7E5897",
"2X c #6F578F",
"3X c #855C90",
"4X c #8C6289",
"5X c #986798",
"6X c #8F6198",
"7X c #A8719A",
"8X c #A26D9A",
"9X c #B0A280",
"0X c #D5BE8E",
"qX c #D4C293",
"wX c #E5CF9B",
"eX c #FDF18D",
"rX c #FFF8B4",
"tX c #F0E1A8",
"yX c #E6D3A6",
"uX c #FFFACE",
"iX c white",
"pX c #FFFEF5",
"aX c #FFFCE1",
/* pixels */
"l.B.W.r.F.'..X.XD.l.l.l.J.I.^.K.I.I.D.P.I.I.D.D.I.F.r.r.F.P.l.l.l.B.W.r.Z.`.'.J..XoX@X[.%X[._.Z.",
"r.r.r.r.r.l.l.l.l.l.D.I.D.P.I.I.J.S.l.l.I.D.n.r.r.r.r.r.M.l.l.n.r.r.r.!.}.'.H.oX%X@X_._.%X{._.'.",
"r.x.l.n.r.W.n.l.l.S.D.S.l.l.D.S.l.l.l.l.l.B.r.r.r.r.r.r.r.r.x.r.r.x.l.M.r.r.=X#X#X#X+X_._.+X+X'.",
"x.n.l.l.l.l.l.l.l.l.M.x.l.l.l.l.l.l.M.n.r.r.r.M.l.x.x.n.r.r.r.x.W.n.l.l.l.oX&X$X@X`._._._.+X`.Z.",
"l.n.l.l.l.l.n.x.l.n.r.r.n.l.l.l.l.l.D.S.l.M.n.l.l.M.l.l.l.n.n.l.l.M.z.l.U OXrX-X`._._.).Z._._.H.",
"l.l.l.l.l.n.r.r.r.r.r.r.7.v.l.l.l.J.I.I.J.J.I.I.A.l.l.l.l.x.n.l.l.z.l.l.5 OX*X$X]._.).!.r.c.H.l.",
"x.r.r.x.x.r.r.r.r.r.r.r.r.r.r.x.N.D.I.I.I.I.I.W.r.x.r.r.r.r.r.r.x.r.r.x.4 OX&X$X[.[./.r.r.r.r.x.",
"r.r.r.w.q.9.n.n.n.n.9.9.r.x.l.l.D.J.P.I.I.S.n.M.l.n.n.r.r.r.r.r.r.r.r.8.L OXrXuX+X$X~ e.r.c.z.l.",
"t.q.w.q.q.q.q.q.0.9.^.0.q.W.XXL..X'.'..XJ.l.l.l.M.r.r.r.r.r.r.T.| T.w.w.q.g.rXpX&X%Xi.v q.c.XXG.",
"q.Q.K.I.(.q.K.I.(.(.oX'.^.^.U.H.l.XX.X'.P.D.S.l.l.l.M.n.x.r.r.r.e./.K.'.(.9 #XpXaX*XoXS b.^.U.M.",
"Q.I.I.I.I.K.I.I.I.I.I.I.I.I..X.XS.l.l.H.'..XD.S.l.l.l.l.n.(.F.^.Q.I..X'.I.A C.eXiXeXi.R I.I..X.X",
"I..X'.D.P.I.I.D.I.I.(.I.I.I.G.I.'.l.D.D.l. Xl.l.l.l.l.j.Y 8 D..XI.I.I.D.f.  0XtXyXG 0 L.I.I.'..X",
"XXL.D.l.l.P.l.l. XS.l.J.'..X.X'..XJ.I.I.P.J.J.A.U.k.8 & 4X, l.l.l.I.S.l.>.G wXtXqXT.9 P.oXK.'.'.",
"l.l.l.l.l.S.l.l.l.l.l.S.D.D.l.D.D.k.h.D.l.n.x.x.K $ r <X8X- z.l.l.l.l.l.9 9XV 0XE.% , S.D.D.XXH.",
"S.l.l.l.l.n.x.l.l.l.l.l.l.l.l.l.>.; ; K W.r.<.:   e 4X6X5Xu R I.S.l.l.l.w Z } < |.D 9 l.l.l.l.l.",
"'..XW.r.x.x.x.x.l.l.l.c.M.l.l.l.s.6 u.: J $       a 4X6X5X4X- U.8   1.r.,.#     < o l.n.M.l.l.l.",
"n.n.M.M.n.l.l.n.l.l.r.r.r.x.r.x.s.6 I   . a / <Xk t ^ 3X6Xh   : J $ k.M.,.< H Z * *.r.r.r.x.r.x.",
"t.M.r.x.n.x.r.r.M.n.r.x.n.r.r.x.,.m @ e r e a / :X:X( ;X<Xo n  X7.A r.x.,.B | C K M.r.c.n.r.r.x.",
"^.w.r.r.r.r.r.r.r.r.r.l.l.l.l.l.s.O p k >X>Xt a k :X<X( v X.6.XX4 L r.r.b { H < 1.r.r.l.l.l.l.l.",
"'.(.K.G.r.l.n.l.M.r.x.x.x.n.l.l.=.e h h ^ / <X<X>X>X<Xl N @.u.K 5 b.K.; o < C % v.r.x.x.x.x.l.l.",
" XP.'.oXI.J.l.l.l.r.r.c.F.F.F.h.o g k h h ^ ;X<X<X<X<X` $.5.&.o k..Xp. .@ - J = z.r.r.~.(.B.(.J.",
"S.l.l.M.D.S.l.l.M.N.D.D.D.D.d.o . o o o o a h / ;X<Xa N X.+.$   -..X3 n =  XXX4 s.N.D.D.D.D.D.S.",
"r.r.x.r.r.r.l.l.l.l.l.l.l.>.O &.u.@.@. .2 + e p ^ :Xd v ' M g j 4 r.= # &.y.@.2 k.l.l.l.l.l.l.J.",
"x.n.n.B.I.G.l.l.l.l.l.l.q # 7.XXu.@.@.@.@.N l   p <X,X;X] A ,X7X; n.9 @ @.@.+.5 l.l.l.l.D.J.P.I.",
"D.P.J.L.I.'..X Xl.l.j., 7 O.5.5. .n ..@.@.N N l e >X<X1X8X7X7X7X4 C.$   @ n 2 >.l.l.l.l.l.S..XS.",
"~.B.~.B.r.W..X'.P.J.R 6 O.2   9 :     y ` N + #   <X<X<X<X1X5X_ 5 $   < C   C.'.P.J.J.x.n.l.l.l.",
"x.M.M.r.r.r.r.r.r.r.P : 4 %.1.x.4 c ` N ` ` N o o <X<X<X<X,Xh o   $ =.C V o r.r.r.r.r.r.r.r.r.x.",
"l.l.l.l.M.r.x.n.r.r.r.r.r.r.x.n.4 c ` ` ` ` l p k ( <X( ^ t t   $ >.l.T 9 1.x.n.W.r.r.r.r.r.x.n.",
"S. XI.I.S.r. Xl.l.M.l.n.l.N.l.l.4 . c ` v + e s <X<X<X<X2X:Xk z s.N..XI.S.r.l.l.l.M.l.n.N.M.l.l.",
"!..XI.I.'..Xz.l.l.9 @ O Y L.f.% a s v x s h h h :X<X<X<X<X<Xk Q !.G.I.I.I.G.M.l.l.l.D.J..XI.I.D.",
"'..XI.I.'..XP.l.Y 2 #.o.> <   o h h s h h h h d k <X<X<X<X<Xt g.I.I.'.I.I.I.J.l.l.I.I.I.'..XD.W.",
".X'.I.~.I..X'.J.K m @.&.y - U   & & o * e a h k r k d d d g X R .XI..X~.I.I.I.J.D.l.l.l.l.l.l.q.",
"XXB.!.r.F.I.I.A.Y 2 ..M y C.R.% G i | % % % < f { W { E E G % U l.B.W.r.(.I.I.D.D.l. Xl.J.'.B.G.",
"r.r.r.r.x.l.l.l.l.K 0 S :.P.R .   j V % G { C u f f f f B i $ =.r.r.r.r.x.l.l.l.l.l..X'.D.J..X'.",
"r.x.z.n.r.W.M.l.l.H.D.S.l.l.,   * X < *   & r e e & & * e &   1.r.x.l.n.r.W.M.l.l.S.D.S.l.l..XN.",
"x.n.l.l.l.l.l.l.l.l.M.x.l.l.% } V X G D & j j h h k ;X;X) ) t =.x.n.l.l.l.l.l.l.l.l.n.x.l.l.l.l.",
"l.n.l.l.l.l.n.x.l.n.r.r.n.z.= V   : % G * O > s s p t ( k r * U z.n.l.l.l.l.n.x.l.n.r.r.m.l.l.l.",
"l.l.l.l.l.M.r.r.r.r.r.r.x.5 . 9 ,.J.Z.0 S g.R S S 9 4   4 =.3.V.l.l.l.l.l.n.r.r.r.r.r.r.r.n.l.l.",
"x.r.r.x.x.r.r.r.r.r.r.r.r.t.o , N.D.I.I.'..X'.x.r.x.<.  1.r.r.r.x.r.r.x.x.r.r.r.r.r.r.r.r.r.r.x.",
"r.r.r.w.q.w.n.n.n.n.9.9.<.; o - ;.;.a.a.a.,.=.-.-.=.- b 1.0.r.r.r.r.r.w.w.w.n.n.n.n.9.9.r.x.l.l.",
"t.q.w.q.q.q.q.q.9.9./.Q L K Y p.a.a.a.a.;.-.-.-.*.%.  A %.P %.2.t.q.w.q.q.q.q.q.9.w.^.0.w.~.l.P.",
"q.Q.G..X(.q.K.I.(.K.g.a.! ! ;.:.-.-.p.a.p.:.-.-.-.-.  # b P P P q.Q.K.I.(.w.G.I.(.K.I.I.^.^.J.S.",
"Q.I.I.'.I.K.I.I.I.I.L.g.a.a.;.p.-.-.-.:.a.p.:.-.-.-.-.-.*.:.3./.Q.I.I.I.I.K.I.I.'.I.I.I.I.I.D.J.",
"I.I.I.D.P.I.I.D.I.I.D.I.K.Z.f.f.h.-.;.:.-.-.-.-.-.*.j.s.b.z..X'.I.I.I.D.P.I.I.D..XI.D.I.I.I.I.I.",
"N.L.D.l.l.J.l.l.l.S.l.J.L.I.I.I.I.A.L.L.J.A.A.D.D.z.l.l.l.l.l.l.l.P.D.l.l.J.l.l.l.S.l.J.I.I.I.I.",
"XXz.l.l.l.S.l.l.l.l.l.S.D.D.l.S.D.D.D.D.l.M.x.x.M.l.l.l.l.l.l.l.l.l.l.l.l.S.l.l.l.l.l.D.D.D.l.D.",
"D. Xl.l.l.n.x.l.l.l.l.l.l.l.l.l.l.l.l.M.r.r.r.r.r.r.r.x.l.S.P.L.S.l.l.l.l.n.n.l.l.l.l.l.l.l.l.l.",
"'.'.c.r.x.x.x.x.l.l.l.x.M.l.l.l.l.l.x.r.r.n.n.x.r.r.r.r.~.G.I.oXI.I.W.r.x.x.x.r.l.l.l.x.n.l.l.l."
};
