/* XPM */
static char *result[] = {
/* columns rows colors chars-per-pixel */
"48 48 197 2 ",
"   c #161C2E",
".  c #1D2135",
"X  c #1D2A37",
"o  c #1B3434",
"O  c #22243A",
"+  c #272937",
"@  c #20303C",
"#  c #2A3836",
"$  c #36343D",
"%  c #363934",
"&  c #45393A",
"*  c #1E4036",
"=  c #374438",
"-  c #24573C",
";  c #325E3F",
":  c #4C5C3B",
">  c #46573C",
",  c #545C3E",
"<  c #5B6E3F",
"1  c #737037",
"2  c #2A2943",
"3  c #293B44",
"4  c #32304A",
"5  c #393048",
"6  c #393552",
"7  c #3D3258",
"8  c #302D49",
"9  c #433D5B",
"0  c #40355B",
"q  c #4C3F50",
"w  c #503D6C",
"e  c #513F6D",
"r  c #3E5443",
"t  c #304F51",
"y  c #375D5A",
"u  c #2A7643",
"i  c #2F624E",
"p  c #475741",
"a  c #5B5C41",
"s  c #58504C",
"d  c #4E4753",
"f  c #655E41",
"g  c #625751",
"h  c #705D5A",
"j  c #59744A",
"k  c #567657",
"l  c #4A675B",
"z  c #667943",
"x  c #7B7B49",
"c  c #737B46",
"v  c #79645E",
"b  c #70764D",
"n  c #4C4165",
"m  c #584673",
"M  c #574274",
"N  c #554B6B",
"B  c #6A4D6D",
"V  c #624A7E",
"C  c #60467D",
"Z  c #6B5274",
"A  c #417168",
"S  c #547564",
"D  c #6D6B60",
"F  c #AA7753",
"G  c #9A7868",
"H  c #826D60",
"J  c #8B644B",
"K  c #308E49",
"L  c #339A4B",
"P  c #3C9A5A",
"I  c #38B251",
"U  c #45904B",
"Y  c #64884A",
"T  c #738845",
"R  c #798647",
"E  c #618656",
"W  c #789052",
"Q  c #59BF57",
"!  c #72A353",
"~  c #5F8461",
"^  c #6E996E",
"/  c #789B6E",
"(  c #679175",
")  c #6B9771",
"_  c #79A863",
"`  c #7AA165",
"'  c #5DC058",
"]  c #70C75B",
"[  c #7ACB5D",
"{  c #A2993B",
"}  c #ABA23C",
"|  c #C7BB3F",
" . c #82884A",
".. c #8A884D",
"X. c #82814B",
"o. c #819748",
"O. c #818753",
"+. c #999354",
"@. c #8B9151",
"#. c #B7995C",
"$. c #A19C4D",
"%. c #8AA54A",
"&. c #86A049",
"*. c #9BB94E",
"=. c #84AE5C",
"-. c #8AAD59",
";. c #9CA854",
":. c #8EB256",
">. c #94B552",
",. c #9BB65A",
"<. c #95A64E",
"1. c #AAA655",
"2. c #A7A458",
"3. c #B4AA55",
"4. c #B2A858",
"5. c #A3B951",
"6. c #A9B953",
"7. c #A3B35D",
"8. c #AEB65D",
"9. c #A7B251",
"0. c #B1BA56",
"q. c #B1B35F",
"w. c #B6BA58",
"e. c #BFBA5B",
"r. c #B8B157",
"t. c #B0A847",
"y. c #8F906D",
"u. c #A8916D",
"i. c #B79B77",
"p. c #B39461",
"a. c #87A06C",
"s. c #86A962",
"d. c #9EA161",
"f. c #95AF60",
"g. c #9CAA65",
"h. c #9BA068",
"j. c #AAB161",
"k. c #A4B661",
"l. c #B6A163",
"z. c #CA9D5B",
"x. c #D9945F",
"c. c #C3A259",
"v. c #C9A95C",
"b. c #DFA25B",
"n. c #C3B55A",
"m. c #D0BD4B",
"M. c #E2A959",
"N. c #E7B455",
"B. c #E8B854",
"V. c #C69860",
"C. c #B6C74C",
"Z. c #ABC258",
"A. c #AEC350",
"S. c #95D562",
"D. c #C3CE4A",
"F. c #D3CD4A",
"G. c #D7D848",
"H. c #DEDB4A",
"J. c #D2D54B",
"K. c #C4C658",
"L. c #D7CA53",
"P. c #C9D150",
"I. c #F0CA4F",
"U. c #E5D84D",
"Y. c #F6D84A",
"T. c #F9DF48",
"R. c #EFE546",
"E. c #E8E147",
"W. c #FFED44",
"Q. c #F5E548",
"!. c #FFF062",
"~. c #FFF171",
"^. c #775396",
"/. c #7F5897",
"(. c #665286",
"). c #606980",
"_. c #8B5F98",
"`. c #835A97",
"'. c #855D80",
"]. c #966695",
"[. c #A8719A",
"{. c #A06C99",
"}. c #8D8188",
"|. c #D5B583",
" X c #DFC793",
".X c #E6D19D",
"XX c #E5CF9B",
"oX c #FFF387",
"OX c #FFF48F",
"+X c #FFF69E",
"@X c #FFF8B4",
"#X c #FFF9BC",
"$X c #F4E6B2",
"%X c #E4D0B0",
"&X c #FFFBD2",
"*X c #FFFCE1",
"=X c white",
/* pixels */
"*.,.s._ 7.e.e.0.5.*.*.*.0.e.g.q.e.e.6.w.e.e.6.6.e.k._ _ ,.w.*.*.*.,.=._ 7.n.e.0.6.*.*.*.0.n.g.q.",
"_ _ _ _ =.*.*.*.*.*.6.U.U.U.W.W.W.D.*.*.e.6.:.Z.P.P.P.,.>.*.*.>._ _ _ _ _ *.*.*.*.*.Z.n.6.w.Z.n.",
"_ =.*.-.` V.z.*.*.U.Q.W.W.W.W.W.G.*.*.*.*.H.R.W.W.W.W.W.W.P.=._ _ =.*.:._ =.>.*.*.5.5.5.*.*.6.*.",
"=.:.*.p.z.9.*.*.R.W.W.W.I.B.I.W.*.*.9.n.R.W.W.W.W.W.W.W.W.W.W.P._ :.*.*.*.*.*.*.*.*.>.=.*.*.*.*.",
"+.G #.9.*.*.R.W.W.B.x.x.x.x.b.z.c.B.W.W.W.W.W.W.I.B.B.W.W.W.W.W.W.W.W.G.A.W.E.Z.*.:._ _ :.*.*.*.",
"G 4.9.*.C.R.W.I.x.d.x.x.x.x.x.N.Q.W.W.W.W.B.x.x.x.x.x.x.x.B.Y.W.W.W.W.W.E.Z.W.W.,._ _ _ =.=.*.*.",
"V.x.s.C.W.W.B.x.a.d.x.#.x.x.B.W.W.W.W.B.x.v.n.x.x.x.x.x.x.x.x.M.T.W.W.W.W.H.,.W.H._ _ _ _ _ _ =.",
"d.8.P.B.4.y.3.,.:.3.) a.s.=.*.D.P.L.v.v.e.c.x.c.3.3.3.d.d.d.d.I.x.b.Y.W.W.W.W.W.W.H.^ ^ _ =.*.*.",
"6.I.h.( ( ( ( ( / ^ g./ ( =.*.e.e.e.e.e.r.3.6.*.>.s._ _ _ _ _ ,.H.I.I.Y.W.W.W.W.K.W.K./ ( -.*.w.",
"k.a.q.n.j.( q.e.j.q.e.e.g.g.w.5.*.*.w.e.w.6.5.*.*.*.>.:._ _ _ _ ) j.W.W.W.W.W.W.W.e.e.e.g.g.0.5.",
"a.e.e.e.e.q.Z.n.n.e.e.e.e.e.6.0.5.*.*.5.n.0.6.5.*.*.*.*.>.7.l.u.a.n.L.W.W.W.W.W.W.W.n.e.n.e.6.0.",
"e.e.e.6.e.e.n.6.e.e.0.e.e.e.e.e.n.*.6.5.*.*.*.5.*.*.*.*.0.*.3.x.x.v.L.W.W.W.W.W.W.B.x.n.e.e.e.e.",
"*.w.6.*.*.0.*.*.*.5.*.0.e.e.e.e.e.0.e.e.w.0.0.Z.0.*.*.*.*.*.*.9.x.x.x.Y.W.W.W.W.W.M.x.x.e.e.e.e.",
"*.*.*.*.*.*.*.*.*.*.*.5.6.6.*.5.6.6.6.6.*.:.=.=.>.*.*.*.*.*.*.*.*.3.x.x.Y.W.W.W.W.T.x.x.6.6.*.5.",
"5.*.*.*.*.:.=.*.*.*.*.*.*.*.*.*.*.*.*.:._ _ _ _ _ _ _ s.*.6.w.n.5.*.V.x.x.M.W.W.W.I.b.x.z.*.*.*.",
"e.n.s._ =.=.=.=.*.*.*.=.>.*.*.*.*.*.=._ _ :.:.=._ _ _ _ f.q.C.n.e.e.g.x.x.x.T.W.W.W.x.x.x.*.*.A.",
":.:.>.>.:.*.*.:.>.*._ _ _ -._ =.*.:.z #   w   : E >.*.:.:.>.*.6.:.:.>.9.x.x.x.W.B.W.N.x.x.d.s.A.",
"_ >._ s.>.=._ _ >.:._ =.:._ _ -.:.>.z z   [.].^.C 8 = / ` ` *.-.` >.s._ >.4.x.x.M.M.W.x.x.x._ P.",
"g.) _ _ _ _ _ _ _ _ _ *.*.*.z #     = k ) '.[._.^.^.5 c h.( ^ ( g.) _ _ ` _ F x.x.x.Y.B.x.x.z.Y.",
"e.j.j.8._ *.:.*.>._ =.=.:.=.: L I I u . , Z [.`.{.[.B   +.j.l p , O.q.8._ *.p F x.x.I.B.x.x.x.I.",
"*.w.e.e.e.6.*.*.*._ _ f.7.7.@.x = ! ] U u m _.^.Z N 2 0 0 > 1   u * n.e.n.0.*.f F x.x.x.x.x.x.U.",
"*.*.*.*.5.Z.*.*.>.*.6.6.6.6.6.5.: U S.' I @ ^.m ^.^.^.m n 6     ! I Y *.6.*.*.*.J x.x.x.x.x.x.*.",
"_ =.=._ _ _ *.*.*.*.*.*.*.*.*.0.6.  S.] I y M ^.^.w 0 9 4 2     Y ' j _ _ _ *.*.f x.x.x.x.x.x.v.",
"=.:.:.,.n.j.*.*.*.*.*.*.5.0.e., %   Y I P A V ^.V V (.e w w e 7 O ; j ,.e.0.*.*.: F N.x.x.x.N.m.",
"6.w.w.w.n.n.6.*.*.*.*.*.*.5.w.  [.9 = P A 3 w ^.^.^.m m 9 9 9 9 6   ;.w.e.e.6.C.R & T.M.x.x.I.D.",
"f.f.f.f._ s.n.Z.w.6.0.-.>.*.: B [.[.}.).).w ^.^.9 9 9 9 9 9 9 9 4   f.f._ s.e.e.J.= W.Y.x.x.x.W.",
"=.>.>._ _ _ s._ _ _ _ _ _ _ r ].{._.[.{.`.^.^.m .           + 2 .   >._ j   k _ _ p { W.x.x.N.W.",
"*.*.*.*.>._ =.:.=._ _ _ _ _ r 5 _.`.^.^.^.^.O 3 t A A P I I I ] S.U     u - j :.J.Z.{ W.x.x.I.W.",
"*.*.w.e.6._ *.*.*.>.*.:.*.5.: 8 2 w e ^.^.w     @ A A P I I I I [ S.K L I o %.*.G.D.m.W.M.x.I.OX",
"a.0.e.e.e.j.>.*.*.*.6.0.0.n.n C (.^.^.^.^.0     A A A i o     K I I I I o b >.*.G.W.W.~.B.x.W.=X",
"e.e.e.e.e.e.Z.5.*.e.e.e.n.X.w ^.^.^.^.^.^.(.6 O A A A y t t     * - - o x e.6.*.A.| W.&XB.x.W.=X",
"w.e.e.,.e.n.e.0.5.*.*.*.*.  (.^.^.0 2 ^.^.^.n 9 @ A A A A O > 6.0.x x ,.e.e.n.6.5.{ oX=XB.x.W.=X",
"*.,.s._ 7.n.C.w.6.*.*.*.R   ^.^.^.C 2   7 0 9 9 6 3 A A X   *.*.*.>.=._ 7.n.Z.w.6.{ @X=XY.I.W.=X",
"_ _ _ _ _ *.*.*.*.*.6.e.:   ^.^.^.^.^.0 5 O + 6 9 9 d n n 4 = :._ _ _ _ _ *.5.5.*.{ ~.!.oX$X~.OX",
"_ =.*.:._ =.>.*.*.6.6.5.#         8 7 5 2 8     O .   X 2 2   _ _ =.*.:._ =.>.*.*.{ W.W.*X=XOXW.",
"_ :.*.*.*.*.*.*.*.*.:.#   g s H i.i.i.|.G 3         u u o +   =._ :.*.*.*.*.*.*.: { W.W.=X=X!.@X",
"*.:.*.*.*.*.:.=.*.>   w 9 9 O             + g v   L I I Q t z *.*.:.*.*.*.*.:.=.: W.W.W.=X=XW.@X",
"*.*.*.*.*.>._ _ _ _ # 2 7 7 ^.C V n 9 9 4 +     - I I ] #   d     :   y.  = E j { W.W.+X&XOXoX#X",
"-._ _ =.=._ _ _ _ _ _ k j         O 2 + . d v g u I I S.= p h G v + i.v |.s     F.W.*X!.~.W.@XOX",
"_ _ _ ) ( ) :.:.>.! ~ k k +   : , a a , ,     :   * K K # + $ v h $ $   $X Xu.W.W.@X#XW.OXW.W.W.",
"` ( ) ( ( ( ( ( k S b t     z X......... .T T T : > =   X ! E =     i.XX.X.X%X@X&X=X&X+XW.W.W.} ",
"( a.8.e.j.( 8.e.R x ..a , f  .T T T  ... .T T T T T < : r ` _ _ S   |.$ u. XOX=X=X#X!.W.W.W.W.% ",
"a.e.e.e.n.8.e.e.q.+.........R  .R T T T .. .R R T T T W :.,.k.g.a.=     g $ W.W.W.W.W.W.W.W.1 c ",
"e.e.n.6.w.e.n.5.n.n.6.2.1.1.1.1.1.%.<.<.%.%.%.%.%.%.*.*.0.5.6.n.e.n.e.o.c x x D.1 1 1 1 t.$.2.n.",
",.Z.6.*.*.0.*.*.*.5.*.0.e.e.e.e.n.Z.n.e.w.0.w.Z.Z.*.*.*.*.*.*.*.*.w.6.*.*.0.*.*.*.5.*.Z.e.n.e.e.",
"*.*.*.*.*.5.*.*.*.*.*.5.6.6.*.5.6.6.6.6.*.:.-.-.>.*.*.*.*.*.*.*.*.*.*.*.*.*.*.*.*.*.*.5.5.6.*.5.",
"5.*.*.*.*.>.=.*.*.*.*.*.*.*.*.*.*.*.*.:._ _ _ _ _ =._ _ *.6.w.e.5.*.*.*.*.>.-.*.*.*.*.*.*.*.*.*.",
"K.n.s._ -.=._ =.*.*.*.-.>.*.*.*.*.*.=._ _ >.:._ _ _ _ _ f.j.e.e.e.e.s._ =.=.=.=.*.*.*.=.>.*.*.*."
};
