/* XPM */
static char *result[] = {
/* columns rows colors chars-per-pixel */
"48 48 203 2 ",
"   c #161C2E",
".  c #1D2135",
"X  c #1B3434",
"o  c #22243B",
"O  c #2A2A38",
"+  c #242638",
"@  c #293637",
"#  c #35333D",
"$  c #1E4036",
"%  c #374336",
"&  c #37443A",
"*  c #23553C",
"=  c #4B5B3B",
"-  c #46563B",
";  c #54583E",
":  c #404739",
">  c #5C6E3F",
",  c #6D6A36",
"<  c #292942",
"1  c #273D45",
"2  c #32304A",
"3  c #393048",
"4  c #383351",
"5  c #3D3258",
"6  c #383D52",
"7  c #302D49",
"8  c #473F47",
"9  c #433D5B",
"0  c #4B3B55",
"q  c #4C3E67",
"w  c #503D6C",
"e  c #543F71",
"r  c #384D46",
"t  c #3E5543",
"y  c #304F51",
"u  c #375D5A",
"i  c #325253",
"p  c #2A7643",
"a  c #2C7C44",
"s  c #3A6040",
"d  c #494447",
"f  c #435A42",
"g  c #5A5844",
"h  c #54494D",
"j  c #645753",
"k  c #705D5A",
"l  c #496643",
"z  c #58734A",
"x  c #5A7C52",
"c  c #547357",
"v  c #486F50",
"b  c #657B46",
"n  c #7A655F",
"m  c #737C4C",
"M  c #4B4164",
"N  c #584673",
"B  c #574274",
"V  c #5C446D",
"C  c #6E4F6F",
"Z  c #624A7E",
"A  c #604679",
"S  c #6F527A",
"D  c #417168",
"F  c #407B64",
"G  c #567961",
"H  c #6C6D6D",
"J  c #9E7466",
"K  c #9B7E64",
"L  c #957B6B",
"P  c #8C7266",
"I  c #AA7D64",
"U  c #93694D",
"Y  c #7F803B",
"T  c #339A4B",
"R  c #389654",
"E  c #38B251",
"W  c #3F8561",
"Q  c #6B8244",
"!  c #67864D",
"~  c #728844",
"^  c #788547",
"/  c #618656",
"(  c #678B54",
")  c #6B945C",
"_  c #769B55",
"`  c #7A974D",
"'  c #4EBA55",
"]  c #59BF57",
"[  c #68A353",
"{  c #7A8A6F",
"}  c #6F976F",
"|  c #6E9A6E",
" . c #789B6E",
".. c #679175",
"X. c #6B9771",
"o. c #72896A",
"O. c #79A863",
"+. c #73A069",
"@. c #7CA165",
"#. c #5DC058",
"$. c #70C75B",
"%. c #C7BB3F",
"&. c #81884A",
"*. c #8A884D",
"=. c #82814B",
"-. c #8F985D",
";. c #9D905C",
":. c #9C9D58",
">. c #959757",
",. c #908F51",
"<. c #A59E5B",
"1. c #9BB94E",
"2. c #81A150",
"3. c #84AE5C",
"4. c #89AD5B",
"5. c #88AB54",
"6. c #9CA057",
"7. c #9CAA57",
"8. c #8EB256",
"9. c #81B75A",
"0. c #94B552",
"q. c #9EB754",
"w. c #9BB35B",
"e. c #A3A857",
"r. c #B5A958",
"t. c #AAB052",
"y. c #A3B951",
"u. c #A9B953",
"i. c #A3B35E",
"p. c #AEB65D",
"a. c #A5B351",
"s. c #B1BA56",
"d. c #B1B35F",
"f. c #B6BA58",
"g. c #BFBA5B",
"h. c #8C8569",
"j. c #928565",
"k. c #9A8864",
"l. c #889364",
"z. c #829C64",
"x. c #939465",
"c. c #AB8A61",
"v. c #BA8363",
"b. c #A99069",
"n. c #B99E77",
"m. c #84AB62",
"M. c #87A06C",
"N. c #8AA962",
"B. c #95AF60",
"V. c #9CAA65",
"C. c #97A362",
"Z. c #AAB061",
"A. c #CA9D5B",
"S. c #D9945F",
"D. c #C9A55C",
"F. c #DFA25B",
"G. c #C5B15C",
"H. c #E2A959",
"J. c #E8B854",
"K. c #E7B455",
"L. c #C18762",
"P. c #CB8C61",
"I. c #C29960",
"U. c #86CF5F",
"Y. c #B5C753",
"T. c #95D562",
"R. c #CFD44E",
"E. c #D7D848",
"W. c #D2D54B",
"Q. c #C9D150",
"!. c #CFCD45",
"~. c #F1CB4F",
"^. c #F6D84A",
"/. c #F9DF48",
"(. c #EED75D",
"). c #FFED44",
"_. c #F8E44E",
"`. c #EFE546",
"'. c #FFF062",
"]. c #FFF171",
"[. c #664B83",
"{. c #6F4F8D",
"}. c #775396",
"|. c #7F5897",
" X c #615F84",
".X c #6C7181",
"XX c #875D98",
"oX c #956699",
"OX c #9C6A99",
"+X c #A8719A",
"@X c #D6B684",
"#X c #DFC692",
"$X c #E5CF9B",
"%X c #FFF48F",
"&X c #FFF387",
"*X c #EEDDA1",
"=X c #EFE1AB",
"-X c #FFF8B4",
";X c #FFF9BC",
":X c #DADBDE",
">X c #FFFBD2",
",X c #FFFCE1",
"<X c white",
/* pixels */
";.C.m.O.i.g.g.J J J J k.<.c.h.k.r.g.u.f.r.I J J J J J J 7.s.1.1.1.w.m.O.i.G.f.s.u.1.1.1.s.G.B.d.",
"j.O.O.O.3.:.J J ;.w.u.J J J c.r.f.y.1.6.J e.J J J J L h.;.;.;.;.L j.O.O.O.1.1.1.1.1.Y.G.u.f.G.Y.",
"O.3.1.8.O.z.-.:.1.y.u.e.:.:.a.y.1.1.6.J :.w.O.l.l.l.l.I j.L J J l.3.1.8.O.O.0.1.1.y.1.1.1.1.u.y.",
"3.8.1.1.1.1.1.1.1.1.0.3.1.1.1.1.1.7.:.8.O.O.O.0.0.3.3.l.K J j.3.3.8.1.1.Y.0.1.1.1.1.8.8.1.1.1.1.",
"1.8.1.1.1.1.8.3.1.8.O.O.8.1.1.1.1.1.u.u.1.0.8.1.1.0.1.1.1.8.8.1.1.8.1.J A.t.0.4.1.8.O.O.8.1.1.1.",
"1.1.1.1.1.0.O.O.O.O.O.O.3.3.1.1.1.s.g.g.s.s.g.g.u.1.1.1.1.3.3.1.1.1.:.K I A.O.O.O.O.O.O.O.4.1.1.",
"3.O.O.4.3.O.O.O.O.O.O.O.O.O.O.3.q.u.g.g.g.g.g.m.O.3.O.O.O.O.O.O.3.O.z.J J P.I.N.O.O.O.O.O.O.O.3.",
"O.O.O.X...X.8.8.8.8.X.| O.3.1.1.u.s.f.g.g.q.8.0.1.8.8.O.O.O.O.O.O.O.O.{ J I P.S.7.8.| | O.3.1.1.",
"+...X...........| } V. ...4.1.f.g.g.g.g.f.1.1.1.0.3.O.O.O.O.O.O.+...X...{ L { v.x.} V.@...4.1.f.",
"..M.Z.G.Z.X.d.g.Z.d.G.G.V.V.s.y.1.1.f.g.f.u.y.1.1.1.8.8.3.O.O.O...M.d.g.Z...p.g.Z.d.g.g.V.V.s.1.",
"z.g.Q.g.g.Z.g.g.g.g.Y.g.g.g.u.s.u.1.1.y.G.s.u.y.1.1.1.1.0.i.i.V.M.g.g.g.f.d.g.G.g.g.g.g.G.Y.Y.u.",
"g.g.g.i.f.g.g.u.g.g.s.g.g.g.g.g.g.1.u.y.1.1.1.1.1.1.1.1.s.1.y.g.g.g.g.u.f.G.g.u.g.g.u.g.g.G.G.g.",
"q.f.u.1.1.s.1.1.1.y.1.s.g.G.g.g.g.s.g.g.f.s.m @         b 1.1.1.1.f.u.1.1.D.r.1.;.J 1.s.g.g.g.g.",
"1.1.1.1.1.y.1.1.1.1.1.y.y.Y.1.y.u.^ ; u.1.=   q }.}.}.< 1.1.1.1.1.1.1.1.1.D.S.t.q.J k.k.u.u.1.y.",
"y.q.q.1.1.0.3.1.1.1.1.1.0.1.1.Q   9.= @ 0 |.}.oXN     _ 1.y.f.G.y.1.1.1.1.8.R.K.t.;.I I L.1.1.1.",
"G.Y.m.O.3.3.3.3.1.1.1.3.0.1.1.  l =     +X}.+X+X9 o   / B.s.g.g.g.g.m.O.4.5.3.).r.I I L.S.r.1.1.",
"8.8.0.0.0.1.1.8.0.1.O.O.O.4.f   T.l   C oX}.S 9 2     @ ( 0.q.u.t t - 0.8.1.1.W.J.S.I I S.S.O.O.",
"@.0.O.3.8.3.O.O.0.0.O.3.8.O./   T.E $   A [.{.}.}.[.B 9   % @ * T E   3.8.4.O.O.).S.S.L.S.S.S.8.",
"V.X.O.O.O.O.O.O.O.O.O.1.1.1.1.  ( ' E D X }.}.[.9 9 2 < .     E p X ) O.O.O.O.O.Q.J.S.S.H.S.S.r.",
"g.Z.d.Z.O.1.8.1.0.O.3.3.3.4.=     #.R D u }.[.N Z B w [.}.M + a   -.p.p.O.1.8.0.E.).S.S.^.S.S.r.",
"1.f.g.g.f.u.1.1.1.O.O.4.p.b 0 V   W F i y {.}.}.N N N N 9 9 9   b f.g.g.g.s.1.1.1.Y.I.S.~.^.H.D.",
"1.1.1.1.q.Y.1.1.0.q.u.u.u.  +X+X+XH  Xw [.}.q 9 9 9 6 M 9 9 9   1.1.1.1.u.y.1.1.0.q.D.S.S.).K.S.",
"O.3.3.O.O.O.1.1.1.1.1.1.= 0 oXXXOXOXXX}.}.B <             @ .   / 3.3.O.O.O.1.1.1.1.a.H.S.).).^.",
"3.8.8.w.G.d.1.1.1.1.1.1.= 3 {.}.}.}.}.}.w 1 y y D W R E E E [ v & ( 8.w.g.p.1.1.1.1.1.J.S.).).).",
"y.g.f.f.G.Q.i.q.1.1.1.1.= + 4 q }.}.}.}.<     u D W E E E E ' T.s   f.f.G.g.y.1.1.1.= J.S.).J.~.",
"B.B.B.B.O.3.g.g.f.s.s.8.@ [.}.}.}.}.}.[..   u D D i 1     * E ] T.$ w.B.O.N.g.g.f.t.@ J.S.).S.S.",
"3.0.0.O.O.O.O.O.O.O.O.x 4 }.}.}.}.}.}.}.9   y D D u i @   &   R E E z O.O.O.O.O.!.O., K.~.~.S.S.",
"1.1.1.1.0.O.3.8.O.O.O.  [.}.}.  7 }.}.[.M 9 + u D D D 1 - 1.0.  p E b 1.0.O.3.8.E., ).J.S.S.S.S.",
"1.1.f.g.y.O.1.1.1.0.1.  }.}.}.A < < w 9 9 9 9 2 D D i   3.....r p X s.g.y.O.1.1.E.).).J.S.S.S.S.",
"N.s.G.g.g.p.0.1.1.1.u.  }.}.}.}.}.7   . 2 9 9 9 1 6 9 O 1 d.G.g   g g.g.G.p.0.1.E.).).S.S.S./.S.",
"g.g.g.g.g.g.s.1.1.G.=.  5 5 5 5 5 7 7 7   < < < < < O <   g.g.g.g.g.g.g.Y.g.s.0.Y ).^.S.S.K.~.S.",
"f.g.g.B.g.g.g.s.y.q.f j d b.n.@XL @Xn d         p p $ d m g.f.y.Y.G.g.V.g.g.g.u.= ).J.S.K.).J.S.",
"1.w.m.O.i.G.Y.s.u.1.= 7 2 7           + j j   T E E ] * % >.1.1.1.w.m.O.i.g.g.s., ).S.S./.).F.S.",
"O.O.O.O.O.1.y.1.1.1.= q Z Z Z 9 9 9 2 2 O + * E E U.l # j % = = O j.t t ! 1.Q Y !.~.S.~.<X).S.U ",
"O.3.1.8.O.3.0.1.1.y.u.  5 5 5 9 9 9 M O o   p E $.T.& d P K n   n.H @Xh   @ H :X&X&X-X,X%XJ.S.*.",
"m.8.1.1.1.1.1.1.1.1.` f     %         % t t @ $ E l @ + h n k   @   =X#X(.).].&X&X<X<X<X).F.S.y.",
"1.8.1.1.1.1.8._ ~ ! x f   % Q ~ ~ ~ ^ ~ Y Q z ;       >   O #   g #X=X=X*X-X-X<X<X<X;X'.).S.a.`.",
"1.1.1.1.1.8.) x x c &     ! ~ ~ ~ &.*.*.^ &.*.*.:     = 1.3.( d @X# $X@X_.>X<X<X;X,X<X-X).).).Q.",
"3.O.O.3.3.O.O./ x x c x x x x ! ^ ^ *.*.*.*.*.x x x b ) O.O.O.      j   ).).).).).%X'.).).).R.3.",
"O.O.O.X...X.8.8.2.2.c c x ! ~ Q ^ ` *.*.*.~ ! Q 2.2.5.O.O.O.O.O.O./ z G   G.).).).).).).).Y.1.1.",
"+...X.X.........| | V. ...4.1.f.f.g.g.g.s.1.1.1.0.O.O.O.O.O.O.O.+...X.......v D     m o...4.1.f.",
"..M.Z.G.Z...d.g.p.d.g.g.V.V.s.y.1.1.f.g.f.y.y.1.1.1.0.8.3.O.O.O...z.d.g.Z...d.G.d.d.g.g.6.V.f.y.",
"M.Y.g.g.g.d.g.g.g.g.g.G.g.g.u.s.Y.0.1.y.G.Y.y.y.1.1.1.1.0.i.i.V.M.g.g.g.g.d.g.g.g.g.g.g.g.g.u.s.",
"G.G.g.u.f.g.g.u.g.g.u.g.g.G.Y.G.G.1.u.y.1.1.1.1.1.1.1.1.s.q.y.g.g.g.g.t.f.g.g.u.g.g.u.g.g.g.g.g.",
"T.f.t.1.1.s.q.1.1.y.1.s.g.g.G.Y.g.s.g.g.f.s.s.s.s.1.1.1.1.1.1.1.q.f.u.1.1.s.1.1.1.y.1.s.g.G.Y.G.",
"1.1.1.1.1.y.1.1.1.1.1.y.u.u.q.u.u.u.u.u.1.0.3.3.0.1.1.1.1.q.1.1.q.1.1.1.1.y.1.1.1.1.1.y.u.u.1.y.",
"y.1.1.1.1.0.3.1.1.1.1.1.1.1.1.1.1.1.1.0.O.O.O.O.O.O.O.3.1.y.f.g.a.T.1.1.1.8.3.1.1.1.1.1.1.1.1.1.",
"G.g.3.O.4.9.O.3.1.1.1.3.0.1.1.1.1.1.3.O.O.8.8.3.O.O.O.O.B.s.g.g.g.G.m.O.3.3.3.3.1.1.1.3.0.1.1.1."
};
