/* XPM */
static char *result[] = {
/* columns rows colors chars-per-pixel */
"48 48 194 2 ",
"   c #161C2E",
".  c #1D2135",
"X  c #1D2A37",
"o  c #1B3434",
"O  c #212439",
"+  c #2A2A38",
"@  c #26283E",
"#  c #20303C",
"$  c #2E3E3B",
"%  c #2A3434",
"&  c #36343D",
"*  c #313535",
"=  c #1E4036",
"-  c #364236",
";  c #3F4239",
":  c #34483A",
">  c #31423C",
",  c #24583C",
"<  c #22523B",
"1  c #325E3F",
"2  c #474B36",
"3  c #4B5B3B",
"4  c #46553A",
"5  c #535B3D",
"6  c #53553E",
"7  c #5B6E3F",
"8  c #717239",
"9  c #2A2943",
"0  c #263D44",
"q  c #2B3847",
"w  c #32304A",
"e  c #3C3545",
"r  c #383351",
"t  c #3D3258",
"y  c #3A3B55",
"u  c #302D49",
"i  c #453E46",
"p  c #433D5B",
"a  c #503D6C",
"s  c #543F71",
"d  c #304F51",
"f  c #375D5A",
"g  c #374B47",
"h  c #2A7643",
"j  c #2C7C44",
"k  c #35664F",
"l  c #494346",
"z  c #544A4B",
"x  c #5B5C40",
"c  c #43475E",
"v  c #5C4F50",
"b  c #435740",
"n  c #635553",
"m  c #625950",
"M  c #6D5C58",
"N  c #51704E",
"B  c #4D6A5A",
"V  c #5A7C52",
"C  c #537356",
"Z  c #4A654A",
"A  c #606142",
"S  c #667A41",
"D  c #607F4F",
"F  c #6E7A44",
"G  c #7B7B49",
"H  c #74625B",
"J  c #7A655E",
"K  c #697857",
"L  c #4B4164",
"P  c #574773",
"I  c #6E4F6F",
"U  c #624A7E",
"Y  c #60467D",
"T  c #73527F",
"R  c #417168",
"E  c #407B64",
"W  c #4E6A73",
"Q  c #646876",
"!  c #897861",
"~  c #8C7266",
"^  c #977B6B",
"/  c #846D63",
"(  c #308E49",
")  c #3F944B",
"_  c #3C935C",
"`  c #38B251",
"'  c #3AA257",
"]  c #559C4F",
"[  c #6B8345",
"{  c #68834A",
"}  c #658C4D",
"|  c #738845",
" . c #78844A",
".. c #7B9346",
"X. c #7E9C4E",
"o. c #618656",
"O. c #668E59",
"+. c #678953",
"@. c #6E9155",
"#. c #72975C",
"$. c #77A956",
"%. c #6F976F",
"&. c #6E9A6E",
"*. c #779B6D",
"=. c #679175",
"-. c #6B9671",
";. c #618870",
":. c #79A863",
">. c #73A069",
",. c #7CA165",
"<. c #5DC058",
"1. c #7ACB5D",
"2. c #ABA23C",
"3. c #C7BB3F",
"4. c #83884B",
"5. c #8A884D",
"6. c #8B954C",
"7. c #91944E",
"8. c #818753",
"9. c #9F9C53",
"0. c #969450",
"q. c #8BA54A",
"w. c #86A049",
"e. c #93A64D",
"r. c #91AD4C",
"t. c #9BB94E",
"y. c #85AE5C",
"u. c #89AC5B",
"i. c #9DA751",
"p. c #8EB256",
"a. c #81B75A",
"s. c #94B552",
"d. c #9EB754",
"f. c #9BB35B",
"g. c #AAA559",
"h. c #A3B951",
"j. c #A9B953",
"k. c #A3B35E",
"l. c #AEB65D",
"z. c #AAB052",
"x. c #B1BA56",
"c. c #B2B35E",
"v. c #B6BA58",
"b. c #BFBA5B",
"n. c #BBB459",
"m. c #B69A76",
"M. c #BE9364",
"N. c #84AB62",
"B. c #87A06C",
"V. c #8AA863",
"C. c #95AF60",
"Z. c #9CAA65",
"A. c #AAB061",
"S. c #BDA77F",
"D. c #D9945F",
"F. c #D39D5E",
"G. c #CA9D5B",
"H. c #C2A359",
"J. c #C9A95D",
"K. c #D8A759",
"L. c #C3AF50",
"P. c #E9BA54",
"I. c #E7B455",
"U. c #C49A61",
"Y. c #B3C54C",
"T. c #95D562",
"R. c #D2C54E",
"E. c #C9D150",
"W. c #E0CD4F",
"Q. c #F0CA4F",
"!. c #F9DF48",
"~. c #F6D84A",
"^. c #EAD34E",
"/. c #FFED44",
"(. c #FFF171",
"). c #654B82",
"_. c #6D4F8B",
"`. c #775396",
"'. c #7F5897",
"]. c #6D5B83",
"[. c #8B5F98",
"{. c #835A97",
"}. c #855D80",
"|. c #916389",
" X c #986899",
".X c #A8719A",
"XX c #D7B986",
"oX c #DFC793",
"OX c #E5CF9B",
"+X c #FFF48C",
"@X c #FFF8B4",
"#X c #EFE1AB",
"$X c #FAF4D0",
"%X c white",
/* pixels */
"t.f.N.:.k.L.b.Y.j.t.t.t.x.b.Z.c.b.b.j.v.b.b.j.j.L.A.:.:.k.v.t.t.t.f.N.:.A.v.b.x.j.t.t.t.x.L.Z.l.",
":.:.:.:.:.t.d.d.t.t.j.b.j.v.b.b.x.h.t.t.b.j.p.:.:.:.:.:.t.t.t.p.:.:.:.:.y.t.t.t.t.t.j.b.j.v.b.b.",
":.y.t.p.>.N.s.t.t.h.H.D.z.t.j.h.t.t.t.t.t.f.:.:.:.:.:.:.:.:.y.:.:.y.t.p.:.:.t.t.t.j.j.t.t.t.j.t.",
"y.p.t.t.t.n.D.D.G.d.p.U.D.t.t.t.t.t.s.p.:.:.:.s.t.:.a.p.:.:.:.y.y.p.t.t.d.t.t.t.t.t.p.y.t.t.t.t.",
"t.p.t.H.!.P.D.D.D.g.:.:.g.t.Y.t.t.t.j.h.t.s.p.t.t.s.t.t.t.p.p.t.t.p.t.t.t.d.p.y.t.p.:.:.p.t.t.t.",
"t.t.H.Q.I.Q././.~.Q.:.:.y.y./.t.t.x.b.b.x.x.b.b.x.t.t.d.t.y.a.t.t.t.t.t.t.p.:.:.:.:.:.:.y.y.t.t.",
"u.:.G.D.Q././././.Q.J.:.:.:.Q.y.d.j.b.b.b.b.b.N.:.y.:.:.:.:.:.:.y.:.:.y.y.:.:.:.:.:.:.:.:.:.:.y.",
":.:.D.I.+X@X/././.D.D./.E.R.P.K.j.x.v.b.b.h.p.s.t.p.s.:.:.:.:.:.:.:.:.-.=.&.p.C.p.p.&.&.:.y.t.t.",
"&.=.M.Q.@X+X+X/.2.g ^./././.P.D.b.Y.b.b.x.t.t.t.s.:.:.:.:.:.:.:.>.=.-.-.=.=.=.=.*.-.Z.*.=.y.t.v.",
"=.B.U./.@X/.%X/.  A.b./.Q.K.!.R.k.d.v.L.v.j.h.t.t.t.s.p.y.:.:.:.-.B.A.b.A.=.c.b.A.c.b.b.Z.Z.x.d.",
"B.b.L.n./.@X%X(.2 b.b.J.F.D.R.n.j.t.s.h.L.Y.j.h.t.t.t.t.s.k.k.Z.B.b.b.L.b.c.b.Y.b.b.b.b.L.b.j.x.",
"b.b.L.5 3.%X%X$X8 ; j.b.b.b.b.b.b.t.  > X.d.t.t.t.t.t.t.x.d.h.b.b.b.b.j.v.b.b.l.b.b.Y.b.b.b.b.b.",
"t.v.j.t.8 @X%X$XOX  S j.E.n.b.b.b.x.  }.u 3 x.x.x.t.t.t.t.t.t.t.t.v.h.t.t.l.t.t.d.t.t.Y.L.b.b.c.",
"t.t.t.t.3 S.oX#XoXm 8 h.j.k.t.h.j. .  .X`.  * ..s.t.t.t.t.t.t.t.t.t.t.t.t.Y.t.t.d.d.t.k.j.h.d.Y.",
"h.t.t.t.3   S.XX  oX  t.d.[ ..t.t.% |.[. X].w   N :.:.y.[     b.h.t.t.t.t.p.y.t.t.t.t.t.t.t.t.t.",
"b.b.y.:.b ! XX& m.& 3 u.s.3   3 [ I .X`..XL w       o.N   a.1 b.b.b.N.:.y.y.:.y.t.t.t.y.s.t.t.t.",
"p.p.s.s.p.  &       N :.:.o.} $.=   .X`.{.p 9 r `.r .     T., j.p.p.s.s.p.t.t.p.t.t.:.:.:.a.N.y.",
",.s.:.y.s.y.$ i ! & N u.p.:.: T.1.( u `.a `.`.U L w 9     ) , u.,.p.:.y.s.y.:.:.s.p.:.y.p.:.:.y.",
"Z.-.:.:.:.:.o.l ^ ^ N t.t.t.3 } T.` R y `.`.a p 9 r a P r   o =.Z.-.:.:.:.:.:.:.:.:.:.t.t.t.t.t.",
"b.A.A.l.:.t.p.  H ^   u.y.y...  $.<._ f a ).P )._.`.).L p r   c.b.A.c.l.:.t.u.t.s.:.y.y.u.y.t.t.",
"t.v.b.b.b.j.t.- & &   k k.k.k.  : ) ' R W `.`.`.U a p d p p X 6.t.v.b.b.b.x.t.t.t.:.:.C.k.k.k.c.",
"t.t.t.t.j.h.t.$ } :   ( F j.5     h _ R g `.`.P a p r 9 9 9 . - t.t.t.t.j.h.t.t.s.d.j.j.j.j.j.d.",
":.y.y.:.:.:.t.  T.T.: j   s.3 |._.h E R   `.).p w .   = h h h   $ y.y.:.:.:.t.t.t.t.t.t.t.t.t.x.",
"y.p.p.f.L.l.t.  ` <.<.    x.x .X XQ Q P ).`.p .   d h ` ` ` T.1.= $ p.f.b.l.t.t.t.t.t.t.j.x.v.b.",
"j.v.v.b.b.b.h...( ` `   : h.5 .X[.[.[.'.`.s 0 d f R ` ` ` ` ` 1.T.] - Y.b.b.h.t.t.t.t.t.t.h.v.h.",
"C.C.C.C.:.V.b.L.= , o     ..3 e .X{.`.`.`.`.    o R R k o     , ` ` (   o.N.b.b.v.x.x.y.s.t.t.t.",
"y.s.s.:.:.:.:.:.o.  e +     Z   u P `.`.`.`.    f R R g d o   N     ( d N :.:.:.:.:.:.:.:.:.:.y.",
"t.t.t.t.f.:.a.p.$.> + + :.$     P ).U U _.U p O f R R R R R   s.t.t.S [ X.:.y.p.N.:.:.:.:.:.y.p.",
"t.t.v.b.h.:.t.t.t.s.[ X.t.t.$   9 `.`.`.`.`._.p O f R R R X g %.s.t.b.L.h.:.t.t.t.s.t.p.t.t.t.t.",
"V.x.b.b.b.A.t.t.t.s.j.j.v.L.0.;   `.`.`.`.`.U p p w q f f 9 @  .V.[ 5 0.b.v.s.t.t.t.j.j.x.b.b.j.",
"b.b.b.b.b.b.x.t.s.b.b.b.L.b.j.% a `.`.`.`.).p p p p c c L p p ; x 0 h = x b.A.d.t.b.L.b.b.b.x.V.",
"v.b.b.C.b.b.b.x.Y.t.t.t.t.d.d.      t t t u r p p p y 9 @ p w     R ` ` . b.Y.l.Y.t.t.d.t.t.d.=.",
"d.f.N.:.k.L.Y.Y.l.d.f.s.Y.b.Z.. m.m.n ! H ! v l       l n   z 4   R ` `   b.b.x.j.t.s.d.x.b.Z.A.",
":.:.:.:.:.t.h.d.t.t.Y.L.k.Y.b.e     l n z m l e M H H n H & e : o.# , o N t.t.t.t.t.Y.L.j.v.b.b.",
":.y.t.p.:.N.s.t.t.h.j.t.t.t.j.* t p w w w w w w         e       :.y.t.p.:.y.s.t.t.h.j.h.t.t.Y.d.",
"N.p.t.t.t.t.t.t.t.t.p.y.t.t.3 r `.`._.P P L y p p w   ~   n v   N p.t.t.t.t.t.t.t.t.p.y.t.t.t.s.",
"t.p.t.t.t.t.p.y.t.p.:.:.p.t.3     u t t t p p p 9 . J z   + n & 8 p.t.t.t.t.p.y.t.p.:.:.p.t.t.t.",
"t.t.t.t.t.p.:.:.:.:.:.:.N.y.t.t.s.7.  x 7.G G G i.    w...$     t.t.t.t.t.p.:.:.:.:.:.:.N.y.t.t.",
"y.:.:.y.y.:.:.:.:.:.:.:.:.:.:.y.d.Y.  2 9.9.9.@.O.@.@.O.O.#.% N a.:.:.y.y.:.:.:.:.:.:.:.:.:.:.y.",
":.:.:.-.-.-.p.p.p.p.&.&.:.y.t.q.6.4.;   5.| { [ [ { { V V >   Z O.O.:.-.=.-.p.p.p.p.&.&.:.y.t.t.",
">.=.-.=.=.=.=.=.*.&.Z.*.=.u...5.6.A      .| | | [ o.V V V V o.g B B B ;.=.=.=.=.&.&.Z.*.=.N.d.v.",
"=.B.l.b.A.=.l.b.A.l.b.b.Z.Z.7.| | A x x 4... .| | | { { V V V o.B K 8.n.A.=.c.b.A.c.b.b.Z.Z.v.h.",
"B.b.L.b.b.c.b.b.b.b.b.b.b.b.i.6.| | | | 5. . ...| | | | [  . .K K 4.v.b.b.c.b.b.L.b.b.b.b.b.j.x.",
"b.b.b.j.v.b.b.j.b.b.j.b.b.b.b.L.b.s.e.e.q.q.q.q.q.w.q.q.i.q.e.z.b.b.b.j.v.b.b.j.b.b.Y.b.b.b.b.b.",
"d.Y.l.t.t.x.t.t.t.t.s.l.b.b.b.b.L.Y.b.b.v.Y.x.x.j.t.t.t.t.t.t.t.s.b.h.t.t.x.t.t.t.d.d.Y.b.b.b.b.",
"d.t.t.t.t.h.t.t.t.t.t.Y.Y.k.d.h.j.j.l.j.t.p.u.u.t.t.t.t.s.s.t.t.t.t.t.t.t.h.t.t.t.t.t.j.j.j.t.h.",
"k.d.t.t.t.p.y.t.t.t.t.t.t.t.t.t.t.t.d.p.:.:.:.:.:.y.:.:.d.Y.b.b.h.d.t.t.t.p.y.t.t.t.t.t.t.t.t.t.",
"L.Y.N.:.y.y.y.y.t.t.t.y.s.t.t.t.t.t.y.:.:.p.p.:.:.:.:.:.C.l.b.b.Y.L.N.:.y.y.y.N.t.t.t.y.p.t.t.t."
};
