/* XPM */
static char *e5a4df3cf89b464fa4b8438feccae497[] = {
/* columns rows colors chars-per-pixel */
"48 48 206 2 ",
"   c #161C2E",
".  c #1C2232",
"X  c #1F2938",
"o  c #212533",
"O  c #222935",
"+  c #232D3A",
"@  c #2C2B36",
"#  c #342F37",
"$  c #2C3234",
"%  c #25313F",
"&  c #2A323C",
"*  c #3D353A",
"=  c #36343A",
"-  c #453A3C",
";  c #4C3F3C",
":  c #39483C",
">  c #49573B",
",  c #51433E",
"<  c #57693E",
"1  c #53643D",
"2  c #5E723F",
"3  c #263543",
"4  c #2A3641",
"5  c #2D3B45",
"6  c #2F3F4C",
"7  c #333C44",
"8  c #303F48",
"9  c #33434C",
"0  c #3B464B",
"q  c #3C4A4E",
"w  c #384A43",
"e  c #364B55",
"r  c #3A4C53",
"t  c #354A54",
"y  c #3D5156",
"u  c #3C545B",
"i  c #33494B",
"p  c #3E5B63",
"a  c #454C44",
"s  c #5D4A44",
"d  c #574A44",
"f  c #475846",
"g  c #585845",
"h  c #425355",
"j  c #42565A",
"k  c #445A5E",
"l  c #485A51",
"z  c #404F52",
"x  c #6A5447",
"c  c #775B4D",
"v  c #654F44",
"b  c #4E6647",
"n  c #5D6042",
"m  c #546547",
"M  c #5E794A",
"N  c #4C6653",
"B  c #5B7C52",
"V  c #557551",
"C  c #506F59",
"Z  c #656943",
"A  c #7C664D",
"S  c #667A42",
"D  c #797A59",
"F  c #72784F",
"G  c #445C61",
"H  c #485F62",
"J  c #466165",
"K  c #4A6364",
"L  c #43626B",
"P  c #49656A",
"I  c #4D6A6C",
"U  c #4F6A65",
"Y  c #516B6A",
"T  c #4B6D73",
"R  c #486971",
"E  c #4E7074",
"W  c #4D757A",
"Q  c #537374",
"!  c #53757B",
"~  c #557A7C",
"^  c #597D7D",
"/  c #506F72",
"(  c #81624B",
")  c #896752",
"_  c #926D53",
"`  c #9B7353",
"'  c #9A7756",
"]  c #96704E",
"[  c #AC7D55",
"{  c #A57B53",
"}  c #6C8446",
"|  c #62804E",
" . c #6A8449",
".. c #6C8C4F",
"X. c #728944",
"o. c #798748",
"O. c #7D9547",
"+. c #7E8C58",
"@. c #6C965D",
"#. c #719157",
"$. c #7BA45C",
"%. c #5B807F",
"&. c #6D996F",
"*. c #739B6C",
"=. c #7A9C6C",
"-. c #679175",
";. c #6C9573",
":. c #719672",
">. c #66856F",
",. c #79A863",
"<. c #7EA364",
"1. c #82894A",
"2. c #8B8F4D",
"3. c #81804B",
"4. c #918F4F",
"5. c #839C49",
"6. c #8C974C",
"7. c #989C52",
"8. c #8D9450",
"9. c #AE855A",
"0. c #B28255",
"q. c #B68B5C",
"w. c #A09D53",
"e. c #8CA54A",
"r. c #8BA64A",
"t. c #93AE4C",
"y. c #98AD4E",
"u. c #99B74E",
"i. c #9BB94E",
"p. c #96B34D",
"a. c #84A75F",
"s. c #83AD5D",
"d. c #8BAC5C",
"f. c #8BAD53",
"g. c #8DB157",
"h. c #88B05A",
"j. c #92B454",
"k. c #99B15C",
"l. c #97B358",
"z. c #9BA251",
"x. c #A6B952",
"c. c #ADBA55",
"v. c #ACB55D",
"b. c #AFB859",
"n. c #B3BA57",
"m. c #B5B45D",
"M. c #B7BA59",
"N. c #BFBA5B",
"B. c #B8B459",
"V. c #849F6C",
"C. c #BC9561",
"Z. c #81AA62",
"A. c #8EA369",
"S. c #89AC61",
"D. c #91AD61",
"F. c #98A867",
"G. c #A2AC64",
"H. c #ABB161",
"J. c #C39A63",
"K. c #CDA568",
"L. c #D3AC6B",
"P. c #547D81",
"I. c #5A7E84",
"U. c #5B8484",
"Y. c #5E8588",
"T. c #5D8B8C",
"R. c #568386",
"E. c #5E8F91",
"W. c #5F9193",
"Q. c #618B8D",
"!. c #628689",
"~. c #659486",
"^. c #668F92",
"/. c #688E90",
"(. c #639393",
"). c #6A9495",
"_. c #6C969A",
"`. c #669C9C",
"'. c #6A9D9D",
"]. c #659B97",
"[. c #719997",
"{. c #75A29D",
"}. c #6FA29F",
"|. c #6CA2A3",
" X c #72A4A3",
".X c #74AAAB",
"XX c #79ABAC",
"oX c #79A8A5",
"OX c #7DAFB1",
"+X c #7DB4B4",
"@X c #86A293",
"#X c #89B4A9",
"$X c #93B8A8",
"%X c #81B5B5",
"&X c #85BBBC",
"*X c #8ABEBD",
"=X c #8EB6AD",
"-X c #9DC5B7",
";X c #9EC0AC",
":X c #A5C2AA",
">X c #A5CAB8",
",X c #AFD1BC",
"<X c #89BFC0",
"1X c #8CC3C4",
"2X c #92C5C2",
"3X c #9AC9C1",
/* pixels */
"x.n.n.n.N.N.N.n.i.i.i.a.=.=.a.i.=.=.;.=.m.N.H.G.-.-.=.m.N.N.G.F.g.N.N.N.N.N.M.l.i.i.i.i.i.x.n.n.",
"N.N.N.N.N.N.n.j.d.j.<.-.V.:.-.-.-.V.:.=.m.N.N.N.N.F.N.N.N.N.N.N.N.N.N.N.N.N.N.c.x.i.i.n.N.N.N.N.",
"x.x.x.x.x.x.i.*.-.*.-.A.N.H.-.-.G.N.H.A.G.N.N.N.N.N.N.N.N.N.N.N.N.N.N.N.N.N.N.N.n.i.i.x.x.x.x.x.",
"i.i.i.i.x.l.d.:.H.N.V.H.N.N.N.N.N.N.N.N.N.N.v.v.v.M.N.N.c.i.i.x.N.N.v.,.k.N.N.N.N.N.M.i.i.i.i.i.",
"i.i.i.n.N.m.G.H.N.N.N.c.x.M.N.N.N.x.x.c.N.v.Z.,.,.S.x.M.i.i.i.i.x.D.Z.,.,.N.N.N.N.c.x.i.i.i.i.x.",
"i.n.N.N.N.N.N.N.N.N.n.i.i.i.N.N.i.i.s.,.,.,.,.,.,.,.i.i.i.i.i.,.,.,.,.,.,.i.i.i.i.i.i.i.i.i.n.N.",
"c.N.M.i.i.M.N.N.n.x.i.i.i.i.n.N.i.j.,.,.,.,.,.,.,.h.j.j.i.j.,.,.,.,.s.,.,.s.j.i.i.i.i.i.x.c.N.c.",
"x.x.i.i.i.i.x.x.i.i.i.i.i.i.i.x.s.s.,.,.,.,.,.,.,.,.,.,.s.,.,.,.,.j.i.j.s.,.,.s.i.i.i.i.x.x.x.i.",
"j.j.j.i.i.i.i.i.i.i.i.i.s.s.,.,.,.,.s.i.i.$.@.$.s.$.@.B b @.s.s.,.i.i.i.i.i.i.i.i.i.i.i.i.j.j.j.",
"s.,.,.g.i.i.i.i.i.i.i.i.i.i.j.j.,.,.j.r.< & 5 q : a e E P.5 w } s.g.i.i.i.i.i.i.i.i.i.i.j.s.,.,.",
",.,.,.s.i.i.i.i.i.i.i.x.N.c.i.i.i.o.> O p ].].].T.J `.|.`.XX&Xr X.i.i.i.i.i.i.j.,.,.j.j.,.,.,.,.",
",.,.,.,.s.g.i.i.i.i.n.N.N.N.n.Z = R.E.W.! ].`.`.`.Q.+XT..X+X&XY 5 > O.r.i.i.j.,.,.,.,.,.,.,.,.,.",
",.,.,.,.,.,.,.,...Z n n F 3.n G '.+X|.`.(._.+X.X.X|.! T |.XX'.Y 4 3 I.).b ..,.,.,.,.,.,.,.,.,.,.",
",.,.,.,.,.,.s.f 9 G P.Q % + I  X.X.X+X|.].Y.'.+X%X! P I `.`.].).P e .X&XQ.9 l V ..,.,.,.,.,.,.,.",
"&.&.&.,.,.j.X.9 Y Y.`.Q.5 Y Q.%XXX`.U.XX|.`.`.`.(.].+XT `.`..X&X/.u ].|.Q.U U 7 5 b f.j.a.&.&.*.",
"V.V.:.-.&.i.$ q K k ].Y.P 9 Y.|.|.U.y XX|.].T.J Q XX'.u `.].[.+XT.K K K q P 9 O j 9 N d.:.V.V.-.",
"N.N.H.-.-.+.$ 0 0 0 r y '.^.3 ^ Y.Y K  X&X%X<XXXQ `.`.P.% 9 `.`.`.U 4 r _.1XOXK r % . q H.N.N.A.",
"N.N.N.B.g 4 9 0 0 0 j Q .X1XXX1X! 3 u Q.`.|.`.`.u T.`.!  X1X XR Y.G   9 &X1X1XOX^ r 9 4 g N.N.N.",
"N.N.N.F 4 q Y h O j Q ^ `.XX|.,X-XR u Y.`.`.`.(.K k |.1X1X>X).u t X 4 ^.1X1X+X|.].Q Y j q Z N.N.",
"n.N.3.$ q ! Y.P k (.oXu ].p `.}.XXI._.^ Q Q U.^ K j %X3X:X X].K + 9 4 %.+X|.`.`.`.Q r j h l 7.N.",
"i.1.f 7 r ^ `.R K ].+Xt 9 8 (.`.T.1X1X%XXXI 5 U 9 T /.U.T.`.].+ ].].t U `.`.`.`.`.U + o r h o.N.",
"r.a 0 & 9 e .XT y E 9 ^ W.4 U.W !.&X,X>X2X^.6 !.OX1X%X! Y.T.p ! ].^ Y 9 T.`.W.R R _.I.7 7 0 1 B.",
"X.& 7 + q H *X1X%XY.k (.`.9 3 9 U. X#X#XoXE 9 {.=X.X'.T I  X1X<XK K r 3 L T.3 L &X<X!.z 7 0 : z.",
"< & e 0 j Y ^ XX*X-X}.Q ^ y   r ^ `.`.`.`.Y.4 U.`.'..XQ.1X2X-XoX% 5 r Q `.`.T.XX X^ Y r h & . O.",
"1 r (.&X!.Y (.`.`.`.`.y K Y   K %.`.`.`.(.I j Q Q !.XX+X-X;X X`.u + k Y E.`.].k Y Y !.oX&XI 4 S ",
". ^ |.1XY.Q `.`.`.`.W u ).^ + y 9 U.].].].u Q J y r U.].`.`.`.`.p O e ^.!..X_.4 ^ %X2X2X1X'.Q w ",
"k ].`.|.! U.P.p ~ T _.*X XY u W .X1X%X&X*X2XXX`.U 4 y U.W.].P.7 C.J.l +X1X1X%X9 / #X$X$XoX`.T.4 ",
"G `.`.`.`.`.Y.e U..X|.|.].Q k U.`. X%X>X$X X`.`.G - ( _ a j & - A L.D U.|.|.].P 9 ].`.`.`.`.`.+ ",
"k  X+X|.|.|.`.R.9 `.`.`.`.T.k G (.`.`.T.W.`.P.u . c J.9.s . s - c _ * I `.`.`.T.4 E '.`.|.+X].9 ",
"^ '.+X1X1X<X&XI.% T.].`.(.Q 9 o & t h s x % @ @ * # ' 0.` . # ` ` c r e T.`.`.Y.G &X1X&X1X%X`.Q ",
"`.`.`.$X@X=XoXE %X1X1X1XXXP.7 ) _ v x C.L.x c ) c @ { [ (   { 9.[ g ].&X*X1X1XI.Y.#X#X@X#X`.`.^ ",
"p R.`.`.`.`.(.=X1X1X1X1X1X1Xr _ q.J.d J.q.x c ` ( * * o @ ; K.( ` u |.1X1X1X1X2X[.].`.`.`.W.T.9 ",
"b w U `.`.T.r >.>X-XoX(.(.Y.5 ) q.] , q.0.s ) C.' d   # s { 9.0.# y (.(.(.$X-X:XY u ].`.].w : o.",
"2.1.1.+.B m & ^ `.`.`.`.T.W 4 - 0.` v d , # J.K.A *   x - [ 0.]   3 T `.`.`.`.].j   N >.+.1.7.2.",
"i.t.O.X.X.X.S f L Q.~.;.l > < $ v * $   O O ' { [ d a d ( ` [ $ b > S C ~.`.T L : 1 X.X.X.p.i.i.",
"i.i.i.r.5.t.i.8.1.1.X.X.X.X.X.X.2 < S m M : ( [ ` a B g 0._ ( f B | | B B B B  .5.i.t.5.r.i.i.i.",
"i.i.i.i.x.x.M.N.w.4.2.6.e.X.X.}  . . .B B V f n > 2 B B F f a B | | | #.7.4.2.5.u.i.i.i.i.i.i.i.",
"i.i.i.i.x.N.N.M.x.x.N.N.N.y.r.}  . . . . . . .X.X.X. .B B |  .} X.7.y.x.N.N.N.M.i.i.i.i.i.i.i.i.",
"i.i.i.i.i.i.c.i.i.i.x.n.n.n.t.X.X.X.O.X.X.X.X.X.X.X.X.X.X.X.O.2.2.B.N.N.v.v.v.N.x.x.x.i.i.i.i.i.",
"n.l.s.g.i.i.i.i.i.i.i.i.i.i.i.u.5.t.i.r.5.p.r.5.5.r.r.5.u.u.s.d.d.D.D.D.Z.,.Z.v.N.N.N.n.n.n.l.s.",
",.,.,.,.,.,.,.j.j.j.j.j.j.j.i.i.i.i.i.i.i.i.i.i.i.i.i.j.j.s.,.,.s.i.g.,.,.,.,.,.,.,.,.,.,.,.,.,.",
",.,.,.,.,.,.,.,.,.,.s.j.j.j.i.i.i.i.i.i.i.i.i.i.i.i.i.j.j.j.j.j.i.i.i.j.j.,.,.,.,.,.,.,.,.,.,.,.",
",.,.,.,.,.,.j.i.i.i.i.i.i.i.i.i.i.i.i.i.i.i.i.i.i.i.i.i.i.i.i.i.i.i.i.i.i.j.,.,.i.i.j.,.,.,.,.,.",
"i.g.s.i.i.i.i.i.i.i.i.i.i.i.i.i.i.i.i.d.*.-.-.-.g.i.<.-.-.-.d.i.i.i.M.N.c.j.,.j.i.i.i.g.i.i.g.g.",
"i.i.i.i.c.n.n.c.i.i.i.i.i.i.i.i.i.i.a.-.A.G.=.-.;.=.-.A.G.G.-.a.i.M.N.N.N.b.k.s.i.i.i.i.i.i.i.i.",
"c.N.N.N.N.N.N.c.i.i.j.*.-.-.*.d.-.-.-.V.N.N.N.N.V.:.F.N.N.N.N.H.k.N.N.N.N.N.N.x.i.i.i.x.x.c.N.N.",
"N.N.N.N.N.M.x.g.=.g.*.-.G.=.-.-.-.G.=.:.H.N.N.N.N.H.N.N.N.N.N.N.N.N.N.N.N.N.N.M.c.i.i.n.N.N.N.N.",
"i.i.i.i.i.i.i.-.=.V.-.G.N.N.V.V.N.N.N.H.H.N.N.N.N.N.N.N.N.n.n.M.N.N.N.v.M.N.N.N.M.x.x.i.i.i.i.i."
};
