/* XPM */
static char *_eeb708b209c40df94c72fe70f3a8391[] = {
/* columns rows colors chars-per-pixel */
"48 48 225 2 ",
"   c #1A1F30",
".  c #1F252F",
"X  c #1D2635",
"o  c #232D3A",
"O  c #282A34",
"+  c #27323F",
"@  c #2A333D",
"#  c #2D3939",
"$  c #343939",
"%  c #302D34",
"&  c #463B3B",
"*  c #38463B",
"=  c #48493A",
"-  c #54473F",
";  c #4B593A",
":  c #595938",
">  c #5B6A3C",
",  c #5E723F",
"<  c #6B7038",
"1  c #293642",
"2  c #2D3A45",
"3  c #273745",
"4  c #333E44",
"5  c #4D3F40",
"6  c #33444C",
"7  c #3B464B",
"8  c #394849",
"9  c #374950",
"0  c #3A4C52",
"q  c #314550",
"w  c #3E5459",
"e  c #3E5358",
"r  c #3C5042",
"t  c #3F5B63",
"y  c #5A4943",
"u  c #485747",
"i  c #555948",
"p  c #42565A",
"a  c #445B5D",
"s  c #455556",
"d  c #464E4C",
"f  c #675645",
"g  c #755B48",
"h  c #624D46",
"j  c #546A49",
"k  c #536B58",
"l  c #5A7856",
"z  c #4B6753",
"x  c #766744",
"c  c #667B43",
"v  c #797B48",
"b  c #686454",
"n  c #6E6A4D",
"m  c #495F61",
"M  c #455E63",
"N  c #4B6365",
"B  c #4B6669",
"V  c #4E6A6B",
"C  c #45636A",
"Z  c #516B6A",
"A  c #596966",
"S  c #55716F",
"D  c #496C72",
"F  c #4F777A",
"G  c #547272",
"H  c #53757A",
"J  c #557A7B",
"K  c #597E7D",
"L  c #5A7A73",
"P  c #536F71",
"I  c #666B65",
"U  c #6A7B6C",
"Y  c #8C7957",
"T  c #9B7354",
"R  c #907858",
"E  c #8F704D",
"W  c #A77A54",
"Q  c #A87B54",
"!  c #867763",
"~  c #7C873D",
"^  c #698449",
"/  c #728944",
"(  c #7A8849",
")  c #7C9446",
"_  c #7F9847",
"`  c #678654",
"'  c #728752",
"]  c #6E9458",
"[  c #719C5F",
"{  c #5C817A",
"}  c #6D996F",
"|  c #7A9C6C",
" . c #739B6A",
".. c #668779",
"X. c #679175",
"o. c #6C9473",
"O. c #719672",
"+. c #778873",
"@. c #79A863",
"#. c #7AA563",
"$. c #5D8054",
"%. c #848A3A",
"&. c #9AA13E",
"*. c #A2A93D",
"=. c #84884B",
"-. c #8A884D",
";. c #99894D",
":. c #839D48",
">. c #87984A",
",. c #878755",
"<. c #989A54",
"1. c #949D4F",
"2. c #AC904E",
"3. c #B6994E",
"4. c #AA8557",
"5. c #B48657",
"6. c #B8915A",
"7. c #87A149",
"8. c #8AA64A",
"9. c #8EAA4B",
"0. c #92AD4C",
"q. c #97B44D",
"w. c #99B74E",
"e. c #9BB94E",
"r. c #83AD5D",
"t. c #89AA59",
"y. c #8DB157",
"u. c #88B05A",
"i. c #92B454",
"p. c #98B25A",
"a. c #AAA756",
"s. c #A6B952",
"d. c #ADBA55",
"f. c #ACB55E",
"g. c #AFB859",
"h. c #B3BA57",
"j. c #B7BA59",
"k. c #BFBA5B",
"l. c #B4B35A",
"z. c #ACAF4C",
"x. c #849F6C",
"c. c #879767",
"v. c #8C9170",
"b. c #BB9966",
"n. c #A5976A",
"m. c #8EA369",
"M. c #84AB62",
"N. c #93A96C",
"B. c #A2AC64",
"V. c #ABB161",
"C. c #A0B366",
"Z. c #B2B173",
"A. c #C0945F",
"S. c #CBA654",
"D. c #D4B451",
"F. c #C4AB4E",
"G. c #D3AB6B",
"H. c #C8BA67",
"J. c #BCC140",
"K. c #AFC14D",
"L. c #C6C746",
"P. c #D8C94C",
"I. c #DCD04A",
"U. c #E1DA49",
"Y. c #E5E646",
"T. c #E9F044",
"R. c #ECF258",
"E. c #E7E55A",
"W. c #D2D070",
"Q. c #E1D86A",
"!. c #EFF476",
"~. c #ECEE76",
"^. c #577D83",
"/. c #5B8485",
"(. c #5C8A8C",
"). c #598286",
"_. c #5F9294",
"`. c #628E8E",
"'. c #658A88",
"]. c #628D92",
"[. c #639393",
"{. c #6C9594",
"}. c #669C9C",
"|. c #6A9C9D",
" X c #699797",
".X c #729B99",
"XX c #739087",
"oX c #6DA19F",
"OX c #74A39B",
"+X c #78A08B",
"@X c #719EA1",
"#X c #6CA3A3",
"$X c #72A3A3",
"%X c #75ACAD",
"&X c #7BACAD",
"*X c #79A8A6",
"=X c #7FAFB1",
"-X c #7DB3B3",
";X c #7EB0AB",
":X c #8D9586",
">X c #87A69A",
",X c #98B08D",
"<X c #84ACA4",
"1X c #88B6AB",
"2X c #95BBA9",
"3X c #82B4B4",
"4X c #85BBBC",
"5X c #8ABBB6",
"6X c #96BFB2",
"7X c #CBBD86",
"8X c #97C4BB",
"9X c #A3C2AB",
"0X c #A4C8B8",
"qX c #BACDAD",
"wX c #ACC298",
"eX c #CECF8D",
"rX c #EDED8F",
"tX c #F4F6A5",
"yX c #F7FAB9",
"uX c #E3DC85",
"iX c #88BFC0",
"pX c #8CC3C4",
"aX c #9CCAC1",
"sX c #FEFFF8",
"dX c #F8FAC2",
/* pixels */
"s.h.h.h.k.k.k.h.e.e.e.r.| | r.e.| | o.| l.k.V.B.X.X.| l.k.k.B.N.y.k.k.k.k.k.j.p.e.e.e.e.e.s.h.h.",
"k.k.k.k.k.k.h.i.t.i.#.X.x.O.X.X.X.x.O.| l.k.k.k.k.N.k.k.k.k.k.k.k.k.k.k.k.k.k.d.s.e.e.h.k.k.k.k.",
"s.s.s.s.s.s.e. .X. .X.m.k.V.X.X.B.k.V.m.B.k.k.k.k.k.k.k.k.k.k.k.k.k.k.k.k.k.k.k.h.e.e.s.s.s.s.s.",
"e.e.e.e.s.p.t.O.V.k.x.V.k.k.k.k.k.k.k.k.k.k.f.f.f.j.k.k.d.e.e.s.k.k.f.@.p.k.k.k.k.k.j.e.e.e.e.e.",
"e.e.e.h.k.l.B.V.k.k.k.d.s.j.k.k.k.s.s.d.k.f.M.@.@.M.s.j.e.e.e.e.s.y.M.@.@.k.k.k.k.d.s.e.e.e.e.s.",
"e.h.k.k.k.k.k.k.k.k.h.e.e.e.k.k.e.e.r.@.@.@.@.@.@.@.e.e.e.e.e.@.@.@.@.@.@.e.e.e.e.e.e.e.e.e.h.k.",
"d.k.j.e.e.j.k.k.h.s.e.e.e.e.h.k.e.i.@.@.@.@.@.@.@.u.i.i.e.i.@.@.@.@.r.@.@.r.i.e.e.e.e.e.s.d.k.d.",
"s.s.e.e.e.e.s.s.e.e.e.e.e.e.e.s.r.r.@. .] j j l l j ` [ r.@.@.@.@.i.e.i.r.@.@.r.e.e.e.e.s.s.s.e.",
"i.i.i.e.e.e.e.e.e.e.e.e.r.r.@.] z m 8 P C C J `./.J w p i ' k ] @.e.e.e.e.e.e.e.e.e.e.e.e.i.i.i.",
"r.@.@.y.e.e.e.e.e.e.e.e.e.e.j w |.^.$X-X%X}.(.}.}.}.[.[.U ,X|.w u t.e.e.e.e.e.e.e.e.e.e.i.r.@.@.",
"@.@.@.r.e.e.e.e.e.e.e.>.v = p #XpX#XXX%X%X|.{ %X-X4X#X-X X XpX%XN * c ) e.e.e.i.@.@.i.i.@.@.@.@.",
"@.@.@.@.r.y.e.e.e.q.-.6 C X Z  X8X,XeX>X-X$X`..X4XpX4X Xp %X8X}.Z o w 6 c 0.i.@.@.@.@.@.@.@.@.@.",
"@.@.@.@.@.@.@.@.r.k q F ..6 M J oXOXc.G $X}.}.}.}.}.{.'.L .XOX/.e 4 J (.3 a @.@.@.@.@.@.@.@.@.@.",
"@.@.@.@.@.@.r.y.c D /.L 7Xv `.|.#XK N L %X%X$X XK [.4X|.Y H.>X$X/.B (./.J F r @.@.@.@.@.@.@.@.@.",
"} } } @.@.i.e., 0 a G s c.d `.pX4X^.o Z $X3XpX9XA |.}.D 3.tXZ.pX=XN J a N C w u i.i.i.i.r.} }  .",
"x.x.O.X.} e.) 4 Z 0 7 b @ p `.1X;X`.o G }.}.}.}././.}.[.4 Y +X%X[.V + 7 6 0 Z 6 z X. .t.O.x.x.X.",
"k.H.V.X.X.u 6 0 6  XN.rX$ I _. X[.&X&X'.J [.}. XV V #X|.{.@X`._. XZ M D &X@X6 7 9 i m.X.V.k.k.m.",
"H.H.k.k.<.s Z 2 a 4X{.c.! H.Y 6 H 3XpXpX3X/.P K p 6 $X5X0X2X{.9 2 M [.4XpXpXB o a s <.k.k.k.k.k.",
"k.k.k.l.i N 9 0 Z #X-XwX!.rX;.w Z  X*X2X9XXXM /.^. X.XG  X}.`.Z ! ! <XpX-X#XJ a 1 a u a.k.k.k.k.",
"h.k.k.v + 2 X 9 Z [.}.[.8.;.- p K [.}.}.}.M N &X4X8X1XN }.XXv.d Y.tXC.}.}.}.G e % Z.2 n k.h.k.k.",
"e.d.l.o V s e J %XH C }.^.a 2 9 (.}.}.}.[.a Z  X}.}.}.6 /.x Q.= S.E.&.(.D B &X/.a 8 Z + v e.d.k.",
"e.q.j d ,.b a .XpXpX&X4X&XV X ^.|.`. X}.V H.U /.[.-X|.$XpX{.1X].$ +..X4X&XiXpX*XB 9 Z s r 8.e.k.",
"e.7.l k ~.3.J %XpXpXpXpX&X'.+ S -XpXpX-X*X>X..9 m }.;X<X}.}.}.L 2 K &XpXpXpX0X3X[.2 a 7 k / q.h.",
"w.) 6 8 x y (.}.}.%X9X2X..Z + Z /.$X9X9X9X#X Xp m /.}.}.}.}./.V + Z L 2X9X2X X X X2 X 7 s c 8.e.",
") > 7 2 N (.C }.}.}.}.}.J B X 7 ^. X}.}.}.`.s E b a `.(. X(.^.s o N G }.}.D W.,XH /.G o 7 ; / 0.",
") # 7 + V J 3XiX-X%X}.}.J 1 % 6.4.R R b.b.f G.G.G.f b.4.4.g 6.6.y + V XXn.n -.N.4XK A n.I @ c r.",
"' @ o H Z A ! :X-X3X}.G Z Z + E W f g T 4.& T T E & 4.W g - W E @ Z Z x ~.yX,X`.G Z w n.; X j  .",
"l 6 J pX&XeX!.J.e v.`.6 B 6 X Q 4.x g S.2.: Q 2.F.- F.2.E f 4.Q % 4 N - F.L.j m G `.-XpX[.9 u $.",
"* p }.3X^.J.Q.3.d Q.d  X3XP 1 O % .   * = < = = ; < : $ . . % O X B &X&X3X3XB V 4XaX8X4X}.V # ^ ",
"# H }.}. X[.v.d p U |.8XOXG w y & g 5 *.T.R.!.!.R.!.T.L.% y y f 2 Z {.6X6X$XB M  X$X$X}.}.(.# / ",
"o D #X}.}.}.{.n 9  X}.}.}.(.a & E W R %.T.tXsXsXrXT.T.*.f E T f 6 /.}.}.}.{.I + C }.}.}.#XJ   / ",
"6 K %X4X%X-X,XuX% (.}.}.}./.a & W W 3.< T.tXtXdXyX!.T.%.z.6.W h s v. X}.[.4.~.:X@X-X%X3X-X/.6 z ",
"p [.}.1X9X8X8XXXC @X-X-X`.a 1 O 5.T I.< T.T.T.!.rXR.T.: L.5.A.& : uX'.-X$X: a...5X8X9X5X}. XB # ",
"p ^.}.}.[.{.oX(.3XpXpXpXpXpX#X1 W 4.P.: T.Y.Y.Y.T.T.T.: L.T 6.@ J <XpXpXpX=X4X/.}.{.`.}.}.(.M $ ",
"; ; # F }.}.J Z qX0XaX&X&X$XL 6 g b.S.< U.I.I.D.D.P.T.> P.Q E 2 B |.&X&X8XaXqXS H }.}.).2 * ; c ",
"/ / / / o.{ 8 6 /.}.}.}.}._.).N g 5.4.> U.U.P.S.D.I.Y.% 5.5.g p C _.}.}.}.}.`.0 1 L o./ / / / / ",
"/ / / / ( ( =.n m (.}. X X6 * u $ Q T x T.Y.S.S.S.D.P.& W W - 8 r * J  X X(.D @ , / / / / / / 7.",
":.) 8.) ( ;.-.=.( c ,.-.=./ / c O y h g ~ K.p.s.s.z.1.= u g = ^ ^ ( / ( ,.v v =./ / / 7.7.:.) q.",
"e.e.e.w.:.0.1.8./ / / =.=.=./ c c c c 7.e.e.e.e.e.e.e.0./ / / ( -.-.-.-.( ( ( <.0.>.>.q.e.e.e.e.",
"h.p.r.y.e.e.e.w.7./ / / :./ / / / / / q.e.e.e.e.e.e.e.e.9./ ` ` ` ` ' ' ` ] ` f.k.k.k.h.h.h.p.r.",
"@.@.@.@.@.@.@.i.i.y.y.y.i.8.:./ / / 9.e.e.e.e.e.e.e.e.i.i.] l l ` :.y.#.#.#.@.@.@.@.@.@.@.@.@.@.",
"@.@.@.@.@.@.@.@.@.@.r.i.i.i.e./ / _ e.e.e.e.e.e.e.e.e.i.i.y.^ ^ :.e.e.i.i.@.@.@.@.@.@.@.@.@.@.@.",
"@.@.@.@.@.@.i.e.e.e.e.e.e.e.7.8./ 0.e.e.e.e.e.e.e.e.e.e.e.e.8.:.q.w.e.e.e.i.@.@.e.e.i.@.@.@.@.@.",
"e.y.r.e.e.e.e.e.e.e.e.e.e.0.:.) 7.e.e.t. .X.X.X.y.e.#.X.X.X.t.) :.:.j.k.d.i.@.i.e.e.e.y.e.e.y.y.",
"e.e.e.e.d.h.h.d.e.e.e.e.e.7.w.8.e.e.r.X.m.B.| X.o.| X.m.B.B.X.r.9.1.k.k.k.g.p.r.e.e.e.e.e.e.e.e.",
"d.k.k.k.k.k.k.d.e.e.i. .X.X. .t.X.X.X.x.k.k.k.k.x.O.N.k.k.k.k.V.p.k.k.k.k.k.k.s.e.e.e.s.s.d.k.k.",
"k.k.k.k.k.j.s.y.| y. .X.B.| X.X.X.B.| O.V.k.k.k.k.V.k.k.k.k.k.k.k.k.k.k.k.k.k.j.d.e.e.h.k.k.k.k.",
"e.e.e.e.e.e.e.X.| x.X.B.k.k.x.x.k.k.k.V.V.k.k.k.k.k.k.k.k.h.h.j.k.k.k.f.j.k.k.k.j.s.s.e.e.e.e.e."
};
