/* XPM */
static char *result[] = {
/* columns rows colors chars-per-pixel */
"48 48 50 1 ",
"  c #9BB94E",
". c #9DB35B",
"X c #84AB62",
"o c #79A863",
"O c #A3B35E",
"+ c #BFBA5B",
"@ c #B2BA56",
"# c #A9B953",
"$ c #B1BA56",
"% c #9CAA65",
"& c #B1B35F",
"* c #B6BA58",
"= c #A6B45E",
"- c #A1B558",
"; c #81AC5E",
": c #A8B953",
"> c #A1B950",
", c #8FB356",
"< c #96B651",
"1 c #85AE5B",
"2 c #8DB256",
"3 c #93B553",
"4 c #A4B951",
"5 c #95B358",
"6 c #7EAB60",
"7 c #87AF5B",
"8 c #9EB754",
"9 c #6A9572",
"0 c #679175",
"q c #6B9771",
"w c #6E9A6E",
"e c #B9BA59",
"r c #73A069",
"t c #739B6C",
"y c #6F976F",
"u c #7C9B6F",
"i c #89AD5B",
"p c #87A06C",
"a c #AAB061",
"s c #95AF60",
"d c #AEB65D",
"f c #7CA165",
"g c #88AB5C",
"h c #92AE60",
"j c #B4B75C",
"k c #8AAC61",
"l c #99B555",
"z c #9AB35B",
"x c #8FAF57",
"c c #89A465",
/* pixels */
" .XoO++@#   $+%&++#*++##+=oo-*   .XoO++@#   $+%&",
"oooo;     :+#*++@>  +#,ooooo<  ,oooo;     :+#*++",
"o1 2o;3  4#>  #>     56ooooooo7oo1 2o;3  4#>  #>",
";2        ,7      32ooo< ;12ooo1;2        ,7    ",
" 2    ,7 ,oo2     :4 32  3   22  2    ,7 ,oo2   ",
"     ,oooooo;7   $++$$++$    77      ,oooooo;7  ",
"7oo77oooooooooo18#+++++Xo;6ooooo7oo77oooooooooo1",
"ooo90q2222wwo1  :$e++>2< 22oooooooo90q2222wwo1  ",
"r0q00000ty%u0i e++++@   3;oooooor0q00000ty%u0i e",
"0p&+a0&+a&++%%@>  *+*:4   32;ooo0p&+a0&+a&++%%@>",
"p++++&++++++++#$4  4+@#4    3OO%p++++&++++++++#$",
"+++#*++#++#++++++ :4        $>4++++#*++#++#+++++",
" *#  @   > $+++++$++*$$$$        *#  @   > $++++",
"     >     4## 4#### ,773            >     4## 4",
"4    ,7            ,6oooo6o; :e+4    ,7         ",
"++Xo71;;   73     7oo22;oooosd++++Xo71;;   73   ",
"22<32  2< 6oo76; 222<   o< 2228#22<32  2< 6oo76;",
"f,6;,7oo3,o12oo12<         fff gf,6;,7oo3,o12oo1",
"%qooooooooo        y00f0t:++%0t0%qooooooooo     ",
"+a&do 2 3o;777  gfp&+a%+%++++a0&+a&do 2 3o;777  ",
" *+++$   oohOOOj%+++=s++++=ok+a@ *+++$   oohOOOj",
"    #>  38#####>  4l2;osoooooo;7    #>  38#####>",
"o;7ooo         $$      32;ooooooo;7ooo         $",
"122z+d      :$e++*$  776oo1 3ooo122z+d      :$e+",
":e*e++#      4*> *+*         22 :e*e++#      4*>",
"ssssok++*$$73                  ,ssssok++*$$73   ",
"1<3oooooooooooo77773         ,7o1<3oooooooooooo7",
"    3o12;ooooo122<                  3o12;ooooo12",
"  e+4o   < 2           gy00xg00t  e+4o   < 2    ",
"c$+++d<   :$$++#  ffxgf0&+%00&+ac$+++d<   :$$++#",
"++++++$  +++++#gxypu00%0a+++&+++++++++$  +++++#g",
"*++s+++$4      0%0++%&++&+++++@#*++s+++$4      0",
" .XoO++@#   $+%&++#*++##+=oo-*   .XoO++@#   $+%&",
"oooo;     :+#*++@>  +#,ooooo<  ,oooo;     :+#*++",
"o1 2o;3  4#>  #>     56ooooooo7oo1 2o;3  4#>  #>",
";2        ,7      32ooo< ;12ooo1;2        ,7    ",
" 2    ,7 ,oo2     :4 32  3   22  2    ,7 ,oo2   ",
"     ,oooooo;7   $++$$++$    77      ,oooooo;7  ",
"7oo77oooooooooo18#+++++Xo;6ooooo7oo77oooooooooo1",
"ooo90q2222wwo1  :$e++>2< 22oooooooo90q2222wwo1  ",
"r0q00000ty%u0i e++++@   3;oooooor0q00000ty%u0i e",
"0p&+a0&+a&++%%@>  *+*:4   32;ooo0p&+a0&+a&++%%@>",
"p++++&++++++++#$4  4+@#4    3OO%p++++&++++++++#$",
"+++#*++#++#++++++ :4        $>4++++#*++#++#+++++",
" *#  @   > $+++++$++*$$$$        *#  @   > $++++",
"     >     4## 4#### ,773            >     4## 4",
"4    ,7            ,6oooo6o; :e+4    ,7         ",
"++Xo71;;   73     7oo22;oooosd++++Xo71;;   73   "
};
