/* XPM */
static char *result[] = {
/* columns rows colors chars-per-pixel */
"48 48 220 2 ",
"   c #161C2E",
".  c #191E2F",
"X  c #1B1E30",
"o  c #1B212F",
"O  c #1D2231",
"+  c #232434",
"@  c #232B32",
"#  c #292C35",
"$  c #2B253A",
"%  c #2B2D39",
"&  c #2A2736",
"*  c #342A3D",
"=  c #352739",
"-  c #2B3334",
";  c #2B3336",
":  c #3A363E",
">  c #36393A",
",  c #412B39",
"<  c #47333D",
"1  c #57333E",
"2  c #3A4437",
"3  c #3A4539",
"4  c #2F403C",
"5  c #40473B",
"6  c #49593B",
"7  c #50583D",
"8  c #57693E",
"9  c #392A41",
"0  c #2F3544",
"q  c #393B44",
"w  c #442E46",
"e  c #482F45",
"r  c #433E43",
"t  c #4B314A",
"y  c #5B3748",
"u  c #5E3955",
"i  c #593752",
"p  c #653C46",
"a  c #6A3D5B",
"s  c #663C57",
"d  c #713E53",
"f  c #763F45",
"g  c #3C4842",
"h  c #3E5544",
"j  c #454243",
"k  c #4E4947",
"l  c #46494A",
"z  c #484648",
"x  c #534C49",
"c  c #574749",
"v  c #475B43",
"b  c #5B5E41",
"n  c #5C554D",
"m  c #5D5752",
"M  c #454855",
"N  c #664A49",
"B  c #79464E",
"V  c #784158",
"C  c #625C53",
"Z  c #665C57",
"A  c #765451",
"S  c #596844",
"D  c #4E6C5F",
"F  c #5A7C52",
"G  c #557556",
"H  c #526C48",
"J  c #676845",
"K  c #657A43",
"L  c #777A47",
"P  c #77685A",
"I  c #6B7257",
"U  c #786C61",
"Y  c #626672",
"T  c #7A7278",
"R  c #824349",
"E  c #994B4E",
"W  c #8E4958",
"Q  c #864551",
"!  c #9C4D56",
"~  c #934A58",
"^  c #995B57",
"/  c #845B55",
"(  c #A24E55",
")  c #AE5354",
"_  c #A85658",
"`  c #B65555",
"'  c #B85D5A",
"]  c #B55A58",
"[  c #99675D",
"{  c #83745F",
"}  c #A4615A",
"|  c #BC675E",
" . c #836D61",
".. c #8B7A63",
"X. c #897764",
"o. c #967A6A",
"O. c #957B68",
"+. c #BD6C61",
"@. c #AD7263",
"#. c #BA7566",
"$. c #A16E61",
"%. c #C07466",
"&. c #C27B69",
"*. c #C17966",
"=. c #5E8255",
"-. c #6D8545",
";. c #68854D",
":. c #728844",
">. c #7A8A47",
",. c #76884B",
"<. c #7C9447",
"1. c #7B9549",
"2. c #678957",
"3. c #6E9558",
"4. c #759959",
"5. c #77A15C",
"6. c #5F8569",
"7. c #6F976F",
"8. c #6E9A6E",
"9. c #7C9B6F",
"0. c #739C68",
"q. c #679175",
"w. c #6A9672",
"e. c #76A364",
"r. c #79A663",
"t. c #79A863",
"y. c #83884B",
"u. c #8A884D",
"i. c #88864D",
"p. c #829C48",
"a. c #87984A",
"s. c #93944F",
"d. c #918F4F",
"f. c #A09D53",
"g. c #8AA64A",
"h. c #92AA4D",
"j. c #96B44D",
"k. c #9BB94E",
"l. c #98B64D",
"z. c #85AE5C",
"x. c #8FAF57",
"c. c #98A754",
"v. c #8DB256",
"b. c #94B553",
"n. c #9BB257",
"m. c #A8AA57",
"M. c #A3B951",
"N. c #A9B953",
"B. c #A2B45B",
"V. c #AAB45A",
"C. c #B1BA56",
"Z. c #B2B45E",
"A. c #B6BA58",
"S. c #BFBA5B",
"D. c #9C836B",
"F. c #968468",
"G. c #928B72",
"H. c #999379",
"J. c #889760",
"K. c #A38D6D",
"L. c #A9916F",
"P. c #A78A71",
"I. c #A88B72",
"U. c #A99775",
"Y. c #B69B76",
"T. c #B78F71",
"R. c #80A761",
"E. c #8AAC61",
"W. c #87A06C",
"Q. c #89A863",
"!. c #95AF60",
"~. c #9CAA65",
"^. c #AAB061",
"/. c #BBA077",
"(. c #C5836E",
"). c #C98B72",
"_. c #C2A57B",
"`. c #CAAC7E",
"'. c #CBA67C",
"]. c #CBB373",
"[. c #8F788B",
"{. c #B4AD88",
"}. c #B5B3A9",
"|. c #B5B3B4",
" X c #8B8D92",
".X c #CEAF80",
"XX c #C2AC82",
"oX c #D2A781",
"OX c #C2B68C",
"+X c #D5B583",
"@X c #D6B888",
"#X c #DBBD91",
"$X c #C4B498",
"%X c #DBC18D",
"&X c #DDC693",
"*X c #D9C598",
"=X c #CDC89C",
"-X c #E3CE99",
";X c #E0CA95",
":X c #E5D39D",
">X c #DBCDA8",
",X c #E5D3A3",
"<X c #E6DBA4",
"1X c #EAD9A6",
"2X c #E0C8A0",
"3X c #EFE1AB",
"4X c #F1E5B7",
"5X c #EFE2BA",
"6X c #DEDDDA",
"7X c #D5D3C1",
"8X c #E7DEC8",
"9X c #F3EAC7",
"0X c #F5EDD2",
"qX c #F3EADC",
"wX c #F8F2DA",
"eX c #EEE4CB",
"rX c #F8F3E2",
"tX c #FDFBF6",
"yX c #FFFEFD",
"uX c #ECECEB",
/* pixels */
"^.~.S.C.k.k.k.N.A.S.S.!.t.E.B.k.k.k.C.n.t.t.c.J : c $.@.#._ 1   ; J.S.C.k.k.k.N.A.S.S.n.t.E.B.k.",
"S.S.C.N.S.M.k.k.k.k.k.t.t.t.t.t.b.k.k.b.t.4.g ^ #.&.' *.&.+.' E 9 - c.N.S.M.k.k.k.k.k.t.t.t.t.t.",
"M.N.k.k.M.N.M.k.k.b.t.t.v.k.R.t.t.z.t.t.5.N _ (.(.%.&.(.(.(.` ` R & 2 k.N.N.M.k.k.b.t.t.v.k.R.t.",
"k.k.k.k.z.b.k.k.k.k.k.k.k.k.v.z.z.t.r.t.3 N (.(.+.#.(.(.(.#.` ` ! y + <.z.b.k.k.k.k.k.k.k.k.z.z.",
"k.k.k.z.t.t.b.k.z.b.k.k.k.k.v.k.k.v.v.g.1 @.&.A #.(.[ : o . , E ) a + 2.t.t.b.k.z.b.k.k.k.k.b.k.",
"k.k.z.t.t.t.t.t.t.t.b.k.k.k.k.k.k.z.t.K N (.N / (.[ X X * t t p ` _ $ 2.t.t.t.t.t.t.b.k.k.k.k.k.",
"z.t.r.r.t.r.t.t.t.t.t.z.z.t.t.z.t.t.t.g R [ , *.^ X   $ a a a ! ~ s O 2.t.t.t.t.t.t.t.z.z.t.t.z.",
"k.k.z.t.8.8.v.v.v.v.w.q.w.t.r.r.t.t.t.h s ( y _ y   @ + u a a d V 9 g t.8.8.v.v.v.v.q.q.w.t.t.t.",
"].k.t.q.Q.~.0.8.q.q.q.q.q.w.q.e.t.r.r.F $ Q 9 E = 2 j.S   $ $ $ X > 4.q.W.~.0.7.q.q.q.q.q.q.q.e.",
"%X].~.~.S.S.^.^.S.^.q.Z.S.^.9.q.t.t.t.3.% f p f = @ >.s.d.2 2 2 <.N.~.~.S.S.^.Z.S.^.q.Z.S.^.9.q.",
"6X*X].S.S.S.S.S.S.S.^.S.S.S.S.9.~.^.v % j * $ $ e X c 9 > g.k.N.C.C.S.S.S.S.S.S.S.S.^.S.S.S.S.9.",
"7XtX-XJ S.N.S.S.N.S.S.C.N.S.S.S.S.7 X }.rX XY Y [.T }.2Xj # g.S.S.S.S.S.S.N.S.S.N.S.S.C.N.S.S.S.",
"=XyXtXl ^.k.M.k.k.k.A.k.k.C.C.k.1.  m F.1X8XeX0XwXrX$XM > & - S.S.S.S.S.N.k.N.k.k.k.A.k.k.C.C.k.",
"=X,XyX>X+Xk.k.k.k.k.M.k.k.k.k.k.8 P +X<X0X9X9X1X3X3X,X{.O.j . >.k.k.N.N.M.k.k.k.k.k.N.k.k.k.k.k.",
"OX@XqXwXT -.k.k.k.z.b.k.k.k.k.M.@ @X1XyXyXtXwX0X9X3X-X+XP.O.  6 k.k.k.k.k.k.k.k.k.z.b.k.k.k.k.N.",
"r *X@X9X}.O k.k.R.z.z.z.t.E.S.L P 3X,Xm }.4X3X3X3X3X-X+XT.o.r + k.k.k.b.z.k.k.k.t.z.R.z.t.E.S.S.",
"# ..+X-X3Xl -.b.v.k.k.v.k.b.v.O G.wX.XX |.0X3X3X3X*X+X+X`.o.% o 3.t.v.t.t.t.k.1.h <.l.v.b.b.v.v.",
"F q .X+X<X{.@ v.t.t.z.b.t.t.b.n OX*Xn   |.yX5X-X%X@X+X+X+XF.O.. =.t.t.v.z.t.:.o j o z.v.z.t.b.r.",
"l.- ..+XF.3Xl G t.t.t.t.t.t.D O 8X+X; X }.0X3X:X+X+X+X+X+XP.O.  3 k.k.k.l.v x U.>   t.t.r.r.q.~.",
"k.K > .XI G.{.@ b.v.k.t.A.^.J   m n     Y 8X*X*X/._.`.+X.Xo. .  - k.z.,.2 k /.j O o k.t.A.^.Z.S.",
"V.B.- F.+Xn <Xl -.k.N.S.S.S.2 @ #               @ m Y..XI. .+   > c.v @ x _.c 1 ( o C.S.S.S.C.k.",
"M.N.L > +Xk {.U.- g.7 S j.k.@ H.$Xk     q g j H.$X-X+X+XY.o.q   > - z X.O.B ( ` ` . N.N.k.l.k.k.",
"C.k.k.- F.Y.= _.5 # / A h z.@ >X5X/.  0 uX0X3X1X@X+X'.I.P.x q x ..U.K.D.T.| ` ` ` . t.r.r.z.z.r.",
"S.A.N.L ; +X: P K.= ^ p < ;.@ *XwX*Xk 0 qX4X1X&X@X+X@Xo.o.O H.{.C l x F.].| | ` ` . A.S.n.z.v.z.",
"M.C.k.k.; P U % _.< & ^ / 8 5 G.3X1XX.0 0X3X1X@X+X+X+Xo.Z . ..C k /.`.%X&X*.| ` ` X S.S.A.A.A.N.",
"k.k.k.1.O # O.: # & E | p ,.S @ ,X3XeX6X4X3X,X+X+X/.C % . . ..C F.@X%X:X:X).' ` ` X R.t.!.!.!.!.",
"z.t.2.< e 9 # + e ( ( 1 g b.-   m &X4XwX4X3X1XO.: @   + t . ..n T.`.;X;X@X%.` ' +.O r.t.r.b.b.z.",
"v.z.v , w X 9 s d 1 = r > j.@ & t C 3X3X,XU.q X o   9 s =   ..Z '.`.;X%X'.' | )..X+ r.l.k.k.k.k.",
"k.k.l.2 $ w i 9 . Z L.o.$ S + w V % % I O X   + w s a a a . X.I._.+X+X+X'.#X-X+X+X+ r.M.S.A.k.k.",
"C.S.S.s.o 9 . O X.+X+XP.& b @ t ~ V 0     9 u a W ! W ( a . ..I.L.+X'.%.(.<X&X@XD.o A.S.S.S.N.Q.",
"x.N.S.S.>.L 3 * +X+X'. .+ J L $ a ( s w s a W ) ` ~ ~ a a . X.P O.*.| &.oX1X%X+XZ 7 S.S.S.S.S.S.",
"q.k.k.k.k.k.h.o j x r O . L S.& $ ( ( a d ) ` ` ` ! a a * . { r R ` ' %.*.+X+X`.& f.S.S.!.S.S.C.",
"^.~.S.C.k.k.k.a.3 - O t w v B.K o # ! ` ` ` ` ) ! V a i o   n z R ` ` ` '.+X`.5 b S.S.!.t.E.B.k.",
"S.S.C.N.S.M.k.k.k.k.5 + O v t.t.3   % y d d B s i i w +   @ O Z p ) ` | `.`.j 7 l.l.k.R.t.t.t.t.",
"N.N.k.k.M.N.M.k.k.b.5.2.:.l.t.t.H o   o   o o o         # g.p.@ r , ) +.`.j 6 l.k.b.t.r.v.k.z.t.",
"k.k.k.k.z.b.k.k.k.k.k.k.k.k.z.z.6     o S ;.;.1.1.@   @ p.l.k.p.@ c < } j 6 l.k.k.k.k.k.k.k.z.z.",
"k.k.k.z.t.t.b.k.z.b.k.k.k.k.v.k.K       o 1.b.l.:.o . g.N.M.k.k.p.g ; & h r.v.k.z.b.k.k.k.k.v.k.",
"k.k.z.t.t.t.t.t.t.t.b.k.k.k.k.k.k.=.4 2 8 K <.L 2   7 c.m.S.C.k.l.a.O h e.t.t.t.t.t.b.k.k.k.k.k.",
"z.r.t.r.t.t.t.t.t.t.t.z.z.t.5.3.=.F F F =.=.F 3   2 i.i.u.d.s.b.z.t.3.t.t.t.t.t.t.t.t.z.z.t.t.z.",
"l.k.z.r.8.8.v.v.v.v.w.q.w.4.=.F F F F F F -.;.-.S K ,.i.u.u.>.>.h.k.R.t.8.8.v.v.v.v.w.q.w.t.t.t.",
"A.k.R.q.W.~.e.w.q.q.q.q.q.6.D G F F F F F F ;.-.:.-.:.y.i.i.u.u.m.k.R.q.W.~.0.w.q.q.q.q.q.w.q.r.",
"M.A.~.~.S.S.^.Z.S.^.q.Z.S.B.I D F F F ;.;.-.:.:.:.>.>.i.u.y.:.:.k.A.~.n.S.S.^.Z.S.^.q.Z.S.^.9.q.",
"C.C.S.S.S.S.S.S.S.S.^.S.S.S.Z.2.I ,.,.-.,.-.:.-.>.>.y.u.:.:.g.l.C.C.].A.S.S.S.S.S.S.^.S.S.S.S.9.",
"S.S.S.S.S.N.S.S.N.S.S.C.V.S.S.S.S.g.c.a.:.:.:.:.-.:.p.g.h.M.k.S.S.S.S.S.S.N.S.S.N.S.S.C.M.S.S.S.",
"S.S.S.S.N.k.N.k.k.k.A.k.k.C.C.k.k.k.k.k.k.k.k.N.C.C.C.A.].A.C.S.S.S.S.S.N.k.N.k.k.k.A.k.k.C.C.k.",
"M.k.N.N.k.k.k.k.k.k.M.k.k.k.k.k.k.k.k.k.k.k.k.v.x.z.b.k.N.N.N.N.M.k.N.N.k.k.k.k.k.k.M.k.k.k.k.k.",
"k.k.k.k.k.k.k.k.k.z.b.k.k.k.k.N.S.A.M.k.z.r.z.r.t.r.r.z.b.k.k.k.k.k.k.k.k.k.k.k.k.z.b.k.k.k.k.N.",
"k.k.k.v.v.k.k.k.R.z.R.z.r.E.S.S.S.S.B.!.t.r.t.r.z.v.x.r.t.z.k.k.k.k.k.v.v.k.k.k.R.z.R.z.t.E.S.S."
};
