/* XPM */
static char *result[] = {
/* columns rows colors chars-per-pixel */
"48 48 213 2 ",
"   c #161C2E",
".  c #191E2F",
"X  c #1B1E30",
"o  c #1B212F",
"O  c #1D2230",
"+  c #232333",
"@  c #252B34",
"#  c #2A2D36",
"$  c #2B2439",
"%  c #2C2E39",
"&  c #2A2534",
"*  c #30263B",
"=  c #372939",
"-  c #2B3334",
";  c #2C3537",
":  c #35353D",
">  c #39393D",
",  c #353839",
"<  c #45373E",
"1  c #5A343F",
"2  c #452D3A",
"3  c #394537",
"4  c #3C4B3A",
"5  c #37463A",
"6  c #414B3A",
"7  c #48493C",
"8  c #48573B",
"9  c #52543E",
"0  c #555B3E",
"q  c #57683D",
"w  c #392A41",
"e  c #3A3841",
"r  c #442E45",
"t  c #4C314B",
"y  c #433D44",
"u  c #53344E",
"i  c #593746",
"p  c #593751",
"a  c #683B48",
"s  c #6A3D5A",
"d  c #663B56",
"f  c #743F53",
"g  c #384C41",
"h  c #3D5443",
"j  c #3E4D52",
"k  c #484446",
"l  c #544C4A",
"z  c #554648",
"x  c #455B43",
"c  c #5C544E",
"v  c #5D5E41",
"b  c #464A56",
"n  c #585754",
"m  c #415A51",
"M  c #6A4A49",
"N  c #7A4349",
"B  c #764159",
"V  c #744057",
"C  c #665B53",
"Z  c #725651",
"A  c #596545",
"S  c #5A7C52",
"D  c #567650",
"F  c #51664E",
"G  c #6B7945",
"H  c #797B48",
"J  c #676258",
"K  c #736559",
"L  c #77695A",
"P  c #7F705D",
"I  c #646847",
"U  c #5D5C61",
"Y  c #5A7E6A",
"T  c #7C7664",
"R  c #656975",
"E  c #86474C",
"W  c #864657",
"Q  c #9C4D55",
"!  c #954B58",
"~  c #954B57",
"^  c #855C56",
"/  c #985755",
"(  c #91484C",
")  c #A34E52",
"_  c #AB5455",
"`  c #B55555",
"'  c #B85B58",
"]  c #887058",
"[  c #B9665E",
"{  c #A9655D",
"}  c #866E63",
"|  c #867560",
" . c #8C7764",
".. c #95796A",
"X. c #937A68",
"o. c #BD6D62",
"O. c #B76A60",
"+. c #BD7465",
"@. c #BE7E6B",
"#. c #B57767",
"$. c #C37C6A",
"%. c #C17566",
"&. c #5E8254",
"*. c #69844A",
"=. c #728944",
"-. c #7A8947",
";. c #778548",
":. c #688D58",
">. c #69915B",
",. c #79914F",
"<. c #7CA359",
"1. c #5F8563",
"2. c #6F976F",
"3. c #6E9A6E",
"4. c #7C9B6F",
"5. c #739C6A",
"6. c #679175",
"7. c #6A9672",
"8. c #76A364",
"9. c #79A863",
"0. c #7BA364",
"q. c #83884B",
"w. c #8B894D",
"e. c #87864C",
"r. c #849F4A",
"t. c #8F9D4D",
"y. c #869A58",
"u. c #989C54",
"i. c #848C57",
"p. c #8CA64A",
"a. c #93AE4C",
"s. c #93A44D",
"d. c #95B34D",
"f. c #9BB94E",
"g. c #9CB64E",
"h. c #8EAF55",
"j. c #85AE5C",
"k. c #9CA451",
"l. c #8DB256",
"z. c #94B553",
"x. c #9AB35B",
"c. c #A1A652",
"v. c #AAA656",
"b. c #A3B951",
"n. c #A9B953",
"m. c #A3B45C",
"M. c #ACB559",
"N. c #B1BA56",
"B. c #B3B45D",
"V. c #B8B459",
"C. c #B6BA58",
"Z. c #BFBA5B",
"A. c #9B856A",
"S. c #99947A",
"D. c #8E8D6E",
"F. c #A28B6E",
"G. c #A7906E",
"H. c #A78A71",
"J. c #AE9473",
"K. c #B69A75",
"L. c #8AAC61",
"P. c #86A666",
"I. c #95AF60",
"U. c #9CAA65",
"Y. c #AAB061",
"T. c #BDB66D",
"R. c #BEA279",
"E. c #B8A277",
"W. c #A8A07E",
"Q. c #C4826E",
"!. c #C78570",
"~. c #CD9B78",
"^. c #C3A67C",
"/. c #CBA87D",
"(. c #C7B770",
"). c #787B86",
"_. c #949195",
"`. c #A28C9D",
"'. c #B6A985",
"]. c #CBB486",
"[. c #D5B583",
"{. c #DABE8B",
"}. c #D8B987",
"|. c #C5BA94",
" X c #D0AB81",
".X c #C2BDB3",
"XX c #CFBDA8",
"oX c #DCC38E",
"OX c #CBC198",
"+X c #DECA95",
"@X c #DBC497",
"#X c #E1CA96",
"$X c #E3CE9A",
"%X c #E0C598",
"&X c #E6D39E",
"*X c #DED6A2",
"=X c #CEC6B5",
"-X c #EADAA6",
";X c #E8DCBA",
":X c #EFE1AB",
">X c #F1E5B6",
",X c #F1E8BB",
"<X c #ECE1B6",
"1X c #CFCFCF",
"2X c #EBDCC5",
"3X c #F5EDCC",
"4X c #F1E6C4",
"5X c #F5EDD4",
"6X c #F7F1D7",
"7X c #EEE2CE",
"8X c #FEFDFC",
"9X c #FAF8F3",
"0X c #F6F3EC",
/* pixels */
"Y.U.Z.N.f.f.f.n.C.Z.Z.I.9.L.m.f.f.f.N.x.9.9.Y.Z.n.n.Z.Z.N.H H H u.U.Z.N.f.f.f.n.C.Z.Z.x.9.L.m.f.",
"Z.Z.N.n.Z.b.f.f.f.f.f.9.9.9.9.9.z.f.f.z.9.9.9.9.9.z.t.l @ o E a @ v k.n.Z.b.f.f.f.f.f.9.9.9.9.9.",
"b.n.f.f.b.n.b.f.f.l.9.9.l.f.j.9.9.j.9.9.9.9.<.<.>.4 3 M #.#.Q._ 1   - p.b.n.b.f.f.l.<.9.l.f.j.9.",
"f.f.f.f.j.z.f.f.f.f.f.f.f.f.j.j.j.9.9.9.l.<.j.r.k { Q.$.' $.%.o.' Q = # <.z.f.f.f.f.f.f.f.f.j.j.",
"f.f.f.j.9.9.z.f.j.z.f.f.f.f.l.f.f.l.l.f.f.f.p.M { Q.Q.o.Q.Q.Q.Q.` ` E & 5 9.z.f.j.z.f.f.f.f.l.f.",
"f.f.j.<.9.9.9.9.9.9.z.f.f.f.f.f.f.j.j.f.f.f., ^ Q.Q.[ %.Q.Q.H.[ ` ` Q i O >.9.9.9.9.z.f.f.f.f.f.",
"j.9.9.9.9.9.9.9.9.9.9.j.j.9.9.j.9.9.9.9.9.>.i o.%.N @.Q.^ = . . = ( _ s + >.9.9.9.9.9.j.j.9.9.j.",
"f.f.P.9.3.3.l.l.l.l.7.6.7.9.9.9.9.9.9.9.9.x N J.i ] $.^     = i u f ` ~ $ 1.l.l.l.l.7.6.7.9.9.9.",
"C.f.9.7.P.U.5.2.6.6.6.6.7.7.6.8.9.9.9.9.9.5 E ^ 1 @.( O   w s s s ) ! d + y.4.2.6.6.6.6.6.7.6.8.",
"b.C.U.U.Z.Z.Y.Y.Z.Y.6.T.Z.Y.4.6.9.9.9.j.l.6 s Q a _ 2   5 + u s s f s * v Z.Y.Y.Z.Y.6.B.(.Y.4.6.",
"N.N.Z.Z.Z.Z.Z.Z.Z.Z.m.Z.Z.Z.Z.4.I.Y.Y.z.f.=.* E $ Q & 9 b.q   $ $ & X 9 V.Z.Z.Z.Z.Z.M.Z.Z.Z.Z.0.",
"Z.Z.Z.Z.Z.n.Z.Z.n.Z.Z.N.n.Z.Z.Z.Z.f.b.n.f.-.@ N u N & @ =.=.,.k 9 0 u.C.Z.M.Z.Z.n.Z.Z.N.b.Z.Z.Z.",
"Z.Z.Z.(.T.f.n.f.f.f.C.f.f.N.N.f.f.f.f.d.5 @ n : + * r   c z - v.Z.Z.Z.Z.n.f.b.f.f.f.C.f.f.C.N.f.",
"b.f.n.(.[.T.f.f.f.f.b.f.f.f.f.f.f.f.f.5 w .X9X_.).).`._.XX=X> - s.f.n.n.b.f.f.f.f.f.b.f.f.f.f.f.",
"f.f.f.A =X@XT.f.f.j.z.f.f.f.f.n.Z.C.;.O K H.&X;X2X7X6X6X'.e > * ; f.f.f.f.f.f.f.f.j.z.f.f.f.f.n.",
"f.f.f.8 _.9X@Xi.P.j.<.l.9.L.Z.Z.Z.Z.0  .[.<X6X6X4X-X-X-X-X].X.y . =.f.z.j.f.f.f.9.j.j.j.9.j.Z.T.",
"9.j.j.h S.0X8XU ,.f.f.l.z.z.l.l.n.x.@ oX<X8X8X9X3X3X,X:X#X[.H.}   8 j.9.9.L.f.z.l.f.f.l.f.z.l.l.",
"j.9.9.8 S.;X8X;X'.P.j.l.<.j.x.0.z.8  .:X*Xk =X<X:X:X:X:X#X[.J...e ; 9.l.<.9.z.l.9.9.j.z.9.j.z.0.",
"f.f.f.8 D.oX7X5XXXF 9.9.9.9.7.U.7.o _.3XJ.o =X6X:X:X:XoX[.[./...% + p.f.f.9.9.9.9.9.9.9.9.9.3.U.",
"f.f.j.:.h +X}.<X1X@ p.9.C.Y.Y.Z.m.l @XoXl   .X9X,X+X{.[.[.[.[...}   *.j.j.9.9.f.f.l.f.9.C.Y.Y.Z.",
"B.Y.x.Y.6 P [.oX4XJ q Z.Z.Z.N.f.H   4X^.@   .X5X:X&X[.].[.[.[.F.|   x m.j.<.D 6 G z.C.Z.Z.Z.N.f.",
"b.n.n.n.p.o /.}.-XOX- s.f.f.f.f.8   n k     R =X|.'.J.J.^. X X .Z   , n.n.H - l o z.f.n.f.f.f.f.",
"N.f.f.f.f.4 L [.].-XJ h 8.j.9.8.- e ; O         o   w T '. XF.L o   8 a.8 J G., o d.<.9.9.j.9.9.",
"Z.C.N.b.f.p.O R.K.U |.; p.l.l.j.o '.'.b     b n n '.{.%X[.}.K...,   0 - C K.< &   d.M.Z.x.l.l.9.",
"b.N.b.f.f.f.4 L ].c &XJ q V.N.b.o :X4XJ.X e 9X3X:X&X{.[.^.H.F.K .   & K K.z a _ O M.Z.Z.C.C.C.b.",
"f.f.f.z.j.N.s.@ R.K S.|.# y.y.H o $X3X@Xk b 3X:X:XoX[.[.[...K X O J A.X.Z ) ` ` + V.L.9.I.I.I.I.",
"j.9.9.9.9.9.9.5 K E.l R.c 5 < c . G.-X-XT b 3X:X&X[.[.[.l n T H.'.| ] K.[ ` ` ` O 0.9.9.9.z.x.j.",
"l.9.9.9.9.9.9.>.# R.n c K.+ { / = @ -X;X7X0X>X:X&X/.[.G.. D.'.k , K J.[.o.[ ' ` X <.9.z.f.f.f.f.",
"f.f.f.f.l.f.z.f.4 C  .# K.c = 2 #.  n %X>X6X,X-X$XP # o   | J c /.}.#X$XQ.[ ` ` + d.9.n.Z.N.g.f.",
"N.Z.Z.N.N.b.f.f.q + } z : 7 2 [ %.w u n :X<X$XD.%         | C A.[.}.&X&X!.' ` ` + s.B.Z.Z.Z.n.P.",
"l.n.Z.Z.Z.Z.Z.q . * e : X a _ ` = t s $ @ n     X $ t s o | c J.[.#X#X[.%.` ' %.+ n.Z.Z.Z.Z.Z.Z.",
"6.f.f.f.f.f.a.& W w X r f Q i +   u ) B $   X r d s ~ Q . | J R.[.oX{./.' %.~.[.+ V.Z.Z.x.Z.Z.N.",
"Y.U.Z.N.f.f.g.4 . + r p w @ C ..y + B Q s t d s ! ` ` W X | J.~.[.[.[./.#X&X[./.@ C.Z.x.9.L.m.f.",
"Z.Z.N.n.Z.b.f.p.+ t w   % J.[.J.k   $ Q Q B W _ ` ` ` Q . | J.A.].~.%.$.&X+X{.A.o g.f.9.9.9.9.9.",
"b.n.f.f.b.n.b.f.q ; ;   J.[.[.J.y   . & Q ` ` ` ` ` ! f X | Z ] %.' $.~.&XoX}.J 8 l.<.9.l.f.j.9.",
"f.f.f.f.j.z.f.f.f.f.d.- c F.} l   5 x o & i a d d p u u X P k N ` ' %.$.}./.^.@ r.f.f.f.f.f.j.j.",
"f.f.f.j.9.9.z.f.j.z.f.=.,     + u X j.,.3                 y c N ` ` ` ~.}.^.> q j.z.f.f.f.f.l.f.",
"f.f.j.9.9.9.9.9.9.9.z.f.d.r.A $ % o j.f.p.@   - e.w.0     . l i ) ` o./.R.> x 9.9.9.z.f.f.f.f.f.",
"j.9.9.9.9.9.9.9.9.9.9.j.j.9.8.h h D >.&.&.4 o   A w.6   , H & > & ) o.R.> x 9.9.9.9.9.j.j.9.9.j.",
"f.f.j.8.3.3.l.l.l.l.7.6.7.9.9.9.&.&.S &.&.x O   x *.O   , G H - M > Q : m 3.l.l.l.l.7.7.7.9.9.9.",
"N.g.j.6.P.U.5.2.6.6.6.6.6.6.6.>.S S S S D h 4 6 q =.8 9 9 0 w.H : # O j P.I.8.3.6.6.6.6.6.7.6.8.",
"b.C.U.U.(.Z.Y.B.Z.m.6.B.Z.Y.4.Y S S S S *.*.=.=.=.-.-.q.w.q.=.=.=.@ I U.Z.T.Y.B.Z.Y.6.Y.Z.Y.4.6.",
"N.N.Z.Z.Z.Z.Z.Z.Z.Z.Y.Z.Z.Z.Z.4.i.;.;.=.=.=.=.=.;.-.q.w.;.=.=.-.-.u.Z.Z.Z.Z.Z.Z.Z.Z.Y.Z.Z.Z.Z.4.",
"Z.Z.Z.Z.Z.b.Z.Z.n.Z.Z.C.n.Z.Z.Z.Z.z.p.q.-.=.=.=.=.=.=.=.-.-.-.v.V.Z.Z.Z.Z.n.Z.Z.n.Z.Z.N.n.Z.Z.Z.",
"Z.Z.Z.Z.n.f.b.f.f.f.N.f.g.N.N.f.f.f.f.f.f.p.p.k.k.c.c.c.V.Z.N.Z.Z.Z.Z.Z.n.f.b.f.f.f.C.f.f.N.N.f.",
"b.g.n.n.b.f.f.f.f.f.n.f.f.f.f.f.f.f.f.f.f.f.f.l.j.j.z.f.n.n.b.n.b.g.n.n.b.f.f.f.f.f.b.f.f.f.f.f.",
"f.f.f.f.f.f.f.f.f.j.z.g.f.f.f.n.Z.C.n.f.9.9.j.9.9.9.9.j.z.f.f.f.f.f.f.f.f.f.f.f.f.j.l.f.f.f.f.n.",
"f.f.f.l.j.f.f.f.9.j.j.j.9.L.Z.Z.Z.Z.m.I.9.9.9.9.j.l.l.9.9.j.f.f.f.f.g.z.j.f.f.b.<.j.L.j.9.L.Z.Z."
};
