/* XPM */
static char *result[] = {
/* columns rows colors chars-per-pixel */
"48 48 219 2 ",
"   c #161C2E",
".  c #191E2F",
"X  c #1B1E31",
"o  c #201F30",
"O  c #1B222F",
"+  c #1D2331",
"@  c #232334",
"#  c #232A33",
"$  c #2B2B36",
"%  c #2B2439",
"&  c #2B2E39",
"*  c #262737",
"=  c #33273C",
"-  c #372A38",
";  c #2C3536",
":  c #39343E",
">  c #35383A",
",  c #412C3A",
"<  c #44353D",
"1  c #56333E",
"2  c #38483B",
"3  c #3F533F",
"4  c #484C3B",
"5  c #46543A",
"6  c #4B563C",
"7  c #4C5B3B",
"8  c #54593E",
"9  c #58683E",
"0  c #56683E",
"q  c #3A2A41",
"w  c #343741",
"e  c #422E46",
"r  c #472F48",
"t  c #493745",
"y  c #54344C",
"u  c #5A3646",
"i  c #593752",
"p  c #5B3853",
"a  c #643A4D",
"s  c #663944",
"d  c #713D44",
"f  c #6A3D5B",
"g  c #633B57",
"h  c #703F59",
"j  c #3B4B42",
"k  c #3B5142",
"l  c #454143",
"z  c #49484A",
"x  c #4C4548",
"c  c #534C49",
"v  c #564548",
"b  c #445C47",
"n  c #5B534D",
"m  c #565946",
"M  c #5D5853",
"N  c #494E5B",
"B  c #7A4549",
"V  c #7B4358",
"C  c #645A51",
"Z  c #645652",
"A  c #785752",
"S  c #6D4E4D",
"D  c #4E6848",
"F  c #4E6C5F",
"G  c #5A7C52",
"H  c #5A7658",
"J  c #536E4D",
"K  c #676844",
"L  c #667B43",
"P  c #62605A",
"I  c #7A6B5B",
"U  c #77655B",
"Y  c #707B53",
"T  c #787565",
"R  c #7A6F62",
"E  c #834348",
"W  c #87484B",
"Q  c #974B4E",
"!  c #8A4758",
"~  c #9D4D55",
"^  c #954B57",
"/  c #885955",
"(  c #A34F55",
")  c #AB5354",
"_  c #AB5554",
"`  c #B65555",
"'  c #B85C59",
"]  c #B15D58",
"[  c #9B655C",
"{  c #81715D",
"}  c #BB645D",
"|  c #9A6C60",
" . c #8C7B64",
".. c #897565",
"X. c #977B6B",
"o. c #967D68",
"O. c #866E63",
"+. c #BE6C62",
"@. c #B97465",
"#. c #A67163",
"$. c #C27B6A",
"%. c #C17567",
"&. c #6C8546",
"*. c #65824B",
"=. c #728944",
"-. c #79864A",
";. c #7C9748",
":. c #769852",
">. c #718E56",
",. c #7CA85F",
"<. c #5D836D",
"1. c #778E64",
"2. c #6F976F",
"3. c #6E9A6E",
"4. c #7C9B6F",
"5. c #739B6C",
"6. c #679175",
"7. c #6A9672",
"8. c #62896A",
"9. c #75A364",
"0. c #79A863",
"q. c #7AA464",
"w. c #84894B",
"e. c #88864C",
"r. c #829B48",
"t. c #809947",
"y. c #92944F",
"u. c #909253",
"i. c #8BA54A",
"p. c #8CA94C",
"a. c #94AB4D",
"s. c #9BB94E",
"d. c #96B34D",
"f. c #85AE5C",
"g. c #86AA57",
"h. c #8DB256",
"j. c #94B553",
"k. c #99B358",
"l. c #A3B951",
"z. c #A9B953",
"x. c #A3B45B",
"c. c #ACB65C",
"v. c #B1BA56",
"b. c #B2B45E",
"n. c #B6BA58",
"m. c #BFBA5B",
"M. c #BAB65A",
"N. c #A6A754",
"B. c #8A836E",
"V. c #938166",
"C. c #9C856B",
"Z. c #99886B",
"A. c #989278",
"S. c #A48D6D",
"D. c #AD8F73",
"F. c #B79B77",
"G. c #B59A75",
"H. c #B5886F",
"J. c #80A761",
"K. c #8AAC61",
"L. c #87A06C",
"P. c #8AA964",
"I. c #95AF60",
"U. c #9CAA65",
"Y. c #AAB061",
"T. c #BEA379",
"R. c #BDA47A",
"E. c #ABA07E",
"W. c #C5826D",
"Q. c #C78A6F",
"!. c #C78D71",
"~. c #CA9373",
"^. c #C5A97E",
"/. c #CBAD7F",
"(. c #C6A57B",
"). c #D1A87E",
"_. c #C7B76E",
"`. c #797C84",
"'. c #838690",
"]. c #978E9B",
"[. c #B7AD8A",
"{. c #AFAB90",
"}. c #A694A3",
"|. c #ABABAA",
" X c #B4ADA4",
".X c #D19C80",
"XX c #CFAF80",
"oX c #C5AD81",
"OX c #CBB98C",
"+X c #D4B583",
"@X c #D7BC89",
"#X c #CEB38E",
"$X c #C7BEB4",
"%X c #DBC28E",
"&X c #D9C799",
"*X c #CDC192",
"=X c #E3CE99",
"-X c #E1CA96",
";X c #E5D39D",
":X c #DAD5A6",
">X c #E6D9A3",
",X c #EAD8A3",
"<X c #EEDFA9",
"1X c #E6D4A0",
"2X c #E6D7BA",
"3X c #E2CCA3",
"4X c #EFE1AB",
"5X c #F2E7BC",
"6X c #ECE3B1",
"7X c #DFDFD5",
"8X c #E8DBC4",
"9X c #F5EDCD",
"0X c #F3E9C5",
"qX c #F7EFD4",
"wX c #F4EBDA",
"eX c #F8F3DC",
"rX c #F7F1D8",
"tX c #FEFDFC",
"yX c #F9F7F3",
/* pixels */
"Y.U.m.v.s.s.s.z.n.m.m.I.0.K.x.s.s.s.v.k.0.0.c.m.l.z.m.m.v.z.m.m.Y.U.m.v.s.s.s.z.n.m.m.k.0.K.k.s.",
"m.m.v.z.m.l.s.s.s.s.s.0.0.0.0.0.j.s.s.j.0.0.0.0.0.j.v.m.s.s.l.n.m.m.v.z.m.l.s.s.s.s.s.0.0.0.0.0.",
"l.z.s.s.l.z.l.s.s.j.J.0.h.s.f.0.0.f.0.0.0.0.0.0.0.J.k.s.s.s.s.s.l.z.s.s.l.z.l.s.s.j.J.0.h.s.f.0.",
"s.s.s.s.f.j.s.s.s.s.s.s.s.s.f.f.f.0.0.0.h.,.f.s.j.0.0.0.h.s.s.s.s.s.s.s.f.j.s.s.s.s.s.s.s.s.f.f.",
"s.s.s.f.0.0.j.s.f.j.s.s.s.s.h.s.s.h.h.s.s.s.j.s.s.h.s.s.z.l.s.s.s.s.s.f.0.0.j.s.f.j.s.s.s.s.h.s.",
"s.s.f.0.0.0.0.0.0.0.j.s.s.s.s.s.s.f.f.s.s.s.s.z.M.K @ o + + . 2 7 ;.f.f.0.0.0.0.0.0.j.s.s.s.s.s.",
"f.0.9.0.0.0.0.0.0.0.0.f.f.0.0.f.0.0.0.0.0.J.,.D @ B [ W.W.%.$.A u W m 0.q.0.0.0.0.0.0.f.f.0.0.f.",
"s.s.f.0.3.3.h.h.h.h.7.6.7.0.0.0.0.0.0.0.0.f.5 t [ H.W.$.$.$.} W.$.B   k 3.2.h.h.h.h.6.6.3.0.0.0.",
"n.s.J.6.L.U.5.2.6.6.6.6.6.7.6.9.0.0.0.0.9.k - +.@.v S +.@.W.W.W.%.) , + 1.U.5.2.6.6.6.6.6.7.6.9.",
"l.n.U.U.m.m.Y.b.m.Y.6.b.m.Y.4.6.0.0.0.f.b , ] #.* / H.@.[ | @.W.@.` Q @ K m.c.b.m.Y.6.b.m.Y.4.6.",
"v.v.m.m.m.m.m.m.m.m.Y.m.m.m.m.4.U.x.x.p.- ( ~ d / [ < *     & A ) ` ` e 4 m.m.m.m.m.Y.m.m.m.m.4.",
"_._.m.m.m.z.m.m.z.m.m.v.z.m.m.m.m.l.l.w.d 1 Q ) -       - i e @ s ` ( = 4 v.m.m.z.m.m.v.z.m.m.m.",
"@X+X_.m.l.s.l.s.s.s.n.s.s.v.v.s.s.s.;.; s s s E         g f f i - ` ^ r 6 s.z.s.s.s.n.s.s.v.v.s.",
"c 8X+Xb.l.s.s.s.s.s.l.s.s.s.s.s.s.3 # C : % @ i X n z O i f f f ! ` ~ % 9 s.s.s.s.s.l.s.s.s.s.s.",
"  7XwX+Xr.s.s.s.s.f.j.s.s.s.s.z.4 O  XyX|.'.'.}.].$X2Xt X i f f ! V t ; p.s.s.s.s.f.h.s.s.s.s.z.",
"  :XtXwX# x.s.s.J.f.f.f.0.K.m.y.O I Z.;X2X8X8XqXwX[.w w : X X = q = ; :.h.s.s.s.0.f.f.K.0.K.m.m.",
"O &XwXtX{.m.s.j.j.s.s.f.j.j.h.D I +X,XeXqX9X<X4X<X<X@XX.v   5 L D D :.0.0.0.s.j.h.s.s.h.s.j.h.h.",
"  *X+XtXeXV.;.h.0.0.f.j.0.f.h.+ %X4XtXtXtX9X9X0X4X=X+XD.X.X 2 g.f.0.0.h.f.0.j.h.0.0.f.j.0.J.j.q.",
"5 B.&X&XwX`.2 0.0.0.0.0.0.0.b T 4X-Xn |.5X4X4X4X<X=X+XF.X.x   s.s.s.s.d.j.9.0.0.0.0.0.0.0.0.7.U.",
"i.+ R.+X>X6X+ ;.s.h.s.0.n.Y.+ B.qX(.  |.eX4X4X<X-X+X+XXXX.:   ;.s.s.>.# + D 0.j.s.h.s.0.n.Y.b.m.",
"c.m C +X%X4XT 2 s.s.v.m.m.m.n OX%XC   |.yX5X=X@X+X+X+X+XX.X.  Y c.-.w  .> k 0.s.s.s.v.m.m.m.v.s.",
"l.a.O T.+XOX:X; ;.s.l.z.s.=.O 2X+X&   |.rX4X1X+X+X+X+X+XD.X.  > 6 4 T.c   7 k.j.s.s.l.l.s.s.s.s.",
"v.s.7 C +XM [.T 5 s.0.0.9.J   z l     N :X{.{.S.S.T./.^...U     l (.c - 1 5 s.s.s.s.0.0.0.f.0.0.",
"m.v.N.O T.F.T :X& ;.n.m.k.2 w w O             * R T.+XD.Z . & U C.A d ` E 5 s.s.s.s.b.m.k.h.j.J.",
"l.v.l.7 n XXl &XT 4 m.y.y.$ A.*Xn     N P C [.*X-XC.V.w n  .R.F.| ) ` ` E 5 s.s.s.v.m.m.n.n.n.l.",
"s.s.s.g.O F. .M ^.2 2 v < . :X0XoX  + yXeX<X,X+XC.O [.OXZ.M > O.(.` ` ` E 8 v.n.m.m.P.0.I.I.I.I.",
"h.0.0.0.j n /.& S.I - @.A . @X0X3Xn * qX6X4X-X+XV.  ^.j l Z.T.+X).} +.` E j 0.0.0.0.0.0.0.j.k.f.",
"h.,.0.0.9.+ Z.Z < (.< = E A ..4X<XZ.* 9X4X,X+X+XV.  OX# ^.+X+X>X1X%.` ` E j 0.f.h.,.0.j.s.s.s.s.",
"s.s.s.s.h.; :  .& n $ d $.A + &X<XrXyX5X<X,X+X+X .  (.$ /.+X%X&X.X+.' ` E 5 j.s.s.s.0.z.m.n.s.s.",
"v.m.m.v.; O % x * % E ` Q @ q t %X6XeX5X<X,X{ & O   T.C +X+X4X=XQ.' ` $.o.5 s.s.s.j.n.m.m.m.z.P.",
"h.z.m.K d h @ @ r ! Q ,   % p p z >X<X&XB.>         T.{ ).%X/.@XQ..X+X+XV.8 m.s.s.v.m.m.m.m.m.m.",
"6.s.s.r.O X X i p % : U O.+ y V q   C     . * y r   (.S././.).!.+X4X=X+Xo.5 s.z.v.m.m.m.k.m.m.v.",
"Y.U.m.v.0 * p % . l (./.S.* q ^ h =   X e g V ` d   T.c (.!.} %.%X;X%X).: 0 s.z.v.m.m.I.0.f.x.s.",
"m.m.v.z.m.> ; # > /.+X+XX.@   u ^ V y g V ( ` ` E X D.* ] +.} $.).+X).F.; i.s.s.s.s.s.,.0.0.0.0.",
"l.z.s.s.l.z.l.=.@  .S.{ >       u ) ( ( ` ` ` ) a   ..@ ) ` ' } ).+X/.m 8 z.s.s.s.j.,.0.h.s.f.0.",
"s.s.s.s.f.j.s.d.7 # .   q q 2 &   = g v a a a i r @ t n Q ` ` } @X/.c 5 ,.j.s.s.s.s.s.s.s.s.f.f.",
"s.s.s.f.0.0.j.s.f.;.i.; r * D i.0 O                   x , Q ` ~./.c 5 ,.0.0.j.s.f.j.s.s.s.s.h.s.",
"s.s.f.0.0.0.0.0.0.0.h.=.5 5 t.i.;.#   O 0 2             @ - ( !.c 5 g.,.0.0.0.0.0.0.j.l.s.s.s.s.",
"f.0.0.0.0.0.0.0.0.0.0.f.f.>.G *.G k + O j J + O > 4 + 4 ; U o < 2 ,.0.0.0.0.0.0.0.0.0.f.f.0.0.f.",
"s.s.J.0.5.3.h.h.h.h.7.6.8.G G G G k k 2 k *.L L *.*.L Y e.>   4 d.s.,.0.3.3.h.h.h.h.7.6.7.0.0.0.",
"n.s.J.7.L.U.5.7.6.6.6.6.<.F F *.G G G G G G *.&.=.=.=.w.e.e.8 N.n.s.J.6.L.U.5.2.6.6.6.6.6.7.6.9.",
"l.n.U.I.m.m.Y.b.m.Y.6.b.m.u.H F G H G *.*.&.&.=.=.-.=.e.e.w.t.s.l.n.U.U.m.m.Y.b.m.Y.6.b.m.Y.4.6.",
"v.v.m.m.m.m.m.m.m.m.Y.m.m.m.b.1.Y -.-.&.=.=.=.=.-.-.e.e.i.d.s.z.n.v.m.m.m.m.m.m.m.m.Y.m.m.m.m.4.",
"m.m._.m.m.z.m.m.l.m.m.v.x.m.m.M.m.l.a.a.i.i.i.i.i.a.s.s.z.l.s.m.m.m.m.m.m.z.m.m.z.m.m.v.z.m.m.m.",
"m.m.m.m.z.s.l.s.s.s.n.s.s.v.v.s.s.s.s.s.s.s.s.v.v.z.v.n.m.m.v.m.m.m.m.m.z.s.l.s.s.s.n.s.s.v.v.s.",
"l.s.z.z.l.s.s.s.s.s.l.s.s.s.s.s.s.s.s.s.s.s.s.h.h.f.j.s.z.z.z.z.l.s.z.z.l.s.s.s.s.s.l.s.s.s.s.s.",
"s.s.s.s.s.s.s.s.s.f.j.s.s.s.s.z.m.n.l.s.0.0.f.0.0.0.0.f.j.s.s.s.s.s.s.s.s.s.s.s.s.f.j.s.s.s.s.z.",
"s.s.s.h.h.s.s.s.0.f.f.f.0.K.m.m.m.m.c.I.0.0.0.0.f.h.h.0.0.f.s.s.s.s.s.h.f.s.s.s.0.f.f.f.0.K.m.m."
};
