/* XPM */
static char *result[] = {
/* columns rows colors chars-per-pixel */
"48 48 193 2 ",
"   c #161C2E",
".  c #232135",
"X  c #2A2439",
"o  c #2A2C36",
"O  c #302534",
"+  c #3C2A37",
"@  c #34283E",
"#  c #263236",
"$  c #2D3D3C",
"%  c #2B3533",
"&  c #313535",
"*  c #35343C",
"=  c #462E3F",
"-  c #40353D",
";  c #56333E",
":  c #364236",
">  c #3F4239",
",  c #3A4737",
"<  c #46553A",
"1  c #4B5B3B",
"2  c #54583E",
"3  c #44473A",
"4  c #372940",
"5  c #393C42",
"6  c #493049",
"7  c #443E44",
"8  c #5A3E44",
"9  c #553550",
"0  c #5C3854",
"q  c #6A3B48",
"w  c #61394F",
"e  c #763E45",
"r  c #713E4E",
"t  c #693D5B",
"y  c #3E5443",
"u  c #3A4E41",
"i  c #444142",
"p  c #4A4246",
"a  c #4A4B4C",
"s  c #5D4649",
"d  c #564849",
"f  c #435740",
"g  c #4E5841",
"h  c #5B5C41",
"j  c #5B534D",
"k  c #79425A",
"l  c #635553",
"z  c #625950",
"x  c #695955",
"c  c #7F5A54",
"v  c #73474A",
"b  c #51704E",
"n  c #5C7648",
"m  c #5A7C52",
"M  c #466048",
"N  c #667A41",
"B  c #667A46",
"V  c #7B7B49",
"C  c #747747",
"Z  c #69645A",
"A  c #63645B",
"S  c #75655B",
"D  c #667F58",
"F  c #727D54",
"G  c #6C6C60",
"H  c #6F706D",
"J  c #90474C",
"K  c #9C4C4F",
"L  c #964B56",
"P  c #9A4C57",
"I  c #945553",
"U  c #864659",
"Y  c #A44F56",
"T  c #AA5156",
"R  c #A85B58",
"E  c #B65555",
"W  c #B85C59",
"Q  c #9B6A5F",
"!  c #99635B",
"~  c #BB625C",
"^  c #A05F61",
"/  c #897861",
"(  c #907E64",
")  c #977B6B",
"_  c #826C61",
"`  c #BD6C60",
"'  c #BF7164",
"]  c #C17868",
"[  c #C17866",
"{  c #6C8446",
"}  c #68834A",
"|  c #728844",
" . c #7A8847",
".. c #78864C",
"X. c #7B9346",
"o. c #7E9C4E",
"O. c #658B57",
"+. c #729A5A",
"@. c #69925B",
"#. c #5D826C",
"$. c #6F976F",
"%. c #6E9A6E",
"&. c #6B9565",
"*. c #769B6D",
"=. c #679175",
"-. c #6B9671",
";. c #79A863",
":. c #73A069",
">. c #7CA165",
",. c #82884A",
"<. c #8A884D",
"1. c #82814B",
"2. c #83984B",
"3. c #979450",
"4. c #888E54",
"5. c #86A049",
"6. c #8AA54A",
"7. c #93A04E",
"8. c #9BB94E",
"9. c #85AE5C",
"0. c #89AC5C",
"q. c #9BA051",
"w. c #8EB256",
"e. c #94B552",
"r. c #9CB45A",
"t. c #A5A654",
"y. c #A2B950",
"u. c #A9B953",
"i. c #A3B35D",
"p. c #AEB65D",
"a. c #B1BA56",
"s. c #B1B35F",
"d. c #B6BA58",
"f. c #BFBA5B",
"g. c #B2AE58",
"h. c #95896E",
"j. c #94856B",
"k. c #97957A",
"l. c #9B9175",
"z. c #839A68",
"x. c #A7906F",
"c. c #A78B71",
"v. c #A09D7F",
"b. c #B09275",
"n. c #BC9E79",
"m. c #B69D75",
"M. c #84AB62",
"N. c #87A06C",
"B. c #8AA863",
"V. c #95AF60",
"C. c #9CAA65",
"Z. c #AAB061",
"A. c #B0B861",
"S. c #BAB865",
"D. c #B0A27D",
"F. c #B0B076",
"G. c #C5836E",
"H. c #C98C72",
"J. c #CE9E78",
"K. c #CB9675",
"L. c #C6A77D",
"P. c #C4B965",
"I. c #737782",
"U. c #B7AB87",
"Y. c #A4A5A7",
"T. c #B8AEA0",
"R. c #98928E",
"E. c #D5B583",
"W. c #D9BA8B",
"Q. c #CEBF95",
"!. c #DBC08D",
"~. c #CBC498",
"^. c #DEC593",
"/. c #DFC993",
"(. c #E5CF9B",
"). c #E3D39C",
"_. c #DFC7A1",
"`. c #E9D6A1",
"'. c #EADCA5",
"]. c #E8D9A9",
"[. c #E5D2B3",
"{. c #EFE2AB",
"}. c #F3E8BF",
"|. c #F2E6B8",
" X c #CECFCC",
".X c #EFE2C8",
"XX c #F5EDCC",
"oX c #F1E6D3",
"OX c #F9F4DE",
"+X c #F4F0CD",
"@X c #F9F5E8",
"#X c white",
"$X c #FCFAF2",
/* pixels */
"8.r.M.;.Z.f.f.a.u.8.8.8.a.f.C.s.f.f.u.d.f.f.u.u.f.Z.;.;.r.d.8.8.8.r.M.;.i.f.f.a.u.8.8.8.a.f.C.A.",
";.;.;.;.;.8.8.8.8.8.u.f.u.d.1.& e e   1 3.u.w.;.;.;.;.;.e.8.8.e.;.;.;.;.;.8.8.8.8.8.u.f.u.d.f.f.",
";.9.8.w.;.;.e.8.8.y.u.y.8.%     K ! I c   : O.;.;.;.;.;.;.;.9.;.;.9.8.w.;.9.e.8.8.y.u.y.8.8.u.8.",
"9.w.8.8.8.8.8.8.8.8.w.0.%   e E W [ b.~ ] Q e , 8.9.9.w.;.;.;.9.9.w.8.8.8.8.8.8.8.8.w.9.8.8.8.8.",
"8.w.8.8.8.8.w.9.8.w.;.y   r E W G.G.[ [ ] G.G.Q X.e.8.8.8.w.w.8.8.w.8.8.8.8.w.0.8.e.;.;.w.8.8.8.",
"8.8.8.8.8.e.;.;.;.;.;.# e E E E G.G.G.G.~ ] G.] O X.8.8.8.9.9.8.8.8.8.8.8.e.;.;.;.;.;.;.9.9.8.8.",
"9.;.;.9.9.;.;.;.;.;.;.X U T E v 8 s Q G.G.[ Q G.s : ;.;.;.;.;.;.9.;.;.9.9.;.>.;.;.;.;.;.;.;.;.9.",
";.;.;.-.=.%.w.w.w.w.$.6 P E O         - G.G.8 I [ O w.;.;.;.;.;.;.;.;.-.=.-.w.w.w.w.-.%.;.9.8.8.",
":.=.%.=.=.=.=.=.*.$.C.6 T E k t t 9     * ] G.+ G.; b ;.;.;.;.;.:.=.-.=.=.=.=.=.*.$.C.*.=.0.8.d.",
"=.N.s.f.Z.=.s.f.Z.s.f.> t T P t t t @     e ] 8 ^ = B w.;.;.;.;.=.N.A.f.Z.=.A.f.Z.A.f.f.C.C.a.y.",
"N.f.f.f.f.A.f.f.f.f.f.h X 9 t t t 4   N   X T w P 6 N 8.e.i.i.C.N.f.f.f.f.s.f.f.f.f.f.f.f.f.u.p.",
"f.f.f.u.d.f.f.u.f.f.u.f.V V       N 7.y.&   P 6 q < 8.8.a.y.y.f.f.f.f.u.d.f.f.u.f.f.u.f.f.f.f.f.",
"8.d.u.8.8.a.8.8.8.y.8.a.f.f.f.f.f.1   7   @ =       : X.8.8.8.8.8.d.u.8.8.a.8.8.y.y.8.S.P.f.f.f.",
"8.8.8.8.8.y.8.8.8.8.8.y.u.u.8.y.& j K.c.X t     R.oXY.  X.8.8.8.8.8.8.8.8.y.8.8.8.8.p.E.S.u.8.u.",
"y.8.8.8.8.w.w.8.8.8.8.8.8.8.8.%     I.[.#X#X#X#XoX[.*     u.d.f.y.8.8.8.8.e.0.8.8.A.E._.2.8.8.8.",
"f.f.M.;.0.9.;.9.8.8.8.9.e.8.N   l S h.~.{.{.`.(.'.'.{.E.i V f.f.f.f.M.;.9.9.;.9.A.E.@XI.N 8.8.8.",
"w.w.e.e.w.8.8.w.e.8.;.;.;.9.f   S ) E.].{.XXOX$X#X#XoX(.x.$ y.u.w.w.e.e.w.8.8.n / @X#XG b w.;.9.",
"*.e.;.9.w.9.;.;.e.e.;.9.w.;.  7 h.J.E.(.{.{.{.{.XXY.T.{.`.i X.0.;.w.;.9.w.9.;.z  X#X+XG n ;.;.9.",
"C.%.;.;.;.;.;.;.;.;.;.8.8.8.  l ) n.E.W.(.'.{.{.|.H i !.{.Z : =.C.-.;.;.;.;.F.[.OXoX).G N 8.8.8.",
"f.Z.s.p.;.8.w.8.e.;.9.9.9.f   l ) E.E.E.W.].{.{.#XI.  x..XG   A.f.Z.d.a.;.8.  $X@X^.!.G n 9.8.8.",
"8.d.f.f.f.a.8.8.8.;.;.V.i.g   ) ) E.E.E.E.E.^.'.XXH   / W.oX* d.8.d.f.f.f.1 A OX/.L.l.  i.i.i.a.",
"8.8.8.8.u.y.8.%   > u.u.u.    ) n.E.E.E.E.E.(.{.@XI.    E.{.  n 8.8.8.8.u.  ~.{.E.E.& C u.u.u.y.",
";.9.9.;.;.;.8.  / 7 : 8.8.    p S b.E./ j z Z G I.            b ;.;.9.;.f A {.!.E.j.  8.8.8.8.d.",
"9.w.w.r.d.p.8.    x.x.: u.>   3 ) n.E.E.U.a               A a   9.w.w.r.h ~.R.E.E.* N 8.u.a.d.f.",
"u.d.d.d.f.f.u.  J + i x.        ) b.b.L.E.!.`.{.OX X    m.`.{.  u.d.d.,.k.Q.j E.z < 8.8.8.y.d.y.",
"V.V.V.V.;.B.f.  E E J l b.l     * ) j.E.E.E.!.{..X@X  j [.@X{.  V.V.V.& k.S / E.  q.a.9.e.8.8.8.",
"9.e.e.;.;.;.;.  E E E W n.E.E.j.i * p x.E.E.E.`.{.$X  / '.{.h.    : X.  h.d E.z u ;.;.;.;.;.;.0.",
"8.8.8.8.e.;.9.  E E E H.x.-   Z U.{.S   E.E.E.(.{.{.Y.].{.{.5   G.I   ( z / E.  +.;.;.;.;.;.9.w.",
"8.8.d.f.y.;.8.  E E ~ K.E.E.E./   / z   i z E.(.{.}.+X|.(.j.  Y + J   L.& n.z 1 8.8.8.w.8.8.8.8.",
"N.a.f.f.f.s.e.  E E ~ W.{.W.E.E.j k.z         Z {.}.XX{.h.@   G.I   / j.l )   2.8.8.u.a.a.f.f.u.",
"f.f.f.f.f.f.a.  E E E ' )./.E.E.z / z   6       i Z {.Z   t . I W J     l p   : 8.f.f.f.f.f.u.0.",
"d.f.f.r.f.f.f.  L.` E ~ ).'./.E.b./ z   P t 9 6         0 L t   ; E P 6     9 e $ 8.8.8.8.8.8.=.",
"8.r.M.;.i.f.f.  E.E.E.G.E.E.E.E.b.c.z   L E P t 9 X   0 L U 4   l   8 t 9 X X =   8.8.8.u.f.C.A.",
";.;.;.;.;.8.8.  E.E.'.(.[ E.E.E.b.n.z   k E E E k t t U P 6   l ) n.7   9 6 6   5.8.u.f.u.d.f.f.",
";.9.8.w.;.M.e.  / E./.{.' ~ [ E.z n.j   Y E E E E L P P q     l L.!.E.S   X . < 8.y.u.y.8.8.u.y.",
"9.w.8.8.8.8.8.1 i E.E.!.] ' ' E d S z   t k Y E E E E q       * c.L.W.L.  N N 5.8.8.e.9.8.8.8.8.",
"8.w.8.8.8.8.e.9.: z E.E.` ~ E E 8 l d   4 4 4 4 @ 4 .   N o.# 6 + p z * N 8.w.9.8.w.;.;.e.8.8.8.",
"8.8.8.8.8.w.;.;.;.$ i E.L.E E E s x       g V V       e.8.9.  9 + 1 N 2.8.e.;.;.;.;.;.;.M.9.8.8.",
"9.;.;.9.9.;.;.;.;.;.$ / E.E E O d   h     h <.}     g @.@.;.$     @.;.9.9.;.;.;.;.;.;.;.;.;.;.9.",
";.;.;.-.=.-.w.w.w.w.*.$ x.E O *   C <.3     } }   : } m m m O.+.;.;.;.-.=.%.w.w.w.w.%.%.;.9.8.8.",
"*.=.-.=.=.=.=.=.*.$.C.D   O l X C <.%       | ,     # m m m m m &.=.-.=.=.=.=.=.*.$.C.*.=.0.8.f.",
"=.N.s.f.Z.=.s.f.Z.p.f.f.4.    B | | ,.<.<. .| | | | } B D m m m #.N.s.f.Z.=.s.f.Z.p.f.f.C.C.a.y.",
"N.f.f.f.f.s.f.f.f.f.f.f.f.3.B ,.| | |  .<. . . .| | | | { ....F z.f.f.f.f.A.f.f.f.f.f.f.f.f.u.a.",
"f.f.f.u.d.f.f.u.f.f.u.f.f.f.g.3.<.|  . .| | | | | | | |  .| 2.d.f.f.f.u.d.f.f.y.f.f.u.f.f.f.f.f.",
"8.d.u.8.8.a.8.8.8.y.8.a.f.f.f.f.f.t.t.3.<. .,. . .| 2.6.6.8.8.8.8.d.u.8.8.a.8.8.8.y.8.a.f.f.f.f.",
"8.8.8.8.8.y.8.8.8.8.8.y.u.u.8.u.u.u.u.u.8.e.9.9.e.8.8.8.8.8.8.8.8.8.8.8.8.y.8.8.8.8.8.y.u.u.8.u.",
"y.8.8.8.8.w.9.8.8.8.8.8.8.8.8.8.8.8.8.w.;.;.;.;.;.;.;.9.8.u.d.f.y.8.8.8.8.e.9.8.8.8.8.8.8.8.8.8.",
"f.f.9.;.w.9.;.9.8.8.8.9.e.8.8.8.8.8.9.;.;.w.w.9.;.;.;.;.V.s.f.f.f.f.B.;.0.9.;.9.8.8.8.9.e.8.8.8."
};
