/* XPM */
static char *result[] = {
/* columns rows colors chars-per-pixel */
"48 48 185 2 ",
"   c #161C2E",
".  c #2A2439",
"X  c #262737",
"o  c #3C2A37",
"O  c #34283E",
"+  c #2C3C3D",
"@  c #293434",
"#  c #35333D",
"$  c #313535",
"%  c #462E3F",
"&  c #40353D",
"*  c #54323D",
"=  c #364236",
"-  c #3F4239",
";  c #4B5B3B",
":  c #46563B",
">  c #53583E",
",  c #5B6E3F",
"<  c #372940",
"1  c #393C42",
"2  c #493049",
"3  c #443E44",
"4  c #5C3847",
"5  c #553550",
"6  c #5C3854",
"7  c #763E45",
"8  c #743F4E",
"9  c #693D5B",
"0  c #6E3D52",
"q  c #61394F",
"w  c #3A4E41",
"e  c #3E5443",
"r  c #444142",
"t  c #4A4246",
"y  c #4A4C4C",
"u  c #435740",
"i  c #4C5842",
"p  c #5A5B40",
"a  c #5A524D",
"s  c #5C4548",
"d  c #7C4047",
"f  c #7B435A",
"g  c #75415A",
"h  c #635553",
"j  c #625950",
"k  c #7F5A54",
"l  c #556C48",
"z  c #5E7646",
"x  c #5B764A",
"c  c #4E6C5F",
"v  c #5A7C52",
"b  c #567657",
"n  c #667A41",
"m  c #607F4F",
"M  c #6A7845",
"N  c #7B7B49",
"B  c #666157",
"V  c #67645A",
"C  c #78645C",
"Z  c #727D54",
"A  c #4E5260",
"S  c #6D6C60",
"D  c #6F706D",
"F  c #94494D",
"G  c #854659",
"H  c #884759",
"J  c #8A4650",
"K  c #984B57",
"L  c #955755",
"P  c #83434D",
"I  c #A44F56",
"U  c #A75356",
"Y  c #B65555",
"T  c #B85C59",
"R  c #9A675D",
"E  c #816156",
"W  c #BA625C",
"Q  c #AA645E",
"!  c #826D61",
"~  c #897861",
"^  c #907E64",
"/  c #977B6B",
"(  c #BD6C60",
")  c #BF7164",
"_  c #C07465",
"`  c #C17968",
"'  c #C27B67",
"]  c #6B8244",
"[  c #68834A",
"{  c #6F8D4E",
"}  c #728844",
"|  c #79864A",
" . c #7B9346",
".. c #7F984B",
"X. c #618656",
"o. c #759752",
"O. c #708D5D",
"+. c #7FA457",
"@. c #6F976F",
"#. c #6E9A6E",
"$. c #7C9B6F",
"%. c #75996A",
"&. c #679175",
"*. c #6B9671",
"=. c #79A863",
"-. c #73A069",
";. c #7CA165",
":. c #83884B",
">. c #8A884D",
",. c #82814B",
"<. c #85974C",
"1. c #969450",
"2. c #9F9C53",
"3. c #919C4D",
"4. c #89A34A",
"5. c #94A44E",
"6. c #9BB94E",
"7. c #85AE5C",
"8. c #89AD5B",
"9. c #9EAA51",
"0. c #8EB256",
"q. c #94B552",
"w. c #9DB359",
"e. c #A6A355",
"r. c #A3B951",
"t. c #A9B953",
"y. c #A3B35D",
"u. c #AEB65D",
"i. c #B1BA56",
"p. c #B1B35F",
"a. c #B6BA58",
"s. c #BFBA5B",
"d. c #999277",
"f. c #96856B",
"g. c #A7906E",
"h. c #A78C71",
"j. c #A79679",
"k. c #BC9E79",
"l. c #B49975",
"z. c #84AB62",
"x. c #87A06C",
"c. c #89A465",
"v. c #95AF60",
"b. c #9CAA65",
"n. c #AAB061",
"m. c #BEB76E",
"M. c #C5836E",
"N. c #C98F71",
"B. c #CF9D7B",
"V. c #CBAC7F",
"C. c #C6A77D",
"Z. c #D1B67D",
"A. c #CCB67B",
"S. c #737782",
"D. c #898588",
"F. c #A19C96",
"G. c #B6A688",
"H. c #A2A4AB",
"J. c #ADABB4",
"K. c #B6B0B6",
"L. c #D5B583",
"P. c #D9BD8A",
"I. c #D5AB85",
"U. c #DBC18D",
"Y. c #CBC698",
"T. c #DEC693",
"R. c #DFC993",
"E. c #E5CF9B",
"W. c #E3D29C",
"Q. c #E9D6A1",
"!. c #E9DAA7",
"~. c #E5D2B3",
"^. c #EADAB9",
"/. c #EFE2AB",
"(. c #F3E8BF",
"). c #F2E6B8",
"_. c #EFE1B9",
"`. c #D5D0C7",
"'. c #EEE1CD",
"]. c #F5EDCB",
"[. c #F9F4DD",
"{. c #F2EAD0",
"}. c #F9F5E9",
"|. c white",
" X c #FCFAF2",
/* pixels */
"6.w.z.=.n.s.s.i.t.6.6.6.i.s.X   * K ' M.M.R k   1.y.=.=.y.a.6.6.6.w.z.=.n.s.s.i.t.6.6.6.i.s.b.p.",
"=.=.=.=.=.6.6.6.6.6.t.s.t.$ O J Y ) ) M.T W M.` & X.=.=.q.6.6.0.=.=.=.=.=.6.6.6.6.6.t.s.t.a.s.s.",
"=.7.6.0.=.=.q.6.6.r.t.r.;   7 Y Y ) M.M.M._ ` M._ 7 X.=.=.=.0.=.=.7.6.0.=.7.q.6.6.r.t.6.6.6.t.6.",
"7.0.6.6.6.6.6.6.6.6.0.7.  2 H Y Y W M.M.M.M.W ` M.R   0.=.=.=.7.z.0.6.6.6.6.6.6.6.6.q.7.6.6.6.6.",
"6.0.6.6.6.6.0.7.6.0.=.=.  6 I Y *       s M.M.L ` M.7 n 6.0.0.6.6.0.6.6.6.6.0.7.6.0.=.=.0.6.6.6.",
"6.6.6.6.6.q.=.=.=.=.=.=.  K Y F 2 2 2     & M.M.# M.L = 6.7.7.6.6.6.6.6.6.0.=.=.=.=.=.=.7.7.6.6.",
"7.=.=.7.7.=.=.=.=.=.=.=.  5 H U f 9 9 5     o ' * E T   =.=.=.=.7.=.=.8.8.=.=.=.=.=.=.=.=.=.=.7.",
"=.=.=.*.&.#.0.0.0.0.#.#.e . f H 9 9 9 2       H 4 U f . =.=.=.=.=.=.=.*.&.*.0.0.0.0.#.#.=.7.6.6.",
"-.&.#.&.&.&.&.&.%.@.b.$.&.+   < O O X   5. .  7 O P 2 e =.=.=.=.-.&.#.&.&.&.&.&.%.@.b.$.&.8.6.A.",
"&.x.p.s.n.&.p.s.n.p.s.s.b.b.M =     > e.a.M   7 2 Y   ..=.=.=.=.&.x.p.s.n.&.p.s.y.p.s.s.b.b.Z.L.",
"x.s.s.s.s.p.s.s.s.s.s.s.s.s.t.i.r.6.M $   #   0   %     : y.y.b.x.s.s.s.s.p.s.s.s.s.s.s.s.Z.~.F.",
"s.s.s.t.a.s.s.t.s.s.t.s.s.s.s.s.s.;   D.`.K.K.J.H.H.'.G.  = <.s.s.s.s.t.a.s.s.t.s.s.t.| g.'.|.D ",
"6.a.t.6.6.i.6.6.6.r.6.i.s.s.s.s.>   h   t _.].].~.~.E.G.f.1 = 6.6.a.t.6.6.i.6.6.r.r.6.j `.|.].S ",
"6.6.6.6.6.r.6.6.6.6.6.r.t.t.6.r.    / B.Q./././.].[.[.(.P.L.  6.6.6.6.6.6.6.6.6.6.6.m.~.[.'.W.S ",
"r.6.6.6.6.q.7.6.6.6.6.6.6.6.6.]   h / V.L././.].].}.|.|.].Q.j N r.6.6.6.6.0.7.6.6.6.  }.[.T.U.V ",
"s.s.z.=.7.7.7.=.6.6.6.8.q.6.6.;   / / Z.L./././././.}.  P./.R.  s.s.z.=.8.7.7.+.6.; B }.E.L.d.  ",
"0.0.q.q.0.6.; e q.6.=.=.=.7.=.@   C h.L.L.L.Q.!./.].[.  ~ ^.(.  x 0.q.q.0.6.6.0.q.  Y./.L.L.# x ",
"=.q.=.7.0.e   - = 0.=.7.0.=.=.  h / k.L.L.L.L.E./.|.|.    Z./.~ l 0.=.+.0.7.=.=.u V /.U.L.^   7.",
"b.*.=.=.=.e   g.~ + X.6.6.6.]   h / I.L.L.L.L.L./.].[.    g.~.D 1 &.=.=.=.=.=.=.  Y.j.U.Z.# n 6.",
"s.n.n.u.=.;     g.g.  { 0.7.;   h / C.L.L.L.L.L./.].J.    t V #   n.p.u.=.6.0.; b /.  L.f.  6.6.",
"6.a.s.s.s.> d d   g.g.  e y.i     r / k.L.~                       1.s.s.s.i.6.  Y.G.~ Z.# M y.p.",
"6.6.6.6.t.> d Y Y d j ! $   p     / / L.L.P.!.d.            ~ (.  n 6.6.p r.; a /.r l.^   t.t.r.",
"=.=.8.=.=.u 7 Y Y Y Q V.L.g.~     # h.j.l.L.L.E./.].|.A   a T./.S x 7.@ k   @ l.V B L.# n 6.6.i.",
"7.0.0.w.s.> 7 Y Y Y N.~   y B /./.  h / k.L.L.L././.].D   k.}.).S z u * ' * y L.  g.f.  t.a.a.s.",
"t.a.a.a.s.p 7 Y Y ) I.W.L.L.g.  U.  # C C.L.L.L.E./.(.D a E./.!.  e.  ' o   L.1 h /   4.6.r.a.r.",
"v.v.v.v.=.e 7 Y Y W B.!.U.L.L.  P.        j L.L.E././. X|././.B   v.i L Y o     / t   = q.6.6.6.",
"0.q.q.=.=.e E Y Y Y M.R.W.L.L.# L.  2 2       & E././.[.(.!.^     n q.  F Y 6 X     5 d + =.=.8.",
"6.6.6.6.q.e ~ L.N.Y Y U.R.L.L.r L.    5 5 .       C T././.j.< 5   n n   < o d g 5 X . %   =.7.0.",
"6.6.s.s.r.e ~ L.L./.B.L.L.L.L./ L.  2 9 9 9 5 2       y 1   6 5 . n   h l.f.  . 5 2 2   <.6.6.6.",
"c.i.s.s.s.p r L.U.R./.( B.L.L.C L.  2 f Y f I f 9 2       6 U g X N   h Z.L.h.#   . X > i.s.s.t.",
"s.s.s.s.s.1.  L.L.R./.M.W _ B.# L.  2 9 G f Y Y K 9 9 2 6 G K 2   s.  # C.L.L.j   N N 2.s.s.t.8.",
"a.s.s.v.s.s.- ~ L.L.L.' W T Y   k.    9 9 G U Y Y Y f 9 G Y q   N s.$   t s j   n 6.6.6.6.6.6.&.",
"6.w.z.=.y.s.1.  g.L.L.T Y Y Y   /     O 9 9 G Y Y Y Y Y Y 4     6.w.  9       ] t.6.6.6.i.s.b.p.",
"=.=.=.=.=.6.6. .  g.L.W Y Y d ! @       O 9 9 9 H H H H %     o.=.=.  .   6.6.6.6.6.t.s.t.i.s.s.",
"=.7.6.0.=.z.q.6. .  g.' Y d r . : 6.=                       = =.=.7. .n O.=.q.6.6.t.t.r.6.6.t.r.",
"=.0.6.6.6.6.6.6.6. .  M.d 3   ; 6.6.q.=     u M n x n $       7.7.0.6.6.6.6.6.6.6.6.0.7.6.6.6.6.",
"6.0.6.6.6.6.0.7.6.0.X.o   t n 6.6.6.t.r.=   = 6.6.q.@       : 6.6.0.6.6.6.6.0.8.6.0.=.=.0.6.6.6.",
"6.6.6.6.6.q.=.=.=.=.=.X.  o.6.6.6.i.e.e.5.$   > :.] n , ; x +.6.6.6.6.6.6.0.=.=.=.=.=.=.7.7.6.6.",
"8.=.=.7.7.=.=.=.=.=.=.=.=.=.=.7.<.| >.>.>.>.    v X.v v v v v v o.=.=.7.7.=.=.=.=.=.=.=.=.=.=.7.",
"=.=.=.*.&.*.0.0.0.0.#.#.=.7.6. .| | >.>.>.} l } } [ ] v v v v v v X.=.*.&.*.0.0.0.0.#.#.=.7.6.6.",
"%.&.@.&.&.&.&.&.#.@.b.$.&.8.6.>.>.>.>.>. .} } } ] X.v v v v v v b c *.&.&.&.&.&.%.#.b.$.&.8.6.s.",
"&.x.p.s.y.&.p.s.y.p.s.s.b.b.i.<.} } :.>.:.| } } } } [ [ v v v v c O.p.s.n.&.p.s.y.p.s.s.b.b.i.r.",
"x.s.s.s.s.p.s.s.s.s.s.s.s.s.t.i.5.} } | >.:.| | } ] } } ] | | Z x.s.s.s.s.p.s.s.s.s.s.s.s.s.t.i.",
"s.s.s.t.a.s.s.t.s.s.t.s.s.s.s.s.s.6.9.5.4.} } } } } } ] 9.5.w.s.s.s.s.t.a.s.s.t.s.s.t.s.s.s.s.s.",
"6.a.t.6.6.i.6.6.6.r.6.i.s.s.s.s.s.i.s.s.a.i.a.t.i.6.6.6.6.6.6.6.9.i.t.6.6.i.6.6.6.r.6.i.s.s.s.s.",
"6.6.6.6.6.r.6.6.6.6.6.r.t.t.6.r.t.r.t.t.6.q.7.7.q.6.6.6.6.6.6.6.6.6.6.6.6.r.6.6.6.6.6.r.t.t.6.r.",
"r.6.6.6.6.q.8.6.6.6.6.6.6.6.6.6.6.6.6.0.=.=.=.=.=.=.=.7.6.r.a.s.r.6.6.6.6.0.7.6.6.6.6.6.6.6.6.6.",
"s.s.z.=.7.7.=.7.6.6.6.8.q.6.6.6.6.6.0.=.=.0.0.7.=.=.=.=.w.p.s.s.s.s.7.=.7.7.7.7.6.6.6.8.q.6.6.6."
};
