/* XPM */
static char *result[] = {
/* columns rows colors chars-per-pixel */
"48 48 186 2 ",
"   c #161C2E",
".  c #232135",
"X  c #2A2439",
"o  c #2B2B38",
"O  c #242E36",
"+  c #302534",
"@  c #3C2A37",
"#  c #34283E",
"$  c #263236",
"%  c #2E3E3B",
"&  c #2B3533",
"*  c #35343C",
"=  c #40353D",
"-  c #54323D",
";  c #364236",
":  c #3A423A",
">  c #46553A",
",  c #4B5B3B",
"<  c #54583E",
"1  c #404339",
"2  c #372940",
"3  c #393C42",
"4  c #483049",
"5  c #443E44",
"6  c #553550",
"7  c #5C3854",
"8  c #763E45",
"9  c #743F4E",
"0  c #693D5B",
"q  c #6A3B48",
"w  c #3B4748",
"e  c #3F5644",
"r  c #444142",
"t  c #4A4246",
"y  c #4A4B4C",
"u  c #5C4548",
"i  c #564648",
"p  c #5A524D",
"a  c #5A5B44",
"s  c #455B43",
"d  c #7C4047",
"f  c #79425A",
"g  c #635553",
"h  c #625950",
"j  c #695955",
"k  c #7F5A54",
"l  c #4F6D4C",
"z  c #556C48",
"x  c #52704C",
"c  c #5C7649",
"v  c #4E6C5F",
"b  c #547553",
"n  c #5A7C52",
"m  c #51705C",
"M  c #667A41",
"N  c #607F4F",
"B  c #6A764A",
"V  c #777748",
"C  c #767B47",
"Z  c #676157",
"A  c #6C6358",
"S  c #78645C",
"D  c #726358",
"F  c #697250",
"G  c #6C6C60",
"H  c #6F706D",
"J  c #94494D",
"K  c #884759",
"L  c #8A4859",
"P  c #974B57",
"I  c #865858",
"U  c #965A56",
"Y  c #A44F56",
"T  c #AA5156",
"R  c #B65555",
"E  c #9B6A5F",
"W  c #A7645C",
"Q  c #BB655E",
"!  c #826C61",
"~  c #897861",
"^  c #907E64",
"/  c #977B6B",
"(  c #BD6C60",
")  c #BF7164",
"_  c #A97364",
"`  c #C07265",
"'  c #C27B67",
"]  c #C27969",
"[  c #6B8445",
"{  c #68834A",
"}  c #6E8D4F",
"|  c #63814C",
" . c #728844",
".. c #77854A",
"X. c #7B9346",
"o. c #648855",
"O. c #729D5F",
"+. c #7A8D53",
"@. c #6F976F",
"#. c #6E9A6E",
"$. c #7C9B6F",
"%. c #75996A",
"&. c #679175",
"*. c #6B9671",
"=. c #79A863",
"-. c #73A069",
";. c #7CA165",
":. c #83884B",
">. c #8A884D",
",. c #849749",
"<. c #959752",
"1. c #858F59",
"2. c #86A049",
"3. c #8AA54A",
"4. c #9BB94E",
"5. c #85AE5C",
"6. c #89AD5B",
"7. c #8EB256",
"8. c #94B552",
"9. c #9BB45A",
"0. c #97AA4F",
"q. c #A2B950",
"w. c #A9B953",
"e. c #A3B35D",
"r. c #AEB65D",
"t. c #B1BA56",
"y. c #B1B35F",
"u. c #B6BA58",
"i. c #BFBA5B",
"p. c #ADAE5C",
"a. c #97957A",
"s. c #989279",
"d. c #95896B",
"f. c #A7906F",
"g. c #A88F70",
"h. c #A68971",
"j. c #A99377",
"k. c #B09275",
"l. c #B69D75",
"z. c #BC9E79",
"x. c #84AB62",
"c. c #87A06C",
"v. c #8AA863",
"b. c #95AF60",
"n. c #9CAA65",
"m. c #AAB061",
"M. c #B0A27D",
"N. c #B0B861",
"B. c #C5836E",
"V. c #C98F71",
"C. c #C9AA7E",
"Z. c #D1B67D",
"A. c #C8B86B",
"S. c #737782",
"D. c #9B9893",
"F. c #A19C96",
"G. c #B7AB91",
"H. c #A2A4AB",
"J. c #B1ADB5",
"K. c #D5B583",
"L. c #D9BD8A",
"P. c #CEBF95",
"I. c #DDBE93",
"U. c #D7AC89",
"Y. c #DBC08D",
"T. c #DFC793",
"R. c #DFC993",
"E. c #CBC698",
"W. c #E5CF9B",
"Q. c #E4D39D",
"!. c #E9D6A1",
"~. c #E9DAA9",
"^. c #E5D2B3",
"/. c #EADBB8",
"(. c #EFE2AB",
"). c #EFE1B9",
"_. c #F3E8BE",
"`. c #F2E6B8",
"'. c #CABBC0",
"]. c #EEE1CD",
"[. c #F5EDCB",
"{. c #F9F4DD",
"}. c #F0E4D2",
"|. c #FAF7E6",
" X c white",
".X c #FCFAF2",
/* pixels */
"4.9.x.=.m.i.i.t.w.4.4.4.t.i.n.y.i.i.w.u.i.i.w.w.i.m.=.=.e.t.4.4.4.9.x.=.m.u.i.u.w.4.4.4.t.i.n.y.",
"=.=.=.=.=.4.4.4.4.4.w.i.w.u.i.i.t.q.4.4.i.w.8.=.=.=.=.=.4.4.4.7.=.=.=.=.x.4.4.4.4.4.w.i.w.u.i.i.",
"=.5.4.7.=.5.8.4.4.q.w.q.4.4.w.q.4.4.4.4.4.7.5.;.=.=.=.=.=.=.6.=.=.5.4.7.=.=.8.4.4.q.w.q.4.4.w.4.",
"5.7.4.4.4.4.4.4.4.4.7.5.4.4.4.4.4.4.8.7.=.=.=.8.4.=.5.7.=.=.=.5.5.7.4.4.4.4.4.4.4.4.7.5.4.4.4.4.",
"4.7.4.4.4.4.7.5.4.7.=.=.7.4.4.4.4.4.w.q.4.8.7.4.4.8.4.4.4.7.7.4.4.7.4.4.4.4.7.5.4.8.=.=.7.4.4.4.",
"4.4.4.4.4.7.=.=.=.=.=.=.=.5., ,           ; <.i.t.4.4.4.4.5.5.4.4.4.4.4.4.7.=.=.=.=.=.=.=.5.4.4.",
"5.=.=.5.5.=.=.=.=.=.=.=.c 8 d i _ ) B.B.B.8 @ % =.5.=.=.=.=.=.=.5.=.=.6.6.=.=.=.=.=.=.=.=.=.=.7.",
"=.=.=.*.&.*.7.7.7.7.*.l   - ' B.) ( B.B.B.B.B.3 ; 7.7.=.=.=.=.=.=.=.=.*.&.*.7.8.7.7.#.#.=.5.4.4.",
"-.&.#.&.&.&.&.&.#.@.n.O   P Q B.B.B.` ` I u E ] @ % =.=.=.=.=.=.%.&.*.&.&.&.&.&.%.@.n.$.&.6.4.u.",
"&.c.y.i.m.&.y.i.m.y.i.  d R ) B.B.B.B.B.B.E 3 k Q @ ; 7.=.=.=.=.&.c.y.i.m.&.y.i.m.y.i.i.n.n.t.q.",
"c.i.i.i.i.y.i.i.i.i.i.X T R R ) u       u E ) I Y R @ X.8.e.e.n.c.i.i.i.i.y.i.i.i.i.i.i.i.i.q.t.",
"i.i.i.w.u.i.i.w.i.i.w.  K R d   4 0 0         8 R   R ; w.q.q.i.i.i.i.w.t.i.i.w.i.i.w.i.i.i.Z.A.",
"4.u.w.4.4.t.4.4.4.q.4.2 f R 9 4 0 0 0 2       d q 2 8   , 4.4.4.4.u.w.4.4.t.4.4.4.q.4.t.u.Z.K.A.",
"4.4.4.4.4.q.4.4.4.4.4.  P R Y f 0 0 0 . 4 g t 4 .   . ~ r   X.4.4.4.4.4.4.4.4.4.4.4.4.q.Z.^.F.C ",
"q.4.4.4.4.7.5.4.4.4.4.; X 0 f f 0 0 .   G.}.'.J.H.H.H. X}.3   <.q.4.4.4.4.8.5.4.4.4.4.f.^. XH M ",
"i.i.x.=.6.5.5.5.4.4.4.5.; X 2 2       g   5 _.[.).^.^.W.G.d.r 1 i.i.5.=.5.5.5.=.4.4.a D. X|.G M ",
"7.7.8.8.7.4.4.7.4.4.=.=.=.x x x M     / l.!.~.~.(.[.{.{._.L.K.  7.7.8.8.7.4.4.7.8.N.f.|. X~.G c ",
";.7.=.5.7.5.=.=.8.8.=.5.7.=.=.5.c   g / K.K.(.[.[.[.|. X X[.!.g x 7.=.5.7.6.=.=.8.a ].{.^.T.G c ",
"n.*.=.=.=.=.=.=.=.=.=.4.4.4.4.4.,   / / K.K.(.~.(.(.(.{.  L.(.W.  *.=.=.=.=.=.=.b    X~.K.R.3 2.",
"i.m.y.r.=.4.7.4.7.=.$   } 5.4.4.&   S k.K.K.K.~.(.(.[.{.  ~ /.).  F y.y.=.4.7.4.& a._.L.K.Z > 4.",
"4.u.i.i.i.t.4.4.4.=.  g.  +.e.y.  g / l.K.K.K.L.W.~. X X    K.(.~ C i.i.i.t.4.M   (.Q.K.K.  <.u.",
"4.4.4.4.w.q.4.4.8.4.  r K.r 1 ..  g / K.K.K.K.K.W.(.[.{.    g.^.H ; 4.4.w.q.4.& a.(.K.K.p > w.q.",
"=.=.6.=.=.=.4.4.4.4.    r K.1     g / C.K.K.K.K.W.(.[.J.    1 A 3   6.=.=.=.[   (.w Z.K.  2.4.w.",
"5.7.7.9.i.r.4.4.4.4.  R 8 W g j g     S z.K.d.y                 s.  } 9.i.t.& E.E.p K.* < t.i.i.",
"w.u.u.u.i.i.w.4.4.4.  R R R W M.K.K.~ r r h f.!.(.s.s.F.      K.`.y C < i.< p (.t z.~   4.q.u.q.",
"b.9.b.b.=.v.i.i.u.t.  R R R V.f.r   G M.(.G   K.W.(._. XS.  ~ /.[.G   k   & l.A A K.* c 8.4.4.4.",
"5.8.8.=.=.=.=.=.=.=.  R Q Q V.K.K.K.~   ~ h   K.Z.(.(.(.S.  K.[.Q.Z - U - p Z.  g.^   =.=.=.=.5.",
"4.4.4.4.8.=.5.8.5.=.  R R Q I.(.L.K.K.h a.h   K.K.W.(._.H p W.(.(.  ) @ + M.h 5 h.* x =.=.=.5.8.",
"4.4.u.i.q.=.4.4.4.8.  R R Q B.Q.R.K.K.h ~ h   K.K.W.(.(..X X(.(.j   ] Q   h   ! j   X.7.4.4.4.4.",
"v.t.i.i.i.m.4.4.4.4.  V.R R ( Q.!.R.K.k.~ h     h W.(.(.{._.W.^ # X @ R J @   t o X   ,.t.i.i.w.",
"i.i.i.i.i.i.t.4.4.i.  K.K.U.) K.K.K.K.k.g.h         S R.(.(.D.@ 0 4     J P 6 X   6 Y   i.i.w.6.",
"u.i.i.b.i.i.i.t.q.8.  K.T.(.R.B.K.K.K.k.z.h   6 X       y *   7 L . 5 / * X 6 0 .     > 4.4.4.&.",
"4.9.v.=.e.i.i.u.w.4.  K.K.W.(.) Q ' Z.h V.h   R f 0 4       7 P f   p j.K.1   X 6 4   4.t.i.n.m.",
"=.=.=.=.=.4.4.4.4.4., f.K.K.R.) ) ) R u D h   R R Y f 0 4 7 K Y .   g z.K.K.p       C i.w.u.i.i.",
"=.x.4.7.=.x.8.4.4.q.w.w K.K.K.) Q R R - h p   Y R R R Y P T Y .       S C.K.* > 4.q.w.q.4.4.w.q.",
"5.7.4.4.4.4.4.4.4.4.8.; r K.K.) R R R 6 ! o o 0 K K K K K q .   e   4         2.4.4.7.6.4.4.4.4.",
"4.5.4.4.4.4.8.5.4.7.=.=.}   f.K.R R + i                     > 4.4.  X . 4.4.7.5.4.7.=.=.7.4.4.4.",
"4.4.4.4.4.8.=.=.=.=.=.=.=.}   f.R + *             ;  .O     x X.X.X.M M 4.7.=.=.=.=.=.=.5.5.4.4.",
"5.=.=.5.5.=.=.=.=.=.=.=.=.=.o.  + g o V   1 a &   x s     ; o.n | n %.5.5.=.=.=.=.=.=.=.=.=.=.5.",
"=.=.=.*.&.*.7.7.7.7.#.#.=.5.4.X.    V >.V  .[  . .{ z s : s l b n n n #.&.#.7.7.7.7.#.#.=.5.4.4.",
"-.&.*.&.&.&.&.*.-.*.n.$.&.5.4.i.B V >.>.:. . . .[ n n n n n n n m v m &.&.&.&.&.%.*.n.$.&.6.4.i.",
"&.c.y.i.m.&.y.i.m.y.i.i.n.n.t.q.0. .:.>.:... . . . .[ { o.n n n v F r.i.m.&.y.i.m.y.i.i.n.n.t.q.",
"c.i.i.i.i.y.i.i.i.i.i.i.i.i.w.t.q.4.3.,.>.:... . . ... .{ ....1.%.i.i.i.i.y.i.i.i.i.i.i.i.i.q.t.",
"i.i.i.w.u.i.i.w.i.i.w.i.i.i.i.i.i.4.w.q.4.4.3.3.3.3.3.3.0.q.q.i.i.i.i.w.u.i.i.w.i.i.w.i.i.i.i.i.",
"4.u.w.4.4.t.4.4.4.q.4.t.i.i.i.i.i.t.i.i.u.t.t.t.t.4.4.4.4.4.4.4.q.t.w.4.4.t.4.4.4.q.4.t.i.i.i.i.",
"4.4.4.4.4.q.4.4.4.4.4.q.w.w.4.q.w.w.w.w.4.7.5.5.8.4.4.4.4.4.4.4.4.4.4.4.4.q.4.4.4.4.4.q.w.w.4.q.",
"q.4.4.4.4.7.5.4.4.4.4.4.4.4.4.4.4.4.4.7.=.=.=.=.=.=.=.5.4.w.u.i.q.4.4.4.4.7.5.4.4.4.4.4.4.4.4.4.",
"i.i.x.=.5.5.x.5.4.4.4.5.8.4.4.4.4.4.5.=.=.8.7.5.=.=.=.=.b.y.i.i.i.i.x.;.5.5.5.5.4.4.q.5.8.4.4.4."
};
