/* XPM */
static char *result[] = {
/* columns rows colors chars-per-pixel */
"48 48 209 2 ",
"   c #161C2E",
".  c #191E2F",
"X  c #1C1F31",
"o  c #1A212F",
"O  c #1D2332",
"+  c #242335",
"@  c #262C34",
"#  c #2A2439",
"$  c #2B2836",
"%  c #322634",
"&  c #362937",
"*  c #36293A",
"=  c #2C3434",
"-  c #2A3338",
";  c #353C36",
":  c #33333B",
">  c #39363B",
",  c #46393E",
"<  c #59343E",
"1  c #482E3D",
"2  c #39483B",
"3  c #414E38",
"4  c #47493C",
"5  c #48573A",
"6  c #57683D",
"7  c #3C2B43",
"8  c #3B3C42",
"9  c #442F47",
"0  c #413C43",
"q  c #4B314B",
"w  c #583647",
"e  c #553551",
"r  c #693A47",
"t  c #753E49",
"y  c #693D5B",
"u  c #643B55",
"i  c #703F58",
"p  c #364A48",
"a  c #3D5243",
"s  c #3E4352",
"d  c #444143",
"f  c #4E4947",
"g  c #4B494B",
"h  c #534D49",
"j  c #584548",
"k  c #415945",
"l  c #5A524D",
"z  c #575644",
"x  c #595552",
"c  c #474B57",
"v  c #69494A",
"b  c #7C414A",
"n  c #7B4259",
"m  c #665953",
"M  c #496348",
"N  c #566A45",
"B  c #5B7C52",
"V  c #517054",
"C  c #646543",
"Z  c #647B46",
"A  c #7C7D49",
"S  c #6C6054",
"D  c #7B6D5B",
"F  c #75685A",
"G  c #757857",
"H  c #667758",
"J  c #575862",
"K  c #586A69",
"L  c #797363",
"P  c #9B4C4F",
"I  c #874656",
"U  c #855753",
"Y  c #9B5257",
"T  c #924950",
"R  c #A24F54",
"E  c #A55156",
"W  c #AD5557",
"Q  c #B55555",
"!  c #B85C59",
"~  c #B75B58",
"^  c #946059",
"/  c #A4655D",
"(  c #BB645D",
")  c #B4645D",
"_  c #846E62",
"`  c #8A7762",
"'  c #967A6B",
"]  c #937D67",
"[  c #BE6C62",
"{  c #B76A60",
"}  c #B87464",
"|  c #AC7163",
" . c #C07565",
".. c #C27969",
"X. c #C17768",
"o. c #5D8154",
"O. c #69854A",
"+. c #728844",
"@. c #7A8847",
"#. c #77874C",
"$. c #7C9548",
"%. c #6B945C",
"&. c #759A57",
"*. c #779C56",
"=. c #7CA45B",
"-. c #6F976F",
";. c #6E9A6E",
":. c #7C9B6F",
">. c #739B6C",
",. c #679175",
"<. c #6A9672",
"1. c #75A365",
"2. c #7AA464",
"3. c #79A863",
"4. c #82884A",
"5. c #8C8A4D",
"6. c #84824B",
"7. c #809B4A",
"8. c #8D924D",
"9. c #9B9952",
"0. c #8F994F",
"q. c #8AA44A",
"w. c #8BA74C",
"e. c #9BB94E",
"r. c #96B34D",
"t. c #85AE5C",
"y. c #84A857",
"u. c #99A751",
"i. c #8DB256",
"p. c #94B553",
"a. c #9AB35B",
"s. c #92AE4C",
"d. c #AAA955",
"f. c #A3B951",
"g. c #A9B953",
"h. c #A3B45C",
"j. c #A9B557",
"k. c #B1BA56",
"l. c #B3B35D",
"z. c #B6BA58",
"x. c #BFBA5B",
"c. c #BAB65A",
"v. c #88846E",
"b. c #99826A",
"n. c #958167",
"m. c #898571",
"M. c #918B74",
"N. c #A28D6D",
"B. c #AE9572",
"V. c #B19574",
"C. c #B69977",
"Z. c #BA9E78",
"A. c #BF806C",
"S. c #80A761",
"D. c #8AAC61",
"F. c #88A369",
"G. c #95AF60",
"H. c #9CAA65",
"J. c #90AD68",
"K. c #AAB061",
"L. c #BDA279",
"P. c #B6B767",
"I. c #C4826E",
"U. c #C98B73",
"Y. c #CB9775",
"T. c #CCAD7F",
"R. c #C3A77B",
"E. c #D2AC7F",
"W. c #C6B86D",
"Q. c #95938E",
"!. c #BCA983",
"~. c #BBB38C",
"^. c #B1A893",
"/. c #BDBDBC",
"(. c #BCB3A7",
"). c #C6AC81",
"_. c #CFB285",
"`. c #D5B583",
"'. c #D9BC8B",
"]. c #D8B888",
"[. c #C5BC95",
"{. c #DABF93",
"}. c #DCC28E",
"|. c #DDC491",
" X c #D6C797",
".X c #D2C99B",
"XX c #E1CA96",
"oX c #E4CE9A",
"OX c #E4D29D",
"+X c #D2C9AC",
"@X c #EADBA5",
"#X c #E8D6A5",
"$X c #E6D5B4",
"%X c #EEE1AB",
"&X c #F0E2AE",
"*X c #EFE5B4",
"=X c #F1E4B4",
"-X c #F2E7BD",
";X c #E8DBCA",
":X c #F4EAC4",
">X c #F5EED3",
",X c #F7F1D6",
"<X c #F8F2DC",
"1X c #EFE8CF",
"2X c #DFE0E3",
"3X c #E6E4E4",
"4X c #F9F6EC",
"5X c #FFFEFC",
"6X c #FBF9F0",
/* pixels */
"K.H.x.k.e.e.e.g.z.x.x.a.3.D.h.e.e.e.k.a.3.3.l.z.g.g.x.6.4 * < & G H.x.k.e.e.e.g.k.x.x.a.3.D.a.e.",
"x.x.k.g.x.f.e.e.e.e.e.3.3.3.3.3.p.e.e.p.3.3.3.3.3.Z ; > v v ) & . ; u.g.x.f.e.e.e.e.e.3.3.3.3.3.",
"f.g.e.e.f.g.f.e.e.p.3.3.i.e.S.3.3.t.3.3.3.3.2.%., v | { ..I.( W t % = q.g.g.f.e.e.p.=.3.i.e.S.3.",
"e.e.e.e.t.p.e.e.e.e.e.e.e.e.t.t.t.3.3.3.i.=.&.4 } A.I...[ I.I.[ Q I X = *.e.e.e.e.e.e.e.e.e.i.t.",
"e.e.e.t.3.3.p.e.t.p.e.e.e.e.t.e.e.i.i.e.e.w.> E I.I.( ..I.I.I.( Q Q T   M 3.p.e.t.p.e.e.e.e.i.e.",
"e.e.t.3.3.3.3.3.3.3.p.e.e.e.e.e.e.t.t.e.e.6 0 I.I.^ ..I.I.j j < Q Q I 7 p 3.3.3.3.3.p.e.e.e.e.e.",
"t.3.3.3.3.3.3.3.3.3.3.t.t.3.3.t.3.3.3.3.3.2 / ..w | I.U X . + O # P E w 2 3.3.3.3.3.3.t.t.3.3.t.",
"e.e.S.3.;.;.i.i.i.i.<.,.;.3.3.3.3.3.3.3.%.% X.j U I.U X   * y y i E E q p ;.i.i.i.i.<.,.<.3.3.3.",
"z.e.S.<.F.H.>.<.,.,.,.,.,.<.,.1.3.3.3.3.%.* Y 9 ^ ~ + .   u y y I R i + G H.>.<.,.,.,.,.,.<.,.1.",
"f.z.H.H.x.x.K.l.x.K.,.l.x.K.:.,.3.3.3.t.=.* I t b b . C C + 9 e e q + 4 l.x.d.l.x.K.,.l.x.K.:.,.",
"k.k.x.x.x.W.x.x.x.x.K.x.x.x.x.:.H.h.h.e.e.5 1 t w t   9.e.6 @     > 6 l.x.x.x.x.x.x.K.x.x.x.x.:.",
"x.x.x.x.x.`.W.x.g.x.x.k.g.x.x.x.x.f.f.f.Z = X u + w   > ; 6 $.9.9.l.x.x.x.g.x.x.g.x.x.z.g.x.x.x.",
"x.x.x.x.g.L.{.P.e.e.z.e.e.z.z.e.e.e.r.2 J ^.Q.X X 7 7 v ] D @ d.x.x.x.x.g.e.g.e.e.e.z.e.e.k.k.e.",
"f.e.g.g.f.- 6X{.P.e.f.e.e.e.e.e.e.e.6   8 +X;X2X2X2X3X;X(.x   - s.e.g.g.e.e.e.e.e.e.f.e.e.e.e.e.",
"e.e.e.e.e.O 4X6X!.N p.e.e.e.e.g.x.z.+ N. X#X@X#X$X$X=X%Xm.x _   5 e.e.e.e.e.e.e.e.t.p.e.e.e.e.g.",
"e.e.e.i.t.O *X5X3Xm D.t.3.D.x.x.x.5.l }.$X4X5X5X<X,X&X%XXXV.' $ - e.e.i.i.e.e.e.S.t.S.t.3.D.x.x.",
"3.3.i.3.3.O %X$X6X#XP.t.e.p.i.i.g.; !.@X+XQ.,X-X&X&X%X%X].`.' S   O.t.3.3.=.e.p.i.e.e.i.p.p.i.i.",
"t.3.3.i.=.O |.|.>X4Xc $.3.S.p.2.Z X @XOXD s :X%X%X%XOXXX`.`.' `   B 3.i.t.3.p.i.3.3.t.i.3.t.p.2.",
"e.e.e.e.e.a h }.'.>XQ.2 3.3.,.H.p + :X_.@ c 5X,X%X@XXX].`.`.V.F ; = e.$.5 V 3.3.3.3.3.3.3.3.<.H.",
"e.e.t.t.i.3.+ B.`.OX.X8 9.K.l.x.z ^.$XC.  g ,X:X@X'.`.`.`.`.V.' s = +.@ h o %.p.e.i.e.3.l.K.l.x.",
"P.h.h.h.D.3.k f `.].@Xm.5 x.k.e.+ v.L.f   s 4X$X%X'.`._.`.`._.' ,   0 N.h . %.e.e.e.k.x.x.x.k.e.",
"f.g.g.g.g.f.i.@ B.`.M..X: 7.e.w.o           c x l g g S `.V.' q @ , L.h + X 7.r.e.e.f.f.e.e.e.e.",
"k.e.e.e.e.e.e.6 h ].z ~.m.2 =.k   ~.s     X     @ g !.'.`.Z.j @ h R.l < P % q.e.e.e.3.3.3.t.3.3.",
"x.z.k.f.e.e.e.w.= B.b.L .X- #.N L *X_.-   K +X(..X@X}.L.m + h ] ' m P Q Q % q.e.e.e.z.x.a.i.i.t.",
"f.k.e.e.e.e.e.e.6 h _.l ~.D 6 5 M.:X;XD   /.,X&X@XD x L ` !.] ] V.) Q Q Q % q.e.e.k.x.x.z.c.k.f.",
"e.e.e.i.i.k.k.z.d.= V.] d L.> . l @X=X).  /.=X%X|.: G ~.x p m n._.X.( ! Q % u.c.x.x.S.3.G.G.G.G.",
"t.3.3.3.3.3.3.3.3.M h L.- ] F < X [.&XoXQ.+X&X%X}.: S D d L.`.}.XXI. .Q Q % %.3.3.3.3.3.3.p.p.t.",
"i.t.3.3.3.3.3.t.t.&.- _ m 8 R.$   l XX@X,X>X&X@X}.: S L D `.`.OX@XU.~ Q Q % %.t.i.t.3.p.e.e.e.e.",
"e.e.e.e.i.e.p.e.e.6 o d ] @ + X   % l %X-X:X%X.Xh o S F b.`.|.OX'...Q Q ) * 7.e.e.e.3.g.x.z.e.e.",
"k.x.x.k.k.h.e.e.C < w $   # u w   e * x [.M.h O   o S F V.`.}.}.'.Q ( Y.`.8 q.e.e.p.l.x.x.x.g.J.",
"i.g.x.x.x.x.x.e.3 & # + e y r % 9 I i #       # 9 O S V.L.E.E.E.T.'.@X`.`.> d.e.e.z.x.x.x.x.x.x.",
",.e.e.e.e.e.e.g.d.: 7 q q + X ` X u Q y # + e y n $ S L.b.E.T.I.[ %X|.].B.O q.g.g.x.x.x.G.x.x.z.",
"K.H.x.k.e.e.e.g.z.#.X #   8 V.`.f + n E y y n R Q # m ` U } ( ..U.@X}.E.` 2 r.g.z.x.x.G.3.D.h.e.",
"x.x.k.g.x.f.e.e.e.i.+.B - l T.`.b.  & I E R Q Q Q % m l r Q (  .[ E.'.W.: +.e.e.e.e.e.=.3.3.3.3.",
"f.g.e.e.f.g.e.e.e.i.t.2.+.o d 0 >     $ I R R E E % 0 m t Q Q Q Y.`.T.h 5 f.f.e.e.p.=.3.i.e.t.3.",
"e.e.e.e.i.p.e.e.e.e.e.e.e.7.2 2 o #     X # # # # +   h j R Q ~ E.T.h 5 =.p.e.e.e.e.e.e.e.e.t.t.",
"e.e.e.t.3.3.p.e.t.p.e.e.e.e.i.e.= O o o 2 3 3 2 3 O     0 + R ! T.h 5 =.3.3.i.e.t.p.e.e.e.e.i.e.",
"e.e.t.3.3.3.3.3.3.3.p.e.e.e.e.e.+.o o 5 s.e.e.g.5.X       j > P f 3 t.3.3.3.3.3.3.3.p.e.e.e.e.e.",
"S.3.3.3.3.3.3.3.3.3.3.t.t.3.3.t.a o M =.=.&.&.%.B O .     + : O 2 =.3.3.3.3.3.3.3.3.3.t.t.3.3.t.",
"e.e.t.3.;.;.i.i.i.i.<.,.;.3.3.a o o o.o.o.O.O.+.O.6 3 C A A   2 e.e.=.3.;.;.i.i.i.i.<.,.<.3.3.3.",
"z.e.S.,.F.H.>.-.,.,.,.,.,.<.,.V @ a B B B B B O.+.+.+.4.5.4.` 5.5.r.S.,.F.H.1.;.,.,.,.,.,.<.,.1.",
"f.z.H.H.x.x.K.l.x.K.,.l.x.K.:.K B B B o.O.O.+.+.+.@.@.4.5.@.+.+.@.8.H.H.P.x.K.l.x.K.,.l.x.K.:.,.",
"k.k.x.x.x.x.x.x.x.x.K.x.x.x.x.B G #.#.+.+.+.+.+.@.@.4.5.+.+.+.@.4.8.x.x.x.x.x.x.x.x.K.x.x.x.x.:.",
"x.x.x.x.x.g.x.x.f.x.x.k.j.x.x.l.8.+.#.@.+.+.+.+.+.+.+.+.@.+.+.5.8.c.x.x.x.g.x.x.g.x.x.k.g.x.x.x.",
"x.x.x.x.g.e.f.e.e.e.z.e.e.k.k.e.e.s.$.+.+.+.+.4.@.4.4.4.5.8.9.d.x.x.x.x.g.e.f.e.e.e.z.e.e.k.k.e.",
"f.e.g.g.f.e.e.e.e.e.f.e.e.e.e.e.e.e.e.e.e.q.q.=.*.*.7.q.j.g.g.g.f.e.g.g.f.e.e.e.e.e.f.e.e.e.e.e.",
"e.e.e.e.e.e.e.e.e.t.p.e.e.e.e.g.x.z.f.e.=.3.=.3.3.3.=.t.p.e.e.e.e.e.e.e.e.e.e.e.e.i.p.e.e.e.e.g.",
"e.e.e.p.t.e.e.e.3.t.t.t.3.D.x.x.x.z.K.a.3.3.3.3.t.i.i.3.3.t.e.e.e.e.e.i.t.e.e.e.3.t.S.t.3.D.x.x."
};
