/* XPM */
static char *result[] = {
/* columns rows colors chars-per-pixel */
"48 48 184 2 ",
"   c #161C2E",
".  c #232135",
"X  c #2A2439",
"o  c #2B2B38",
"O  c #302534",
"+  c #3C2A37",
"@  c #34283E",
"#  c #2E3E3B",
"$  c #2A3534",
"%  c #35343C",
"&  c #54323D",
"*  c #42313E",
"=  c #364236",
"-  c #3F4239",
";  c #31423C",
":  c #49593B",
">  c #53573E",
",  c #372940",
"<  c #393C42",
"1  c #493049",
"2  c #443E44",
"3  c #553550",
"4  c #63394B",
"5  c #763E45",
"6  c #733F4E",
"7  c #693D5B",
"8  c #6E3D52",
"9  c #3A4948",
"0  c #3E5443",
"q  c #444142",
"w  c #4A4246",
"e  c #4A4C4C",
"r  c #5D4649",
"t  c #435740",
"y  c #4C5544",
"u  c #5A5648",
"i  c #575351",
"p  c #7C4047",
"a  c #7A494B",
"s  c #75415A",
"d  c #7B435A",
"f  c #625950",
"g  c #645653",
"h  c #7F5A54",
"j  c #674E57",
"k  c #51704E",
"l  c #5E7747",
"z  c #4B675C",
"x  c #567750",
"c  c #5A7C52",
"v  c #5B7F5D",
"b  c #667A41",
"n  c #617E4D",
"m  c #7B7B49",
"M  c #64645A",
"N  c #79675C",
"B  c #6C7651",
"V  c #4E5260",
"C  c #6D6C60",
"Z  c #717274",
"A  c #804C4D",
"S  c #984A4E",
"D  c #854659",
"F  c #884759",
"G  c #974B57",
"H  c #9A4C57",
"J  c #905955",
"K  c #A44F56",
"L  c #AA5156",
"P  c #B65555",
"I  c #9B6A5F",
"U  c #81705F",
"Y  c #BB645D",
"T  c #826C61",
"R  c #897861",
"E  c #907E64",
"W  c #977B6B",
"Q  c #BD6C60",
"!  c #BF7164",
"~  c #C27A67",
"^  c #C17968",
"/  c #C07265",
"(  c #6B8445",
")  c #68834A",
"_  c #728844",
"`  c #7A8847",
"'  c #7B8848",
"]  c #77824B",
"[  c #7B9346",
"{  c #668956",
"}  c #6C9157",
"|  c #799C55",
" . c #6F976F",
".. c #6E9A6E",
"X. c #7C9B6F",
"o. c #739B6C",
"O. c #679175",
"+. c #6B9671",
"@. c #79A863",
"#. c #73A069",
"$. c #7CA165",
"%. c #82884A",
"&. c #8A884D",
"*. c #82814B",
"=. c #87964B",
"-. c #969450",
";. c #8AA54A",
":. c #84A14C",
">. c #9BB94E",
",. c #85AE5C",
"<. c #89AD5B",
"1. c #8EB256",
"2. c #94B552",
"3. c #9DB459",
"4. c #A7A455",
"5. c #A3B951",
"6. c #A9B953",
"7. c #A3B35D",
"8. c #AEB65D",
"9. c #B1BA56",
"0. c #B1B35F",
"q. c #B6BA58",
"w. c #BFBA5B",
"e. c #B2AE58",
"r. c #948A74",
"t. c #989279",
"y. c #97957A",
"u. c #96866B",
"i. c #A7906F",
"p. c #A88F70",
"a. c #A68971",
"s. c #A19B7E",
"d. c #AC9A77",
"f. c #B09275",
"g. c #BC9E79",
"h. c #B69D75",
"j. c #84AB62",
"k. c #87A06C",
"l. c #8AA863",
"z. c #95AF60",
"x. c #9CAA65",
"c. c #AAB061",
"v. c #B1A47F",
"b. c #B0B076",
"n. c #C5836E",
"m. c #C98F71",
"M. c #CF9C7B",
"N. c #CCB67B",
"B. c #D1B67D",
"V. c #737782",
"C. c #999188",
"Z. c #9E9D97",
"A. c #BBB28D",
"S. c #B8AEA0",
"D. c #A2A4AB",
"F. c #D5B583",
"G. c #D9BD8A",
"H. c #D5AB85",
"J. c #C1BDB2",
"K. c #DBC18D",
"L. c #DEC693",
"P. c #DFC993",
"I. c #CBC698",
"U. c #E5CF9B",
"Y. c #E4D29C",
"T. c #DFC7A1",
"R. c #E9D6A1",
"E. c #EADAAA",
"W. c #E5D1B1",
"Q. c #EFE2AB",
"!. c #F2E6B8",
"~. c #F2E9BD",
"^. c #EDE4B9",
"/. c #D0C9C0",
"(. c #D5D5CA",
"). c #EFE1C7",
"_. c #F5EDCD",
"`. c #F4F0CD",
"'. c #F9F3DD",
"]. c #F0E4D2",
"[. c #FAF6EB",
"{. c white",
"}. c #FCFAF2",
"|. c #F5EDE1",
/* pixels */
">.3.j.@.c.w.w.9.6.>.>.>.9.w.x.y & 5 + - u w.6.6.w.8.@.@.3.q.>.>.>.3.j.@.7.w.w.9.6.>.>.>.9.w.x.0.",
"@.@.@.@.@.>.>.>.>.>.6.w.6.'     & Y h h <   : @.@.@.@.@.2.>.>.1.@.@.@.@.,.>.>.>.>.>.6.w.6.q.w.w.",
"@.,.>.1.@.@.2.>.>.5.6.5.(   & S P Y n.! Q ~ a + @.@.@.@.@.@.,.@.@.,.>.1.@.@.2.>.>.5.6.5.>.>.6.>.",
",.1.>.>.>.>.>.>.>.>.1.l   X K P ~ n.n.! ~ n.n.n.= ,.,.1.@.@.@.,.j.1.>.>.>.>.>.>.>.>.2.,.>.>.>.>.",
">.1.>.>.>.>.1.,.>.1.@.0   P P P ! n.n.n.~ Y n.n.p # >.>.>.1.1.>.>.1.>.>.>.>.2.,.>.1.@.@.1.>.>.>.",
">.>.>.>.>.2.@.@.@.@.@.0 3 H P P & r r n.n.^ J ~ n.  [ >.>.<.,.>.>.>.>.>.>.1.@.@.@.@.@.@.,.,.>.>.",
",.@.@.,.,.@.@.@.@.@.@.0 F L p           I n.^ * n.A k @.@.@.@.@.,.@.@.,.,.@.@.@.@.@.@.@.@.@.@.,.",
"@.@.@.+.O...1.1.1.1...9 d P H 7 7 7 X     J n.J I Y   @.@.@.@.@.@.@.@.+.O.+.1.1.1.1. ...@.,.>.>.",
"#.O...O.O.O.O.O.o. .x.y 1 F P s 7 7 7       P ^ J D   @.@.@.@.@.#.O. .O.O.O.O.O.o. .x.X.O.<.>.q.",
"O.k.0.w.c.O.0.w.c.0.w.-.  @ 7 7 7 1 . > :   s H K s . 1.@.@.@.@.O.k.0.w.c.O.0.w.c.0.w.w.x.x.q.5.",
"k.w.w.w.w.0.w.w.w.w.w.w.-.          : 5.e.  5 & S . b >.2.7.7.x.k.w.w.w.w.0.w.w.w.w.w.w.w.w.6.9.",
"w.w.w.6.q.w.w.6.w.w.6.w.w.w.w.w.w.b $   +   8   *     : 9.5.5.w.w.w.w.6.q.w.w.6.w.B.F.w.w.w.w.w.",
">.q.6.>.>.9.>.>.>.5.>.9.w.w.w.w.*.  p.g.j 1 ,     ].J.V = >.>.>.>.q.6.>.>.9.>.>.N.W.E 9.w.w.w.w.",
">.>.>.>.>.5.>.>.>.>.>.5.6.6.>.]     V S.|.{.{.{.{.W.r.    b >.>.>.>.>.>.>.5.>.N.W.{.  5.6.5.>.5.",
"5.>.>.>.>.1.1.>.>.>.>.>.>.>.>.$   W N y.Q.Q.Q.U.U.Q.Q.P.i.  q.w.5.>.>.>.>.1.$ W.{.`.  >.>.>.>.>.",
"w.w.j.@.<.,.@.,.>.>.>.,.2.>.>.  2 W g.K.Q.Q.'.'.{.{.}.E.K.q -.w.w.w.j.@.,.b.M {.{.Q.  <.2.>.>.>.",
"1.1.2.2.1.>.>.1.2.>.@.@.@.,.t   T W F.F.Q.Q.Q.Q.!._.Z E.!.d.: 4.1.1.2.2.1.F.^.{.L.Q.  @.@.,.@.j.",
"$.1.@.,.1.,.@.@.2.2.@.,.1.@.0   W W F.F.U.U.Q.E.Q._.  i.R.R.  { $.1.@.,.: C.`.].L.Y.  @.1.@.@.1.",
"x...@.@.@.@.@.@.@.@.x : >.>.  q T g.F.F.F.U.Q.Q.}.{.  2 U.^.  z x. .@.@.0 (.~.F.Y.% k >.>.>.>.>.",
"w.c.0.8.@.>.1.>.2.@.    = <.  g W g.F.F.F.F.F.R._._.    H.).t.m w.c.0.q.C Q.P.F.u.  @.,.<.,.>.>.",
">.q.w.w.w.9.>.>.>.@.  R U     f W F.F.F.F.F.F.Q.).{.    R U.C   >.q.w.> y.Y.F.F.% k @.1.7.7.7.q.",
">.>.>.>.6.>.>.>.2.3.    i.i.  % w a.f.F.f f f M Z <             >.>.>.  I.d.F.R   >.6.6.6.6.6.5.",
"@.@.,.@.@.@.>.>.>.>.  S   i.i.  % N F.F.U.t.                t.  k @.t M C R B.% b >.>.>.>.>.>.9.",
",.1.1.3.w.8.>.>.>.>.  P P 5 f.f.R R q f a.K.U.A.Z.D.V   i L.!.e b c   I.i F.u.: >.>.>.>.6.q.q.w.",
"6.q.q.q.w.w.6.>.>.>.  P P P ~ u.f f U.i.t.e q R.Q._.V.  f.[.^.M = > R s.v.F.  ;.>.>.>.>.>.5.q.5.",
"z.3.z.z.@.l.w.w.q.9.  P Y ! m.F.i.U   e v.M   K.Q._.V.  L.Q.R.%     F.% E f y w.q.9.9.,.2.>.>.>.",
",.2.2.@.@.@.@.@.@.@.  P P ! F.Y.K.F.F.9 u.f   F.Q.Q.J.W.Q.Q.C.  & R R   M.  } @.@.@.@.@.@.@.@.<.",
">.>.>.>.2.@.,.2.@.@.  P P Y M.Q.Y.F.F.f u.f   F.Q.Q._._.U.P.%     F.% f q = ,.1.,.@.@.@.@.@.,.1.",
">.>.q.w.5.@.>.>.>.>.  Y P P n.G.Y.K.F.E R f   2 Q.Q._.!.Q.% O         W w   [ >.>.2.>.1.>.>.>.>.",
"l.9.w.w.w.c.>.>.>.>.  F.m.P P U.K.G.F.f.R f       f A.s.* 2 1   5 4 X   1 4 + ' >.>.5.9.9.w.w.6.",
"w.N.w.w.w.w.9.>.>.w.  F.F.Q.M.F.F.F.F.f.g.f   1         , F d , + s 7 3 X @ O b >.w.w.w.w.w.6.<.",
"9.q.w.z.w.w.w.9.5.>.  i.K.P.Q.P ~ F.F.U g.f   d 7 1   @ 7 P 7   R   X 3 1 O > q.5.>.>.>.>.>.>.O.",
">.>.<.@.c.q.w.9.6.>.= R F.U.Q.n.^ Y ~ f a.f   P H 7 7 7 L s . i F.p.%   O   4.6.6.>.>.>.9.w.x.0.",
"@.@.@.@.,.>.>.>.>.>.=.R F.F.F.P ^ Y P & g f   P P K H L F O   p.F.F.f   k b >.>.>.>.6.w.6.q.w.w.",
"@.,.>.1.@.,.2.>.>.5.6.= i.F.F.~ P P P & g w   P P P P H O     q i f   b @.@.2.>.>.5.6.5.>.>.6.5.",
",.1.>.>.>.>.>.>.>.>.1.{   i.F.M.P P P r g   X @ , @ @       @       b >.>.>.>.>.>.>.2.,.>.>.>.>.",
">.<.>.>.>.>.1.,.>.1.@.@.1.= q F.P A   O       b b b b =       : >.1.>.>.>.>.1.,.>.1.@.@.1.>.>.>.",
">.>.>.>.>.2.@.@.@.@.@.@.,.,.= q 5 2 2         m q.>.>.>.b     [ >.>.>.>.>.1.@.@.@.@.@.@.,.,.>.>.",
",.@.@.,.,.@.@.@.@.@.@.@.@.@.@.;   %           x { } } @.@.0   k ,.@.@.,.,.@.@.@.@.@.@.@.@.@.@.,.",
"@.@.@.+.O.+.1.1.1.1.....@.,.>.>.$   &.&.b : l ( _ ) ) c c {     o @.@.+.O...1.1.1.1.....@.,.>.>.",
"#.O. .O.O.O.O.O.....x.X.O.<.;.&.&.&.&.&.` _ _ _ ) { c c c c ; # v O.+.O.O.O.O.O.o.+.x.X.O.<.>.q.",
"O.k.0.w.c.O.0.w.c.0.w.w.x.x.%._ _ _ %.&.&.` ` _ ( _ ) ) n c c c z k.0.w.c.O.0.w.c.0.w.w.x.x.q.5.",
"k.w.w.w.w.0.w.w.w.w.w.w.w.w.` %.` _ _ ` &.` ` ` _ _ _ _ ( ] ] { v w.w.w.w.0.w.w.w.w.w.w.w.w.6.9.",
"w.w.w.6.q.w.w.6.w.w.6.w.w.w.e.&.&._ ` ` _ _ _ _ _ _ _ _ %.' ` &.w.w.w.6.q.w.w.6.w.w.6.w.w.w.w.w.",
">.q.6.>.>.9.>.>.>.5.>.9.w.w.w.w.4.=.&.&.%.%.%.` ` _ _ _ _ [ ;.>.>.q.6.>.>.9.>.>.>.5.>.9.w.w.w.w.",
">.>.>.>.>.5.>.>.>.>.>.5.6.6.>.5.6.6.6.6.;.| | | :.;.;.>.>.>.>.>.>.>.>.>.>.5.>.>.>.>.>.5.6.6.>.5.",
"5.>.>.>.>.1.,.>.>.>.>.>.>.>.>.>.>.>.>.1.,.@.@.@.@.@.@.@.>.6.w.w.5.>.>.>.>.1.,.>.>.>.>.>.>.>.>.>.",
"w.w.j.@.,.,.,.,.>.>.>.,.2.>.>.>.>.>.,.@.@.1.1.,.@.@.@.@.z.8.w.w.w.w.j.$.,.,.,.,.>.>.>.<.2.>.>.>."
};
