/* XPM */
static char *_62d45c44cb941c39f6bff5361d5ec47[] = {
/* columns rows colors chars-per-pixel */
"48 48 215 2 ",
"   c #A3B951",
".  c #B3BA57",
"X  c #BBBA5A",
"o  c #BFBA5B",
"O  c #9BB94E",
"+  c #84A75F",
"@  c #789E68",
"#  c #6D9571",
"$  c #7B9A6F",
"%  c #B5B55E",
"&  c #ABB161",
"*  c #A2AC64",
"=  c #161C2E",
"-  c #679175",
";  c #94A865",
":  c #8FB057",
">  c #B7B85C",
",  c #98B458",
"<  c #95B552",
"1  c #8AAC5B",
"2  c #7EA364",
"3  c #849F6C",
"4  c #719672",
"5  c #98A867",
"6  c #AFBA55",
"7  c #A7B952",
"8  c #739A6C",
"9  c #8EA369",
"0  c #87854C",
"q  c #BDD763",
"w  c #747447",
"e  c #9DB555",
"r  c #AFB65D",
"t  c #3B463A",
"y  c #4C503D",
"u  c #ABB954",
"i  c #79A863",
"p  c #98B05F",
"a  c #B7BA58",
"s  c #9FB94F",
"d  c #81AA62",
"f  c #6C9F53",
"g  c #859951",
"h  c #90AE60",
"j  c #84AE5C",
"k  c #638957",
"l  c #343F35",
"z  c #90B355",
"x  c #212B34",
"c  c #43834B",
"v  c #93B553",
"b  c #7DAA61",
"n  c #81AC5E",
"m  c #2C3B3A",
"M  c #9CCC60",
"N  c #5AB659",
"B  c #70BD5B",
"V  c #97B750",
"C  c #297B5D",
"Z  c #86C55D",
"A  c #619B52",
"S  c #8CB157",
"D  c #252D31",
"F  c #7BC15C",
"G  c #587951",
"H  c #88B05A",
"J  c #363F36",
"K  c #50AF5D",
"L  c #276D56",
"P  c #2D4F3C",
"I  c #2C8863",
"U  c #2F966A",
"Y  c #24604F",
"T  c #55B25B",
"R  c #349A68",
"E  c #7D9647",
"W  c #A3B658",
"Q  c #383E38",
"!  c #1E424B",
"~  c #42A462",
"^  c #3DA164",
"/  c #399D66",
"(  c #439763",
")  c #A8B45E",
"_  c #89AC61",
"`  c #3B4D3D",
"'  c #27716F",
"]  c #4CAB5F",
"[  c #2A7D6D",
"{  c #2B816D",
"}  c #388868",
"|  c #3E9065",
" . c #425A45",
".. c #77A565",
"X. c #73A069",
"o. c #75A367",
"O. c #6D996F",
"+. c #232D32",
"@. c #256868",
"#. c #2E926B",
"$. c #2B866C",
"%. c #6B9671",
"&. c #699473",
"*. c #84AA5E",
"=. c #719E6B",
"-. c #6F9B6D",
";. c #1A2F3C",
":. c #8CA762",
">. c #235E61",
",. c #47A861",
"<. c #499F60",
"1. c #215559",
"2. c #182535",
"3. c #597059",
"4. c #52A554",
"5. c #358D68",
"6. c #4B4F3E",
"7. c #29796E",
"8. c #8CA84A",
"9. c #1C3844",
"0. c #28756E",
"q. c #379567",
"w. c #1F4B52",
"e. c #90974E",
"r. c #272D32",
"t. c #2D8E6B",
"y. c #28735E",
"u. c #607340",
"i. c #277067",
"p. c #778546",
"a. c #97B554",
"s. c #2C8A6C",
"d. c #2A485E",
"f. c #292D33",
"g. c #2C6262",
"h. c #425039",
"j. c #2D7365",
"k. c #1A2639",
"l. c #668A56",
"z. c #215351",
"x. c #1E4542",
"c. c #94AB63",
"v. c #93B058",
"b. c #202A35",
"n. c #182133",
"m. c #4E513D",
"M. c #A0B25F",
"N. c #94B25A",
"B. c #454C40",
"V. c #1F3043",
"C. c #23394E",
"Z. c #1D2B3E",
"A. c #2C7467",
"S. c #295A66",
"D. c #252D32",
"F. c #8A964B",
"G. c #213449",
"H. c #2C6B63",
"J. c #2B5961",
"K. c #286369",
"L. c #28686B",
"P. c #1E3947",
"I. c #4D6A4B",
"U. c #999751",
"Y. c #295664",
"T. c #2A4D60",
"R. c #285F67",
"E. c #295162",
"W. c #263E53",
"Q. c #3C3F38",
"!. c #276C6D",
"~. c #45503A",
"^. c #46503A",
"/. c #266A5F",
"(. c #284359",
"). c #5A7044",
"_. c #51623C",
"`. c #254C59",
"'. c #20424E",
"]. c #342F39",
"[. c #6F8543",
"{. c #5A4646",
"}. c #92AE4C",
"|. c #718844",
" X c #4D3E41",
".X c #4B3D41",
"XX c #966E52",
"oX c #906A53",
"OX c #28363E",
"+X c #2D2A36",
"@X c #70554C",
"#X c #A57854",
"$X c #956E54",
"%X c #1E2131",
"&X c #4E6D5E",
"*X c #687956",
"=X c #AFB859",
"-X c #82A258",
";X c #507161",
":X c #866353",
">X c #483C3E",
",X c #544343",
"<X c #614B47",
"1X c #524643",
"2X c #8A894D",
"3X c #9BB05B",
"4X c #537563",
"5X c #767F53",
"6X c #5B735A",
"7X c #766856",
"8X c #2F2C36",
"9X c #3C4038",
"0X c #6F6048",
"qX c #7C8251",
"wX c #9C9951",
/* pixels */
"  . . . X o o . O O O + @ @ + O @ @ # $ % o & * = - $ % o o * ; : o o o o o > , O O O O O   . . ",
"o o o o o X . < 1 < 2 - 3 4 - - - 3 4 $ % o o o = 5 o o o o o o o o o o o o o 6   O O . o o o o ",
"7 7 7 7 7   O 8 - 8 - 9 o & - - * o & 9 * o o 0 q w o o o o o o o o o o o o o o . O O   7 7 7 7 ",
"O O O O   e 1 4 & o 3 & o o o o o o o o o o r t q y o o u O O   X o r i p o o o o o a s O O O O ",
"O O O . X % * & o o o 6 7 a o o o 7 7 6 o r d f q g 7 a O O O O   h d i i o o o o 6 7 s O O O   ",
"O . o o o o o o o o . O O O o o O O j i i i k q q q l O O O O i i i i i i O O O O O O O O O . o ",
"6 o a O O a o X .   O O O O . X O z i i i i x q q q c z O v i i i b j i i n v O O O O O 7 6 o u ",
"7 7 s O O s 7   O O O O O O O   j n i i i m M N B N q = j b i i i v O z n i b j O O O O 7 7 7 O ",
"V z z O O O O O O O O O j j i i i i n O O C N N M Z M A i i j n i O O O O O O O O O O O O V z v ",
"n i i S O O O O O O O O O O z z i i z O D N N N F N N N G H O V n S O O O O O O O O O O v n i b ",
"i i i j O O O O O O O   o 6 O O O 7 7 J C K L N M N K N P O O O O O O O O O O v i i z z i i i i ",
"i i i b j S O O O O . X o o . . . o I U Y L T N N N N R N C E O O O O O O O v b i i i i i i i i ",
"i i i i i i i b j W . X o o o o o o Q = ! ~ N ^ / ( N = / / U = n i i z z H i i i i i i i i i i ",
"i i i i i b j S O O O u o o o o . ) _ ` ' ] [ ^ ^ { } | = =  .i i i i ..X.X.o.i i i i i i i i i ",
"O.O.O.i i v O O O u . . o o o 6 O z +.@.#.U $.U U U U U ' G i i i i i %.- - &.*.z z z z *.O.O.=.",
"3 3 4 - -.O O 6 o o o o o o X   O E ' #.U U U U U U U U [ ;.i ..%.- -.- - - - - - - 8 1 4 3 3 - ",
"o o & - - :.. a 7 7 7 a o o = = >.$.^ N / U U K U R ' U U [  .%.- - 9 * * - - - * * 9 - & o o 9 ",
"o o o o o o 7 O O O O O . X ;.' ' ( N ,.c U ,.N ^ N <.U ^ U 1.2.3.o o o o * 4 & o o o o o o o o ",
"o o o o o o 7 . .   O O O   o = N 4.= >.U K N N N N N 5.N U Y 1.6.o o o o % & o o o o o o o o o ",
". X o o o o o o o o O O 7 s O O D 2.7.U U N N N K <.N ] T U U = o o o . . o o o X . o o X . X o ",
"O u X o o o o o o o O   o 6   8.9.0.U ^ N q.U / N 7.N N U U U w.X o a O O a o a u O . X u O u o ",
"O O . o o o o o o o . X o o = >.U U U U U T N U ^ ~ { R U Y U U ! o 7 O O 7 a s O O O   O O O o ",
"O O u . . u O   . . . . e.r.' ' ' t.U ' N N N U U ,.U U U U y.7.' 1.u.O O   u O O O O O O O O . ",
"O O O O O O O O O O O O = = 9.= i.7.' N N N ^ T U U U U 7.U C = 9.9.E O O O O O O O O O O O O O ",
"O O O O O O O O O O O O V n = 7.U ' N N R ,.U U U U U [ U ;.' ;.p.7 a.z V V H i n V O O O O O O ",
"O S j S O O O O O O O S n k ' U U T U N U U U U U U s.[ #.U d.= f.r d i n n n z i n O O O O S j ",
"H i i i H z n n V O j = = ' [ U U U U U U U U U U U U s.' U g.d.j j v v j S O O v j S O V H i i ",
"i i i i i i i i n j S h.;.1.' ' U U t.s.U U U s.U U U N U U U j.' 9.S S O O O S j j O O z i i i ",
"i i H z n i i n z z v O = k.' U K T U U U ^ U ' [ K N ^ U U U = ' ' ;.l.v j j b i i S O n i i z ",
"i z O O O O O O O O O l d.d.U R / U U K U / U 0.U N N N N U U z.;.1.1.x i i i i i i i i i i z O ",
"n V O O O O O O O ' ' ' U U { { t.U N / N U U 7.U N U T N R x.L ' ' c.p i n z n n z H i i n V O ",
"i i i i i n z a.v.b.1.' ' 1.n.d.U N / U U g.U U U / U U N ^ ' d.= m.o o M.N.O O O O O j i i i i ",
"i i p ) ) ) ) r & B.V.C.Z.d.d.U / U j.A.U S.7.U U U U ' U U U d.D.o o o o X .   O O O j i i i ) ",
". . . . . . . F.C.d.G.V.d.H.U R U J.H.U [ ' ' ] U U U ' ' t.U d.C.h.O O u . u O O O v j . . . . ",
"O O O O O O O O O d.d.' d.d.d.d.d.d.' s.[ ' s.U U ' g.s.' ' ' ' d.d.h.j j j j v O O O O O O O O ",
"O O O O O O O ! @.' ' ' S.d.d.d.K.' #.U ' ' 7.$.U ' ' ' ' L.P.L.d.d.@.= I.i i z O O O O O O O O ",
"O O O s 7 7 a U.;.' Y.T.Z.V.R.' ' ' ' ' R.' ' { 0.' ' ' ' E.' W.' K.' ' @.= r a.O O O O O O O O ",
"O O O s 7 o o a 7 7 o Q.K.E.E.d.d.d.L.L.K.!.' ' L.' ' K.' 7.s.0.= = ~.^.o o o a O O O O O O O O ",
"O O O O O O u O O 1.' ' E.d.d.Y.W.Z.' ' ' K.' Y.E.' ' ' @.{ $.U /.x.= U.r ) r o 7 7   O O O O O ",
". N.j S O O O O O O D 1.' ' 1.= = d.d.d.(.' L.d.d.' L.' w.@.' { ' ' = h d i d r o o X . . . N.j ",
"i i i i i i i z z z z ).= = h._.`.d.d.C.C.K.d.Y.d.W.d.' Y.G.= ! = = S i i i i i i i i i i i i i ",
"i i i i i i i i i i n z z V '.d.' ' = ! ' d.].T.' (.= Z.W.K.' ' O O O z z i i i i i i i i i i i ",
"i i i i i i z O O O O O O O [.= 9.= l >.' = {.= ' ' !.' = Z.= = O O O O O z i i O O z i i i i i ",
"O S j O O O O O O O O O O O O O O }.|.=  X.XXXoX= = = OX- - 1 O O s a o 6 z i z O O O S O O S S ",
"O O O O u . . u O O O O O O O O |.|.= +XoX@X#X$X%X].&X*X* * - + O a o o o =Xp n O O O O O O O O ",
"6 o o o o o o u O O < 8 - - 8 -X;X&X:X>X$X{.{.,X<X,X1X2Xo o o & 3Xo o o o o o 7 O O O   7 6 o o ",
"o o o o o a 7 : @ : 8 - * $ - - 4X5X6X7X8X9X2X0X2XqX2XwXo o o o o o o o o o o a u O O . o o o o ",
"O O O O O O O - $ 3 - * o o 3 3 o 2X2XqXqX2X2X2X2X2X2Xo X . . a o o o ) > o o o a 7   O O O O O "
};
